<svg width="157" height="28" viewBox="0 0 157 28" fill="currentColor" xmlns="http://www.w3.org/2000/svg">
    <path d="M51.7443 9.01465H40.9952V11.1798H38.8457V17.7047H40.9952V19.8698H51.7443V17.7047H53.8939V15.5395H47.4529V17.7047H45.2867V11.1798H47.4529V13.345H53.8939V11.1798H51.7443V9.01465Z"/>
    <path d="M68.9299 9.01465H58.1808V11.1798H56.0312V17.7047H58.1808V19.8698H68.9299V17.7047H71.0794V11.1798H68.9299V9.01465ZM64.6385 17.7047H62.4722V11.1798H64.6385V17.7047Z"/>
    <path d="M86.1154 9H73.2168V19.8845H79.6578V17.69H86.1132V15.5248H88.265V11.1652H86.1154V9ZM81.824 15.5248L79.6578 15.5212V11.1652H81.824V15.5248Z"/>
    <path d="M101.147 11.1652H99.0096V13.3596H96.8433V11.1652H94.6987L94.7059 9H90.4023V13.3596H92.5541V15.5248H94.7059V19.8844H101.147V15.5248H103.299V13.3596H105.451V9H101.147V11.1652Z"/>
    <path d="M120.487 9.01465H109.737V11.1798H107.588V17.7047H109.737V19.8698H120.487V17.7047H122.636V15.5395H116.195V17.7047H114.029V11.1798H116.195V13.345H122.636V11.1798H120.487V9.01465Z"/>
    <path d="M137.672 9H126.923V11.1652H124.773V19.8844H131.214V17.69H133.381V19.8844H139.822V11.1652H137.672V9ZM133.381 15.5248H131.214V11.1652H133.381V15.5248Z"/>
    <path d="M141.966 9.01465V13.3597H147.347V17.7047H145.199V19.8698H153.767V17.7047H151.619V13.3597H157V9.01465H141.966Z"/>
    <path d="M10.0508 26.7273V28H18.8454V26.7273H10.0508Z"/>
    <path d="M7.53861 1.27271H6.28223V2.5454H7.53861V1.27271Z"/>
    <path d="M8.79447 2.54541L7.53861 2.5454L7.53809 3.81815H8.79447V2.54541Z"/>
    <path d="M10.0513 3.81812L8.79447 3.81815L8.79492 5.09091H10.0513V3.81812Z"/>
    <path d="M10.0508 7.63638H11.3072V6.36363H17.589V7.63638H18.8454V5.09094L10.0513 5.09091L10.0508 7.63638Z"/>
    <path d="M7.53815 10.1818V8.90907H8.79454V6.3636H7.53815V5.09091H6.28177V3.81812H5.02539V10.1818H7.53815Z"/>
    <path d="M21.358 2.54541H20.1016V3.81815H21.358V2.54541Z"/>
    <path d="M25.127 1.27274V17.8182H27.6398V16.5455H26.3834V0H22.6143V1.27274H25.127Z"/>
    <path d="M22.6143 1.27274L21.3584 1.27271L21.358 2.54541L22.6147 2.5454L22.6143 1.27274Z"/>
    <path d="M20.1016 3.81815L18.8457 3.81812L18.8454 5.09094L20.102 5.09091L20.1016 3.81815Z"/>
    <path d="M21.358 10.1818H23.8707V3.81812H22.6143V5.09091H21.358V6.3636H20.1016V8.90907H21.358V10.1818Z"/>
    <path d="M3.76955 17.8182V1.27274L6.28223 1.27271L6.28227 0H2.51317V16.5455H1.25684V17.8182H3.76955Z"/>
    <path d="M1.25684 17.8182L0 17.8181V19.0909H1.25639L1.25684 17.8182Z"/>
    <path d="M7.53863 19.0909V17.8181L3.76955 17.8182L3.76953 19.0909H7.53863Z"/>
    <path d="M11.3072 12.7273H10.0508V14H11.3072V12.7273Z"/>
    <path d="M12.5641 16.5455V14H11.3072L11.3078 15.2728H8.79499V12.7273H7.53861V14H6.28223V15.2728H7.53861V16.5455H12.5641Z"/>
    <path d="M3.76955 20.3636L3.76953 19.0909H1.25639L1.25684 21.6364H2.51317V20.3636H3.76955Z"/>
    <path d="M8.79456 21.6364V20.3636L3.76955 20.3636L3.76908 21.6364L2.51317 21.6364L2.5127 22.9091H5.02541V21.6364H8.79456Z"/>
    <path d="M6.28177 22.9092L5.02541 22.9091L5.02539 24.1819H6.28177V22.9092Z"/>
    <path d="M11.3076 21.6365V22.9092H13.8203V21.6365H11.3076Z"/>
    <path d="M7.53861 24.1818L6.28177 24.1819L6.28223 25.4546H7.53861V24.1818Z"/>
    <path d="M7.53861 25.4546L7.53809 26.7273L10.0508 26.7273L10.0509 25.4546L7.53861 25.4546Z"/>
    <path d="M18.8452 12.7273H17.5889V14H18.8452V12.7273Z"/>
    <path d="M21.3585 16.5455V15.2728H22.6149V14H20.1021V15.2728H17.5894L17.5889 14L16.333 14V16.5455H21.3585Z"/>
    <path d="M21.3584 17.8181V19.0909H25.1275L25.127 17.8182L21.3584 17.8181Z"/>
    <path d="M28.897 17.8181L27.6398 17.8182L27.6406 19.0909H28.897V17.8181Z"/>
    <path d="M16.3326 20.3636V17.8181H12.5635V20.3636H13.8199L13.8203 21.6365L15.0762 21.6364V20.3636H16.3326Z"/>
    <path d="M15.0762 21.6364L15.0762 22.9092H17.5889V21.6365L15.0762 21.6364Z"/>
    <path d="M18.8457 25.4546L18.8454 26.7273L21.3585 26.7273V25.4546H18.8457Z"/>
    <path d="M25.1275 19.0909L25.127 20.3636H26.3833V21.6364H27.6397L27.6406 19.0909H25.1275Z"/>
    <path d="M25.127 20.3636L20.1016 20.3636V21.6364H23.8707V22.9091H26.3834L26.3833 21.6364L25.1271 21.6364L25.127 20.3636Z"/>
    <path d="M23.8707 22.9091L22.6143 22.9092V24.1819H23.8706L23.8707 22.9091Z"/>
    <path d="M22.6143 24.1819L21.3584 24.1818L21.3585 25.4546L22.6147 25.4546L22.6143 24.1819Z"/>
</svg>
