<svg fill="currentColor" xmlns="http://www.w3.org/2000/svg" viewBox="0 0 174.55 178.91">
  <path d="M31.15,106.88h112.26c3.56,0,6.45-2.89,6.45-6.45V6.45c0-3.56-2.89-6.45-6.45-6.45H31.15c-3.56,0-6.45,2.89-6.45,6.45v93.98c0,3.56,2.89,6.45,6.45,6.45ZM124.07,16.87h17.37v80.34h-17.37V16.87ZM104.81,16.87h17.37v80.34h-17.37V16.87ZM85.55,16.87h17.37v80.34h-17.37V16.87ZM66.29,16.87h17.37v80.34h-17.37V16.87ZM29.44,16.87h33.61v21.87H29.44v-21.87ZM29.44,46.1h33.61v21.87H29.44v-21.87ZM29.44,75.33h33.61v21.87H29.44v-21.87Z"/>
  <rect x="32.14" y="19.94" width="27.99" height="4.43"/>
  <rect x="32.14" y="27.41" width="27.99" height="8.6"/>
  <rect x="32.14" y="49" width="27.99" height="4.43"/>
  <rect x="32.14" y="56.47" width="27.99" height="8.6"/>
  <rect x="32.14" y="78.23" width="27.99" height="4.43"/>
  <rect x="32.14" y="85.71" width="27.99" height="8.6"/>
  <path d="M163.76,16.87h-2.98v101.21H13.78V16.87h-2.98c-5.96,0-10.8,4.83-10.8,10.8v98.83c0,5.96,4.83,10.8,10.8,10.8h59.64l1.42,19.83h-5.39c-11.79,0-21.34,9.55-21.34,21.34v.45h84.31v-.45c0-11.79-9.55-21.34-21.34-21.34h-5.39l1.42-19.83h59.64c5.96,0,10.8-4.83,10.8-10.8V27.67c0-5.96-4.83-10.8-10.8-10.8Z"/>
</svg>
