<svg viewBox="0 0 5 18" fill="currentColor" xmlns="http://www.w3.org/2000/svg">
<path d="M9.91821e-05 18L0 7H5L5.0001 18H9.91821e-05ZM2.5001 4.12364C1.82377 4.12364 1.24406 3.92182 0.760969 3.51818C0.277877 3.11455 0.036331 2.62909 0.036331 2.06182C0.036331 1.49455 0.277877 1.00909 0.760969 0.605454C1.24406 0.201818 1.82377 0 2.5001 0C3.18247 0 3.76218 0.201818 4.23923 0.605454C4.72232 1.00909 4.96387 1.49455 4.96387 2.06182C4.96387 2.62909 4.72232 3.11455 4.23923 3.51818C3.76218 3.92182 3.18247 4.12364 2.5001 4.12364Z"/>
</svg>
