<svg viewBox="0 0 17 17" fill="currentColor" xmlns="http://www.w3.org/2000/svg">
<path fill-rule="evenodd" clip-rule="evenodd" d="M10.0059 2.22485e-06L12.6309 2.20845e-06L12.6309 4L17.0059 4L17.0059 7L12.6309 7L10.0059 7L10.0059 4L10.0059 2.22485e-06ZM17.0059 9.99988L17.0059 12.6249L13.0059 12.6249L13.0059 16.9999L10.0059 16.9999L10.0059 12.6249L10.0059 9.99988L13.0059 9.99988L17.0059 9.99988ZM4.37891 16.9999L7.00391 16.9999L7.00391 12.9999L7.00391 9.99988L4.37891 9.99988L0.00390629 9.99988L0.00390625 12.9999L4.37891 12.9999L4.37891 16.9999ZM-1.22394e-06 7.00012L-7.64971e-07 4.37513L4 4.37513L4 0.000124995L7 0.000125519L7 4.37513L7 7.00013L4 7.00012L-1.22394e-06 7.00012Z"/>
</svg>
