<svg viewBox="0 0 16 16" fill="currentColor" xmlns="http://www.w3.org/2000/svg">
<path fill-rule="evenodd" clip-rule="evenodd" d="M6 3L14 3C14.5523 3 15 2.55228 15 2C15 1.44772 14.5523 1 14 1L6 0.999998V3ZM14 4C15.1046 4 16 3.10457 16 2C16 0.895431 15.1046 0 14 0H5H2C0.895431 0 0 0.89543 0 2C0 3.10457 0.895431 4 2 4L5 4L14 4ZM0 8C0 6.89543 0.895431 6 2 6L11 6L14 6C15.1046 6 16 6.89543 16 8C16 9.10457 15.1046 10 14 10L11 10L2 10C0.89543 10 0 9.10457 0 8ZM2 16C0.895431 16 0 15.1046 0 14C0 12.8954 0.895431 12 2 12L8 12H14C15.1046 12 16 12.8954 16 14C16 15.1046 15.1046 16 14 16H8L2 16ZM9 15L14 15C14.5523 15 15 14.5523 15 14C15 13.4477 14.5523 13 14 13L9 13V15ZM12 7L14 7C14.5523 7 15 7.44772 15 8C15 8.55229 14.5523 9 14 9L12 9V7Z" />
</svg>
