<svg viewBox="0 0 28 18" fill="currentColor" xmlns="http://www.w3.org/2000/svg">
<path fill-rule="evenodd" clip-rule="evenodd" d="M8 0.25C8 0.111929 8.11193 0 8.25 0H19.75C19.8881 0 20 0.111929 20 0.25V3.75C20 3.88807 19.8881 4 19.75 4H8.25C8.11193 4 8 3.88807 8 3.75V0.25ZM13.5 9.5H3.5V13H4.5V10.5H23.5V13H24.5V9.5H14.5V5H13.5V9.5ZM10.25 14C10.1119 14 10 14.1119 10 14.25V17.75C10 17.8881 10.1119 18 10.25 18H17.75C17.8881 18 18 17.8881 18 17.75V14.25C18 14.1119 17.8881 14 17.75 14H10.25ZM0 14.25C0 14.1119 0.111929 14 0.25 14H7.75C7.88807 14 8 14.1119 8 14.25V17.75C8 17.8881 7.88807 18 7.75 18H0.25C0.111929 18 0 17.8881 0 17.75V14.25ZM20.25 14C20.1119 14 20 14.1119 20 14.25V17.75C20 17.8881 20.1119 18 20.25 18H27.75C27.8881 18 28 17.8881 28 17.75V14.25C28 14.1119 27.8881 14 27.75 14H20.25Z" />
</svg>
