<svg viewBox="0 0 16 16" fill="currentColor" xmlns="http://www.w3.org/2000/svg">
<path fill-rule="evenodd" clip-rule="evenodd" d="M6.25 2C5.12283 2 4.04183 2.44777 3.2448 3.2448C2.44777 4.04183 2 5.12283 2 6.25C2 6.80812 2.10993 7.36077 2.32351 7.8764C2.53709 8.39204 2.85015 8.86055 3.2448 9.2552C3.63945 9.64985 4.10796 9.96291 4.6236 10.1765C5.13923 10.3901 5.69188 10.5 6.25 10.5C6.80812 10.5 7.36077 10.3901 7.8764 10.1765C8.39204 9.96291 8.86055 9.64985 9.2552 9.2552C9.64985 8.86055 9.96291 8.39204 10.1765 7.8764C10.3901 7.36077 10.5 6.80812 10.5 6.25C10.5 5.12283 10.0522 4.04183 9.2552 3.2448C8.45817 2.44777 7.37717 2 6.25 2ZM1.83058 1.83058C3.00268 0.65848 4.5924 0 6.25 0C7.9076 0 9.49731 0.65848 10.6694 1.83058C11.8415 3.00268 12.5 4.5924 12.5 6.25C12.5 7.07076 12.3383 7.88349 12.0242 8.64177C11.8386 9.08988 11.6019 9.51378 11.3196 9.90538L15.2071 13.7929C15.5976 14.1834 15.5976 14.8166 15.2071 15.2071C14.8166 15.5976 14.1834 15.5976 13.7929 15.2071L9.90538 11.3196C9.51378 11.6019 9.08988 11.8386 8.64177 12.0242C7.88349 12.3383 7.07076 12.5 6.25 12.5C5.42924 12.5 4.61651 12.3383 3.85823 12.0242C3.09994 11.7102 2.41095 11.2498 1.83058 10.6694C1.25022 10.0891 0.789845 9.40006 0.475753 8.64177C0.161661 7.88349 0 7.07076 0 6.25C0 4.5924 0.65848 3.00268 1.83058 1.83058Z" />
</svg>
