<svg viewBox="0 0 17 16" fill="currentColor" xmlns="http://www.w3.org/2000/svg">
<path fill-rule="evenodd" clip-rule="evenodd" d="M0 1C0 0.447715 0.447715 0 1 0H11.8333C12.3856 0 12.8333 0.447715 12.8333 1C12.8333 1.55228 12.3856 2 11.8333 2H1C0.447715 2 0 1.55228 0 1ZM0 4.33333C0 3.78105 0.447715 3.33333 1 3.33333H8.5C9.05228 3.33333 9.5 3.78105 9.5 4.33333C9.5 4.88562 9.05228 5.33333 8.5 5.33333H1C0.447715 5.33333 0 4.88562 0 4.33333ZM12.6667 3.33333C13.219 3.33333 13.6667 3.78105 13.6667 4.33333V11.9191L15.2929 10.2929C15.6834 9.90237 16.3166 9.90237 16.7071 10.2929C17.0976 10.6834 17.0976 11.3166 16.7071 11.7071L13.3738 15.0404C13.1793 15.2349 12.9246 15.3326 12.6697 15.3333C12.6687 15.3333 12.6677 15.3333 12.6667 15.3333C12.6657 15.3333 12.6647 15.3333 12.6637 15.3333C12.5292 15.3329 12.4009 15.306 12.2839 15.2575C12.1668 15.209 12.0571 15.1374 11.9617 15.0426M11.9591 15.0399L8.62623 11.7071C8.2357 11.3166 8.2357 10.6834 8.62623 10.2929C9.01675 9.90237 9.64992 9.90237 10.0404 10.2929L11.6667 11.9191V4.33333C11.6667 3.78105 12.1144 3.33333 12.6667 3.33333M0 7.66667C0 7.11438 0.447715 6.66667 1 6.66667H8.5C9.05228 6.66667 9.5 7.11438 9.5 7.66667C9.5 8.21895 9.05228 8.66667 8.5 8.66667H1C0.447715 8.66667 0 8.21895 0 7.66667Z" />
</svg>
