<svg viewBox="0 0 24 24" fill="currentColor" xmlns="http://www.w3.org/2000/svg">
<path fill-rule="evenodd" clip-rule="evenodd" d="M11.9999 21.6C14.546 21.6 16.9878 20.5886 18.7881 18.7882C20.5885 16.9879 21.5999 14.5461 21.5999 12C21.5999 9.45395 20.5885 7.01215 18.7881 5.2118C16.9878 3.41145 14.546 2.40002 11.9999 2.40002C9.45382 2.40002 7.01203 3.41145 5.21168 5.2118C3.41133 7.01215 2.3999 9.45395 2.3999 12C2.3999 14.5461 3.41133 16.9879 5.21168 18.7882C7.01203 20.5886 9.45382 21.6 11.9999 21.6ZM13.1999 8.40002C13.1999 8.08176 13.0735 7.77654 12.8484 7.5515C12.6234 7.32645 12.3182 7.20002 11.9999 7.20002C11.6816 7.20002 11.3764 7.32645 11.1514 7.5515C10.9263 7.77654 10.7999 8.08176 10.7999 8.40002V12.7032L9.2483 11.1516C9.02198 10.933 8.71886 10.8121 8.40422 10.8148C8.08958 10.8176 7.78861 10.9438 7.56612 11.1662C7.34363 11.3887 7.21743 11.6897 7.21469 12.0043C7.21196 12.319 7.33291 12.6221 7.5515 12.8484L11.1515 16.4484C11.3765 16.6734 11.6817 16.7998 11.9999 16.7998C12.3181 16.7998 12.6233 16.6734 12.8483 16.4484L16.4483 12.8484C16.6669 12.6221 16.7878 12.319 16.7851 12.0043C16.7824 11.6897 16.6562 11.3887 16.4337 11.1662C16.2112 10.9438 15.9102 10.8176 15.5956 10.8148C15.2809 10.8121 14.9778 10.933 14.7515 11.1516L13.1999 12.7032V8.40002Z"/>
</svg>
