<svg viewBox="0 0 24 24" fill="currentColor" xmlns="http://www.w3.org/2000/svg">
<path fill-rule="evenodd" clip-rule="evenodd" d="M12 20C16.4183 20 20 16.4183 20 12C20 7.58172 16.4183 4 12 4C7.58172 4 4 7.58172 4 12C4 16.4183 7.58172 20 12 20ZM12 22C17.5228 22 22 17.5228 22 12C22 6.47715 17.5228 2 12 2C6.47715 2 2 6.47715 2 12C2 17.5228 6.47715 22 12 22Z" />
<path fill-rule="evenodd" clip-rule="evenodd" d="M16.843 10.211C16.951 10.07 17 9.911 17 9.755C17 9.366 16.694 9 16.251 9H7.75C7.305 9 7 9.367 7 9.755C7 9.912 7.05 10.071 7.159 10.212C8.362 11.766 10.411 14.411 11.417 15.71C11.559 15.894 11.777 16 12.009 16C12.239 16 12.458 15.893 12.6 15.709C13.602 14.41 15.644 11.764 16.843 10.211Z" />
</svg>
