<svg viewBox="0 0 24 24" fill="currentColor" xmlns="http://www.w3.org/2000/svg">
<path fill-rule="evenodd" clip-rule="evenodd" d="M21.7747 11.4561C22.0751 11.7565 22.0751 12.2435 21.7747 12.5439L17.1593 17.1593C16.8589 17.4597 16.3719 17.4597 16.0715 17.1593C15.7711 16.8589 15.7711 16.3719 16.0715 16.0715L19.3737 12.7692L7.38461 12.7692C6.95978 12.7692 6.61538 12.4248 6.61538 12C6.61538 11.5752 6.95978 11.2308 7.38461 11.2308L19.3737 11.2308L16.0715 7.92854C15.7711 7.62814 15.7711 7.14109 16.0715 6.84069C16.3719 6.54028 16.8589 6.54028 17.1593 6.84069L21.7747 11.4561ZM8.15385 2.76923C8.15385 3.19406 7.80945 3.53846 7.38461 3.53846L5.07692 3.53846C4.22725 3.53846 3.53846 4.22725 3.53846 5.07692L3.53846 18.9231C3.53846 19.7727 4.22725 20.4615 5.07692 20.4615L7.38461 20.4615C7.80945 20.4615 8.15384 20.8059 8.15384 21.2308C8.15384 21.6556 7.80945 22 7.38461 22L5.07692 22C3.37758 22 2 20.6224 2 18.9231L2 5.07692C2 3.37758 3.37758 2 5.07692 2L7.38461 2C7.80945 2 8.15385 2.3444 8.15385 2.76923Z" stroke="currentColor" stroke-width="0.5" stroke-linecap="round" stroke-linejoin="round"/>
</svg>
