<svg width="24" height="24" viewBox="0 0 24 24" fill="currentColor" xmlns="http://www.w3.org/2000/svg">
<path d="M19 4C20.1045 4 21 4.89546 21 6V18L20.9893 18.2041C20.8937 19.1455 20.1456 19.8938 19.2041 19.9893L19 20H5L4.7959 19.9893C3.85444 19.8938 3.10634 19.1455 3.01074 18.2041L3 18V6C3.00003 4.89546 3.89545 4 5 4H19ZM6 6C5.44774 6 5.00003 6.44774 5 7V17C5 17.5523 5.44772 18 6 18H18C18.5523 18 19 17.5523 19 17V7C19 6.44774 18.5523 6 18 6H6Z"/>
<path d="M16.6773 11.2611L13.5591 8.30587C13.1288 7.89804 12.4303 7.89804 12 8.30588C11.5697 8.71371 11.5697 9.3757 12 9.78353L13.2364 10.9553L8.10228 10.9553C7.49268 10.9553 7 11.4223 7 12C7 12.2882 7.12316 12.5497 7.32273 12.7389C7.52229 12.928 7.79825 13.0447 8.10227 13.0447L13.2364 13.0447L12 14.2165C11.5697 14.6243 11.5697 15.2863 12 15.6941C12.4303 16.102 13.1288 16.102 13.5591 15.6941L16.6773 12.7388C17.1076 12.331 17.1076 11.669 16.6773 11.2611Z"/>
</svg>
