<svg viewBox="0 0 24 24" fill="currentColor" xmlns="http://www.w3.org/2000/svg">
<path fill-rule="evenodd" clip-rule="evenodd" d="M11.9999 21.6C14.546 21.6 16.9878 20.5886 18.7881 18.7882C20.5885 16.9879 21.5999 14.5461 21.5999 12C21.5999 9.45395 20.5885 7.01215 18.7881 5.2118C16.9878 3.41145 14.546 2.40002 11.9999 2.40002C9.45382 2.40002 7.01203 3.41145 5.21168 5.2118C3.41133 7.01215 2.3999 9.45395 2.3999 12C2.3999 14.5461 3.41133 16.9879 5.21168 18.7882C7.01203 20.5886 9.45382 21.6 11.9999 21.6ZM16.4483 11.1516L12.8483 7.55162C12.6233 7.32666 12.3181 7.20028 11.9999 7.20028C11.6817 7.20028 11.3765 7.32666 11.1515 7.55162L7.5515 11.1516C7.33291 11.3779 7.21196 11.6811 7.21469 11.9957C7.21743 12.3103 7.34363 12.6113 7.56612 12.8338C7.78861 13.0563 8.08958 13.1825 8.40422 13.1852C8.71886 13.188 9.02198 13.067 9.2483 12.8484L10.7999 11.2968V15.6C10.7999 15.9183 10.9263 16.2235 11.1514 16.4486C11.3764 16.6736 11.6816 16.8 11.9999 16.8C12.3182 16.8 12.6234 16.6736 12.8484 16.4486C13.0735 16.2235 13.1999 15.9183 13.1999 15.6V11.2968L14.7515 12.8484C14.9778 13.067 15.2809 13.188 15.5956 13.1852C15.9102 13.1825 16.2112 13.0563 16.4337 12.8338C16.6562 12.6113 16.7824 12.3103 16.7851 11.9957C16.7878 11.6811 16.6669 11.3779 16.4483 11.1516Z"/>
</svg>
