<svg viewBox="0 0 24 24" fill="none" xmlns="http://www.w3.org/2000/svg">
<path fill-rule="evenodd" clip-rule="evenodd" d="M10 6C10.4591 6 10.8667 6.29379 11.0119 6.72936L12.5766 11.4234L17.2706 12.9881C17.7062 13.1333 18 13.5409 18 14C18 14.4591 17.7062 14.8667 17.2706 15.0119L12.5766 16.5766L11.0119 21.2706C10.8667 21.7062 10.4591 22 10 22C9.54087 22 9.13326 21.7062 8.98807 21.2706L7.42339 16.5766L2.72936 15.0119C2.29379 14.8667 2 14.4591 2 14C2 13.5409 2.29379 13.1333 2.72936 12.9881L7.42339 11.4234L8.98807 6.72936C9.13326 6.29379 9.54087 6 10 6ZM10 10.4398L9.2786 12.604C9.17243 12.9225 8.92249 13.1724 8.60398 13.2786L6.43976 14L8.60398 14.7214C8.92249 14.8276 9.17243 15.0775 9.2786 15.396L10 17.5602L10.7214 15.396C10.8276 15.0775 11.0775 14.8276 11.396 14.7214L13.5602 14L11.396 13.2786C11.0775 13.1724 10.8276 12.9225 10.7214 12.604L10 10.4398Z" fill="url(#paint0_linear_3513_22871)"/>
<path fill-rule="evenodd" clip-rule="evenodd" d="M18 2C18.252 2 18.4757 2.16123 18.5553 2.40026L19.3164 4.68357L21.5997 5.44467C21.8388 5.52435 22 5.74804 22 6C22 6.25196 21.8388 6.47565 21.5997 6.55533L19.3164 7.31643L18.5553 9.59974C18.4757 9.83877 18.252 10 18 10C17.748 10 17.5244 9.83877 17.4447 9.59974L16.6836 7.31643L14.4003 6.55533C14.1612 6.47565 14 6.25196 14 6C14 5.74804 14.1612 5.52435 14.4003 5.44467L16.6836 4.68357L17.4447 2.40026C17.5244 2.16123 17.748 2 18 2Z" fill="url(#paint1_linear_3513_22871)"/>
<defs>
<linearGradient id="paint0_linear_3513_22871" x1="9.85" y1="26.5" x2="23.3236" y2="19.3559" gradientUnits="userSpaceOnUse">
<stop stop-color="#F05252"/>
<stop offset="0.5" stop-color="#9A7AE1"/>
<stop offset="1" stop-color="#16BDCA"/>
</linearGradient>
<linearGradient id="paint1_linear_3513_22871" x1="9.85" y1="26.5" x2="23.3236" y2="19.3559" gradientUnits="userSpaceOnUse">
<stop stop-color="#F05252"/>
<stop offset="0.5" stop-color="#9A7AE1"/>
<stop offset="1" stop-color="#16BDCA"/>
</linearGradient>
</defs>
</svg>
