<svg xmlns="http://www.w3.org/2000/svg" width="21" height="21" viewBox="0 0 21 21" fill="currentColor">
    <g filter="url(#filter0_d_2518_77114)">
        <path fill-rule="evenodd" clip-rule="evenodd" d="M7.5 4.6C7.93043 4.6 8.31257 4.87543 8.44868 5.28377L9.91557 9.68443L14.3162 11.1513C14.7246 11.2874 15 11.6696 15 12.1C15 12.5304 14.7246 12.9126 14.3162 13.0487L9.91557 14.5156L8.44868 18.9162C8.31257 19.3246 7.93043 19.6 7.5 19.6C7.06957 19.6 6.68743 19.3246 6.55132 18.9162L5.08443 14.5156L0.683772 13.0487C0.27543 12.9126 0 12.5304 0 12.1C0 11.6696 0.27543 11.2874 0.683772 11.1513L5.08443 9.68443L6.55132 5.28377C6.68743 4.87543 7.06957 4.6 7.5 4.6ZM7.5 8.76227L6.82368 10.7912C6.72415 11.0898 6.48983 11.3241 6.19123 11.4237L4.16228 12.1L6.19123 12.7763C6.48983 12.8758 6.72415 13.1102 6.82368 13.4088L7.5 15.4377L8.17632 13.4088C8.27585 13.1102 8.51017 12.8758 8.80877 12.7763L10.8377 12.1L8.80877 11.4237C8.51017 11.3241 8.27585 11.0898 8.17632 10.7912L7.5 8.76227Z"/>
        <path fill-rule="evenodd" clip-rule="evenodd" d="M15.5 0.999996C15.7583 0.999996 15.9875 1.16525 16.0692 1.41026L16.8493 3.75065L19.1897 4.53079C19.4347 4.61245 19.6 4.84174 19.6 5.1C19.6 5.35825 19.4347 5.58754 19.1897 5.66921L16.8493 6.44934L16.0692 8.78973C15.9875 9.03474 15.7583 9.2 15.5 9.2C15.2417 9.2 15.0125 9.03474 14.9308 8.78973L14.1507 6.44934L11.8103 5.66921C11.5653 5.58754 11.4 5.35825 11.4 5.1C11.4 4.84174 11.5653 4.61245 11.8103 4.53079L14.1507 3.75065L14.9308 1.41026C15.0125 1.16525 15.2417 0.999996 15.5 0.999996Z" />
    </g>
    <defs>
        <filter id="filter0_d_2518_77114" x="0" y="0" width="20.5" height="20.5" filterUnits="userSpaceOnUse" color-interpolation-filters="sRGB">
            <feFlood flood-opacity="0" result="BackgroundImageFix"/>
            <feColorMatrix in="SourceAlpha" type="matrix" values="0 0 0 0 0 0 0 0 0 0 0 0 0 0 0 0 0 0 127 0" result="hardAlpha"/>
            <feOffset dx="0.5" dy="0.5"/>
            <feColorMatrix type="matrix" values="0 0 0 0 0 0 0 0 0 0 0 0 0 0 0 0 0 0 0.28 0"/>
            <feBlend mode="normal" in2="BackgroundImageFix" result="effect1_dropShadow_2518_77114"/>
            <feBlend mode="normal" in="SourceGraphic" in2="effect1_dropShadow_2518_77114" result="shape"/>
        </filter>
    </defs>
</svg>
