<svg fill="none" xmlns="http://www.w3.org/2000/svg">
<path fill-rule="evenodd" clip-rule="evenodd" d="M10 6.5C10.4591 6.5 10.8667 6.79379 11.0119 7.22936L12.5766 11.9234L17.2706 13.4881C17.7062 13.6333 18 14.0409 18 14.5C18 14.9591 17.7062 15.3667 17.2706 15.5119L12.5766 17.0766L11.0119 21.7706C10.8667 22.2062 10.4591 22.5 10 22.5C9.54087 22.5 9.13326 22.2062 8.98807 21.7706L7.42339 17.0766L2.72936 15.5119C2.29379 15.3667 2 14.9591 2 14.5C2 14.0409 2.29379 13.6333 2.72936 13.4881L7.42339 11.9234L8.98807 7.22936C9.13326 6.79379 9.54087 6.5 10 6.5ZM10 10.9398L9.2786 13.104C9.17243 13.4225 8.92249 13.6724 8.60398 13.7786L6.43976 14.5L8.60398 15.2214C8.92249 15.3276 9.17243 15.5775 9.2786 15.896L10 18.0602L10.7214 15.896C10.8276 15.5775 11.0775 15.3276 11.396 15.2214L13.5602 14.5L11.396 13.7786C11.0775 13.6724 10.8276 13.4225 10.7214 13.104L10 10.9398Z" fill="url(#paint0_linear_3469_26414)"/>
<path fill-rule="evenodd" clip-rule="evenodd" d="M18 2.5C18.252 2.5 18.4757 2.66123 18.5553 2.90026L19.3164 5.18357L21.5997 5.94467C21.8388 6.02435 22 6.24804 22 6.5C22 6.75196 21.8388 6.97565 21.5997 7.05533L19.3164 7.81643L18.5553 10.0997C18.4757 10.3388 18.252 10.5 18 10.5C17.748 10.5 17.5244 10.3388 17.4447 10.0997L16.6836 7.81643L14.4003 7.05533C14.1612 6.97565 14 6.75196 14 6.5C14 6.24804 14.1612 6.02435 14.4003 5.94467L16.6836 5.18357L17.4447 2.90026C17.5244 2.66123 17.748 2.5 18 2.5Z" fill="url(#paint1_linear_3469_26414)"/>
<defs>
<linearGradient id="paint0_linear_3469_26414" x1="9.85" y1="27" x2="23.3236" y2="19.8559" gradientUnits="userSpaceOnUse">
<stop stop-color="#F05252"/>
<stop offset="0.5" stop-color="#9A7AE1"/>
<stop offset="1" stop-color="#16BDCA"/>
</linearGradient>
<linearGradient id="paint1_linear_3469_26414" x1="9.85" y1="27" x2="23.3236" y2="19.8559" gradientUnits="userSpaceOnUse">
<stop stop-color="#F05252"/>
<stop offset="0.5" stop-color="#9A7AE1"/>
<stop offset="1" stop-color="#16BDCA"/>
</linearGradient>
</defs>
</svg>
