<svg width="15" height="14" viewBox="0 0 15 14" fill="currentColor" xmlns="http://www.w3.org/2000/svg">
    <path d="M13 0C14.1045 1.03083e-07 14.9998 0.89558 15 2V11.334C15 12.4385 14.1045 13.334 13 13.334H2C0.895458 13.334 4.40594e-05 12.4385 0 11.334V2C0.000175861 0.89558 0.895539 3.06028e-08 2 0H13ZM2.5 7.16699C1.94772 7.16699 1.5 7.61471 1.5 8.16699C1.50012 8.71918 1.94779 9.16699 2.5 9.16699H8.33301C8.88522 9.16699 9.33289 8.71918 9.33301 8.16699C9.33301 7.61471 8.88529 7.16699 8.33301 7.16699H2.5ZM2.5 3.61133C1.94772 3.61133 1.5 4.05904 1.5 4.61133C1.50016 5.16347 1.94782 5.61133 2.5 5.61133H11.667C12.219 5.61115 12.6668 5.16336 12.667 4.61133C12.667 4.05915 12.2191 3.6115 11.667 3.61133H2.5Z"/>
</svg>
