<svg viewBox="0 0 24 24" fill="currentColor" xmlns="http://www.w3.org/2000/svg">
<path d="M16.7998 3C17.4363 3 18.047 3.25304 18.4971 3.70312C18.9471 4.15321 19.2002 4.76391 19.2002 5.40039V18.5996C19.2002 19.2361 18.9471 19.8468 18.4971 20.2969C18.047 20.747 17.4363 21 16.7998 21H7.2002C6.56368 21 5.95302 20.747 5.50293 20.2969C5.05292 19.8468 4.7998 19.2361 4.7998 18.5996V5.40039C4.7998 4.76393 5.05292 4.1532 5.50293 3.70312C5.95302 3.25304 6.56368 3 7.2002 3H16.7998ZM8.2002 14.4004C7.88206 14.4004 7.57658 14.5261 7.35156 14.751C7.1266 14.9759 7.00009 15.2815 7 15.5996C7 15.9178 7.12657 16.2232 7.35156 16.4482C7.57661 16.6733 7.88194 16.7998 8.2002 16.7998H8.21191C8.53017 16.7998 8.8355 16.6733 9.06055 16.4482C9.28551 16.2232 9.41211 15.9178 9.41211 15.5996C9.41202 15.2815 9.28551 14.9759 9.06055 14.751C8.83552 14.5261 8.53007 14.4004 8.21191 14.4004H8.2002ZM11.7998 14.4004C11.4817 14.4004 11.1762 14.526 10.9512 14.751C10.7262 14.9759 10.5997 15.2815 10.5996 15.5996C10.5996 15.9177 10.7263 16.2232 10.9512 16.4482C11.1762 16.6732 11.4816 16.7998 11.7998 16.7998H15.7998C16.1181 16.7998 16.4234 16.6733 16.6484 16.4482C16.8734 16.2232 17 15.9178 17 15.5996C16.9999 15.2815 16.8734 14.9759 16.6484 14.751C16.4234 14.5261 16.1179 14.4004 15.7998 14.4004H11.7998ZM8.2002 10.7998C7.88198 10.7998 7.5766 10.9264 7.35156 11.1514C7.12652 11.3764 7 11.6817 7 12C7 12.3183 7.12652 12.6236 7.35156 12.8486C7.5766 13.0736 7.88198 13.2002 8.2002 13.2002H8.21191C8.53015 13.2002 8.83551 13.0736 9.06055 12.8486C9.28559 12.6236 9.41211 12.3183 9.41211 12C9.41211 11.6817 9.28559 11.3764 9.06055 11.1514C8.83551 10.9263 8.53016 10.7998 8.21191 10.7998H8.2002ZM11.7998 10.7998C11.4816 10.7999 11.1762 10.9264 10.9512 11.1514C10.7262 11.3764 10.5996 11.6818 10.5996 12C10.5996 12.3182 10.7262 12.6236 10.9512 12.8486C11.1762 13.0736 11.4816 13.2001 11.7998 13.2002H15.7998C16.118 13.2002 16.4234 13.0736 16.6484 12.8486C16.8735 12.6236 17 12.3183 17 12C17 11.6817 16.8735 11.3764 16.6484 11.1514C16.4234 10.9264 16.118 10.7998 15.7998 10.7998H11.7998ZM8.2002 7.2002C7.88194 7.2002 7.57661 7.32671 7.35156 7.55176C7.12658 7.77679 7 8.08217 7 8.40039C7.0001 8.71851 7.12661 9.02407 7.35156 9.24902C7.57658 9.47389 7.88207 9.59961 8.2002 9.59961H8.21191C8.53006 9.59961 8.83553 9.47392 9.06055 9.24902C9.2855 9.02407 9.41201 8.71851 9.41211 8.40039C9.41211 8.0822 9.2855 7.77679 9.06055 7.55176C8.8355 7.32671 8.53017 7.2002 8.21191 7.2002H8.2002ZM11.7998 7.2002C11.4816 7.20025 11.1762 7.32676 10.9512 7.55176C10.7263 7.77677 10.5996 8.08227 10.5996 8.40039C10.5997 8.71851 10.7262 9.02407 10.9512 9.24902C11.1762 9.47396 11.4817 9.59956 11.7998 9.59961H15.7998C16.1179 9.59961 16.4234 9.47389 16.6484 9.24902C16.8734 9.02407 16.9999 8.71851 17 8.40039C17 8.08217 16.8734 7.77679 16.6484 7.55176C16.4234 7.32671 16.1181 7.2002 15.7998 7.2002H11.7998Z"/>
</svg>
