<svg viewBox="0 0 16 16" fill="currentColor" xmlns="http://www.w3.org/2000/svg">
<g fill="none" stroke="currentColor" stroke-linecap="round" stroke-linejoin="round">
<path d="M8 4.02008V12.6867M8 12.6867C9.968 12.1461 11.232 11.9761 13.3133 12.0047C13.6893 12.0094 14 11.7087 14 11.3334V4.00008C14.0006 3.82687 13.933 3.66037 13.8119 3.53653C13.6908 3.41268 13.5259 3.34141 13.3527 3.33808C11.1433 3.30275 9.87934 3.46608 8 4.02008C6.12067 3.46608 4.85667 3.30275 2.64734 3.33808C2.47415 3.34141 2.30921 3.41268 2.18811 3.53653C2.06701 3.66037 1.99945 3.82687 2 4.00008V11.3334C2 11.7087 2.31067 12.0094 2.68667 12.0047C4.768 11.9761 6.032 12.1461 8 12.6867Z"/>
</g>
</svg>
