<svg viewBox="0 0 16 16" fill="currentColor" xmlns="http://www.w3.org/2000/svg">
<g fill="none" stroke="currentColor" stroke-linecap="round" stroke-linejoin="round">
<path d="M3.33203 12.6667V2.66667C3.33203 2.48986 3.40227 2.32029 3.52729 2.19526C3.65232 2.07024 3.82189 2 3.9987 2H11.9987C12.1755 2 12.3451 2.07024 12.4701 2.19526C12.5951 2.32029 12.6654 2.48986 12.6654 2.66667V11.3333H4.66536C4.31174 11.3333 3.9726 11.4738 3.72256 11.7239C3.47251 11.9739 3.33203 12.313 3.33203 12.6667ZM3.33203 12.6667C3.33203 13.0203 3.47251 13.3594 3.72256 13.6095C3.9726 13.8595 4.31174 14 4.66536 14H12.6654M5.9987 2V11.3333M10.6654 11.3333V14"/>
</g>
</svg>
