<svg viewBox="0 0 19.9993 20.0029" fill="none" xmlns="http://www.w3.org/2000/svg">
  <path d="M5.50222 0C6.87871 3.04454e-05 8.17501 0.301992 9.16237 0.84082C10.112 1.35915 11.0003 2.24001 11.0003 3.45508V9.41602C11.9593 8.89024 13.1865 8.5684 14.5012 8.56836C15.8777 8.56836 17.174 8.87037 18.1614 9.40918C19.1111 9.92746 19.9992 10.8084 19.9993 12.0234V16.5479C19.9992 17.7628 19.111 18.6428 18.1614 19.1611C17.174 19.7 15.8779 20.0029 14.5012 20.0029C13.1247 20.0029 11.8285 19.7 10.8411 19.1611C10.5472 19.0007 10.2598 18.8051 10.0022 18.5762C9.74439 18.8055 9.4566 19.0015 9.16237 19.1621C8.17499 19.701 6.87875 20.0029 5.50222 20.0029C4.12574 20.0029 2.82942 19.7009 1.84206 19.1621C0.892437 18.6438 0.00416841 17.7629 0.00416841 16.5479V3.55273C0.00385045 3.54884 0.00342408 3.54525 0.00319185 3.54199C0.00160142 3.51949 0.0004853 3.50037 0.000262162 3.48926C-0.000170203 3.46722 6.41382e-06 3.44926 0.000262162 3.43945C0.000806243 3.41863 0.00227403 3.4002 0.00319185 3.38672C0.00411282 3.37324 0.00574063 3.35403 0.00807466 3.33301C0.00917694 3.3231 0.0113772 3.30446 0.0149106 3.28223C0.0166979 3.27101 0.0198729 3.25206 0.0246762 3.22949C0.0271649 3.21782 0.0304845 3.20137 0.0354184 3.18262C0.0366313 3.17803 0.03865 3.17287 0.0403012 3.16699C0.24399 2.15938 1.05407 1.38014 1.93874 0.880859C2.90654 0.334732 4.15905 2.962e-05 5.50222 0ZM2.00417 16.5479C2.00417 16.6886 2.12269 17.036 2.80104 17.4062C3.44166 17.7557 4.39478 18.0029 5.50222 18.0029C6.60988 18.0029 7.56375 17.7559 8.20436 17.4062C8.88239 17.0361 9.00026 16.6885 9.00026 16.5479V14.8818C8.0352 15.3675 6.80481 15.6386 5.50222 15.6387C4.19938 15.6386 2.96932 15.3667 2.00417 14.8809V16.5479ZM17.9993 14.7207C17.0341 15.2065 15.804 15.4785 14.5012 15.4785C13.1984 15.4785 11.9683 15.2066 11.0032 14.7207V16.5479C11.0033 16.6886 11.122 17.0362 11.8001 17.4062C12.4407 17.7557 13.3939 18.0029 14.5012 18.0029C15.609 18.0029 16.5627 17.7559 17.2034 17.4062C17.8815 17.0361 17.9992 16.6886 17.9993 16.5479V14.7207ZM2.00417 12.1836C2.00417 12.3243 2.12269 12.6718 2.80104 13.042C3.44166 13.3915 4.39482 13.6386 5.50222 13.6387C6.60988 13.6386 7.56375 13.3916 8.20436 13.042C8.88244 12.6718 9.00026 12.3243 9.00026 12.1836V12.0752C8.9999 12.0683 8.99938 12.0622 8.99929 12.0576C8.99886 12.0357 8.99903 12.0176 8.99929 12.0078C8.99945 12.0017 8.99998 11.9958 9.00026 11.9902V10.5176C8.03521 11.0033 6.80478 11.2744 5.50222 11.2744C4.19941 11.2744 2.96931 11.0024 2.00417 10.5166V12.1836ZM14.5012 10.5684C13.4755 10.5684 12.5664 10.8273 11.9212 11.1914C11.3133 11.5345 11.074 11.8846 11.01 12.0898C11.044 12.2566 11.2118 12.5607 11.8001 12.8818C12.4407 13.2313 13.3938 13.4785 14.5012 13.4785C15.609 13.4785 16.5627 13.2315 17.2034 12.8818C17.8815 12.5117 17.9992 12.1642 17.9993 12.0234C17.9991 11.8826 17.8812 11.535 17.2034 11.165C16.5627 10.8154 15.6089 10.5684 14.5012 10.5684ZM9.00026 6.15234C8.03516 6.63812 6.80493 6.91013 5.50222 6.91016C4.19944 6.91013 2.9693 6.63816 2.00417 6.15234V7.81934C2.00417 7.96005 2.12269 8.30752 2.80104 8.67773C3.44166 9.02719 4.39486 9.27439 5.50222 9.27441C6.60988 9.27438 7.56375 9.02735 8.20436 8.67773C8.8825 8.30757 9.00026 7.96003 9.00026 7.81934V6.15234ZM5.50222 2C4.47655 2.00003 3.56736 2.25897 2.92214 2.62305C2.31409 2.96619 2.07493 3.31627 2.011 3.52148C2.04496 3.68825 2.21269 3.99238 2.80104 4.31348C3.44166 4.66292 4.3949 4.91013 5.50222 4.91016C6.60988 4.91013 7.56375 4.66309 8.20436 4.31348C8.8824 3.94339 9.00021 3.59584 9.00026 3.45508C9.00026 3.31438 8.88249 2.96684 8.20436 2.59668C7.56375 2.24706 6.60988 2.00003 5.50222 2Z" fill="currentColor"/>
</svg>
