<svg viewBox="0 0 16 16" fill="currentColor" xmlns="http://www.w3.org/2000/svg">
<path fill-rule="evenodd" clip-rule="evenodd" d="M5.5 8.33C6.0289 8.33 6.56167 8.50863 6.97559 8.8632C7.39425 9.22206 7.66689 9.74558 7.66699 10.33V12.33C7.66699 12.9145 7.39424 13.4379 6.97559 13.7968C6.56165 14.1515 6.02896 14.33 5.5 14.33H3.16699C2.6379 14.33 2.10441 14.1516 1.69043 13.7968C1.27181 13.4379 1 12.9144 1 12.33V10.33C1.0001 9.74561 1.2718 9.22206 1.69043 8.8632C2.10439 8.50845 2.63796 8.33 3.16699 8.33H5.5ZM12.833 8.33C13.3618 8.33 13.8947 8.50874 14.3086 8.8632C14.7273 9.22206 14.9999 9.74558 15 10.33V12.33C15 12.9145 14.7273 13.4379 14.3086 13.7968C13.8947 14.1514 13.362 14.33 12.833 14.33H10.5C9.97101 14.3299 9.43734 14.1516 9.02344 13.7968C8.60493 13.4379 8.33301 12.9144 8.33301 12.33V10.33C8.33311 9.74562 8.60482 9.22206 9.02344 8.8632C9.43733 8.50843 9.97101 8.33007 10.5 8.33H12.833ZM3.16699 10.33C3.08542 10.33 3.02755 10.3569 3 10.3769V12.2821C3.0273 12.3022 3.0848 12.33 3.16699 12.33H5.5C5.58289 12.33 5.63999 12.3013 5.66699 12.2812V10.3779C5.63972 10.3578 5.58225 10.33 5.5 10.33H3.16699ZM10.5 10.33C10.4184 10.3301 10.3605 10.3569 10.333 10.3769V12.2821C10.3603 12.3022 10.418 12.3299 10.5 12.33H12.833C12.9158 12.33 12.973 12.3013 13 12.2812V10.3779C12.9726 10.3578 12.915 10.33 12.833 10.33H10.5ZM3.95996 1.95695C4.35049 1.56643 4.9835 1.56643 5.37402 1.95695C5.76419 2.34751 5.76443 2.98061 5.37402 3.37101L4.08105 4.66398L5.37402 5.95695C5.76417 6.3475 5.7644 6.98061 5.37402 7.37101C4.9836 7.76139 4.35049 7.7612 3.95996 7.37101L1.95996 5.37101C1.77252 5.18357 1.6671 4.92905 1.66699 4.66398C1.66699 4.39879 1.77245 4.14448 1.95996 3.95695L3.95996 1.95695ZM10.626 1.95695C11.0165 1.56643 11.6495 1.56643 12.04 1.95695L14.04 3.95695C14.2275 4.14448 14.333 4.39879 14.333 4.66398C14.3329 4.92905 14.2275 5.18357 14.04 5.37101L12.04 7.37101C11.6495 7.7612 11.0164 7.76139 10.626 7.37101C10.2356 6.98061 10.2358 6.3475 10.626 5.95695L11.9189 4.66398L10.626 3.37101C10.2356 2.98061 10.2358 2.34751 10.626 1.95695Z"/>
</svg>
