<svg viewBox="0 0 24 24" fill="currentColor" xmlns="http://www.w3.org/2000/svg">
<path d="M19 2C20.1044 2 20.9998 2.8956 21 4V20C21 21.0357 20.2128 21.888 19.2041 21.9902L19 22H5L4.7959 21.9902C3.78721 21.888 3 21.0357 3 20V4C3.0002 2.8956 3.89555 2 5 2H19ZM6 4C5.44772 4 5 4.44772 5 5V19C5 19.5523 5.44772 20 6 20H18C18.5523 20 19 19.5523 19 19V5C19 4.44772 18.5523 4 18 4H6ZM15.75 11C16.4404 11 17 11.5596 17 12.25V16.75C17 17.4404 16.4404 18 15.75 18H8.25C7.55964 18 7 17.4404 7 16.75V12.25C7 11.5596 7.55964 11 8.25 11H15.75ZM16 7C16.5523 7 17 7.44772 17 8C17 8.55228 16.5523 9 16 9H8C7.44772 9 7 8.55228 7 8C7 7.44772 7.44772 7 8 7H16Z"/>
</svg>
