<svg viewBox="0 0 24 24" fill="currentColor" xmlns="http://www.w3.org/2000/svg">
<path d="M4.05882 7.99996C3.47329 7.99996 3 8.44796 3 8.99996V19C3 19.552 3.47329 20 4.05882 20C4.64435 20 5.11765 19.552 5.11765 19V8.99996C5.11765 8.44796 4.64435 7.99996 4.05882 7.99996Z"/>
<path d="M9.35294 3.99994C8.76741 3.99994 8.29412 4.44794 8.29412 4.99994V19C8.29412 19.552 8.76741 20 9.35294 20C9.93847 20 10.4118 19.552 10.4118 19V4.99994C10.4118 4.44794 9.93847 3.99994 9.35294 3.99994Z"/>
<path d="M14.6471 7.99996C14.0615 7.99996 13.5882 8.44796 13.5882 8.99996V19C13.5882 19.552 14.0615 20 14.6471 20C15.2326 20 15.7059 19.552 15.7059 19V8.99996C15.7059 8.44796 15.2326 7.99996 14.6471 7.99996Z"/>
<path d="M19.9412 3.99994C19.3556 3.99994 18.8824 4.44794 18.8824 4.99994V19C18.8824 19.552 19.3556 20 19.9412 20C20.5267 20 21 19.552 21 19V4.99994C21 4.44794 20.5267 3.99994 19.9412 3.99994Z"/>
</svg>
