<svg viewBox="0 0 24 25" fill="currentColor" xmlns="http://www.w3.org/2000/svg">
<path d="M18.2969 3.51465C18.9835 3.58291 19.6289 3.88671 20.1211 4.37891C20.6837 4.94152 21 5.70435 21 6.5V18.5C21 19.2957 20.6837 20.0585 20.1211 20.6211C19.5585 21.1837 18.7957 21.5 18 21.5H6C5.20435 21.5 4.44152 21.1837 3.87891 20.6211C3.38671 20.1289 3.08291 19.4835 3.01465 18.7969L3 18.5V6.5C3 5.70435 3.3163 4.94152 3.87891 4.37891C4.44152 3.8163 5.20435 3.5 6 3.5H18L18.2969 3.51465ZM6 5.5C5.73478 5.5 5.4805 5.60543 5.29297 5.79297C5.10543 5.9805 5 6.23478 5 6.5V18.5L5.00488 18.5986C5.02757 18.8276 5.12883 19.0429 5.29297 19.207C5.48051 19.3946 5.73478 19.5 6 19.5H18C18.2652 19.5 18.5195 19.3946 18.707 19.207C18.8946 19.0195 19 18.7652 19 18.5V6.5C19 6.23478 18.8946 5.98051 18.707 5.79297C18.5429 5.62883 18.3276 5.52757 18.0986 5.50488L18 5.5H6ZM8 13.5C8.55228 13.5 9 13.9477 9 14.5V16.5C9 17.0523 8.55228 17.5 8 17.5C7.44772 17.5 7 17.0523 7 16.5V14.5C7 13.9477 7.44772 13.5 8 13.5ZM12 10.5C12.5523 10.5 13 10.9477 13 11.5V16.5C13 17.0523 12.5523 17.5 12 17.5C11.4477 17.5 11 17.0523 11 16.5V11.5C11 10.9477 11.4477 10.5 12 10.5ZM16 7.5C16.5523 7.5 17 7.94772 17 8.5V16.5C17 17.0523 16.5523 17.5 16 17.5C15.4477 17.5 15 17.0523 15 16.5V8.5C15 7.94772 15.4477 7.5 16 7.5Z" />
</svg>
