<svg viewBox="0 0 24 24" fill="currentColor" xmlns="http://www.w3.org/2000/svg">
<path d="M3 2C3.55228 2 4 2.44772 4 3V20H21C21.5523 20 22 20.4477 22 21C22 21.5523 21.5523 22 21 22H3C2.44772 22 2 21.5523 2 21V3C2 2.44772 2.44772 2 3 2ZM21.1758 6.43359C21.4886 5.97854 22.1113 5.86304 22.5664 6.17578C23.0215 6.48863 23.137 7.11132 22.8242 7.56641L17.3242 15.5664C17.156 15.8111 16.8875 15.9688 16.5918 15.9961C16.2959 16.0233 16.003 15.9171 15.793 15.707L11.1553 11.0693L6.83203 17.5547C6.52568 18.0142 5.90484 18.1384 5.44531 17.832C4.98578 17.5257 4.86162 16.9048 5.16797 16.4453L10.168 8.94531L10.2354 8.85645C10.4023 8.6581 10.6405 8.53074 10.9014 8.50488C11.1995 8.47536 11.4952 8.58112 11.707 8.79297L16.3564 13.4424L21.1758 6.43359Z"/>
</svg>
