<svg viewBox="0 0 24 25" fill="currentColor" xmlns="http://www.w3.org/2000/svg">
<path d="M4.05882 14.5C3.47329 14.5 3 14.948 3 15.5V20.5C3 21.052 3.47329 21.5 4.05882 21.5C4.64435 21.5 5.11765 21.052 5.11765 20.5V15.5C5.11765 14.948 4.64435 14.5 4.05882 14.5Z" fill="#6B7280"/>
<path d="M9.35294 10.4999C8.76741 10.4999 8.29412 10.9479 8.29412 11.4999V20.5C8.29412 21.052 8.76741 21.5 9.35294 21.5C9.93847 21.5 10.4118 21.052 10.4118 20.5V11.4999C10.4118 10.9479 9.93847 10.4999 9.35294 10.4999Z" fill="#6B7280"/>
<path d="M14.6471 14.5C14.0615 14.5 13.5882 14.948 13.5882 15.5V20.5C13.5882 21.052 14.0615 21.5 14.6471 21.5C15.2326 21.5 15.7059 21.052 15.7059 20.5V15.5C15.7059 14.948 15.2326 14.5 14.6471 14.5Z" fill="#6B7280"/>
<path d="M19.9412 10.4999C19.3556 10.4999 18.8824 10.9479 18.8824 11.4999V20.5C18.8824 21.052 19.3556 21.5 19.9412 21.5C20.5267 21.5 21 21.052 21 20.5V11.4999C21 10.9479 20.5267 10.4999 19.9412 10.4999Z" fill="#6B7280"/>
<path d="M4.05776 11.4999C4.36165 11.4999 4.66235 11.3769 4.87306 11.1399L9.35294 6.06192L13.8328 11.1399C14.2362 11.596 15.0568 11.596 15.4602 11.1399L20.7544 5.13992C21.1292 4.71592 21.0678 4.08491 20.6188 3.73191C20.1678 3.37791 19.5018 3.43591 19.1269 3.85991L14.6471 8.93794L10.1672 3.85991C9.76376 3.40391 8.94318 3.40391 8.53977 3.85991L3.24565 9.85994C2.87082 10.2839 2.93224 10.9149 3.38118 11.2679C3.57918 11.4239 3.81847 11.4999 4.05776 11.4999Z"/>
</svg>
