<svg viewBox="0 0 24 24" fill="currentColor" xmlns="http://www.w3.org/2000/svg">
<path d="M16.8017 9.74985C16.4839 9.74979 16.179 9.63122 15.9543 9.42022L12.0075 5.71555L8.06066 9.42022C7.95009 9.52767 7.81784 9.61338 7.67161 9.67234C7.52538 9.7313 7.36811 9.76233 7.20897 9.76363C7.04982 9.76493 6.892 9.73646 6.7447 9.6799C6.5974 9.62333 6.46358 9.53979 6.35105 9.43416C6.23851 9.32853 6.14952 9.20292 6.08925 9.06466C6.02899 8.9264 5.99866 8.77826 6.00005 8.62888C6.00143 8.47951 6.03449 8.33188 6.09731 8.19462C6.16012 8.05737 6.25143 7.93323 6.3659 7.82945L11.1601 3.32939C11.3849 3.11848 11.6897 3 12.0075 3C12.3253 3 12.6301 3.11848 12.8549 3.32939L17.6491 7.82945C17.8167 7.98678 17.9308 8.18722 17.977 8.40542C18.0232 8.62362 17.9995 8.84979 17.9088 9.05533C17.8181 9.26087 17.6645 9.43655 17.4674 9.56017C17.2704 9.6838 17.0387 9.7498 16.8017 9.74985Z"/>
<path d="M12.0075 21C11.6896 20.9999 11.3848 20.8814 11.1601 20.6704L6.3659 16.1703C6.25143 16.0665 6.16012 15.9424 6.09731 15.8051C6.03449 15.6679 6.00143 15.5203 6.00005 15.3709C5.99866 15.2215 6.02899 15.0734 6.08925 14.9351C6.14952 14.7968 6.23851 14.6712 6.35105 14.5656C6.46358 14.46 6.5974 14.3764 6.7447 14.3199C6.892 14.2633 7.04982 14.2348 7.20897 14.2361C7.36811 14.2374 7.52538 14.2685 7.67161 14.3274C7.81784 14.3864 7.95009 14.4721 8.06066 14.5795L12.0075 18.2842L15.9543 14.5795C16.1804 14.3746 16.4831 14.2612 16.7974 14.2638C17.1116 14.2663 17.4123 14.3847 17.6345 14.5932C17.8567 14.8018 17.9828 15.084 17.9855 15.379C17.9882 15.6739 17.8674 15.9581 17.6491 16.1703L12.8549 20.6704C12.6301 20.8814 12.3253 20.9999 12.0075 21Z"/>
</svg>
