<svg viewBox="0 0 24 24" fill="currentColor" xmlns="http://www.w3.org/2000/svg">
<path d="M10.5645 14.207C10.9549 13.8166 11.588 13.8167 11.9785 14.207C12.3687 14.5975 12.3697 15.2306 11.9795 15.6211L6.88086 20.7197C6.69341 20.9069 6.43876 21.0117 6.17383 21.0117C5.94199 21.0117 5.71787 20.9317 5.54004 20.7861L5.4668 20.7197L3.28223 18.5342L3.21387 18.458C2.89358 18.0652 2.91617 17.4862 3.28223 17.1201C3.64833 16.7541 4.22737 16.7315 4.62012 17.0518L4.69629 17.1201L6.17383 18.5977L10.5645 14.207ZM19.2832 2.98926C19.6841 2.9894 20.0706 3.129 20.3779 3.38086L20.5049 3.49512L20.6201 3.62207C20.872 3.92958 21.0107 4.31681 21.0107 4.71777V19.2832C21.0107 19.7415 20.8289 20.1817 20.5049 20.5059C20.1809 20.8298 19.7413 21.0116 19.2832 21.0117H12.7285C12.1762 21.0117 11.7285 20.564 11.7285 20.0117C11.7286 19.4595 12.1763 19.0117 12.7285 19.0117H19.0107V4.98926H4.98926V13.457C4.98925 14.0092 4.54144 14.4569 3.98926 14.457C3.43698 14.457 2.98927 14.0093 2.98926 13.457V4.71777C2.98926 4.25942 3.17101 3.81924 3.49512 3.49512L3.62207 3.38086C3.92961 3.12884 4.31667 2.98926 4.71777 2.98926H19.2832Z" />
</svg>
