<svg viewBox="0 0 24 24" fill="currentColor" xmlns="http://www.w3.org/2000/svg">
<path d="M19 3H15.722C15.5479 2.69696 15.2971 2.44504 14.9948 2.26952C14.6926 2.094 14.3495 2.00105 14 2H10C9.65049 2.00105 9.3074 2.094 9.00516 2.26952C8.70291 2.44504 8.45214 2.69696 8.278 3H5C4.46957 3 3.96086 3.21071 3.58579 3.58579C3.21071 3.96086 3 4.46957 3 5V20C3 20.5304 3.21071 21.0391 3.58579 21.4142C3.96086 21.7893 4.46957 22 5 22H19C19.5304 22 20.0391 21.7893 20.4142 21.4142C20.7893 21.0391 21 20.5304 21 20V5C21 4.46957 20.7893 3.96086 20.4142 3.58579C20.0391 3.21071 19.5304 3 19 3ZM14 4V6H10V4H14ZM19 20H5V5H8V6C7.73478 6 7.48043 6.10536 7.29289 6.29289C7.10536 6.48043 7 6.73478 7 7C7 7.26522 7.10536 7.51957 7.29289 7.70711C7.48043 7.89464 7.73478 8 8 8H16C16.2652 8 16.5196 7.89464 16.7071 7.70711C16.8946 7.51957 17 7.26522 17 7C17 6.73478 16.8946 6.48043 16.7071 6.29289C16.5196 6.10536 16.2652 6 16 6V5H19V20Z" />
<path d="M8.00014 11C7.73493 11 7.48057 11.1054 7.29304 11.2929C7.1055 11.4804 7.00014 11.7348 7.00014 12C7.00014 12.2652 7.1055 12.5196 7.29304 12.7071C7.48057 12.8946 7.73493 13 8.00014 13H16.0001C16.2654 13 16.5197 12.8946 16.7072 12.7071C16.8948 12.5196 17.0001 12.2652 17.0001 12C17.0001 11.7348 16.8948 11.4804 16.7072 11.2929C16.5197 11.1054 16.2654 11 16.0001 11H8.00014Z" />
<path d="M8.00014 14C7.73493 14 7.48057 14.1054 7.29304 14.2929C7.1055 14.4804 7.00014 14.7348 7.00014 15C7.00014 15.2652 7.1055 15.5196 7.29304 15.7071C7.48057 15.8946 7.73493 16 8.00014 16H16.0001C16.2654 16 16.5197 15.8946 16.7072 15.7071C16.8948 15.5196 17.0001 15.2652 17.0001 15C17.0001 14.7348 16.8948 14.4804 16.7072 14.2929C16.5197 14.1054 16.2654 14 16.0001 14H8.00014Z" />
</svg>
