<svg viewBox="0 0 24 24" fill="currentColor" xmlns="http://www.w3.org/2000/svg">
<path fill-rule="evenodd" clip-rule="evenodd" d="M16.9628 6.00004C17.0993 5.99885 17.2347 6.02487 17.3611 6.07657C17.4875 6.12827 17.6023 6.20463 17.6988 6.30117C17.7954 6.39772 17.8717 6.51253 17.9234 6.6389C17.9751 6.76527 18.0011 6.90067 18 7.03721C17.9988 7.17374 17.9704 7.30867 17.9165 7.43412C17.8629 7.55901 17.785 7.67202 17.6874 7.76662L13.454 12L17.6911 16.237C17.8784 16.431 17.982 16.6907 17.9796 16.9603C17.9773 17.2299 17.8692 17.4879 17.6785 17.6785C17.4879 17.8692 17.2299 17.9773 16.9603 17.9796C16.6907 17.982 16.431 17.8783 16.2371 17.691L16.2345 17.6886L12 13.454L7.76662 17.6874C7.67202 17.785 7.55901 17.8629 7.43412 17.9165C7.30867 17.9704 7.17374 17.9988 7.03721 18C6.90067 18.0011 6.76527 17.9751 6.6389 17.9234C6.51253 17.8717 6.39772 17.7954 6.30117 17.6988C6.20463 17.6023 6.12827 17.4875 6.07657 17.3611C6.02487 17.2347 5.99885 17.0993 6.00004 16.9628C6.00123 16.8263 6.02959 16.6913 6.08348 16.5659C6.13713 16.441 6.215 16.328 6.31259 16.2334L10.546 12L6.30895 7.76297C6.12164 7.56903 6.01802 7.30927 6.02036 7.03966C6.0227 6.77005 6.13085 6.51215 6.3215 6.3215C6.51215 6.13085 6.77005 6.0227 7.03966 6.02036C7.30927 6.01802 7.56901 6.12166 7.76294 6.30897L7.76546 6.3114L12 10.546L16.2334 6.31259C16.328 6.215 16.441 6.13713 16.5659 6.08348C16.6913 6.02959 16.8263 6.00123 16.9628 6.00004Z" />
</svg>
