<svg viewBox="0 0 24 24" fill="currentColor" xmlns="http://www.w3.org/2000/svg">
<path d="M13 22H11C10.4696 22 9.96086 21.7893 9.58579 21.4142C9.21071 21.0391 9 20.5304 9 20V19.911L8.527 19.711L8.464 19.774C8.08894 20.1489 7.58033 20.3596 7.05 20.3596C6.51967 20.3596 6.01106 20.1489 5.636 19.774L4.222 18.364C3.84706 17.9889 3.63643 17.4803 3.63643 16.95C3.63643 16.4197 3.84706 15.9111 4.222 15.536L4.285 15.473L4.089 15H4C3.46957 15 2.96086 14.7893 2.58579 14.4142C2.21071 14.0391 2 13.5304 2 13V11C2 10.4696 2.21071 9.96086 2.58579 9.58579C2.96086 9.21071 3.46957 9 4 9H4.089L4.289 8.527L4.226 8.464C3.85106 8.08894 3.64043 7.58033 3.64043 7.05C3.64043 6.51967 3.85106 6.01106 4.226 5.636L5.636 4.222C6.01106 3.84706 6.51967 3.63643 7.05 3.63643C7.58033 3.63643 8.08894 3.84706 8.464 4.222L8.528 4.286L9 4.089V4C9 3.46957 9.21071 2.96086 9.58579 2.58579C9.96086 2.21071 10.4696 2 11 2H13C13.5304 2 14.0391 2.21071 14.4142 2.58579C14.7893 2.96086 15 3.46957 15 4V4.089L15.472 4.289L15.536 4.226C15.911 3.85136 16.4194 3.64093 16.9495 3.64093C17.4796 3.64093 17.988 3.85136 18.363 4.226L19.778 5.641C20.1529 6.01606 20.3636 6.52467 20.3636 7.055C20.3636 7.58533 20.1529 8.09394 19.778 8.469L19.714 8.533L19.914 9.005H20C20.5304 9.005 21.0391 9.21571 21.4142 9.59079C21.7893 9.96586 22 10.4746 22 11.005V13.005C22 13.5354 21.7893 14.0441 21.4142 14.4192C21.0391 14.7943 20.5304 15.005 20 15.005H19.911L19.711 15.477L19.774 15.541C20.1486 15.916 20.3591 16.4244 20.3591 16.9545C20.3591 17.4846 20.1486 17.993 19.774 18.368L18.359 19.783C17.9839 20.1579 17.4753 20.3686 16.945 20.3686C16.4147 20.3686 15.9061 20.1579 15.531 19.783L15.468 19.72L14.995 19.92V20C14.995 20.5296 14.785 21.0375 14.411 21.4124C14.037 21.7874 13.5296 21.9987 13 22ZM8.293 17.536C8.42408 17.5361 8.55388 17.5619 8.675 17.612L10.382 18.319C10.5649 18.3946 10.7212 18.5227 10.8312 18.6872C10.9412 18.8517 11 19.0451 11 19.243V20H13V19.243C13 19.0451 13.0588 18.8517 13.1688 18.6872C13.2788 18.5227 13.4351 18.3946 13.618 18.319L15.325 17.612C15.5076 17.5364 15.7084 17.5166 15.9022 17.555C16.096 17.5934 16.2741 17.6884 16.414 17.828L16.949 18.363L18.364 16.95L17.829 16.414C17.6893 16.2742 17.5941 16.0962 17.5555 15.9024C17.5168 15.7086 17.5365 15.5076 17.612 15.325L18.319 13.618C18.3946 13.4351 18.5227 13.2788 18.6872 13.1688C18.8517 13.0588 19.0451 13 19.243 13H20V11H19.243C19.0451 11 18.8517 10.9412 18.6872 10.8312C18.5227 10.7212 18.3946 10.5649 18.319 10.382L17.612 8.675C17.5365 8.49235 17.5168 8.29143 17.5555 8.09761C17.5941 7.90379 17.6893 7.72576 17.829 7.586L18.364 7.05L16.95 5.636L16.414 6.171C16.2742 6.31073 16.0962 6.40592 15.9024 6.44454C15.7086 6.48316 15.5076 6.46349 15.325 6.388L13.618 5.681C13.4351 5.60541 13.2788 5.47726 13.1688 5.31278C13.0588 5.1483 13 4.95488 13 4.757V4H11V4.757C11 4.95488 10.9412 5.1483 10.8312 5.31278C10.7212 5.47726 10.5649 5.60541 10.382 5.681L8.675 6.388C8.49235 6.46349 8.29143 6.48316 8.09761 6.44454C7.90379 6.40592 7.72576 6.31073 7.586 6.171L7.05 5.636L5.636 7.05L6.172 7.586C6.31156 7.72587 6.40656 7.90396 6.44501 8.09777C6.48345 8.29159 6.46361 8.49245 6.388 8.675L5.681 10.382C5.60541 10.5649 5.47726 10.7212 5.31278 10.8312C5.1483 10.9412 4.95488 11 4.757 11H4V13H4.757C4.95488 13 5.1483 13.0588 5.31278 13.1688C5.47726 13.2788 5.60541 13.4351 5.681 13.618L6.388 15.325C6.46361 15.5076 6.48345 15.7084 6.44501 15.9022C6.40656 16.096 6.31156 16.2741 6.172 16.414L5.637 16.949L7.05 18.364L7.586 17.828C7.77366 17.6408 8.02795 17.5358 8.293 17.536Z"/>
<path d="M12 16C11.2089 16 10.4355 15.7654 9.77772 15.3259C9.11992 14.8864 8.60723 14.2616 8.30448 13.5307C8.00173 12.7998 7.92252 11.9956 8.07686 11.2196C8.2312 10.4437 8.61216 9.73098 9.17157 9.17157C9.73098 8.61216 10.4437 8.2312 11.2196 8.07686C11.9956 7.92252 12.7998 8.00173 13.5307 8.30448C14.2616 8.60723 14.8864 9.11992 15.3259 9.77772C15.7654 10.4355 16 11.2089 16 12C16 13.0609 15.5786 14.0783 14.8284 14.8284C14.0783 15.5786 13.0609 16 12 16ZM12 10C11.6044 10 11.2178 10.1173 10.8889 10.3371C10.56 10.5568 10.3036 10.8692 10.1522 11.2346C10.0009 11.6001 9.96126 12.0022 10.0384 12.3902C10.1156 12.7781 10.3061 13.1345 10.5858 13.4142C10.8655 13.6939 11.2219 13.8844 11.6098 13.9616C11.9978 14.0387 12.3999 13.9991 12.7654 13.8478C13.1308 13.6964 13.4432 13.44 13.6629 13.1111C13.8827 12.7822 14 12.3956 14 12C14 11.4696 13.7893 10.9609 13.4142 10.5858C13.0391 10.2107 12.5304 10 12 10Z"/>
</svg>
