<svg xmlns="http://www.w3.org/2000/svg" viewBox="0 0 24 24" fill="currentColor">
    <path d="M8.3999 3.59998C8.08164 3.59998 7.77642 3.7264 7.55137 3.95145C7.32633 4.17649 7.1999 4.48172 7.1999 4.79998C7.1999 5.11824 7.32633 5.42346 7.55137 5.6485C7.77642 5.87355 8.08164 5.99998 8.3999 5.99998H15.5999C15.9182 5.99998 16.2234 5.87355 16.4484 5.6485C16.6735 5.42346 16.7999 5.11824 16.7999 4.79998C16.7999 4.48172 16.6735 4.17649 16.4484 3.95145C16.2234 3.7264 15.9182 3.59998 15.5999 3.59998H8.3999ZM4.7999 8.39998C4.7999 8.08172 4.92633 7.77649 5.15137 7.55145C5.37642 7.3264 5.68164 7.19998 5.9999 7.19998H17.9999C18.3182 7.19998 18.6234 7.3264 18.8484 7.55145C19.0735 7.77649 19.1999 8.08172 19.1999 8.39998C19.1999 8.71824 19.0735 9.02346 18.8484 9.2485C18.6234 9.47355 18.3182 9.59998 17.9999 9.59998H5.9999C5.68164 9.59998 5.37642 9.47355 5.15137 9.2485C4.92633 9.02346 4.7999 8.71824 4.7999 8.39998ZM2.3999 13.2C2.3999 12.5635 2.65276 11.953 3.10285 11.5029C3.55293 11.0528 4.16338 10.8 4.7999 10.8H19.1999C19.8364 10.8 20.4469 11.0528 20.897 11.5029C21.347 11.953 21.5999 12.5635 21.5999 13.2V18C21.5999 18.6365 21.347 19.2469 20.897 19.697C20.4469 20.1471 19.8364 20.4 19.1999 20.4H4.7999C4.16338 20.4 3.55293 20.1471 3.10285 19.697C2.65276 19.2469 2.3999 18.6365 2.3999 18V13.2Z"/>
</svg>
