<svg width="24" height="24" viewBox="0 0 24 24" fill="currentColor" xmlns="http://www.w3.org/2000/svg">
<path d="M11 2C11.5523 2 12 2.44772 12 3V21C12 21.5523 11.5523 22 11 22C10.4477 22 10 21.5523 10 21V20H5L4.7959 19.9893C3.78723 19.887 3.00001 19.0356 3 18V6C3 4.96435 3.78722 4.11301 4.7959 4.01074L5 4H10V3C10 2.44772 10.4477 2 11 2ZM19.2041 4.01074C20.2128 4.11301 21 4.96435 21 6V18C21 19.0356 20.2128 19.887 19.2041 19.9893L19 20H14.5625C14.0102 20 13.5625 19.5523 13.5625 19C13.5625 18.4477 14.0102 18 14.5625 18H18C18.5523 18 19 17.5523 19 17V7C19 6.44772 18.5523 6 18 6H14.5625C14.0102 6 13.5625 5.55228 13.5625 5C13.5625 4.44772 14.0102 4 14.5625 4H19L19.2041 4.01074ZM6 6C5.44772 6 5 6.44772 5 7V17C5.00001 17.5523 5.44772 18 6 18H10V6H6Z"/>
</svg>
