<svg viewBox="0 0 24 24" fill="currentColor" xmlns="http://www.w3.org/2000/svg">
<g clip-path="url(#clip0_956_35868)">
<path d="M12 0C12.3442 0 12.6441 0.234484 12.7275 0.568359L14.8682 9.13086L23.4316 11.2725L23.5518 11.3135C23.8205 11.4314 24 11.6987 24 12C24 12.3442 23.7655 12.6441 23.4316 12.7275L14.8682 14.8682L12.7275 23.4316C12.6441 23.7655 12.3442 24 12 24C11.6558 24 11.3559 23.7655 11.2725 23.4316L10.5811 20.6689L10.2363 19.2881L9.13086 14.8682L0.568359 12.7275C0.234484 12.6441 0 12.3442 0 12C0 11.6558 0.234484 11.3559 0.568359 11.2725L3.10449 10.6377H3.10547L4.71191 10.2354H4.71094L9.13086 9.13086L10.2354 4.71094V4.71191L10.6377 3.10547V3.10449L11.2725 0.568359L11.3135 0.448242C11.4314 0.179542 11.6987 0 12 0ZM5.07812 14.8848C5.45225 15.7824 5.99946 16.6059 6.69727 17.3037C7.39425 18.0006 8.21698 18.5458 9.11328 18.9199L9.54785 20.6582C8.07848 20.2418 6.72951 19.4569 5.63672 18.3643C4.54353 17.2711 3.75811 15.9213 3.3418 14.4512L5.07812 14.8848ZM20.6582 14.4502C20.2419 15.9206 19.4576 17.2709 18.3643 18.3643C17.2709 19.4576 15.9205 20.2419 14.4502 20.6582L14.8848 18.9209C15.7821 18.5468 16.6061 18.0013 17.3037 17.3037C18.0015 16.6059 18.5488 15.7825 18.9229 14.8848L20.6582 14.4502ZM9.11328 5.0791C8.21672 5.45316 7.39447 6.0001 6.69727 6.69727C6.00007 7.3945 5.45219 8.21663 5.07812 9.11328L3.3418 9.54785C3.75821 8.0784 4.54393 6.72955 5.63672 5.63672C6.72967 4.54381 8.07827 3.75724 9.54785 3.34082L9.11328 5.0791ZM14.4512 3.3418C15.9212 3.75812 17.2711 4.54355 18.3643 5.63672C19.4568 6.72946 20.2418 8.07855 20.6582 9.54785L18.9199 9.11328C18.5458 8.21702 18.0005 7.39421 17.3037 6.69727C16.606 5.99957 15.7822 5.45322 14.8848 5.0791L14.4512 3.3418Z" />
</g>
<defs>
<clipPath id="clip0_956_35868">
<rect width="24" height="24" fill="white"/>
</clipPath>
</defs>
</svg>
