<svg viewBox="0 0 20 20" fill="currentColor" xmlns="http://www.w3.org/2000/svg">
<g id="dots" clip-path="url(#clip0_1816_72579)">
<path id="Vector" d="M6.54056 12.8286C7.53752 11.917 8.62441 10.9231 9.92861 10.9231H10.0714C11.3756 10.9231 12.4625 11.917 13.4594 12.8286C13.5304 12.8935 13.6009 12.9579 13.6709 13.0216C14.342 13.6311 15.218 14 16.1765 14C18.2881 14 20 12.2091 20 10C20 7.79086 18.2881 6 16.1765 6C15.218 6 14.342 6.36891 13.671 6.97841C13.6009 7.04206 13.5304 7.10652 13.4594 7.17139C12.4625 8.08304 11.3756 9.07692 10.0714 9.07692H9.9286C8.6244 9.07692 7.53752 8.08304 6.54056 7.17139C6.46962 7.10652 6.39913 7.04206 6.32905 6.97841C5.65802 6.36891 4.78196 6 3.82353 6C1.71185 6 0 7.79086 0 10C0 12.2091 1.71185 14 3.82353 14C4.78196 14 5.65802 13.6311 6.32905 13.0216C6.39913 12.9579 6.46962 12.8935 6.54056 12.8286Z" />
<circle id="Ellipse 5" cx="10" cy="3.5" r="2.75" fill="none" stroke="currentColor" stroke-width="1.5"/>
<circle id="Ellipse 6" cx="10" cy="16.5" r="2.75" fill="none" stroke="currentColor" stroke-width="1.5"/>
</g>
<defs>
<clipPath id="clip0_1816_72579">
<rect width="20" height="20" fill="white"/>
</clipPath>
</defs>
</svg>
