<svg width="12" height="12" viewBox="0 0 12 12" fill="none" xmlns="http://www.w3.org/2000/svg">
    <path d="M10.8523 0.705706C9.98934 -0.235235 8.58456 -0.235235 7.72156 0.705706L1.83789 7.12427C1.77903 7.18848 1.73998 7.26409 1.71303 7.3439C1.71138 7.3493 1.70643 7.3529 1.70478 7.3583L0.528264 11.2097C0.46226 11.4251 0.513963 11.6633 0.661371 11.8236C0.765877 11.9382 0.906685 12 1.05024 12C1.10855 12 1.1674 11.9898 1.22405 11.9688L4.7536 10.6846C4.75855 10.6828 4.76185 10.678 4.76625 10.6762C4.83995 10.6474 4.90926 10.6042 4.96811 10.54L10.8523 4.12202C11.7159 3.18048 11.7159 1.64725 10.8523 0.705706ZM6.93337 3.26209L7.33324 3.69836C7.33214 3.69956 7.33049 3.70016 7.32939 3.70136L3.40382 7.9836L3.00505 7.54853L6.93337 3.26209ZM1.91984 10.4512L2.46712 8.6593L3.56168 9.85348L1.91984 10.4512ZM4.57979 9.26719L4.18102 8.83213L8.10659 4.54988C8.10769 4.54868 8.10824 4.54688 8.10934 4.54568L8.50866 4.98135L4.57979 9.26719ZM10.0746 3.27349L9.28695 4.13282L7.71111 2.41356L8.49876 1.55423C8.93328 1.08016 9.64007 1.08076 10.074 1.55423C10.5091 2.0283 10.5091 2.79942 10.0746 3.27349Z" fill="#F3FAF7"/>
</svg>
