<svg width="12" height="12" viewBox="0 0 12 12" fill="none" xmlns="http://www.w3.org/2000/svg">
    <g clip-path="url(#clip0_190_1810)">
        <path d="M8.30164 4.54568L8.29864 4.54988L4.01623 8.83272L5.29969 10.1157L9.58571 5.82987L8.30164 4.54568Z" fill="#374151"/>
        <path d="M1.88372 6.70001L3.16719 7.9842L7.4502 3.70136L7.4544 3.69836L6.16974 2.41356L1.88372 6.70001Z" fill="#374151"/>
        <path d="M1.19729 7.71056L0.0308328 11.2097C-0.0411707 11.4251 0.015232 11.6633 0.17604 11.8236C0.290046 11.9382 0.443653 12 0.600261 12C0.663864 12 0.728067 11.9898 0.78987 11.9688L4.28864 10.8022L1.19729 7.71056Z" fill="#374151"/>
        <path d="M11.2934 0.705706C10.3519 -0.235235 8.81947 -0.235235 7.87802 0.705706L7.01878 1.56503L10.4347 4.98135L11.294 4.12202C12.2354 3.18048 12.2354 1.64725 11.2934 0.705706Z" fill="#374151"/>
    </g>
    <defs>
        <clipPath id="clip0_190_1810">
            <rect width="12" height="12" fill="white"/>
        </clipPath>
    </defs>
</svg>
