<svg viewBox="0 0 20.0049 20.0029" fill="none" xmlns="http://www.w3.org/2000/svg">
  <path d="M14.5068 0C15.8834 0 17.1796 0.301964 18.167 0.84082C19.1167 1.35914 20.0049 2.23994 20.0049 3.45508V16.5479C20.0049 17.763 19.1167 18.6438 18.167 19.1621C17.1796 19.701 15.8835 20.0029 14.5068 20.0029C13.1303 20.0029 11.8341 19.701 10.8467 19.1621C9.89706 18.6438 9.00879 17.7629 9.00879 16.5479V3.55273C9.00847 3.54884 9.00804 3.54526 9.00781 3.54199C9.00622 3.51949 9.00511 3.50037 9.00488 3.48926C9.00445 3.46722 9.00463 3.44926 9.00488 3.43945C9.00543 3.41863 9.00689 3.4002 9.00781 3.38672C9.00873 3.37324 9.01036 3.35404 9.0127 3.33301C9.0138 3.32311 9.016 3.30448 9.01953 3.28223C9.02132 3.27101 9.02449 3.25208 9.0293 3.22949C9.03179 3.21782 9.0351 3.20139 9.04004 3.18262C9.04125 3.17802 9.04326 3.17289 9.04492 3.16699C9.2486 2.15936 10.0587 1.38015 10.9434 0.880859C11.9112 0.334679 13.1636 2.96216e-05 14.5068 0ZM11.0088 16.5479C11.0088 16.6886 11.1273 17.036 11.8057 17.4062C12.4463 17.7558 13.3993 18.0029 14.5068 18.0029C15.6146 18.0029 16.5683 17.7559 17.209 17.4062C17.8871 17.0361 18.0049 16.6885 18.0049 16.5479V14.8818C17.0398 15.3676 15.8095 15.6387 14.5068 15.6387C13.2039 15.6386 11.974 15.3668 11.0088 14.8809V16.5479ZM6.29492 8.29004C6.68532 7.89996 7.31858 7.89998 7.70898 8.29004C8.09948 8.68059 8.09948 9.31452 7.70898 9.70508L3.41406 14H4.79102C5.34302 14.0001 5.79083 14.4479 5.79102 15C5.79102 15.5522 5.34314 15.9999 4.79102 16H1L0.897461 15.9951C0.393633 15.9435 5.17766e-08 15.5175 0 15V11.209C0.000110645 10.6569 0.448057 10.2093 1 10.209C1.55217 10.209 1.99989 10.6567 2 11.209V12.5859L6.29492 8.29004ZM11.0088 12.1836C11.0088 12.3243 11.1273 12.6718 11.8057 13.042C12.4463 13.3915 13.3994 13.6386 14.5068 13.6387C15.6146 13.6387 16.5683 13.3916 17.209 13.042C17.8872 12.6718 18.0049 12.3243 18.0049 12.1836V10.5176C17.0398 11.0033 15.8095 11.2744 14.5068 11.2744C13.204 11.2744 11.974 11.0025 11.0088 10.5166V12.1836ZM18.0049 6.15234C17.0397 6.63815 15.8096 6.91016 14.5068 6.91016C13.204 6.91013 11.9739 6.63821 11.0088 6.15234V7.81934C11.0088 7.96005 11.1273 8.30752 11.8057 8.67773C12.4463 9.02724 13.3994 9.27439 14.5068 9.27441C15.6146 9.27441 16.5683 9.02737 17.209 8.67773C17.8873 8.30754 18.0049 7.96004 18.0049 7.81934V6.15234ZM14.5068 2C13.4811 2.00003 12.572 2.25892 11.9268 2.62305C11.3186 2.96623 11.0795 3.31628 11.0156 3.52148C11.0496 3.68824 11.2173 3.99236 11.8057 4.31348C12.4463 4.66296 13.3994 4.91013 14.5068 4.91016C15.6146 4.91016 16.5683 4.66312 17.209 4.31348C17.8872 3.94335 18.0048 3.59585 18.0049 3.45508C18.0049 3.31437 17.8872 2.96687 17.209 2.59668C16.5683 2.24704 15.6146 2 14.5068 2Z" fill="currentColor"/>
</svg>
