<svg viewBox="0 0 20 20" fill="none" xmlns="http://www.w3.org/2000/svg">
  <path d="M20 17.9336C20 18.2668 19.7133 18.7692 18.7637 19.2402C17.8515 19.6924 16.5226 19.9999 15.001 20C13.479 20 12.1496 19.6924 11.2373 19.2402C10.2873 18.7692 10 18.2669 10 17.9336V15.3984C10.0915 15.4494 10.1845 15.5003 10.2783 15.5469C11.5375 16.1711 13.2099 16.5283 15.001 16.5283C16.7918 16.5282 18.4637 16.1711 19.7227 15.5469C19.8163 15.5004 19.9087 15.4493 20 15.3984V17.9336ZM6.29492 8.29004C6.68532 7.89996 7.31858 7.89998 7.70898 8.29004C8.09948 8.68059 8.09948 9.31452 7.70898 9.70508L3.41406 14H4.79102C5.34302 14.0001 5.79083 14.4479 5.79102 15C5.79102 15.5522 5.34314 15.9999 4.79102 16H1L0.897461 15.9951C0.393633 15.9435 5.17766e-08 15.5175 0 15V11.209C0.000110645 10.6569 0.448057 10.2093 1 10.209C1.55217 10.209 1.99989 10.6567 2 11.209V12.5859L6.29492 8.29004ZM20 12.6445C20 12.9778 19.7133 13.4801 18.7637 13.9512C17.8515 14.4033 16.5226 14.7108 15.001 14.7109C13.4791 14.7109 12.1496 14.4033 11.2373 13.9512C10.2873 13.4801 10 12.9778 10 12.6445V10.1094C10.0915 10.1604 10.1845 10.2113 10.2783 10.2578C11.5375 10.882 13.2099 11.2392 15.001 11.2393C16.7918 11.2391 18.4637 10.882 19.7227 10.2578C19.8163 10.2114 19.9087 10.1603 20 10.1094V12.6445ZM20 7.35547C20 7.6887 19.7133 8.19109 18.7637 8.66211C17.8515 9.11418 16.5225 9.42174 15.001 9.42188C13.4791 9.42184 12.1496 9.11426 11.2373 8.66211C10.2873 8.19103 10 7.68875 10 7.35547V4.82031C10.0915 4.87131 10.1845 4.92222 10.2783 4.96875C11.5375 5.59296 13.21 5.95016 15.001 5.9502C16.7917 5.95007 18.4637 5.59289 19.7227 4.96875C19.8163 4.92232 19.9087 4.87118 20 4.82031V7.35547ZM15.001 0C16.5225 0.000131557 17.8515 0.307685 18.7637 0.759766C19.7133 1.23079 20 1.73317 20 2.06641C19.9999 2.39964 19.7132 2.90111 18.7637 3.37207C17.8515 3.82424 16.5227 4.13268 15.001 4.13281C13.4789 4.13278 12.1496 3.82431 11.2373 3.37207C10.3446 2.92937 10.0415 2.4595 10.0078 2.12793C10.0967 1.76731 10.4959 1.25524 11.3955 0.793945C12.3099 0.325323 13.5803 3.62325e-05 15.001 0Z" fill="currentColor"/>
</svg>
