<svg viewBox="0 0 24 24" fill="currentCOlor" xmlns="http://www.w3.org/2000/svg">
<g clip-path="url(#clip0_2698_81562)">
<path d="M8.71074 1.80957C9.96917 -0.102035 12.4639 -0.574964 14.2713 0.755854C15.9958 2.0258 16.4806 4.48566 15.4285 6.36914C15.378 6.45949 15.325 6.54921 15.2674 6.63671C15.1724 6.78096 15.0689 6.91625 14.9607 7.04394C12.3981 11.0451 12.5641 13.258 15.033 17.0185C15.1671 17.1831 15.2874 17.3575 15.3943 17.5391C16.2135 18.9301 16.225 20.7635 15.285 22.1914C14.0264 24.1028 11.5318 24.5751 9.72441 23.2441C7.99724 21.9721 7.51426 19.5066 8.57304 17.6221C8.62214 17.5347 8.67355 17.448 8.72929 17.3633C8.82544 17.2172 8.92914 17.0803 9.03886 16.9512C11.5793 12.9971 11.4519 10.8534 9.06621 7.10156C8.99672 7.02262 8.92974 6.941 8.86601 6.85644C8.80854 6.77178 8.75073 6.68944 8.69218 6.60742C8.63259 6.5151 8.57708 6.42027 8.52519 6.32421C7.76739 4.92141 7.83004 3.14771 8.71074 1.80957ZM13.9695 16.7148C14.0765 16.8037 14.1805 16.9006 14.2791 17.0049C15.6174 18.4203 15.6172 20.7153 14.2791 22.1309C13.1299 23.3461 11.3671 23.5182 10.0447 22.6465C11.3896 23.7642 13.3431 23.6674 14.5828 22.3564C15.921 20.9409 15.9211 18.6459 14.5828 17.2305C14.3937 17.0305 14.1872 16.8583 13.9695 16.7148ZM13.9529 1.29589C12.6082 0.178693 10.6553 0.275248 9.41581 1.58593C8.0777 3.00137 8.07778 5.29642 9.41581 6.71191C9.60487 6.91186 9.81056 7.08409 10.0281 7.22753C9.92123 7.13867 9.81806 7.04171 9.71953 6.9375C8.38149 5.52201 8.38141 3.22695 9.71953 1.81152C10.8685 0.596463 12.6306 0.424632 13.9529 1.29589Z"/>
<path d="M0 16.4609V3.5H1.56163V9.05464C1.56163 9.77086 1.50265 10.3109 1.38493 10.6749C1.26709 11.0392 1.02852 11.394 0.669251 11.7395L1.20836 12.2764L6.46923 7.29575H8.14978C8.28623 7.29575 8.35181 7.46316 8.25167 7.55584L4.43228 11.0906L3.3112 12.1139L1.56163 13.7243V16.4609H0ZM6.85963 16.4609L3.3112 12.1139L4.43228 11.0906L8.69967 16.2149C8.78104 16.3126 8.71156 16.4609 8.58441 16.4609H6.85963Z"/>
<path d="M18.7551 16.7201C18.0487 16.7201 17.4103 16.5258 16.8405 16.1368C16.2702 15.7481 15.8208 15.1866 15.4927 14.4519C15.1641 13.7177 15 12.8566 15 11.869C15 10.8818 15.1641 10.0238 15.4927 9.29538C15.8208 8.56718 16.2702 8.00858 16.8405 7.61986C17.4103 7.23088 18.0487 7.03652 18.7551 7.03652C19.573 7.03652 20.2206 7.2525 20.6977 7.68448C21.1747 8.1167 21.5249 8.65367 21.7481 9.29538H22.6961C22.3987 8.83891 22.1725 8.36683 22.0176 7.87884C21.8625 7.39137 21.7852 6.7403 21.7852 5.92559V3.5H23.3467V16.4609H21.9153C21.9153 16.1524 21.9926 15.8192 22.1478 15.461C22.3026 15.1033 22.4792 14.77 22.6776 14.4613H21.7666C21.5185 15.0908 21.1685 15.6248 20.7163 16.0628C20.2637 16.5008 19.6103 16.7201 18.7551 16.7201ZM19.2199 15.3685C19.7403 15.3685 20.1959 15.239 20.5863 14.9797C20.9765 14.7205 21.2863 14.3287 21.5157 13.8039C21.7448 13.2795 21.8596 12.6347 21.8596 11.8689C21.8596 11.1037 21.7448 10.4589 21.5157 9.93418C21.2863 9.40973 20.9765 9.02074 20.5863 8.76776C20.1959 8.51478 19.7403 8.38815 19.2199 8.38815C18.7115 8.38815 18.2625 8.50227 17.8721 8.73076C17.4817 8.95924 17.1779 9.33234 16.9612 9.8508C16.7442 10.3693 16.6359 11.0422 16.6359 11.8689C16.6359 12.6836 16.7475 13.3503 16.9705 13.8688C17.1936 14.387 17.4972 14.7666 17.8814 15.0073C18.2654 15.2481 18.7115 15.3685 19.2199 15.3685Z" />
</g>
<defs>
<clipPath id="clip0_2698_81562">
<rect width="24" height="24"/>
</clipPath>
</defs>
</svg>
