<svg viewBox="0 0 20 21" fill="currentColor" xmlns="http://www.w3.org/2000/svg">
<g id="filter">
<g id="Vector">
<path fill-rule="evenodd" clip-rule="evenodd" d="M0 4.5C0 3.67157 0.706919 3 1.57895 3H18.4211C19.2931 3 20 3.67157 20 4.5C20 5.32843 19.2931 6 18.4211 6H1.57895C0.706919 6 0 5.32843 0 4.5Z" />
<path fill-rule="evenodd" clip-rule="evenodd" d="M3.15789 10.5C3.15789 9.67157 3.86481 9 4.73684 9H15.2632C16.1352 9 16.8421 9.67157 16.8421 10.5C16.8421 11.3284 16.1352 12 15.2632 12H4.73684C3.86481 12 3.15789 11.3284 3.15789 10.5Z" />
<path fill-rule="evenodd" clip-rule="evenodd" d="M6.31579 16.5C6.31579 15.6716 7.02271 15 7.89474 15H12.1053C12.9773 15 13.6842 15.6716 13.6842 16.5C13.6842 17.3284 12.9773 18 12.1053 18H7.89474C7.02271 18 6.31579 17.3284 6.31579 16.5Z" />
</g>
</g>
</svg>
