<svg viewBox="0 0 24 24" fill="currentColor" xmlns="http://www.w3.org/2000/svg">
<path fill-rule="evenodd" clip-rule="evenodd" d="M2 6C2 5.17157 2.70692 4.5 3.57895 4.5H20.4211C21.2931 4.5 22 5.17157 22 6C22 6.82843 21.2931 7.5 20.4211 7.5H3.57895C2.70692 7.5 2 6.82843 2 6Z"/>
<path fill-rule="evenodd" clip-rule="evenodd" d="M5.15789 12C5.15789 11.1716 5.86481 10.5 6.73684 10.5H17.2632C18.1352 10.5 18.8421 11.1716 18.8421 12C18.8421 12.8284 18.1352 13.5 17.2632 13.5H6.73684C5.86481 13.5 5.15789 12.8284 5.15789 12Z"/>
<path fill-rule="evenodd" clip-rule="evenodd" d="M8.31579 18C8.31579 17.1716 9.02271 16.5 9.89474 16.5H14.1053C14.9773 16.5 15.6842 17.1716 15.6842 18C15.6842 18.8284 14.9773 19.5 14.1053 19.5H9.89474C9.02271 19.5 8.31579 18.8284 8.31579 18Z"/>
</svg>
