<svg viewBox="0 0 20 20" fill="currentColor" xmlns="http://www.w3.org/2000/svg">
<path d="M14.0742 3.88431C14.2097 4.41973 13.745 4.8747 13.1928 4.8747H12.418C11.8709 4.8747 11.453 4.37342 11.0683 3.98442C11.0567 3.9726 11.0447 3.96093 11.0325 3.9494C10.7765 3.69879 10.3925 3.57349 9.88057 3.57349C9.61967 3.57349 9.37846 3.61205 9.15695 3.68916C8.93543 3.76145 8.75575 3.8747 8.61792 4.02892C8.48501 4.17831 8.41856 4.36867 8.41856 4.6C8.41856 4.83133 8.49486 5.04096 8.64746 5.22892C8.80006 5.41687 8.98466 5.58072 9.20125 5.72048C9.41784 5.85542 9.62459 5.96145 9.82149 6.03855L12.6495 7.31807C12.8464 7.40482 13.0852 7.53012 13.3658 7.69398C13.6463 7.85783 13.9171 8.06988 14.178 8.33012C14.4438 8.59036 14.6555 8.91325 14.813 9.29879C14.9754 9.67952 15.0321 10.1325 14.9828 10.6578C14.9484 11.0627 14.8228 11.4024 14.6062 11.6771C14.3897 11.9518 14.1435 12.1711 13.8679 12.3349C13.5997 12.4925 13.3556 12.6027 13.1357 12.6657C13.1316 12.6669 13.1277 12.6688 13.1243 12.6715C13.1079 12.6844 13.1073 12.7091 13.123 12.7229C13.5214 13.0728 13.8239 13.464 14.0303 13.8964C14.2469 14.3398 14.3552 14.8361 14.3552 15.3855C14.3552 16.147 14.1632 16.7952 13.7793 17.3301C13.3953 17.8699 12.8735 18.2819 12.2139 18.5663C11.5542 18.8554 10.8109 19 9.98394 19C9.07818 19 8.27826 18.8361 7.58418 18.5084C6.89502 18.1807 6.35599 17.7181 5.96711 17.1205C5.74766 16.786 5.59013 16.4177 5.49451 16.0157C5.36673 15.4784 5.8315 15.0241 6.38378 15.0241H7.16012C7.71241 15.0241 8.11323 15.5405 8.49539 15.9392C8.54339 15.9893 8.59654 16.0361 8.65484 16.0795C8.98958 16.3253 9.44492 16.4337 10.0209 16.4048C10.395 16.3952 10.7445 16.3108 11.0694 16.1518C11.3943 15.9976 11.5567 15.7422 11.5567 15.3855C11.5567 15.1349 11.4804 14.9205 11.3278 14.7422C11.1752 14.559 10.9931 14.4048 10.7814 14.2795C10.5747 14.1494 10.3777 14.0386 10.1907 13.947L7.36266 12.6964C7.16084 12.6048 6.91717 12.4795 6.63166 12.3205C6.35107 12.1566 6.07787 11.9422 5.81205 11.6771C5.55115 11.412 5.34194 11.0867 5.18442 10.7012C5.02689 10.3157 4.97028 9.85783 5.01459 9.32771C5.04905 8.92289 5.16719 8.58313 5.36901 8.30843C5.57576 8.03373 5.81697 7.81446 6.09263 7.6506C6.36815 7.48971 6.62705 7.37528 6.86935 7.30732C6.87724 7.3051 6.88271 7.29793 6.88271 7.28973C6.88271 7.28475 6.88066 7.27998 6.87706 7.27654C6.50555 6.92129 6.20469 6.5255 5.97449 6.08916C5.74805 5.6506 5.63729 5.15422 5.64222 4.6C5.64222 3.90602 5.82189 3.28916 6.18124 2.7494C6.54059 2.20964 7.04023 1.78313 7.68017 1.46988C8.32011 1.15663 9.05357 1 9.88057 1C10.7469 1 11.5001 1.16867 12.14 1.50602C12.7849 1.83855 13.287 2.29639 13.6463 2.87952C13.841 3.19106 13.9836 3.526 14.0742 3.88431ZM12.4059 10.8169C12.4255 10.653 12.3935 10.494 12.3099 10.3398C12.2262 10.1807 12.0933 10.0313 11.9111 9.89157C11.729 9.75181 11.4952 9.6241 11.2097 9.50843L8.74345 8.41687C8.56623 8.33494 8.39148 8.31807 8.21919 8.36626C8.05182 8.41446 7.90907 8.51084 7.79093 8.65542C7.67279 8.79518 7.60141 8.96627 7.57679 9.16868C7.53741 9.4241 7.62356 9.66506 7.83523 9.89157C8.05182 10.1181 8.36687 10.3181 8.78037 10.4916L11.2466 11.5687C11.3992 11.6361 11.5592 11.6482 11.7265 11.6048C11.8939 11.5566 12.0416 11.4651 12.1696 11.3301C12.3025 11.1904 12.3812 11.0193 12.4059 10.8169Z" />
</svg>
