<svg viewBox="0 0 24 24" fill="currentColor" xmlns="http://www.w3.org/2000/svg">
<path d="M8 12.3333C8 14.1717 9.495 15.6667 11.3333 15.6667C12.8008 15.6667 14.035 14.7075 14.4792 13.3883L16.3325 12.3125L16.3333 12.3333C16.3333 15.095 14.095 17.3333 11.3333 17.3333C8.57167 17.3333 6.33333 15.095 6.33333 12.3333C6.33333 9.57167 8.57167 7.33333 11.3333 7.33333C12.2367 7.33333 13.0817 7.57667 13.8125 7.995L11.9708 9.06417C11.7642 9.02417 11.5517 9 11.3333 9C9.495 9 8 10.495 8 12.3333ZM11.3333 10.6667C10.4125 10.6667 9.66667 11.4133 9.66667 12.3333C9.66667 13.2533 10.4125 14 11.3333 14C12.2542 14 13 13.2533 13 12.3333L12.9983 12.3208L15.7983 10.6958C16.6117 10.225 18.0517 10.4158 18.8908 10.8283L23 8.4425L20.3683 7.135L20.5092 4.10833L16.3883 6.5C16.33 7.43417 15.7767 8.78 14.9675 9.25083L12.1483 10.8875C11.9067 10.7517 11.6308 10.6667 11.3333 10.6667ZM17.9958 12.2592L18 12.3333C18 16.0092 15.0092 19 11.3333 19C7.6575 19 4.66667 16.0092 4.66667 12.3333C4.66667 8.6575 7.6575 5.66667 11.3333 5.66667C12.5625 5.66667 13.7108 6.00667 14.7008 6.58917C14.9792 6.10083 15.0575 5.3025 14.8225 4.7725C13.76 4.28167 12.5808 4 11.3333 4C6.73083 4 3 7.73083 3 12.3333C3 16.9358 6.73083 20.6667 11.3333 20.6667C15.6942 20.6667 19.2675 17.3158 19.6308 13.0483C19.38 12.6458 18.7425 12.1642 17.9958 12.2592Z" />
</svg>
