<svg viewBox="0 0 13 17" fill="currentColor" xmlns="http://www.w3.org/2000/svg">
<path d="M3.91781 11.1935C3.91781 10.3065 3.99498 9.59946 4.14931 9.07258C4.30365 8.5457 4.53219 8.12365 4.83493 7.80645C5.13767 7.48387 5.50868 7.19355 5.94795 6.93548C6.32785 6.70968 6.66621 6.49194 6.96301 6.28226C7.26575 6.07258 7.5032 5.84946 7.67534 5.6129C7.85343 5.37634 7.94247 5.10753 7.94247 4.80645C7.94247 4.53763 7.87123 4.30108 7.72877 4.09678C7.5863 3.89247 7.39338 3.73387 7.15 3.62097C6.90662 3.50806 6.63653 3.45161 6.33973 3.45161C6.01918 3.45161 5.72237 3.51882 5.44932 3.65323C5.18219 3.78763 4.96553 3.97312 4.79932 4.20968C4.63904 4.44624 4.5589 4.72043 4.5589 5.03226H0C0.0118721 3.84946 0.308676 2.88978 0.890411 2.15323C1.47215 1.41129 2.24384 0.86828 3.20548 0.524193C4.16712 0.174731 5.22374 0 6.37534 0C7.64566 0 8.77945 0.169355 9.77671 0.508065C10.774 0.841398 11.5605 1.34677 12.1363 2.02419C12.7121 2.69624 13 3.53763 13 4.54839C13 5.19892 12.8753 5.77151 12.626 6.26613C12.3826 6.75538 12.0413 7.18817 11.6021 7.56452C11.1687 7.93548 10.6612 8.27419 10.0795 8.58064C9.65205 8.80645 9.29292 9.04032 9.00205 9.28226C8.71119 9.51882 8.49155 9.79032 8.34315 10.0968C8.19475 10.3978 8.12055 10.7634 8.12055 11.1935H3.91781ZM6.09041 17C5.40183 17 4.81119 16.7823 4.31849 16.3468C3.83173 15.9059 3.59132 15.371 3.59726 14.7419C3.59132 14.129 3.83173 13.6048 4.31849 13.1694C4.81119 12.7339 5.40183 12.5161 6.09041 12.5161C6.74338 12.5161 7.31918 12.7339 7.81781 13.1694C8.32237 13.6048 8.57762 14.129 8.58356 14.7419C8.57762 15.1613 8.45594 15.543 8.21849 15.8871C7.98699 16.2258 7.68425 16.4973 7.31027 16.7016C6.9363 16.9005 6.52968 17 6.09041 17Z" />
</svg>
