<svg viewBox="0 0 20.002 20" fill="none" xmlns="http://www.w3.org/2000/svg">
  <path d="M10 17.9336C10 18.2668 9.7133 18.7692 8.76367 19.2402C7.85146 19.6924 6.52185 19.9999 5 20C3.47827 19.9999 2.14951 19.6924 1.2373 19.2402C0.287235 18.7691 0 18.2669 0 17.9336V15.3984C0.0915286 15.4495 0.184443 15.5003 0.27832 15.5469C1.53738 16.1711 3.20911 16.5282 5 16.5283C6.791 16.5282 8.46358 16.1711 9.72266 15.5469C9.81628 15.5004 9.90871 15.4493 10 15.3984V17.9336ZM10 12.6445C10 12.9778 9.71331 13.4802 8.76367 13.9512C7.85146 14.4033 6.5218 14.7108 5 14.7109C3.47832 14.7109 2.14951 14.4033 1.2373 13.9512C0.287235 13.4801 0 12.9778 0 12.6445V10.1094C0.091526 10.1604 0.184446 10.2113 0.27832 10.2578C1.53738 10.882 3.20911 11.2392 5 11.2393C6.79096 11.2392 8.46359 10.882 9.72266 10.2578C9.81625 10.2114 9.90874 10.1602 10 10.1094V12.6445ZM19.1045 4.00488C19.6083 4.05647 20.002 4.48247 20.002 5V8.79102C20.0018 9.34308 19.5539 9.79074 19.002 9.79102C18.4498 9.79102 18.0021 9.34325 18.002 8.79102V7.41406L13.707 11.71C13.3166 12.1 12.6834 12.1 12.293 11.71C11.9025 11.3194 11.9025 10.6855 12.293 10.2949L16.5879 6H15.2109C14.6589 5.99986 14.2111 5.55209 14.2109 5C14.2109 4.44776 14.6588 4.00014 15.2109 4H19.002L19.1045 4.00488ZM10 7.35547C10 7.6887 9.71331 8.19109 8.76367 8.66211C7.85146 9.11426 6.52175 9.42179 5 9.42188C3.47837 9.42179 2.14951 9.1142 1.2373 8.66211C0.287239 8.19101 2.10095e-06 7.68876 0 7.35547V4.82031C0.0914971 4.87131 0.184477 4.92222 0.27832 4.96875C1.53737 5.59291 3.20915 5.95011 5 5.9502C6.79092 5.95011 8.4636 5.59295 9.72266 4.96875C9.81622 4.92234 9.90877 4.87116 10 4.82031V7.35547ZM5 0C6.52177 8.77332e-05 7.85146 0.307612 8.76367 0.759766C9.7133 1.23078 10 1.73318 10 2.06641C9.99993 2.39964 9.71322 2.90111 8.76367 3.37207C7.85145 3.82433 6.52198 4.13272 5 4.13281C3.47824 4.13273 2.14952 3.82422 1.2373 3.37207C0.344576 2.92937 0.0415014 2.4595 0.0078125 2.12793C0.0967069 1.76734 0.495086 1.25519 1.39453 0.793945C2.30885 0.325253 3.57926 9.83439e-05 5 0Z" fill="currentColor"/>
</svg>
