<svg viewBox="0 0 19.9983 20.0029" fill="none" xmlns="http://www.w3.org/2000/svg">
  <path d="M5.50222 0C6.87877 0 8.17496 0.301979 9.16237 0.84082C10.1121 1.35914 11.0003 2.23994 11.0003 3.45508V16.5479C11.0003 17.763 10.1121 18.6438 9.16237 19.1621C8.17495 19.701 6.87881 20.0029 5.50222 20.0029C4.12569 20.0029 2.82943 19.701 1.84206 19.1621C0.892452 18.6438 0.00416838 17.7628 0.00416838 16.5479V3.55273C0.00384998 3.54884 0.00342374 3.54526 0.00319182 3.54199C0.00160133 3.51949 0.000485065 3.50037 0.000262135 3.48926C-0.000170184 3.46722 6.41044e-06 3.44926 0.000262135 3.43945C0.000806054 3.41863 0.0022739 3.4002 0.00319182 3.38672C0.00411254 3.37324 0.00574013 3.35404 0.00807463 3.33301C0.00917594 3.32311 0.0113752 3.30448 0.0149106 3.28223C0.0166967 3.27101 0.0198695 3.25207 0.0246762 3.22949C0.0271653 3.21782 0.0304805 3.20139 0.0354184 3.18262C0.0366289 3.17802 0.0386446 3.17288 0.0403012 3.16699C0.243974 2.15938 1.05408 1.38015 1.93874 0.880859C2.90655 0.334686 4.159 3.85698e-05 5.50222 0ZM2.00417 16.5479C2.00417 16.6886 2.12273 17.036 2.80104 17.4062C3.44165 17.7558 4.39472 18.0029 5.50222 18.0029C6.60994 18.0029 7.56371 17.7559 8.20436 17.4062C8.88253 17.0361 9.00026 16.6885 9.00026 16.5479V14.8818C8.03515 15.3675 6.80486 15.6387 5.50222 15.6387C4.19933 15.6386 2.96933 15.3668 2.00417 14.8809V16.5479ZM2.00417 12.1836C2.00417 12.3243 2.12273 12.6718 2.80104 13.042C3.44165 13.3915 4.39475 13.6386 5.50222 13.6387C6.60994 13.6387 7.56371 13.3916 8.20436 13.042C8.88259 12.6718 9.00026 12.3243 9.00026 12.1836V10.5176C8.03516 11.0033 6.80484 11.2744 5.50222 11.2744C4.19936 11.2744 2.96932 11.0025 2.00417 10.5166V12.1836ZM19.1008 4.00488C19.6047 4.05644 19.9983 4.48245 19.9983 5V8.79102C19.9982 9.3431 19.5503 9.79078 18.9983 9.79102C18.4461 9.79102 17.9984 9.34325 17.9983 8.79102V7.41406L13.7034 11.71C13.313 12.1 12.6797 12.1001 12.2893 11.71C11.8988 11.3194 11.8988 10.6855 12.2893 10.2949L16.5842 6H15.2073C14.6553 5.99986 14.2075 5.55209 14.2073 5C14.2073 4.44776 14.6552 4.00014 15.2073 4H18.9983L19.1008 4.00488ZM9.00026 6.15234C8.03511 6.63813 6.80499 6.91016 5.50222 6.91016C4.19938 6.91012 2.96931 6.63821 2.00417 6.15234V7.81934C2.00417 7.96004 2.12273 8.30753 2.80104 8.67773C3.44165 9.02723 4.39479 9.27438 5.50222 9.27441C6.60994 9.27441 7.56371 9.02736 8.20436 8.67773C8.88264 8.30754 9.00026 7.96004 9.00026 7.81934V6.15234ZM5.50222 2C4.47648 2.00004 3.56736 2.25893 2.92214 2.62305C2.31406 2.96622 2.0749 3.31629 2.011 3.52148C2.04494 3.68824 2.21267 3.99236 2.80104 4.31348C3.44165 4.66296 4.39483 4.91012 5.50222 4.91016C6.60994 4.91016 7.56371 4.6631 8.20436 4.31348C8.88254 3.94335 9.00021 3.59585 9.00026 3.45508C9.00026 3.31437 8.88263 2.96687 8.20436 2.59668C7.56371 2.24705 6.60994 2 5.50222 2Z" fill="currentColor"/>
</svg>
