<svg viewBox="0 0 24 24" fill="currentColor" xmlns="http://www.w3.org/2000/svg">
<path d="M16.7139 17.0078C17.47 17.0848 18.0596 17.7235 18.0596 18.5C18.0596 19.2765 17.47 19.9152 16.7139 19.9922L16.5596 20H4.5C3.67159 20 3 19.3284 3 18.5C3 17.6716 3.67159 17 4.5 17H16.5596L16.7139 17.0078ZM12.6943 11.0078C13.4505 11.0848 14.041 11.7235 14.041 12.5C14.041 13.2765 13.4505 13.9152 12.6943 13.9922L12.541 14H4.50098C3.67255 14 3.00098 13.3284 3.00098 12.5C3.00098 11.6716 3.67255 11 4.50098 11H12.541L12.6943 11.0078ZM19.7334 5.00781C20.4896 5.08478 21.0801 5.72346 21.0801 6.5C21.0801 7.27654 20.4896 7.91522 19.7334 7.99219L19.5801 8H4.5C3.67159 7.99998 3 7.32842 3 6.5C3 5.67158 3.67159 5.00002 4.5 5H19.5801L19.7334 5.00781Z"/>
</svg>
