<svg viewBox="0 0 24 24" fill="currentColor" xmlns="http://www.w3.org/2000/svg">
<path d="M2.3999 5.29998C2.3999 4.98172 2.52633 4.67649 2.75137 4.45145C2.97642 4.2264 3.28164 4.09998 3.5999 4.09998H5.9999C6.31816 4.09998 6.62339 4.2264 6.84843 4.45145C7.07347 4.67649 7.1999 4.98172 7.1999 5.29998V19.7C7.1999 20.0182 7.07347 20.3235 6.84843 20.5485C6.62339 20.7736 6.31816 20.9 5.9999 20.9H3.5999C3.28164 20.9 2.97642 20.7736 2.75137 20.5485C2.52633 20.3235 2.3999 20.0182 2.3999 19.7V5.29998ZM9.5999 8.29998C9.5999 7.98172 9.72633 7.67649 9.95137 7.45145C10.1764 7.2264 10.4816 7.09998 10.7999 7.09998H13.1999C13.5182 7.09998 13.8234 7.2264 14.0484 7.45145C14.2735 7.67649 14.3999 7.98172 14.3999 8.29998V19.7C14.3999 20.0182 14.2735 20.3235 14.0484 20.5485C13.8234 20.7736 13.5182 20.9 13.1999 20.9H10.7999C10.4816 20.9 10.1764 20.7736 9.95137 20.5485C9.72633 20.3235 9.5999 20.0182 9.5999 19.7V8.29998ZM17.9999 10.1C17.6816 10.1 17.3764 10.2264 17.1514 10.4514C16.9263 10.6765 16.7999 10.9817 16.7999 11.3V19.7C16.7999 20.0182 16.9263 20.3235 17.1514 20.5485C17.3764 20.7736 17.6816 20.9 17.9999 20.9H20.3999C20.7182 20.9 21.0234 20.7736 21.2484 20.5485C21.4735 20.3235 21.5999 20.0182 21.5999 19.7V11.3C21.5999 10.9817 21.4735 10.6765 21.2484 10.4514C21.0234 10.2264 20.7182 10.1 20.3999 10.1H17.9999Z"/>
</svg>
