<svg viewBox="0 0 24 24" fill="currentColor" xmlns="http://www.w3.org/2000/svg">
    <path fill-rule="evenodd" clip-rule="evenodd" d="M13.5599 1.25522C13.8035 1.33183 14.0163 1.48416 14.1674 1.69005C14.3185 1.89594 14.3999 2.14465 14.3999 2.40002V8.40002H19.1999C19.4194 8.39992 19.6347 8.46003 19.8224 8.57381C20.0102 8.68759 20.1631 8.85067 20.2645 9.04531C20.366 9.23995 20.4121 9.4587 20.3979 9.67774C20.3837 9.89678 20.3097 10.1077 20.1839 10.2876L11.7839 22.2876C11.6377 22.4971 11.4285 22.6544 11.1867 22.7367C10.9449 22.8191 10.6832 22.8221 10.4395 22.7454C10.1959 22.6687 9.9831 22.5163 9.83209 22.3103C9.68108 22.1043 9.59974 21.8554 9.5999 21.6V15.6H4.7999C4.5804 15.6001 4.36507 15.54 4.17736 15.4262C3.98965 15.3125 3.83674 15.1494 3.73527 14.9547C3.6338 14.7601 3.58767 14.5413 3.60189 14.3223C3.6161 14.1033 3.69012 13.8923 3.8159 13.7124L12.2159 1.71242C12.3623 1.50336 12.5716 1.34643 12.8133 1.26443C13.055 1.18243 13.3165 1.17962 13.5599 1.25642V1.25522Z"/>
</svg>

