<svg width="24" height="24" viewBox="0 0 24 24" fill="currentColor" xmlns="http://www.w3.org/2000/svg">
<path d="M10.7998 8.90137C11.94 8.90137 13.0335 9.35403 13.8398 10.1602L13.8457 10.166C13.9126 10.2306 13.9662 10.3082 14.0029 10.3936C14.0395 10.4788 14.0587 10.5704 14.0596 10.6631C14.0604 10.756 14.043 10.8486 14.0078 10.9346C13.9726 11.0205 13.9202 11.0984 13.8545 11.1641C13.7888 11.2297 13.711 11.2822 13.625 11.3174C13.539 11.3526 13.4465 11.3699 13.3535 11.3691C13.2606 11.3683 13.1684 11.3492 13.083 11.3125C12.9979 11.2759 12.9208 11.2228 12.8564 11.1562L12.8506 11.1494L12.6377 10.957C12.1217 10.5343 11.4727 10.3008 10.7998 10.3008C10.0308 10.3008 9.29285 10.6057 8.74902 11.1494L5.15527 14.7432C4.87837 15.0106 4.65784 15.3309 4.50586 15.6846C4.35387 16.0384 4.27385 16.4196 4.27051 16.8047C4.26721 17.1896 4.34056 17.5715 4.48633 17.9277C4.63214 18.2841 4.84786 18.6076 5.12012 18.8799C5.39238 19.1521 5.71591 19.3679 6.07227 19.5137C6.42857 19.6594 6.81036 19.7328 7.19531 19.7295C7.58022 19.7261 7.96076 19.646 8.31445 19.4941C8.66552 19.3433 8.98277 19.1236 9.24902 18.8496L9.25 18.8506L11.0566 17.0439C11.1211 16.9773 11.1981 16.9243 11.2832 16.8877C11.3686 16.851 11.4608 16.8309 11.5537 16.8301C11.6466 16.8293 11.7392 16.8476 11.8252 16.8828C11.911 16.918 11.9891 16.9696 12.0547 17.0352C12.1204 17.1009 12.1728 17.1796 12.208 17.2656C12.2431 17.3514 12.2605 17.4434 12.2598 17.5361C12.259 17.629 12.2398 17.7213 12.2031 17.8066C12.1664 17.892 12.1128 17.9696 12.0459 18.0342L10.2334 19.8467C9.83682 20.2572 9.36233 20.5843 8.83789 20.8096C8.31327 21.0349 7.74868 21.1542 7.17773 21.1592C6.60699 21.1641 6.04097 21.055 5.5127 20.8389C4.98428 20.6227 4.50431 20.3031 4.10059 19.8994C3.69687 19.4957 3.37734 19.0157 3.16113 18.4873C2.94492 17.9588 2.83586 17.3922 2.84082 16.8213C2.84582 16.2506 2.96426 15.6865 3.18945 15.1621C3.41481 14.6375 3.74263 14.1623 4.15332 13.7656L4.16016 13.7598L7.75977 10.1602C8.56613 9.35403 9.6596 8.90137 10.7998 8.90137ZM16.7783 2.95898C17.9057 2.96882 18.984 3.42153 19.7812 4.21875C20.5784 5.016 21.0312 6.09428 21.041 7.22168C21.0508 8.34625 20.6194 9.42992 19.8398 10.2402L16.2402 13.8398C15.434 14.6459 14.3403 15.0985 13.2002 15.0986C12.1314 15.0986 11.1032 14.7011 10.3145 13.9873L10.1602 13.8398C10.0364 13.7085 9.96816 13.5342 9.96973 13.3535C9.97141 13.1701 10.0451 12.9949 10.1748 12.8652C10.3045 12.7355 10.4797 12.6618 10.6631 12.6602C10.8465 12.6586 11.0233 12.7291 11.1553 12.8564V12.8555C11.6986 13.3958 12.4338 13.6992 13.2002 13.6992C13.969 13.6991 14.7063 13.3941 15.25 12.8506L18.8506 9.25L18.8496 9.24902C19.1234 8.98285 19.3434 8.66635 19.4941 8.31543C19.6461 7.96162 19.7261 7.58037 19.7295 7.19531C19.7328 6.81039 19.6594 6.42854 19.5137 6.07227C19.3679 5.71591 19.1521 5.39239 18.8799 5.12012C18.6076 4.84788 18.284 4.63214 17.9277 4.48633C17.5713 4.34051 17.1888 4.26716 16.8037 4.27051C16.4188 4.2739 16.0383 4.35392 15.6846 4.50586C15.3334 4.65672 15.0153 4.87533 14.749 5.14941L12.9492 6.94922L12.9434 6.95605C12.8788 7.02286 12.8012 7.07564 12.7158 7.1123C12.6306 7.14891 12.5391 7.16907 12.4463 7.16992C12.3533 7.17073 12.2608 7.15238 12.1748 7.11719C12.089 7.08206 12.0109 7.03037 11.9453 6.96484C11.8796 6.89912 11.8272 6.8204 11.792 6.73438C11.7569 6.64853 11.7395 6.55661 11.7402 6.46387C11.741 6.37093 11.7602 6.27876 11.7969 6.19336C11.8335 6.10801 11.8863 6.03037 11.9531 5.96582L11.96 5.95996L13.7539 4.16602C14.5649 3.38285 15.651 2.94919 16.7783 2.95898Z" fill="#374151" stroke="#6F7A90"/>
</svg>
