<svg viewBox="0 0 24 24" fill="currentColor" xmlns="http://www.w3.org/2000/svg">
<path fill-rule="evenodd" clip-rule="evenodd" d="M14.3999 1.9032L9.5999 6.7032V22.0968L14.3999 17.2968V1.9032ZM4.4483 3.9516C4.28048 3.78383 4.06668 3.66958 3.83394 3.6233C3.6012 3.57702 3.35996 3.60078 3.14072 3.69158C2.92148 3.78239 2.73408 3.93616 2.60222 4.13345C2.47036 4.33074 2.39995 4.5627 2.3999 4.8V16.8C2.39997 17.1182 2.52644 17.4234 2.7515 17.6484L7.1999 22.0968V6.7032L4.4483 3.9516ZM21.2483 6.3516L16.7999 1.9032V17.2968L19.5515 20.0484C19.7193 20.2162 19.9331 20.3304 20.1659 20.3767C20.3986 20.423 20.6398 20.3992 20.8591 20.3084C21.0783 20.2176 21.2657 20.0638 21.3976 19.8665C21.5294 19.6693 21.5999 19.4373 21.5999 19.2V7.2C21.5998 6.88176 21.4734 6.57659 21.2483 6.3516Z"/>
</svg>
