<svg viewBox="0 0 24 24" fill="currentColor" xmlns="http://www.w3.org/2000/svg">
<path d="M20.8902 14.1938C20.5958 14.1938 20.3136 14.3106 20.1054 14.5184C19.8973 14.7263 19.7804 15.0083 19.7804 15.3023V18.1689L16.1257 14.5186C15.9164 14.3166 15.6361 14.2049 15.3451 14.2074C15.0541 14.21 14.7758 14.3265 14.57 14.5321C14.3642 14.7376 14.2475 15.0156 14.245 15.3063C14.2424 15.5969 14.3543 15.877 14.5565 16.086L18.2566 19.783H15.3411C15.0468 19.783 14.7645 19.8997 14.5563 20.1076C14.3482 20.3155 14.2313 20.5975 14.2313 20.8915C14.2313 21.1855 14.3482 21.4674 14.5563 21.6753C14.7645 21.8832 15.0468 22 15.3411 22H20.8902C21.1845 22 21.4668 21.8832 21.6749 21.6753C21.8831 21.4674 22 21.1855 22 20.8915V15.3023C22 15.0083 21.8831 14.7263 21.6749 14.5184C21.4668 14.3106 21.1845 14.1938 20.8902 14.1938Z"/>
<path d="M5.81222 4.21705H8.6822C8.97655 4.21705 9.25883 4.10026 9.46696 3.89237C9.67509 3.68448 9.79202 3.40252 9.79202 3.10852C9.79202 2.81453 9.67509 2.53257 9.46696 2.32468C9.25883 2.11679 8.97655 2 8.6822 2H3.10982C2.81547 2 2.53319 2.11679 2.32506 2.32468C2.11693 2.53257 2 2.81453 2 3.10852V8.65115C2 8.94515 2.11693 9.2271 2.32506 9.43499C2.53319 9.64288 2.81547 9.75967 3.10982 9.75967C3.40416 9.75967 3.68644 9.64288 3.89457 9.43499C4.10271 9.2271 4.21963 8.94515 4.21963 8.65115V5.76122L7.89756 9.43487C8.10688 9.6368 8.38722 9.74853 8.67821 9.74601C8.9692 9.74348 9.24756 9.6269 9.45332 9.42137C9.65909 9.21584 9.77581 8.93781 9.77834 8.64716C9.78087 8.35651 9.66901 8.07649 9.46684 7.86742L5.81222 4.21705Z"/>
<path d="M8.6822 19.783H5.76672L9.46684 16.086C9.66901 15.877 9.78087 15.5969 9.77834 15.3063C9.77581 15.0156 9.65909 14.7376 9.45332 14.5321C9.24756 14.3265 8.9692 14.21 8.67821 14.2074C8.38722 14.2049 8.10688 14.3166 7.89756 14.5186L4.21963 18.1922V15.3023C4.21963 15.0083 4.10271 14.7263 3.89457 14.5184C3.68644 14.3106 3.40416 14.1938 3.10982 14.1938C2.81547 14.1938 2.53319 14.3106 2.32506 14.5184C2.11693 14.7263 2 15.0083 2 15.3023V20.8915C2 21.1855 2.11693 21.4674 2.32506 21.6753C2.53319 21.8832 2.81547 22 3.10982 22H8.6822C8.97655 22 9.25883 21.8832 9.46696 21.6753C9.67509 21.4674 9.79202 21.1855 9.79202 20.8915C9.79202 20.5975 9.67509 20.3155 9.46696 20.1076C9.25883 19.8997 8.97655 19.783 8.6822 19.783Z"/>
<path d="M21.9145 2.68507C21.8019 2.41357 21.5859 2.19786 21.3141 2.08536C21.1797 2.02969 21.0357 2.00069 20.8902 2H15.3411C15.0468 2 14.7645 2.11679 14.5563 2.32468C14.3482 2.53257 14.2313 2.81453 14.2313 3.10852C14.2313 3.40252 14.3482 3.68448 14.5563 3.89237C14.7645 4.10026 15.0468 4.21705 15.3411 4.21705H18.2111L14.5565 7.86742C14.4505 7.96968 14.3659 8.092 14.3077 8.22724C14.2496 8.36249 14.219 8.50795 14.2177 8.65514C14.2164 8.80233 14.2445 8.9483 14.3003 9.08453C14.3561 9.22076 14.4385 9.34453 14.5427 9.44861C14.6469 9.5527 14.7708 9.63501 14.9072 9.69075C15.0436 9.74648 15.1897 9.77453 15.3371 9.77325C15.4845 9.77197 15.6301 9.74139 15.7655 9.6833C15.9009 9.6252 16.0234 9.54075 16.1257 9.43487L19.7804 5.7845V8.65115C19.7804 8.94515 19.8973 9.2271 20.1054 9.43499C20.3136 9.64288 20.5958 9.75967 20.8902 9.75967C21.1845 9.75967 21.4668 9.64288 21.6749 9.43499C21.8831 9.2271 22 8.94515 22 8.65115V3.10852C21.9999 2.96311 21.9708 2.81918 21.9145 2.68507Z"/>
</svg>
