<svg viewBox="0 0 16 21" fill="currentColor" xmlns="http://www.w3.org/2000/svg">
<path fill-rule="evenodd" clip-rule="evenodd" d="M6.5 0C6.22386 0 6 0.223858 6 0.5V2.5C6 2.77614 6.22386 3 6.5 3H9.5C9.77614 3 10 2.77614 10 2.5V0.5C10 0.223858 9.77614 0 9.5 0H6.5ZM1 1H5V2H1V20H15V2H11V1H15C15.5523 1 16 1.44772 16 2V20C16 20.5523 15.5523 21 15 21H1C0.447715 21 0 20.5523 0 20V2C0 1.44772 0.447715 1 1 1ZM4.75 5.5C4.75 5.36193 4.86193 5.25 5 5.25H14C14.1381 5.25 14.25 5.36193 14.25 5.5C14.25 5.63807 14.1381 5.75 14 5.75H5C4.86193 5.75 4.75 5.63807 4.75 5.5ZM4.75 8.5C4.75 8.36193 4.86193 8.25 5 8.25H14C14.1381 8.25 14.25 8.36193 14.25 8.5C14.25 8.63807 14.1381 8.75 14 8.75H5C4.86193 8.75 4.75 8.63807 4.75 8.5ZM4.75 11.5C4.75 11.3619 4.86193 11.25 5 11.25H14C14.1381 11.25 14.25 11.3619 14.25 11.5C14.25 11.6381 14.1381 11.75 14 11.75H5C4.86193 11.75 4.75 11.6381 4.75 11.5ZM4.75 14.5C4.75 14.3619 4.86193 14.25 5 14.25H14C14.1381 14.25 14.25 14.3619 14.25 14.5C14.25 14.6381 14.1381 14.75 14 14.75H5C4.86193 14.75 4.75 14.6381 4.75 14.5ZM4.75 17.5C4.75 17.3619 4.86193 17.25 5 17.25H14C14.1381 17.25 14.25 17.3619 14.25 17.5C14.25 17.6381 14.1381 17.75 14 17.75H5C4.86193 17.75 4.75 17.6381 4.75 17.5ZM3.75 4.25H2.25V5.75H3.75V4.25ZM2.25 4C2.11193 4 2 4.11193 2 4.25V5.75C2 5.88807 2.11193 6 2.25 6H3.75C3.88807 6 4 5.88807 4 5.75V4.25C4 4.11193 3.88807 4 3.75 4H2.25ZM3.54475 4.41048C3.59414 4.43518 3.61417 4.49525 3.58947 4.54465L3.08947 5.54465C3.07509 5.5734 3.04777 5.59348 3.01604 5.59863C2.98431 5.60378 2.95204 5.59336 2.92931 5.57063L2.42931 5.07063C2.39026 5.03158 2.39026 4.96827 2.42931 4.92921C2.46837 4.89016 2.53168 4.89016 2.57073 4.92921L2.97263 5.33111L3.41058 4.4552C3.43528 4.40581 3.49535 4.38578 3.54475 4.41048ZM2.25 7.25H3.75V8.75H2.25V7.25ZM2 7.25C2 7.11193 2.11193 7 2.25 7H3.75C3.88807 7 4 7.11193 4 7.25V8.75C4 8.88807 3.88807 9 3.75 9H2.25C2.11193 9 2 8.88807 2 8.75V7.25ZM3.58947 7.54465C3.61417 7.49525 3.59414 7.43518 3.54475 7.41048C3.49535 7.38578 3.43528 7.40581 3.41058 7.4552L2.97263 8.33111L2.57073 7.92921C2.53168 7.89016 2.46837 7.89016 2.42931 7.92921C2.39026 7.96827 2.39026 8.03158 2.42931 8.07063L2.92931 8.57063C2.95204 8.59336 2.98431 8.60378 3.01604 8.59863C3.04777 8.59348 3.07509 8.5734 3.08947 8.54465L3.58947 7.54465ZM3.75 10.25H2.25V11.75H3.75V10.25ZM2.25 10C2.11193 10 2 10.1119 2 10.25V11.75C2 11.8881 2.11193 12 2.25 12H3.75C3.88807 12 4 11.8881 4 11.75V10.25C4 10.1119 3.88807 10 3.75 10H2.25ZM3.54475 10.4105C3.59414 10.4352 3.61417 10.4952 3.58947 10.5446L3.08947 11.5446C3.07509 11.5734 3.04777 11.5935 3.01604 11.5986C2.98431 11.6038 2.95204 11.5934 2.92931 11.5706L2.42931 11.0706C2.39026 11.0316 2.39026 10.9683 2.42931 10.9292C2.46837 10.8902 2.53168 10.8902 2.57073 10.9292L2.97263 11.3311L3.41058 10.4552C3.43528 10.4058 3.49535 10.3858 3.54475 10.4105ZM2.25 13.25H3.75V14.75H2.25V13.25ZM2 13.25C2 13.1119 2.11193 13 2.25 13H3.75C3.88807 13 4 13.1119 4 13.25V14.75C4 14.8881 3.88807 15 3.75 15H2.25C2.11193 15 2 14.8881 2 14.75V13.25ZM3.58947 13.5446C3.61417 13.4952 3.59414 13.4352 3.54475 13.4105C3.49535 13.3858 3.43528 13.4058 3.41058 13.4552L2.97263 14.3311L2.57073 13.9292C2.53168 13.8902 2.46837 13.8902 2.42931 13.9292C2.39026 13.9683 2.39026 14.0316 2.42931 14.0706L2.92931 14.5706C2.95204 14.5934 2.98431 14.6038 3.01604 14.5986C3.04777 14.5935 3.07509 14.5734 3.08947 14.5446L3.58947 13.5446ZM3.75 16.25H2.25V17.75H3.75V16.25ZM2.25 16C2.11193 16 2 16.1119 2 16.25V17.75C2 17.8881 2.11193 18 2.25 18H3.75C3.88807 18 4 17.8881 4 17.75V16.25C4 16.1119 3.88807 16 3.75 16H2.25ZM3.54475 16.4105C3.59414 16.4352 3.61417 16.4952 3.58947 16.5446L3.08947 17.5446C3.07509 17.5734 3.04777 17.5935 3.01604 17.5986C2.98431 17.6038 2.95204 17.5934 2.92931 17.5706L2.42931 17.0706C2.39026 17.0316 2.39026 16.9683 2.42931 16.9292C2.46837 16.8902 2.53168 16.8902 2.57073 16.9292L2.97263 17.3311L3.41058 16.4552C3.43528 16.4058 3.49535 16.3858 3.54475 16.4105Z"/>
</svg>
