<?xml version="1.0" encoding="UTF-8"?>
<svg xmlns="http://www.w3.org/2000/svg" viewBox="0 0 389.7 308.18" fill="currentColor">
  <g>
    <path d="M74.38,308.18c-36.56,0-74.38-10.35-74.38-27.67,0-14.01,25.78-25.25,62.68-27.34l.28,4.99c-36.28,2.05-57.97,12.97-57.97,22.35,0,5.5,7.06,11.12,19.38,15.44,13.32,4.66,31.07,7.23,50,7.23s36.68-2.57,50-7.23c12.31-4.31,19.38-9.94,19.38-15.44,0-11.48-28.22-20.3-55.51-22.19l.35-4.99c35.42,2.46,60.16,13.63,60.16,27.18,0,17.32-37.82,27.67-74.38,27.67Z"/>
    <path d="M222.3,96.3l-5.75,2.81c-.07.04-7.38,3.56-19.54,5.47-11.19,1.75-28.91,2.45-49.77-4.19-3.4-1.08-6.53-2.21-9.55-3.3-10.7-3.86-19.94-7.2-35.59-6.71-7.15.22-19.66,3.73-25.23,5.39v-22.21h-5v207.13h5v-85.08c3.08-1.23,13.23-4.84,27.77-5.49,11.01-.49,15.23-.1,47.52,12.56,10.23,4.01,19.98,5.45,28.73,5.45,21.69,0,37.13-8.87,38.02-9.39l2.01-1.18-21.28-43.05,22.66-58.19ZM214.33,195.47c-7.18,3.47-32.17,13.57-60.33,2.53-28.33-11.1-35.76-13.03-44.68-13.03-1.55,0-3.14.06-4.89.14-12.74.57-22.25,3.27-27.08,4.97v-89.23c4.74-1.43,17.99-5.26,24.91-5.47,14.7-.45,23.52,2.73,33.74,6.42,3.06,1.11,6.23,2.25,9.73,3.36,31.98,10.17,56.91,4.29,67.51.65l-19.05,48.93,20.14,40.74Z"/>
  </g>
  <g>
    <path d="M278.31,176.68c-27.53,0-56-7.79-56-20.83,0-10.55,19.41-19.01,47.2-20.59l.21,3.76c-27.32,1.55-43.65,9.77-43.65,16.83,0,4.14,5.32,8.38,14.59,11.62,10.03,3.51,23.4,5.44,37.65,5.44s27.62-1.93,37.65-5.44c9.27-3.25,14.59-7.48,14.59-11.62,0-8.65-21.25-15.29-41.8-16.71l.26-3.76c26.67,1.85,45.3,10.27,45.3,20.47,0,13.04-28.47,20.83-56,20.83Z"/>
    <path d="M389.7,17.13l-4.33,2.12c-.05.03-5.56,2.68-14.71,4.12-8.43,1.32-21.77,1.84-37.48-3.15-2.56-.82-4.91-1.66-7.19-2.49-8.06-2.91-15.02-5.42-26.8-5.06-5.38.17-14.8,2.81-19,4.06V0h-3.76v155.97h3.76v-64.07c2.32-.93,9.97-3.64,20.91-4.13,8.29-.37,11.47-.08,35.78,9.45,7.7,3.02,15.05,4.1,21.63,4.1,16.33,0,27.96-6.68,28.63-7.07l1.51-.89-16.02-32.41,17.06-43.82ZM383.69,91.81c-5.41,2.61-24.22,10.22-45.43,1.91-21.33-8.36-26.93-9.81-33.64-9.81-1.16,0-2.36.04-3.68.1-9.59.43-16.75,2.46-20.39,3.74V20.55c3.57-1.08,13.54-3.96,18.76-4.12,11.07-.34,17.71,2.06,25.41,4.83,2.31.83,4.69,1.69,7.33,2.53,24.08,7.66,42.85,3.23,50.84.49l-14.35,36.85,15.16,30.67Z"/>
  </g>
  <path d="M167.78,279.77c-3.98,0-8.02-.02-12.14-.07l.02-2c62.26.74,107.75-4.3,140.42-8.78,21.04-2.88,33.09-8.49,33.07-15.38-.03-7.36-13.73-15.58-29.32-17.6-1.02-.13-2.16-.27-3.39-.43-18.68-2.35-57.55-7.25-65.25-19.26-1.45-2.26-1.78-4.68-.99-7.2,5.9-18.68,41.27-10.21,86.05.51,3.63.87,7.33,1.75,11.07,2.64,26.12,6.18,42.02,3.56,44.75-7.38,1.55-6.21-6.64-12.84-13.79-17.31-9.71-6.07-21.58-10.77-29.45-13.13l.58-1.92c16.03,4.82,48.02,19.2,44.61,32.85-3.04,12.17-19.79,15.31-47.16,8.84-3.75-.89-7.44-1.77-11.08-2.64-43.77-10.48-78.34-18.76-83.68-1.85-.62,1.95-.37,3.75.76,5.51,7.19,11.23,46.87,16.22,63.82,18.35,1.23.15,2.37.3,3.39.43,14.97,1.93,31.03,10.26,31.07,19.57.02,5.75-6,13.42-34.79,17.37-30.58,4.18-72.35,8.87-128.58,8.87Z"/>
</svg>
