<svg viewBox="0 0 24 24" fill="currentColor" xmlns="http://www.w3.org/2000/svg">
<path d="M18.0154 16.4445H19.7776C20.392 16.4445 20.8886 15.9468 20.8886 15.3334C20.8886 14.7201 20.392 14.2223 19.7776 14.2223H15.3332C14.7188 14.2223 14.2222 14.7201 14.2222 15.3334V19.7778C14.2222 20.3911 14.7188 20.8889 15.3332 20.8889C15.9477 20.8889 16.4443 20.3911 16.4443 19.7778V18.0156L20.1031 21.6744C20.3198 21.8911 20.6042 22 20.8886 22C21.1731 22 21.4575 21.8911 21.6742 21.6744C22.1086 21.24 22.1086 20.5378 21.6742 20.1034L18.0154 16.4445Z"/>
<path d="M8.66676 3.11137C8.05344 3.11137 7.55568 3.60914 7.55568 4.22247V5.98467L3.89689 2.32583C3.46246 1.89139 2.76026 1.89139 2.32582 2.32583C1.89139 2.76027 1.89139 3.46248 2.32582 3.89692L5.98461 7.55576H4.22244C3.60912 7.55576 3.11136 8.05353 3.11136 8.66685C3.11136 9.28018 3.60912 9.77795 4.22244 9.77795H8.66676C9.28008 9.77795 9.77784 9.28018 9.77784 8.66685V4.22247C9.77784 3.60914 9.28008 3.11137 8.66676 3.11137Z"/>
<path d="M8.66676 14.2223H4.22244C3.60912 14.2223 3.11136 14.7201 3.11136 15.3334C3.11136 15.9468 3.60912 16.4445 4.22244 16.4445H5.98461L2.32582 20.1034C1.89139 20.5378 1.89139 21.24 2.32582 21.6744C2.54248 21.8911 2.82692 22 3.11136 22C3.39579 22 3.68023 21.8911 3.89689 21.6744L7.55568 18.0156V19.7778C7.55568 20.3911 8.05344 20.8889 8.66676 20.8889C9.28008 20.8889 9.77784 20.3911 9.77784 19.7778V15.3334C9.77784 14.7201 9.28008 14.2223 8.66676 14.2223Z"/>
<path d="M15.3332 9.77795H19.7776C20.392 9.77795 20.8886 9.28018 20.8886 8.66685C20.8886 8.05353 20.392 7.55576 19.7776 7.55576H18.0154L21.6742 3.89692C22.1086 3.46248 22.1086 2.76027 21.6742 2.32583C21.2397 1.89139 20.5375 1.89139 20.1031 2.32583L16.4443 5.98467V4.22247C16.4443 3.60914 15.9477 3.11137 15.3332 3.11137C14.7188 3.11137 14.2222 3.60914 14.2222 4.22247V8.66685C14.2222 9.28018 14.7188 9.77795 15.3332 9.77795Z"/>
</svg>
