<svg viewBox="0 0 24 24" fill="currentColor" xmlns="http://www.w3.org/2000/svg">
<path d="M10.5 13.0001C10.7761 13.0001 11 13.224 11 13.5001V20.5001C11 20.7762 10.7761 21.0001 10.5 21.0001H3.5L3.39941 20.9903C3.17147 20.9438 3.00004 20.7418 3 20.5001V13.5001C3 13.2584 3.17145 13.0564 3.39941 13.0099L3.5 13.0001H10.5ZM15 15.0001C15.5523 15.0001 16 15.4478 16 16.0001V20.0001C15.9999 20.5523 15.5522 21.0001 15 21.0001C14.4478 21.0001 14.0001 20.5523 14 20.0001V16.0001C14 15.4478 14.4477 15.0001 15 15.0001ZM19 12.0001C19.5523 12.0001 20 12.4478 20 13.0001V20.0001C19.9999 20.5523 19.5522 21.0001 19 21.0001C18.4478 21.0001 18.0001 20.5523 18 20.0001V13.0001C18 12.4478 18.4477 12.0001 19 12.0001ZM5 19.0001H9V15.0001H5V19.0001ZM7 3.00011C9.20914 3.00011 11 4.79097 11 7.00011C10.9999 9.2092 9.20911 11.0001 7 11.0001C4.79089 11.0001 3.00005 9.2092 3 7.00011C3 4.79097 4.79086 3.00011 7 3.00011ZM13.8584 3.18663C14.2522 2.98412 14.7443 2.93212 15.208 3.10069L15.4043 3.18663L20.1416 5.62315C20.6731 5.89658 21 6.42252 21 7.00011C21 7.57767 20.6731 8.10365 20.1416 8.37706L15.4043 10.8136C14.8865 11.0797 14.3084 11.0449 13.8584 10.8136C13.4066 10.5812 13.0001 10.0962 13 9.43663V4.56358C13 3.90393 13.4066 3.41902 13.8584 3.18663ZM7 5.00011C5.89543 5.00011 5 5.89554 5 7.00011C5.00005 8.10463 5.89546 9.00011 7 9.00011C8.10454 9.00011 8.99995 8.10463 9 7.00011C9 5.89554 8.10457 5.00011 7 5.00011ZM15 8.77159L18.4443 7.00011L15 5.22765V8.77159Z"/>
</svg>
