<svg viewBox="0 0 18 18" fill="currentColor" xmlns="http://www.w3.org/2000/svg">
<path fill-rule="evenodd" clip-rule="evenodd" d="M1 0C0.723858 0 0.5 0.223858 0.5 0.5V10.5V15.6338C0.201099 15.8067 0 16.1299 0 16.5C0 17.0523 0.447715 17.5 1 17.5C1.55228 17.5 2 17.0523 2 16.5C2 16.1299 1.7989 15.8067 1.5 15.6338V11H17C17.2004 11 17.3814 10.8804 17.46 10.696C17.5385 10.5117 17.4995 10.2983 17.3607 10.1537L12.8931 5.5L17.3607 0.846266C17.4995 0.701717 17.5385 0.488286 17.46 0.303955C17.3814 0.119624 17.2004 0 17 0H1Z" />
</svg>
