<svg viewBox="0 0 24 24" fill="currentColor" xmlns="http://www.w3.org/2000/svg">
<path fill-rule="evenodd" clip-rule="evenodd" d="M9 2H15C16.6569 2 18 3.34315 18 5C18 6.65685 16.6569 8 15 8H9C7.34315 8 6 6.65685 6 5C6 3.34315 7.34315 2 9 2Z"/>
<path fill-rule="evenodd" clip-rule="evenodd" d="M16 16H19C20.6569 16 22 17.3431 22 19C22 20.6569 20.6569 22 19 22H16C14.3431 22 13 20.6569 13 19C13 17.3431 14.3431 16 16 16ZM16 18C15.4477 18 15 18.4477 15 19C15 19.5523 15.4477 20 16 20H19C19.5523 20 20 19.5523 20 19C20 18.4477 19.5523 18 19 18H16Z"/>
<path fill-rule="evenodd" clip-rule="evenodd" d="M5 16H8C9.65685 16 11 17.3431 11 19C11 20.6569 9.65685 22 8 22H5C3.34315 22 2 20.6569 2 19C2 17.3431 3.34315 16 5 16ZM5 18C4.44772 18 4 18.4477 4 19C4 19.5523 4.44772 20 5 20H8C8.55228 20 9 19.5523 9 19C9 18.4477 8.55228 18 8 18H5Z"/>
<path d="M17.5 11C18.0523 11 18.5 11.4477 18.5 12V14.5C18.5 14.7761 18.2761 15 18 15H17C16.7239 15 16.5 14.7761 16.5 14.5V13H7.5V14.5C7.5 14.7761 7.27614 15 7 15H6C5.72386 15 5.5 14.7761 5.5 14.5V12C5.5 11.4477 5.94771 11 6.5 11H11V9.5C11 9.22386 11.2239 9 11.5 9H12.5C12.7761 9 13 9.22386 13 9.5V11H17.5Z"/>
</svg>
