<svg  viewBox="0 0 20 20" fill="currentColor" xmlns="http://www.w3.org/2000/svg">
<g id="organisation-unit" clip-path="url(#clip0_572_45120)">
<g id="Vector">
<path fill-rule="evenodd" clip-rule="evenodd" d="M7 0H13C14.6569 0 16 1.34315 16 3V4C16 5.65685 14.6569 7 13 7H7C5.34315 7 4 5.65685 4 4V3C4 1.34315 5.34315 0 7 0ZM7 2C6.44772 2 6 2.44772 6 3V4C6 4.55228 6.44772 5 7 5H13C13.5523 5 14 4.55228 14 4V3C14 2.44772 13.5523 2 13 2H7Z"/>
<path fill-rule="evenodd" clip-rule="evenodd" d="M14 13H17C18.6569 13 20 14.3431 20 16V17C20 18.6569 18.6569 20 17 20H14C12.3431 20 11 18.6569 11 17V16C11 14.3431 12.3431 13 14 13ZM14 15C13.4477 15 13 15.4477 13 16V17C13 17.5523 13.4477 18 14 18H17C17.5523 18 18 17.5523 18 17V16C18 15.4477 17.5523 15 17 15H14Z"/>
<path d="M2 16C2 15.4477 2.44772 15 3 15H6C6.55228 15 7 15.4477 7 16V17C7 17.5523 6.55228 18 6 18H3C2.44772 18 2 17.5523 2 17V16Z"/>
<path fill-rule="evenodd" clip-rule="evenodd" d="M3 13H6C7.65685 13 9 14.3431 9 16V17C9 18.6569 7.65685 20 6 20H3C1.34315 20 0 18.6569 0 17V16C0 14.3431 1.34315 13 3 13ZM3 15C2.44772 15 2 15.4477 2 16V17C2 17.5523 2.44772 18 3 18H6C6.55228 18 7 17.5523 7 17V16C7 15.4477 6.55228 15 6 15H3Z"/>
<path d="M16.125 9C16.6773 9 17.125 9.44772 17.125 10V14H15.125V11H4.875V14H2.875V10C2.875 9.44772 3.32271 9 3.875 9H9V6H11V9H16.125Z" />
</g>
</g>
<defs>
<clipPath id="clip0_572_45120">
<rect width="20" height="20" />
</clipPath>
</defs>
</svg>
