<svg viewBox="0 0 24 24" fill="currentColor" xmlns="http://www.w3.org/2000/svg">
<path d="M19 4C20.1046 4 21 4.89543 21 6V18C21 19.1046 20.1046 20 19 20H15C13.8954 20 13 19.1046 13 18V6C13 4.89543 13.8954 4 15 4H19ZM10.5625 5C11.1148 5 11.5625 5.44772 11.5625 6C11.5625 6.55228 11.1148 7 10.5625 7H6C5.44772 7 5 7.44772 5 8V15.999C5 16.5513 5.44772 16.999 6 16.999H10.5625C11.1148 16.999 11.5625 17.4467 11.5625 17.999C11.5625 18.5513 11.1148 18.999 10.5625 18.999H5L4.7959 18.9893C3.7872 18.887 3 18.0347 3 16.999V7C3.0002 5.8956 3.89555 5 5 5H10.5625Z"/>
</svg>
