<svg xmlns="http://www.w3.org/2000/svg" viewBox="0 0 12 12" fill="currentColor">
    <g clip-path="url(#clip0_2282_33579)">
        <path d="M10.8 0.5H1.2C0.88174 0.5 0.576515 0.628769 0.351472 0.857981C0.126428 1.08719 0 1.39807 0 1.72222V10.2778C0 10.6019 0.126428 10.9128 0.351472 11.142C0.576515 11.3712 0.88174 11.5 1.2 11.5H10.8C11.1183 11.5 11.4235 11.3712 11.6485 11.142C11.8736 10.9128 12 10.6019 12 10.2778V1.72222C12 1.39807 11.8736 1.08719 11.6485 0.857981C11.4235 0.628769 11.1183 0.5 10.8 0.5ZM7.5 2.94444C7.678 2.94444 7.85201 2.99821 8.00001 3.09893C8.14802 3.19966 8.26337 3.34282 8.33149 3.51032C8.39961 3.67782 8.41743 3.86213 8.38271 4.03994C8.34798 4.21776 8.26226 4.38109 8.1364 4.50929C8.01053 4.63749 7.85016 4.72479 7.67558 4.76016C7.501 4.79553 7.32004 4.77738 7.15559 4.708C6.99113 4.63862 6.85057 4.52113 6.75168 4.37038C6.65278 4.21964 6.6 4.04241 6.6 3.86111C6.6 3.618 6.69482 3.38484 6.8636 3.21293C7.03239 3.04102 7.26131 2.94444 7.5 2.94444ZM10.1256 9.3495C10.0739 9.44547 9.99786 9.52553 9.9054 9.58132C9.81294 9.63711 9.70747 9.66659 9.6 9.66667H2.4C2.29771 9.66672 2.19712 9.64013 2.10776 9.58944C2.0184 9.53874 1.94325 9.46562 1.88944 9.37702C1.83564 9.28842 1.80496 9.18728 1.80033 9.08321C1.79571 8.97913 1.81728 8.87558 1.863 8.78239L3.963 4.50461C4.01134 4.40594 4.085 4.32243 4.17616 4.26293C4.26732 4.20344 4.37259 4.17017 4.4808 4.16667C4.58995 4.16048 4.69859 4.1859 4.79415 4.23997C4.88971 4.29404 4.96829 4.37456 5.0208 4.47222L6.6858 7.37928L7.6134 6.22611C7.67365 6.15137 7.75046 6.09226 7.83751 6.05364C7.92456 6.01501 8.01937 5.99799 8.11414 6.00395C8.2089 6.00992 8.30093 6.03871 8.38265 6.08795C8.46437 6.1372 8.53344 6.20549 8.5842 6.28722L10.1088 8.73167C10.1653 8.82383 10.1966 8.92966 10.1995 9.03826C10.2025 9.14686 10.177 9.25429 10.1256 9.3495Z"/>
    </g>
    <defs>
        <clipPath id="clip0_2282_33579">
            <rect width="12" height="12" fill="white"/>
        </clipPath>
    </defs>
</svg>
