<svg viewBox="0 0 21 14" fill="currentColor" xmlns="http://www.w3.org/2000/svg">
<path fill-rule="evenodd" clip-rule="evenodd" d="M6.3 14L6.3 0H0V14H6.3ZM5.50051 14V7.89089H3.97323L2.46982 8.80964V10.2176L3.80619 9.41817H3.84198V14H5.50051Z" />
<path fill-rule="evenodd" clip-rule="evenodd" d="M7.00049 0.0044671L7.7001 8L7.00049 13.9966V14H8.51981V12.8068L10.7988 10.9216C10.9499 10.7963 11.0792 10.679 11.1866 10.5696C11.2959 10.4583 11.3795 10.3439 11.4371 10.2266C11.4968 10.1093 11.5266 9.979 11.5266 9.83582C11.5266 9.67872 11.4928 9.54448 11.4252 9.43312C11.3596 9.32176 11.2681 9.23625 11.1508 9.17659C11.0334 9.11494 10.8982 9.08411 10.7451 9.08411C10.592 9.08411 10.4567 9.11494 10.3394 9.17659C10.2241 9.23823 10.1346 9.32872 10.0709 9.44804C10.0073 9.56735 9.97549 9.71252 9.97549 9.88355H8.40049C8.40049 9.454 8.49694 9.08411 8.68983 8.77389C8.88273 8.46366 9.15518 8.22502 9.50716 8.05798C9.85915 7.89093 10.2718 7.80741 10.7451 7.80741C11.2343 7.80741 11.6579 7.88596 12.0158 8.04306C12.3758 8.19818 12.6532 8.41693 12.8481 8.69931C13.0449 8.9817 13.1434 9.31281 13.1434 9.69264C13.1434 9.9273 13.0947 10.161 12.9972 10.3936C12.8998 10.6243 12.7248 10.8799 12.4722 11.1603C12.2197 11.4406 11.8607 11.7747 11.3954 12.1625L10.8226 12.6398V12.6756H13.209V14H13.3005L13.3005 0H7.00049V0.0044671Z" />
<path d="M13.9996 8L13.2996 0V14L13.9996 8Z" />
<path d="M6.99956 8L6.29956 0V14L6.99956 8Z" />
<path fill-rule="evenodd" clip-rule="evenodd" d="M14.0005 0.0044671L14.7001 8L14.0005 13.9966V14H17.098C16.9224 13.9598 16.7563 13.9051 16.5996 13.836C16.2278 13.6689 15.9354 13.4392 15.7226 13.1469C15.5099 12.8546 15.4025 12.5185 15.4005 12.1387H17.0709C17.0729 12.256 17.1087 12.3614 17.1783 12.4549C17.2499 12.5463 17.3474 12.6179 17.4707 12.6696C17.594 12.7213 17.7351 12.7472 17.8942 12.7472C18.0474 12.7472 18.1826 12.7203 18.2999 12.6666C18.4172 12.611 18.5087 12.5344 18.5744 12.437C18.64 12.3395 18.6718 12.2281 18.6698 12.1029C18.6718 11.9796 18.634 11.8702 18.5565 11.7747C18.4809 11.6793 18.3745 11.6047 18.2373 11.551C18.1001 11.4973 17.942 11.4705 17.763 11.4705H17.1425V10.325H17.763C17.928 10.325 18.0732 10.2982 18.1985 10.2445C18.3258 10.1908 18.4242 10.1162 18.4938 10.0208C18.5654 9.92531 18.6002 9.81593 18.5982 9.69264C18.6002 9.57332 18.5714 9.46792 18.5117 9.37644C18.4521 9.28497 18.3685 9.21338 18.2611 9.16167C18.1557 9.10997 18.0334 9.08411 17.8942 9.08411C17.7431 9.08411 17.6079 9.11096 17.4886 9.16465C17.3712 9.21835 17.2788 9.29292 17.2111 9.38838C17.1435 9.48383 17.1087 9.59321 17.1067 9.7165H15.5198C15.5218 9.34264 15.6242 9.01252 15.8271 8.72616C16.0319 8.4398 16.3123 8.21508 16.6682 8.05201C17.0242 7.88894 17.4329 7.80741 17.8942 7.80741C18.3457 7.80741 18.7444 7.88397 19.0904 8.0371C19.4384 8.19022 19.7099 8.40102 19.9048 8.66948C20.1016 8.93596 20.1991 9.24122 20.1971 9.58525C20.2011 9.9273 20.0837 10.2077 19.8451 10.4264C19.6084 10.6452 19.3082 10.7745 18.9442 10.8142V10.862C19.4374 10.9156 19.8083 11.0668 20.0569 11.3154C20.1597 11.4173 20.2409 11.5302 20.3005 11.6539L20.3005 0H14.0005V0.0044671ZM20.1016 13.1976C20.1835 13.0932 20.2498 12.9829 20.3005 12.8668V14H18.7115C18.8852 13.9622 19.0493 13.9115 19.2038 13.8479C19.5876 13.6908 19.8869 13.474 20.1016 13.1976Z"/>
</svg>
