<svg viewBox="0 0 24 23" fill="currentColor" xmlns="http://www.w3.org/2000/svg">
<path fill-rule="evenodd" clip-rule="evenodd" d="M20.3047 0.207511C20.2715 0.107732 20.1889 0.0322887 20.0866 0.00812419C19.9842 -0.0160403 19.8766 0.0145198 19.8023 0.0888905L18.0856 1.80558C18.018 1.87312 17.9862 1.96852 17.9997 2.06308L18.4074 4.91708L9.9313 13.3932C9.81278 13.5117 9.81278 13.7039 9.9313 13.8224C10.0498 13.9409 10.242 13.9409 10.3605 13.8224L18.8366 5.34625L21.6906 5.75397C21.7852 5.76747 21.8806 5.73567 21.9481 5.66813L23.6648 3.95144C23.7392 3.87707 23.7697 3.76949 23.7456 3.66713C23.7214 3.56477 23.646 3.48222 23.5462 3.44896L21.1151 2.6386L20.3047 0.207511ZM21.6262 5.13167L18.9976 4.75614L18.622 2.12746L19.8842 0.865271L20.5873 2.97448C20.6175 3.06509 20.6886 3.1362 20.7792 3.16641L22.8884 3.86948L21.6262 5.13167ZM1 12.8743C1 7.90374 5.02944 3.8743 10 3.8743C12.2399 3.8743 14.2887 4.69255 15.8638 6.04647L16.5727 5.33755C16.3199 5.11695 16.056 4.90885 15.7818 4.71423C14.1599 3.56295 12.1799 2.8831 10.0416 2.87439L10 2.8743C4.47715 2.8743 0 7.35146 0 12.8743C0 18.3972 4.47715 22.8743 10 22.8743C15.5228 22.8743 20 18.3972 20 12.8743C20 12.7502 19.9977 12.6266 19.9932 12.5036C19.9364 10.9448 19.5228 9.47701 18.8317 8.17953C18.6697 7.87537 18.4924 7.58056 18.3009 7.29614L17.5788 8.01821C18.4105 9.31348 18.9192 10.8359 18.9912 12.4718C18.997 12.6052 19 12.7394 19 12.8743C19 17.8449 14.9706 21.8743 10 21.8743C5.02944 21.8743 1 17.8449 1 12.8743ZM4 12.8743C4 9.5606 6.68629 6.8743 10 6.8743C11.4112 6.8743 12.7087 7.3615 13.7333 8.17691L14.4443 7.46591C14.1835 7.25131 13.9068 7.05521 13.6164 6.87962C12.6209 6.27778 11.4634 5.91692 10.2247 5.87785C10.1501 5.87549 10.0752 5.8743 10 5.8743C6.13401 5.8743 3 9.00831 3 12.8743C3 16.7403 6.13401 19.8743 10 19.8743C13.866 19.8743 17 16.7403 17 12.8743C17 12.8048 16.999 12.7356 16.997 12.6666C16.9743 11.8872 16.8242 11.1398 16.5668 10.4445C16.4425 10.1087 16.2932 9.78508 16.1211 9.47586L15.3806 10.2164C15.7772 11.0175 16 11.9199 16 12.8743C16 16.188 13.3137 18.8743 10 18.8743C6.68629 18.8743 4 16.188 4 12.8743ZM10 8.8743C10.4843 8.8743 10.9484 8.96036 11.378 9.11801C11.71 9.23981 12.0213 9.40436 12.3053 9.60499L9.22425 12.686C8.71521 13.195 8.71521 14.0203 9.22425 14.5294C9.73329 15.0384 10.5586 15.0384 11.0676 14.5294L13.8414 11.7556C13.9447 12.1106 14 12.486 14 12.8743C14 12.9209 13.9992 12.9674 13.9976 13.0136C13.9242 15.1582 12.1625 16.8743 10 16.8743C7.79086 16.8743 6 15.0834 6 12.8743C6 10.6652 7.79086 8.8743 10 8.8743Z" />
</svg>
