<svg width="24" height="24" viewBox="0 0 24 24" fill="none" xmlns="http://www.w3.org/2000/svg">
<path d="M13 9C14.6569 9 16 10.3431 16 12C16 13.6569 14.6569 15 13 15C11.3431 15 10 13.6569 10 12C10 10.3431 11.3431 9 13 9ZM9.12598 11C9.04371 11.3196 9 11.6547 9 12C9 12.3453 9.04371 12.6804 9.12598 13H3C2.44772 13 2 12.5523 2 12C2 11.4477 2.44772 11 3 11H9.12598ZM21 11C21.5523 11 22 11.4477 22 12C22 12.5523 21.5523 13 21 13H16.874C16.9563 12.6804 17 12.3453 17 12C17 11.6547 16.9563 11.3196 16.874 11H21Z" fill="#6B7280"/>
</svg>
