<svg viewBox="0 0 24 24" fill="none" xmlns="http://www.w3.org/2000/svg">
<g id="relation">
<path id="default" d="M8 16C9.65685 16 11 17.3431 11 19C11 20.6569 9.65685 22 8 22C6.34315 22 5 20.6569 5 19C5 17.3431 6.34315 16 8 16ZM15.5 17C16.6046 17 17.5 17.8954 17.5 19C17.5 20.1046 16.6046 21 15.5 21C14.3954 21 13.5 20.1046 13.5 19C13.5 17.8954 14.3954 17 15.5 17ZM19 9C20.6569 9 22 10.3431 22 12C22 13.6569 20.6569 15 19 15C17.3431 15 16 13.6569 16 12C16 10.3431 17.3431 9 19 9ZM4 10C5.10457 10 6 10.8954 6 12C6 13.1046 5.10457 14 4 14C2.89543 14 2 13.1046 2 12C2 10.8954 2.89543 10 4 10ZM8 2C9.65685 2 11 3.34315 11 5C11 6.65685 9.65685 8 8 8C6.34315 8 5 6.65685 5 5C5 3.34315 6.34315 2 8 2ZM15.5 3C16.6046 3 17.5 3.89543 17.5 5C17.5 6.10457 16.6046 7 15.5 7C14.3954 7 13.5 6.10457 13.5 5C13.5 3.89543 14.3954 3 15.5 3Z" fill="url(#paint0_linear_1836_77421)"/>
<path id="full" d="M8 2C9.65685 2 11 3.34315 11 5C11 6.49809 10.569 8.27672 11.4399 9.49568L11.6186 9.74575C12.1809 10.5329 13.0887 11 14.0561 11C15.3254 11 16.4008 10.0411 17.4982 9.40336C17.9396 9.14689 18.4524 9 19 9C20.6569 9 22 10.3431 22 12C22 13.6569 20.6569 15 19 15C18.4524 15 17.9396 14.8531 17.4983 14.5967C16.4008 13.959 15.3253 13 14.056 13C13.0887 13 12.1809 13.467 11.6185 14.254L11.4407 14.5028C10.5695 15.7219 11 17.5015 11 19C11 20.6569 9.65685 22 8 22C6.34315 22 5 20.6569 5 19C5 18.0811 5.41316 17.2589 6.06385 16.7088C7.03403 15.8885 8.34591 15.3948 9.08448 14.3611C10.0936 12.9487 10.0936 11.051 9.08464 9.63854C8.34602 8.60452 7.03378 8.11061 6.06335 7.29022C5.41295 6.74038 5 5.91868 5 5C5 3.34315 6.34315 2 8 2ZM15.5 17C16.6046 17 17.5 17.8954 17.5 19C17.5 20.1046 16.6046 21 15.5 21C14.3954 21 13.5 20.1046 13.5 19C13.5 17.8954 14.3954 17 15.5 17ZM4 10C5.10457 10 6 10.8954 6 12C6 13.1046 5.10457 14 4 14C2.89543 14 2 13.1046 2 12C2 10.8954 2.89543 10 4 10ZM15.5 3C16.6046 3 17.5 3.89543 17.5 5C17.5 6.10457 16.6046 7 15.5 7C14.3954 7 13.5 6.10457 13.5 5C13.5 3.89543 14.3954 3 15.5 3Z" fill="url(#paint1_linear_1836_77421)"/>
</g>
<defs>
<linearGradient id="paint0_linear_1836_77421" x1="9.85" y1="26.5" x2="23.3236" y2="19.3559" gradientUnits="userSpaceOnUse">
<stop stop-color="#1C64F2"/>
<stop offset="1" stop-color="#16BDCA"/>
</linearGradient>
<linearGradient id="paint1_linear_1836_77421" x1="9.85" y1="26.5" x2="23.3236" y2="19.3559" gradientUnits="userSpaceOnUse">
<stop stop-color="#1C64F2"/>
<stop offset="1" stop-color="#16BDCA"/>
</linearGradient>
</defs>
</svg>
