<svg width="24" height="24" viewBox="0 0 24 24" fill="none" xmlns="http://www.w3.org/2000/svg">
<path d="M6.90733 5.57143C6.90733 5.28727 7.01463 5.01475 7.20564 4.81381C7.39665 4.61288 7.65572 4.5 7.92584 4.5H20.1481C20.4182 4.5 20.6773 4.61288 20.8683 4.81381C21.0593 5.01475 21.1666 5.28727 21.1666 5.57143V14.1429C21.1666 14.427 21.0593 14.6995 20.8683 14.9005C20.6773 15.1014 20.4182 15.2143 20.1481 15.2143M3.85177 8.78571H16.074C16.6365 8.78571 17.0925 9.26541 17.0925 9.85714V18.4286C17.0925 19.0203 16.6365 19.5 16.074 19.5H3.85177C3.28926 19.5 2.83325 19.0203 2.83325 18.4286V9.85714C2.83325 9.26541 3.28926 8.78571 3.85177 8.78571ZM11.9999 14.1429C11.9999 15.3263 11.0879 16.2857 9.96288 16.2857C8.83786 16.2857 7.92584 15.3263 7.92584 14.1429C7.92584 12.9594 8.83786 12 9.96288 12C11.0879 12 11.9999 12.9594 11.9999 14.1429Z" stroke="#6B7280" stroke-width="2" stroke-linecap="round" stroke-linejoin="round"/>
</svg>
