<svg viewBox="0 0 20 16" fill="currentColor" xmlns="http://www.w3.org/2000/svg">
<path d="M14 2.47743C14 3.61301 13.0794 4.53359 11.9439 4.53359C10.8083 4.53359 9.8877 3.61301 9.8877 2.47743C9.8877 1.34184 10.8083 0.421265 11.9439 0.421265C13.0794 0.421265 14 1.34184 14 2.47743Z" fill="white"/>
<path d="M13.6584 2.47738C13.6584 3.42371 12.8912 4.19085 11.9449 4.19085C10.9986 4.19085 10.2314 3.42371 10.2314 2.47738C10.2314 1.53106 10.9986 0.763916 11.9449 0.763916C12.8912 0.763916 13.6584 1.53106 13.6584 2.47738Z"/>
<path fill-rule="evenodd" clip-rule="evenodd" d="M14.1718 2.47751C14.1718 3.70773 13.1745 4.70502 11.9443 4.70502C10.7141 4.70502 9.7168 3.70773 9.7168 2.47751C9.7168 1.24729 10.7141 0.25 11.9443 0.25C13.1745 0.25 14.1718 1.24729 14.1718 2.47751ZM11.9443 4.53367C13.0799 4.53367 14.0005 3.6131 14.0005 2.47751C14.0005 1.34192 13.0799 0.421347 11.9443 0.421347C10.8087 0.421347 9.88814 1.34192 9.88814 2.47751C9.88814 3.6131 10.8087 4.53367 11.9443 4.53367Z" />
<path fill-rule="evenodd" clip-rule="evenodd" d="M14.4218 2.47751C14.4218 3.8458 13.3126 4.95502 11.9443 4.95502C10.576 4.95502 9.4668 3.8458 9.4668 2.47751C9.4668 1.10922 10.576 0 11.9443 0C13.3126 0 14.4218 1.10922 14.4218 2.47751ZM11.9443 4.28367C12.9418 4.28367 13.7505 3.47503 13.7505 2.47751C13.7505 1.47999 12.9418 0.671347 11.9443 0.671347C10.9468 0.671347 10.1381 1.47999 10.1381 2.47751C10.1381 3.47503 10.9468 4.28367 11.9443 4.28367ZM11.9443 4.70502C13.1745 4.70502 14.1718 3.70773 14.1718 2.47751C14.1718 1.24729 13.1745 0.25 11.9443 0.25C10.7141 0.25 9.7168 1.24729 9.7168 2.47751C9.7168 3.70773 10.7141 4.70502 11.9443 4.70502ZM14.0005 2.47751C14.0005 3.6131 13.0799 4.53367 11.9443 4.53367C10.8087 4.53367 9.88814 3.6131 9.88814 2.47751C9.88814 1.34192 10.8087 0.421347 11.9443 0.421347C13.0799 0.421347 14.0005 1.34192 14.0005 2.47751Z" fill="white"/>
<path d="M18.8833 5.26186C18.8833 7.24914 17.2723 8.86014 15.2851 8.86014C13.2978 8.86014 11.6868 7.24914 11.6868 5.26186C11.6868 3.27458 13.2978 1.66357 15.2851 1.66357C17.2723 1.66357 18.8833 3.27458 18.8833 5.26186Z" fill="white"/>
<path d="M18.2843 5.26175C18.2843 6.91782 16.9417 8.26032 15.2857 8.26032C13.6296 8.26032 12.2871 6.91782 12.2871 5.26175C12.2871 3.60569 13.6296 2.26318 15.2857 2.26318C16.9417 2.26318 18.2843 3.60569 18.2843 5.26175Z" />
<path fill-rule="evenodd" clip-rule="evenodd" d="M19.184 5.26191C19.184 7.4148 17.4387 9.16005 15.2858 9.16005C13.133 9.16005 11.3877 7.4148 11.3877 5.26191C11.3877 3.10903 13.133 1.36377 15.2858 1.36377C17.4387 1.36377 19.184 3.10903 19.184 5.26191ZM15.2858 8.8602C17.2731 8.8602 18.8841 7.24919 18.8841 5.26191C18.8841 3.27463 17.2731 1.66363 15.2858 1.66363C13.2986 1.66363 11.6876 3.27463 11.6876 5.26191C11.6876 7.24919 13.2986 8.8602 15.2858 8.8602Z" />
<path fill-rule="evenodd" clip-rule="evenodd" d="M19.434 5.26191C19.434 7.55287 17.5768 9.41005 15.2858 9.41005C12.9949 9.41005 11.1377 7.55287 11.1377 5.26191C11.1377 2.97096 12.9949 1.11377 15.2858 1.11377C17.5768 1.11377 19.434 2.97096 19.434 5.26191ZM15.2858 8.6102C17.135 8.6102 18.6341 7.11112 18.6341 5.26191C18.6341 3.4127 17.135 1.91363 15.2858 1.91363C13.4366 1.91363 11.9376 3.4127 11.9376 5.26191C11.9376 7.11112 13.4366 8.6102 15.2858 8.6102ZM15.2858 9.16005C17.4387 9.16005 19.184 7.4148 19.184 5.26191C19.184 3.10903 17.4387 1.36377 15.2858 1.36377C13.133 1.36377 11.3877 3.10903 11.3877 5.26191C11.3877 7.4148 13.133 9.16005 15.2858 9.16005ZM18.8841 5.26191C18.8841 7.24919 17.2731 8.8602 15.2858 8.8602C13.2986 8.8602 11.6876 7.24919 11.6876 5.26191C11.6876 3.27463 13.2986 1.66363 15.2858 1.66363C17.2731 1.66363 18.8841 3.27463 18.8841 5.26191Z" fill="white"/>
<path d="M14.1719 8.04459C14.1719 11.7352 11.1801 14.7271 7.48941 14.7271C3.79875 14.7271 0.806885 11.7352 0.806885 8.04459C0.806885 4.35393 3.79875 1.36206 7.48941 1.36206C11.1801 1.36206 14.1719 4.35393 14.1719 8.04459Z" fill="white"/>
<path d="M13.0582 8.0446C13.0582 11.1202 10.565 13.6134 7.48943 13.6134C4.41388 13.6134 1.92065 11.1202 1.92065 8.0446C1.92065 4.96905 4.41388 2.47583 7.48943 2.47583C10.565 2.47583 13.0582 4.96905 13.0582 8.0446Z" />
<path fill-rule="evenodd" clip-rule="evenodd" d="M14.7288 8.04458C14.7288 12.0428 11.4876 15.284 7.48941 15.284C3.49119 15.284 0.25 12.0428 0.25 8.04458C0.25 4.04637 3.49119 0.805176 7.48941 0.805176C11.4876 0.805176 14.7288 4.04637 14.7288 8.04458ZM7.48941 14.7271C11.1801 14.7271 14.1719 11.7352 14.1719 8.04458C14.1719 4.35392 11.1801 1.36205 7.48941 1.36205C3.79875 1.36205 0.806877 4.35392 0.806877 8.04458C0.806877 11.7352 3.79875 14.7271 7.48941 14.7271Z" />
<path fill-rule="evenodd" clip-rule="evenodd" d="M14.9788 8.04458C14.9788 12.1809 11.6257 15.534 7.48941 15.534C3.35312 15.534 0 12.1809 0 8.04458C0 3.9083 3.35312 0.555176 7.48941 0.555176C11.6257 0.555176 14.9788 3.9083 14.9788 8.04458ZM7.48941 14.4771C11.042 14.4771 13.9219 11.5972 13.9219 8.04458C13.9219 4.49199 11.042 1.61205 7.48941 1.61205C3.93682 1.61205 1.05688 4.49199 1.05688 8.04458C1.05688 11.5972 3.93682 14.4771 7.48941 14.4771ZM7.48941 15.284C11.4876 15.284 14.7288 12.0428 14.7288 8.04458C14.7288 4.04637 11.4876 0.805176 7.48941 0.805176C3.49119 0.805176 0.25 4.04637 0.25 8.04458C0.25 12.0428 3.49119 15.284 7.48941 15.284ZM14.1719 8.04458C14.1719 11.7352 11.1801 14.7271 7.48941 14.7271C3.79875 14.7271 0.806877 11.7352 0.806877 8.04458C0.806877 4.35392 3.79875 1.36205 7.48941 1.36205C11.1801 1.36205 14.1719 4.35392 14.1719 8.04458Z" fill="white"/>
<path d="M7.89655 7.34167L7.63028 7.83291H4.14819L4.3735 7.34167H7.89655ZM7.37424 8.25639L7.067 8.76457H4.14819L4.3735 8.25639H7.37424ZM8.60321 6.17286L8.0809 7.08758C8.03993 7.07629 7.97934 7.05159 7.89911 7.01347C7.8206 6.97395 7.72245 6.93725 7.60467 6.90337C7.4886 6.86808 7.35376 6.85043 7.20014 6.85043C6.99872 6.85043 6.82889 6.88925 6.69063 6.96689C6.55237 7.04312 6.44739 7.16945 6.3757 7.3459C6.30401 7.52094 6.26817 7.75668 6.26817 8.05312C6.26817 8.35238 6.30401 8.58882 6.3757 8.76245C6.44739 8.93466 6.55237 9.05747 6.69063 9.13088C6.82889 9.20287 6.99872 9.23886 7.20014 9.23886C7.35034 9.23886 7.48263 9.22263 7.59699 9.19016C7.71306 9.1577 7.8095 9.12241 7.88631 9.08429C7.96483 9.04618 8.02286 9.01865 8.06042 9.00172L8.58273 9.91643C8.39326 10.035 8.18161 10.1239 7.94776 10.1832C7.71562 10.2425 7.46641 10.2722 7.20014 10.2722C6.73586 10.2722 6.3245 10.1861 5.96605 10.0138C5.6093 9.84162 5.32937 9.59035 5.12625 9.26004C4.92483 8.92972 4.82413 8.52742 4.82413 8.05312C4.82413 7.57882 4.92483 7.1751 5.12625 6.84196C5.32937 6.50882 5.6093 6.25474 5.96605 6.0797C6.3245 5.90466 6.73586 5.81714 7.20014 5.81714C7.47666 5.81714 7.73098 5.84819 7.96312 5.9103C8.19526 5.971 8.40863 6.05852 8.60321 6.17286Z" fill="white"/>
</svg>
