<svg viewBox="0 0 16 16" fill="currentColor" xmlns="http://www.w3.org/2000/svg">
  <path d="M12.0013 4.00016C12.0013 3.94942 11.9802 3.84505 11.8268 3.68962C11.6706 3.53134 11.4112 3.35848 11.0384 3.19873C10.2951 2.8802 9.22181 2.66683 8.0013 2.66683C6.78079 2.66683 5.7075 2.8802 4.96419 3.19873C4.59144 3.35848 4.33203 3.53134 4.17578 3.68962C4.02238 3.84505 4.0013 3.94942 4.0013 4.00016C4.0013 4.05998 4.0851 4.30989 4.40104 4.58936C4.6402 4.8009 4.91705 4.94076 5.16888 4.98505C5.25953 5.001 5.33464 5.07478 5.33464 5.16683V6.16683C5.33464 6.25888 5.2599 6.33412 5.16811 6.32719C4.7433 6.29511 4.34482 6.14359 4.0013 5.93831V8.00016C4.0013 8.0598 4.08556 8.30875 4.39909 8.5835C4.63535 8.7905 4.9062 8.92437 5.15178 8.96363C5.24264 8.97816 5.3196 9.04997 5.32194 9.14195L5.34733 10.1414C5.34967 10.2335 5.27683 10.3106 5.18488 10.3059C4.75329 10.2835 4.34889 10.1349 4.0013 9.9305V12.0002C4.0013 12.0509 4.02238 12.1553 4.17578 12.3107C4.33203 12.469 4.59144 12.6418 4.96419 12.8016C5.7075 13.1201 6.78079 13.3335 8.0013 13.3335C9.22181 13.3335 10.2951 13.1201 11.0384 12.8016C11.4112 12.6418 11.6706 12.469 11.8268 12.3107C11.9802 12.1553 12.0013 12.0509 12.0013 12.0002V10.0145C11.6659 10.1842 11.2716 10.2924 10.8223 10.307C10.7303 10.31 10.657 10.2335 10.6587 10.1415L10.6772 9.14211C10.679 9.05006 10.7552 8.97776 10.8471 8.97127C11.6803 8.91238 12.0013 8.29092 12.0013 8.00016V6.01449C11.6659 6.18422 11.2716 6.29241 10.8223 6.307C10.7303 6.30999 10.657 6.23352 10.6587 6.1415L10.6772 5.14211C10.679 5.05006 10.7552 4.97776 10.8471 4.97127C11.6803 4.91238 12.0013 4.29092 12.0013 4.00016ZM13.3346 12.0002C13.3346 12.5017 13.0948 12.9238 12.776 13.2469C12.46 13.5671 12.0354 13.8247 11.5638 14.0269C10.6181 14.4321 9.35808 14.6668 8.0013 14.6668C6.64452 14.6668 5.38449 14.4321 4.4388 14.0269C3.96721 13.8247 3.54258 13.5671 3.22656 13.2469C2.90776 12.9238 2.66797 12.5017 2.66797 12.0002V4.00016C2.66797 3.49866 2.90776 3.07652 3.22656 2.75342C3.54258 2.4332 3.96721 2.17559 4.4388 1.97347C5.38449 1.56819 6.64452 1.3335 8.0013 1.3335C9.35808 1.3335 10.6181 1.56819 11.5638 1.97347C12.0354 2.17559 12.46 2.4332 12.776 2.75342C13.0948 3.07652 13.3346 3.49866 13.3346 4.00016V12.0002Z"/>
  <path d="M9.62969 5.28192C9.68387 5.51988 9.49801 5.72209 9.2771 5.72209H8.9672C8.74836 5.72209 8.58122 5.4993 8.42733 5.32641C8.42266 5.32116 8.41788 5.31597 8.41298 5.31084C8.31059 5.19946 8.15701 5.14377 7.95223 5.14377C7.84787 5.14377 7.75138 5.16091 7.66278 5.19518C7.57417 5.22731 7.5023 5.27764 7.44717 5.34618C7.394 5.41258 7.36742 5.49719 7.36742 5.6C7.36742 5.70281 7.39794 5.79598 7.45898 5.87952C7.52002 5.96305 7.59386 6.03588 7.6805 6.09799C7.76714 6.15797 7.84984 6.20509 7.9286 6.23936L9.05981 6.80803C9.13857 6.84659 9.23407 6.90228 9.3463 6.9751C9.45854 7.04793 9.56683 7.14217 9.67119 7.25783C9.77752 7.37349 9.86219 7.517 9.9252 7.68835C9.99018 7.85756 10.0128 8.0589 9.99313 8.29237C9.97935 8.47229 9.92914 8.62329 9.8425 8.74538C9.75586 8.86747 9.65741 8.96493 9.54714 9.03775C9.43987 9.10777 9.34225 9.15677 9.25429 9.18475C9.25264 9.18528 9.25109 9.18615 9.24973 9.18733C9.24315 9.19306 9.24293 9.20405 9.24921 9.21018C9.40857 9.36569 9.52955 9.53954 9.61212 9.73173C9.69876 9.92878 9.74208 10.1494 9.74208 10.3936C9.74208 10.732 9.66529 11.0201 9.5117 11.2578C9.35812 11.4977 9.1494 11.6809 8.88555 11.8072C8.6217 11.9357 8.32437 12 7.99358 12C7.63127 12 7.31131 11.9272 7.03367 11.7815C6.75801 11.6359 6.5424 11.4303 6.38684 11.1647C6.29906 11.016 6.23605 10.8523 6.19781 10.6736C6.14669 10.4348 6.3326 10.2329 6.55351 10.2329H6.86405C7.08496 10.2329 7.24529 10.4625 7.39816 10.6397C7.41736 10.6619 7.43862 10.6827 7.46194 10.702C7.59583 10.8112 7.77797 10.8594 8.00834 10.8466C8.15799 10.8423 8.29779 10.8048 8.42775 10.7341C8.5577 10.6656 8.62268 10.5521 8.62268 10.3936C8.62268 10.2822 8.59216 10.1869 8.53112 10.1076C8.47008 10.0262 8.39723 9.9577 8.31256 9.90201C8.22986 9.84418 8.1511 9.79491 8.07628 9.75422L6.94506 9.19839C6.86433 9.1577 6.76687 9.10201 6.65266 9.03133C6.54043 8.9585 6.43115 8.86319 6.32482 8.74538C6.22046 8.62758 6.13678 8.483 6.07377 8.31165C6.01076 8.14029 5.98811 7.93681 6.00584 7.70121C6.01962 7.52129 6.06688 7.37028 6.14761 7.24819C6.23031 7.1261 6.32679 7.02865 6.43705 6.95582C6.54726 6.88432 6.65082 6.83346 6.74774 6.80325C6.7509 6.80227 6.75308 6.79908 6.75308 6.79543C6.75308 6.79322 6.75226 6.7911 6.75082 6.78957C6.60222 6.63169 6.48188 6.45578 6.3898 6.26185C6.29922 6.06693 6.25492 5.84632 6.25689 5.6C6.25689 5.29157 6.32876 5.0174 6.4725 4.77751C6.61624 4.53762 6.81609 4.34806 7.07207 4.20884C7.32804 4.06961 7.62143 4 7.95223 4C8.29878 4 8.60004 4.07497 8.85601 4.2249C9.11396 4.37269 9.3148 4.57617 9.45854 4.83534C9.53638 4.97381 9.59344 5.12266 9.62969 5.28192ZM8.96234 8.36305C8.97022 8.29023 8.95742 8.21954 8.92395 8.151C8.89047 8.08032 8.83731 8.01392 8.76445 7.95181C8.6916 7.88969 8.59807 7.83293 8.48387 7.78153L7.49738 7.29639C7.42649 7.25997 7.35659 7.25248 7.28768 7.2739C7.22073 7.29531 7.16363 7.33815 7.11637 7.40241C7.06911 7.46452 7.04056 7.54056 7.03072 7.63052C7.01497 7.74404 7.04942 7.85114 7.13409 7.95181C7.22073 8.05248 7.34675 8.14137 7.51215 8.21847L8.49863 8.69719C8.55967 8.72718 8.62367 8.73253 8.69061 8.71325C8.75756 8.69183 8.81663 8.65114 8.86783 8.59116C8.92099 8.52905 8.9525 8.45301 8.96234 8.36305Z"/>
</svg>
