<svg viewBox="0 0 24 24" fill="currentColor" xmlns="http://www.w3.org/2000/svg">
<path fill-rule="evenodd" clip-rule="evenodd" d="M10.6374 3.00876C12.4359 3.09792 14.1428 3.85244 15.4222 5.13166C16.7866 6.49613 17.5537 8.34685 17.5539 10.2764L17.5451 10.6345C17.5041 11.4678 17.3192 12.2894 16.9993 13.0619C16.7939 13.5576 16.5322 14.0262 16.2249 14.4629L20.6351 18.8741L20.7207 18.9685C21.1199 19.4576 21.0911 20.179 20.6351 20.6351C20.1791 21.0911 19.4576 21.1198 18.9685 20.7207L18.8741 20.6351L14.4629 16.2248C14.0261 16.5322 13.5577 16.7939 13.0619 16.9993C12.2894 17.3192 11.4678 17.5041 10.6345 17.5451L10.2764 17.5538C9.32106 17.5538 8.37462 17.3649 7.49196 16.9993C6.6094 16.6336 5.80718 16.0977 5.13166 15.4222C4.45617 14.7466 3.91922 13.9445 3.55359 13.0619C3.23371 12.2895 3.04976 11.4677 3.00876 10.6345L3 10.2764C3.00019 8.34678 3.76717 6.49615 5.13166 5.13166C6.49617 3.76718 8.34677 3.00017 10.2764 3L10.6374 3.00876ZM10.2764 5.49066C9.00734 5.49083 7.79006 5.99524 6.89264 6.89264C5.99524 7.79003 5.49086 9.00734 5.49067 10.2764L5.4965 10.5119C5.52346 11.0599 5.64418 11.6004 5.85454 12.1084C6.095 12.689 6.44837 13.2168 6.89264 13.6612C7.33694 14.1055 7.86495 14.4578 8.44541 14.6983C9.02587 14.9388 9.64817 15.0631 10.2764 15.0632L10.5119 15.0573C11.0601 15.0304 11.6003 14.9088 12.1084 14.6983C12.6891 14.4578 13.2168 14.1056 13.6612 13.6612C14.1056 13.2168 14.4578 12.689 14.6983 12.1084C14.9388 11.5278 15.0632 10.9049 15.0632 10.2764L15.0574 10.039C14.9985 8.85645 14.5024 7.7339 13.6612 6.89264C12.8197 6.0513 11.6967 5.55511 10.5138 5.4965L10.2764 5.49066Z"/>
</svg>
