<svg viewBox="0 0 24 24" fill="currentColor" xmlns="http://www.w3.org/2000/svg">
<path d="M11.7607 17.2924L10.266 18.5853V10.9996C10.266 10.7343 10.1442 10.48 9.92736 10.2925C9.71056 10.1049 9.41652 9.99959 9.10992 9.99959C8.80332 9.99959 8.50928 10.1049 8.29248 10.2925C8.07569 10.48 7.95389 10.7343 7.95389 10.9996V18.5853L6.45914 17.2924C6.24111 17.1102 5.94909 17.0094 5.64599 17.0117C5.34288 17.014 5.05293 17.1191 4.83859 17.3045C4.62426 17.4899 4.50268 17.7407 4.50004 18.0029C4.49741 18.2651 4.61393 18.5177 4.82451 18.7063L8.29261 21.7062C8.39999 21.7993 8.52756 21.8732 8.66801 21.9236C8.80845 21.9741 8.95902 22 9.11108 22C9.26314 22 9.4137 21.9741 9.55415 21.9236C9.69459 21.8732 9.82216 21.7993 9.92955 21.7062L13.3976 18.7063C13.6082 18.5177 13.7247 18.2651 13.7221 18.0029C13.7195 17.7407 13.5979 17.4899 13.3836 17.3045C13.1692 17.1191 12.8793 17.014 12.5762 17.0117C12.2731 17.0094 11.981 17.1102 11.763 17.2924H11.7607Z"/>
<path d="M19.1755 5.29273L15.7074 2.29283C15.5997 2.19951 15.4716 2.12574 15.3305 2.07584C15.0477 1.97472 14.7301 1.97472 14.4473 2.07584C14.3062 2.12574 14.1781 2.19951 14.0705 2.29283L10.6024 5.29273C10.3918 5.48133 10.2753 5.73393 10.2779 5.99611C10.2805 6.2583 10.4021 6.50911 10.6164 6.69451C10.8308 6.87991 11.1207 6.98508 11.4238 6.98736C11.7269 6.98963 12.019 6.88884 12.237 6.70669L13.734 5.41373V12.9995C13.734 13.2647 13.8558 13.519 14.0726 13.7066C14.2894 13.8941 14.5835 13.9995 14.8901 13.9995C15.1967 13.9995 15.4907 13.8941 15.7075 13.7066C15.9243 13.519 16.0461 13.2647 16.0461 12.9995V5.41373L17.5409 6.70669C17.7589 6.88884 18.0509 6.98963 18.354 6.98736C18.6571 6.98508 18.9471 6.87991 19.1614 6.69451C19.3757 6.50911 19.4973 6.2583 19.5 5.99611C19.5026 5.73393 19.3861 5.48133 19.1755 5.29273Z"/>
</svg>
