<svg viewBox="0 0 8 8" fill="currentColor" xmlns="http://www.w3.org/2000/svg">
<path d="M7.96927 3.00895C7.93435 2.89511 7.86937 2.79384 7.78178 2.71678C7.69418 2.63972 7.58753 2.59 7.47408 2.57332L5.4537 2.26703L4.55011 0.357159C4.49947 0.249964 4.42108 0.159696 4.32381 0.0965751C4.22654 0.033454 4.11427 0 3.99972 0C3.88516 0 3.77289 0.033454 3.67562 0.0965751C3.57835 0.159696 3.49996 0.249964 3.44932 0.357159L2.54573 2.26703L0.525358 2.57332C0.412073 2.59056 0.305666 2.64049 0.218151 2.71749C0.130636 2.79449 0.065499 2.89547 0.0300959 3.00905C-0.0053072 3.12263 -0.00956645 3.24426 0.0177991 3.36023C0.0451647 3.4762 0.103065 3.58188 0.184962 3.66533L1.64734 5.15208L1.30215 7.25099C1.28247 7.36879 1.29486 7.49 1.33791 7.60082C1.38096 7.71165 1.45295 7.80766 1.54569 7.87794C1.63844 7.94822 1.74822 7.98996 1.86256 7.9984C1.9769 8.00685 2.09123 7.98167 2.19254 7.92572L3.99972 6.93469L5.80689 7.92572C5.90825 7.98116 6.02244 8.00594 6.13658 7.99727C6.25071 7.9886 6.36026 7.94683 6.45285 7.87666C6.54544 7.8065 6.61739 7.71074 6.66058 7.60018C6.70377 7.48963 6.71648 7.36868 6.69728 7.25099L6.35209 5.15208L7.81447 3.66491C7.89678 3.58181 7.95496 3.47619 7.98234 3.36017C8.00972 3.24414 8.00519 3.12241 7.96927 3.00895Z"/>
</svg>
