<svg viewBox="0 0 24 24" fill="currentColor" xmlns="http://www.w3.org/2000/svg">
<path d="M6.38574 4.00391C6.76398 4.04221 7.05948 4.36168 7.05957 4.75V6.02637H21.2578L21.335 6.03027C21.713 6.06866 22.0075 6.38827 22.0078 6.77637V18.2617C22.0076 18.6758 21.6719 19.0117 21.2578 19.0117H4.88574C4.1328 19.0117 3.40316 18.7279 2.85938 18.2119C2.38246 17.7593 2.08223 17.1587 2.01465 16.5137L2 16.2344V6.77637C2.00014 6.0271 2.31438 5.31703 2.85938 4.7998C3.40316 4.28378 4.13278 4 4.88574 4H6.30957L6.38574 4.00391ZM7.05957 14.208C7.05955 14.6221 6.72364 14.9579 6.30957 14.958H4.88574C4.50602 14.958 4.14879 15.1017 3.8916 15.3457C3.63596 15.5884 3.50013 15.909 3.5 16.2344L3.50586 16.3564C3.53537 16.6392 3.66778 16.9116 3.8916 17.124C4.14879 17.3681 4.50599 17.5117 4.88574 17.5117H20.5078V7.52637H7.05957V14.208ZM15.5635 8.72949C15.9777 8.72949 16.3135 9.06528 16.3135 9.47949V10.0801H17.6992L17.7764 10.084C18.1542 10.1227 18.4491 10.442 18.4492 10.8301C18.4492 11.2182 18.1543 11.5375 17.7764 11.5762L17.6992 11.5801H16.3135V12.7822H17.6992L17.7764 12.7861C18.1542 12.8248 18.4491 13.1442 18.4492 13.5322C18.4492 13.9203 18.1542 14.2396 17.7764 14.2783L17.6992 14.2822H16.3135V14.8838C16.3133 15.2978 15.9776 15.6338 15.5635 15.6338C15.1494 15.6338 14.8137 15.2978 14.8135 14.8838V14.2822H12.7539V14.8838C12.7537 15.2978 12.418 15.6338 12.0039 15.6338C11.5899 15.6337 11.2541 15.2977 11.2539 14.8838V14.2822H9.86914C9.45493 14.2822 9.11914 13.9464 9.11914 13.5322C9.11931 13.1182 9.45503 12.7822 9.86914 12.7822H11.2539V11.5801H9.86914C9.45493 11.5801 9.11914 11.2443 9.11914 10.8301C9.11923 10.4159 9.45498 10.0801 9.86914 10.0801H11.2539V9.47949C11.2539 9.06536 11.5898 8.72962 12.0039 8.72949C12.4181 8.72949 12.7539 9.06528 12.7539 9.47949V10.0801H14.8135V9.47949C14.8135 9.06528 15.1493 8.72949 15.5635 8.72949ZM4.88574 5.5C4.50602 5.5 4.14879 5.64366 3.8916 5.8877C3.63596 6.13037 3.50014 6.45103 3.5 6.77637V13.7998C3.92303 13.577 4.39942 13.458 4.88574 13.458H5.55957V5.5H4.88574ZM12.7539 12.7822H14.8135V11.5801H12.7539V12.7822Z" />
</svg>
