<svg xmlns="http://www.w3.org/2000/svg" viewBox="0 0 20 20" fill="none">
  <g transform="translate(1.5, 19.33) scale(1, -1)">
    <path d="M16 4.33333H5.16667C4.0616 4.33333 3.00179 4.77232 2.22039 5.55372C1.43899 6.33512 1 7.39493 1 8.5V13.5M12.6667 7.66667L16 4.33333L12.6667 1" stroke="currentColor" stroke-width="2" stroke-linecap="round" stroke-linejoin="round"/>
  </g>
  <path transform="translate(6.67, 2.5)" d="M0.244078 2.74408C0.0877975 2.90036 0 3.11232 0 3.33333C0 3.55435 0.0877975 3.76631 0.244078 3.92259C0.400358 4.07887 0.61232 4.16667 0.833333 4.16667H2.5V5.83333C2.5 6.05435 2.5878 6.26631 2.74408 6.42259C2.90036 6.57887 3.11232 6.66667 3.33333 6.66667C3.55435 6.66667 3.76631 6.57887 3.92259 6.42259C4.07887 6.26631 4.16667 6.05435 4.16667 5.83333V4.16667H5.83333C6.05435 4.16667 6.26631 4.07887 6.42259 3.92259C6.57887 3.76631 6.66667 3.55435 6.66667 3.33333C6.66667 3.11232 6.57887 2.90036 6.42259 2.74408C6.26631 2.5878 6.05435 2.5 5.83333 2.5H4.16667V0.833333C4.16667 0.61232 4.07887 0.400358 3.92259 0.244078C3.76631 0.0877975 3.55435 0 3.33333 0C3.11232 0 2.90036 0.0877975 2.74408 0.244078C2.5878 0.400358 2.5 0.61232 2.5 0.833333V2.5H0.833333C0.61232 2.5 0.400358 2.5878 0.244078 2.74408Z" fill="currentColor"/>
</svg>
