<svg viewBox="0 0 24 24" fill="currentColor" xmlns="http://www.w3.org/2000/svg">
<path d="M17 3C19.2091 3 21 4.79086 21 7V17C21 19.2091 19.2091 21 17 21H7C4.79086 21 3 19.2091 3 17V7C3 4.79086 4.79086 3 7 3H17ZM7 5C5.89543 5 5 5.89543 5 7V17L5.01074 17.2041C5.1062 18.1457 5.85435 18.8938 6.7959 18.9893L7 19H17L17.2041 18.9893C18.2128 18.887 19 18.0357 19 17V7C19 5.89543 18.1046 5 17 5H7ZM14 15C14.5523 15 15 15.4477 15 16C15 16.5523 14.5523 17 14 17H7C6.44772 17 6 16.5523 6 16C6 15.4477 6.44772 15 7 15H14ZM17.1602 12C17.7124 12 18.1602 12.4477 18.1602 13C18.1602 13.5523 17.7124 14 17.1602 14H7.16016C6.60798 13.9999 6.16016 13.5522 6.16016 13C6.16016 12.4478 6.60798 12.0001 7.16016 12H17.1602Z"/>
</svg>
