<svg viewBox="0 0 16 17" fill="currentColor" xmlns="http://www.w3.org/2000/svg">
<path d="M0 1.375C0 1.23693 0.111929 1.125 0.25 1.125H3.75C3.88807 1.125 4 1.23693 4 1.375V2.875C4 3.01307 3.88807 3.125 3.75 3.125H0.25C0.111929 3.125 0 3.01307 0 2.875V1.375Z" />
<path d="M0 7.375C0 7.23693 0.111929 7.125 0.25 7.125H3.75C3.88807 7.125 4 7.23693 4 7.375V8.875C4 9.01307 3.88807 9.125 3.75 9.125H0.25C0.111929 9.125 0 9.01307 0 8.875V7.375Z" />
<path d="M0 10.375C0 10.2369 0.111929 10.125 0.25 10.125H3.75C3.88807 10.125 4 10.2369 4 10.375V11.875C4 12.0131 3.88807 12.125 3.75 12.125H0.25C0.111929 12.125 0 12.0131 0 11.875V10.375Z" />
<path d="M0 13.375C0 13.2369 0.111929 13.125 0.25 13.125H3.75C3.88807 13.125 4 13.2369 4 13.375V14.875C4 15.0131 3.88807 15.125 3.75 15.125H0.25C0.111929 15.125 0 15.0131 0 14.875V13.375Z" />
<path d="M0 4.375C0 4.23693 0.111929 4.125 0.25 4.125H3.75C3.88807 4.125 4 4.23693 4 4.375V5.875C4 6.01307 3.88807 6.125 3.75 6.125H0.25C0.111929 6.125 0 6.01307 0 5.875V4.375Z" />
<path d="M6 1.375C6 1.23693 6.11193 1.125 6.25 1.125H9.75C9.88807 1.125 10 1.23693 10 1.375V8.875C10 9.01307 9.88807 9.125 9.75 9.125H6.25C6.11193 9.125 6 9.01307 6 8.875V1.375Z" />
<path d="M6 10.375C6 10.2369 6.11193 10.125 6.25 10.125H9.75C9.88807 10.125 10 10.2369 10 10.375V14.875C10 15.0131 9.88807 15.125 9.75 15.125H6.25C6.11193 15.125 6 15.0131 6 14.875V10.375Z" />
<path d="M12 6.375C12 6.23693 12.1119 6.125 12.25 6.125H15.75C15.8881 6.125 16 6.23693 16 6.375V9.875C16 10.0131 15.8881 10.125 15.75 10.125H12.25C12.1119 10.125 12 10.0131 12 9.875V6.375Z" />
<path d="M12 1.375C12 1.23693 12.1119 1.125 12.25 1.125H15.75C15.8881 1.125 16 1.23693 16 1.375V4.875C16 5.01307 15.8881 5.125 15.75 5.125H12.25C12.1119 5.125 12 5.01307 12 4.875V1.375Z" />
<path d="M12 11.375C12 11.2369 12.1119 11.125 12.25 11.125H15.75C15.8881 11.125 16 11.2369 16 11.375V14.875C16 15.0131 15.8881 15.125 15.75 15.125H12.25C12.1119 15.125 12 15.0131 12 14.875V11.375Z"/>
<path fill-rule="evenodd" clip-rule="evenodd" d="M5 0C5.06904 0 5.125 0.0559644 5.125 0.125V16.125C5.125 16.194 5.06904 16.25 5 16.25C4.93096 16.25 4.875 16.194 4.875 16.125V0.125C4.875 0.0559644 4.93096 0 5 0ZM11 0C11.069 0 11.125 0.0559644 11.125 0.125V16.125C11.125 16.194 11.069 16.25 11 16.25C10.931 16.25 10.875 16.194 10.875 16.125V0.125C10.875 0.0559644 10.931 0 11 0Z" />
</svg>
