<svg viewBox="0 0 16 16" fill="currentColor" xmlns="http://www.w3.org/2000/svg">
<g fill="none" stroke="currentColor" stroke-linecap="round" stroke-linejoin="round">
<path d="M2.86323 2.86177C2.73821 2.98679 2.66797 3.15636 2.66797 3.33317V4.6665C2.66797 4.84331 2.73821 5.01288 2.86323 5.13791C2.98826 5.26293 3.15782 5.33317 3.33464 5.33317H12.668C12.8448 5.33317 13.0143 5.26293 13.1394 5.13791C13.2644 5.01288 13.3346 4.84331 13.3346 4.6665V3.33317C13.3346 3.15636 13.2644 2.98679 13.1394 2.86177C13.0143 2.73674 12.8448 2.6665 12.668 2.6665H3.33464C3.15782 2.6665 2.98826 2.73674 2.86323 2.86177Z"/>
<path d="M2.86323 8.1951C2.73821 8.32012 2.66797 8.48969 2.66797 8.6665V12.6665C2.66797 12.8433 2.73821 13.0129 2.86323 13.1379C2.98826 13.2629 3.15782 13.3332 3.33464 13.3332H7.33464C7.51145 13.3332 7.68102 13.2629 7.80604 13.1379C7.93106 13.0129 8.0013 12.8433 8.0013 12.6665V8.6665C8.0013 8.48969 7.93106 8.32012 7.80604 8.1951C7.68102 8.07008 7.51145 7.99984 7.33464 7.99984H3.33464C3.15782 7.99984 2.98826 8.07008 2.86323 8.1951Z"/>
<path d="M10.8632 8.1951C10.7382 8.32012 10.668 8.48969 10.668 8.6665V12.6665C10.668 12.8433 10.7382 13.0129 10.8632 13.1379C10.9883 13.2629 11.1578 13.3332 11.3346 13.3332H12.668C12.8448 13.3332 13.0143 13.2629 13.1394 13.1379C13.2644 13.0129 13.3346 12.8433 13.3346 12.6665V8.6665C13.3346 8.48969 13.2644 8.32012 13.1394 8.1951C13.0143 8.07008 12.8448 7.99984 12.668 7.99984H11.3346C11.1578 7.99984 10.9883 8.07008 10.8632 8.1951Z"/>
</g>
</svg>
