<svg width="24" height="24" viewBox="0 0 24 24" fill="currentColor" xmlns="http://www.w3.org/2000/svg">
<path d="M19 4C20.1046 4 21 4.89543 21 6V18.001C20.9999 19.1054 20.1045 20.001 19 20.001H5C3.89551 20.001 3.00013 19.1054 3 18.001V6C3 4.89543 3.89543 4 5 4H19ZM8 10.1504H8.7998C8.7998 9.71023 8.95834 9.02567 9.59961 9.02539H11.2002V15.3525C11.2002 15.7927 10.8702 16.1502 10.4004 16.1504H10V16.9004H14V16.1504H13.5996C13.1302 16.1502 12.7998 15.7927 12.7998 15.3525V9.02539H14.4004C15.0597 9.02566 15.208 9.71023 15.208 10.1504H16V7.90039H8V10.1504Z"/>
</svg>
