<svg width="24" height="24" viewBox="0 0 24 24" fill="currentColor" xmlns="http://www.w3.org/2000/svg">
<path d="M3 5.99976C3 4.89519 3.89543 3.99976 5 3.99976H19C20.1046 3.99976 21 4.89519 21 5.99976V18.0007C21 19.1053 20.1046 20.0007 19 20.0007H5C3.89543 20.0007 3 19.1053 3 18.0007V5.99976Z" stroke="currentColor"/>
<path d="M16 7.8999H8V10.1499H8.7996C8.7996 9.70965 8.9584 9.0249 9.6 9.0249H11.2V15.3527C11.2 15.7929 10.87 16.1499 10.4 16.1499H10V16.8999H13.9996V16.1499H13.6C13.1304 16.1499 12.8 15.7929 12.8 15.3527V9.0249H14.4C15.0596 9.0249 15.208 9.70965 15.208 10.1499H16V7.8999Z"/>
</svg>
