<svg viewBox="0 0 24 24" fill="currentColor" xmlns="http://www.w3.org/2000/svg">
<path d="M8.66797 7.62677C8.87436 7.44331 9.19056 7.46139 9.37402 7.66779L17.374 16.6678C17.5572 16.8742 17.5383 17.1905 17.332 17.3738C17.1259 17.557 16.8105 17.5385 16.627 17.3328L8.62598 8.33185C8.44289 8.1255 8.46183 7.81015 8.66797 7.62677Z"/>
<path d="M13.1748 14.3104V15.7518C13.1748 16.1919 13.5052 16.5494 13.9746 16.5496H14.375V17.2996H10.375V16.5496H10.7754C11.2452 16.5494 11.5752 16.1919 11.5752 15.7518V12.5154L13.1748 14.3104Z"/>
<path d="M16.375 10.5496H15.583C15.583 10.1095 15.4347 9.42489 14.7754 9.42462H13.1748V11.3045L11.5752 9.50861V9.42462H11.5L10.498 8.29962H16.375V10.5496Z"/>
<path d="M9.28027 9.94025C9.20212 10.141 9.1748 10.3666 9.1748 10.5496H8.375V8.92365L9.28027 9.94025Z"/>
<path fill-rule="evenodd" clip-rule="evenodd" d="M19.375 3.89923C20.7557 3.89923 21.875 5.01852 21.875 6.39923V18.4002C21.8749 19.7808 20.7556 20.9002 19.375 20.9002H5.375C3.99437 20.9002 2.87513 19.7808 2.875 18.4002V6.39923C2.875 5.01852 3.99429 3.89923 5.375 3.89923H19.375ZM5.375 4.89923C4.54657 4.89923 3.875 5.5708 3.875 6.39923V18.4002C3.87513 19.2285 4.54665 19.9002 5.375 19.9002H19.375C20.2033 19.9002 20.8749 19.2285 20.875 18.4002V6.39923C20.875 5.5708 20.2034 4.89923 19.375 4.89923H5.375Z"/>
</svg>
