<svg width="24" height="24" viewBox="0 0 24 24" fill="currentColor" xmlns="http://www.w3.org/2000/svg">
<path d="M20.8972 3.1032C20.4471 2.65327 19.8368 2.40051 19.2004 2.40051C18.564 2.40051 17.9537 2.65327 17.5036 3.1032L8.40039 12.2064V15.6H11.794L20.8972 6.4968C21.3471 6.04673 21.5999 5.43639 21.5999 4.8C21.5999 4.16361 21.3471 3.55327 20.8972 3.1032Z"/>
<path fill-rule="evenodd" clip-rule="evenodd" d="M2.40039 7.20005C2.40039 6.56353 2.65325 5.95308 3.10333 5.50299C3.55342 5.05291 4.16387 4.80005 4.80039 4.80005H9.60039C9.91865 4.80005 10.2239 4.92648 10.4489 5.15152C10.674 5.37656 10.8004 5.68179 10.8004 6.00005C10.8004 6.31831 10.674 6.62353 10.4489 6.84858C10.2239 7.07362 9.91865 7.20005 9.60039 7.20005H4.80039V19.2H16.8004V14.4C16.8004 14.0818 16.9268 13.7766 17.1519 13.5515C17.3769 13.3265 17.6821 13.2 18.0004 13.2C18.3186 13.2 18.6239 13.3265 18.8489 13.5515C19.074 13.7766 19.2004 14.0818 19.2004 14.4V19.2C19.2004 19.8366 18.9475 20.447 18.4974 20.8971C18.0474 21.3472 17.4369 21.6 16.8004 21.6H4.80039C4.16387 21.6 3.55342 21.3472 3.10333 20.8971C2.65325 20.447 2.40039 19.8366 2.40039 19.2V7.20005Z"/>
</svg>
