<svg width="20" height="20" viewBox="0 0 20 20" fill="none" xmlns="http://www.w3.org/2000/svg">
<path d="M17.998 0C19.1025 0 19.9978 0.895609 19.998 2V18C19.998 19.0357 19.2108 19.888 18.2021 19.9902L17.998 20H2L1.7959 19.9902C0.787211 19.888 0 19.0357 0 18V2C0.000209881 0.895609 0.89556 2.83401e-08 2 0H17.998ZM2 17C2 17.5523 2.44772 18 3 18H16.998C17.5503 18 17.998 17.5523 17.998 17V3C17.998 2.44772 17.5503 2 16.998 2H3C2.44772 2 2 2.44772 2 3V17Z" fill="#6B7280"/>
<path d="M14.1818 12.8182H15.3182L15.3865 12.8217C15.723 12.8579 16 13.1566 16 13.5C16 13.8664 15.6846 14.1818 15.3182 14.1818H14.1818V15.3182C14.1818 15.6846 13.8664 16 13.5 16C13.1336 16 12.8182 15.6846 12.8182 15.3182V14.1818H11.6818C11.3154 14.1818 11 13.8664 11 13.5C11 13.1336 11.3154 12.8182 11.6818 12.8182H12.8182V11.6818C12.8182 11.3154 13.1336 11 13.5 11C13.8664 11 14.1818 11.3154 14.1818 11.6818V12.8182Z" fill="#6B7280"/>
<path d="M4.48816 4.48816C4.80072 4.1756 5.22464 4 5.66667 4H7.33333C7.77536 4 8.19928 4.1756 8.51184 4.48816C8.8244 4.80072 9 5.22464 9 5.66667V7.33333C9 7.77536 8.8244 8.19928 8.51184 8.51184C8.19928 8.82441 7.77536 9 7.33333 9H5.66667C5.22464 9 4.80072 8.82441 4.48816 8.51184C4.17559 8.19928 4 7.77536 4 7.33333V5.66667C4 5.22464 4.17559 4.80072 4.48816 4.48816Z" fill="#6B7280"/>
<path d="M4.48816 11.4882C4.80072 11.1756 5.22464 11 5.66667 11H7.33333C7.77536 11 8.19928 11.1756 8.51184 11.4882C8.8244 11.8007 9 12.2246 9 12.6667V14.3333C9 14.7754 8.8244 15.1993 8.51184 15.5118C8.19928 15.8244 7.77536 16 7.33333 16H5.66667C5.22464 16 4.80072 15.8244 4.48816 15.5118C4.17559 15.1993 4 14.7754 4 14.3333V12.6667C4 12.2246 4.17559 11.8007 4.48816 11.4882Z" fill="#6B7280"/>
<path d="M11.4882 4.48816C11.8007 4.1756 12.2246 4 12.6667 4H14.3333C14.7754 4 15.1993 4.1756 15.5118 4.48816C15.8244 4.80072 16 5.22464 16 5.66667V7.33333C16 7.77536 15.8244 8.19928 15.5118 8.51184C15.1993 8.82441 14.7754 9 14.3333 9H12.6667C12.2246 9 11.8007 8.82441 11.4882 8.51184C11.1756 8.19928 11 7.77536 11 7.33333V5.66667C11 5.22464 11.1756 4.80072 11.4882 4.48816Z" fill="#6B7280"/>
</svg>
