<svg width="24" height="24" viewBox="0 0 24 24" fill="none" xmlns="http://www.w3.org/2000/svg">
<path d="M19 4C20.1045 4 21 4.89546 21 6V18L20.9893 18.2041C20.8937 19.1455 20.1456 19.8938 19.2041 19.9893L19 20H5L4.7959 19.9893C3.85444 19.8938 3.10634 19.1455 3.01074 18.2041L3 18V6C3.00003 4.89546 3.89545 4 5 4H19ZM6 6C5.44774 6 5.00003 6.44774 5 7V17C5 17.5523 5.44772 18 6 18H10C10.5523 18 11 17.5523 11 17V7C11 6.44774 10.5523 6 10 6H6ZM14 6C13.4477 6 13 6.44774 13 7V17C13 17.5523 13.4477 18 14 18H18C18.5523 18 19 17.5523 19 17V7C19 6.44774 18.5523 6 18 6H14Z" fill="currentColor"/>
</svg>
