<svg viewBox="0 0 24 24" fill="currentColor" xmlns="http://www.w3.org/2000/svg">
<path d="M16 4.10526C15.521 4.10912 15.0467 4.20435 14.6 4.38632C14.8375 5.06748 14.9698 5.78427 14.992 6.50948C15.2964 6.31645 15.6446 6.21319 16 6.21053C16.3412 6.20927 16.677 6.29993 16.9756 6.47387C17.2741 6.64781 17.5254 6.89925 17.7055 7.20428C17.8857 7.50931 17.9887 7.85778 18.0048 8.21655C18.0209 8.57532 17.9495 8.93245 17.7974 9.25398C17.6454 9.57551 17.4177 9.85074 17.136 10.0535C16.8544 10.2563 16.5282 10.3798 16.1884 10.4124C15.8486 10.4449 15.5065 10.3855 15.1947 10.2396C14.8829 10.0937 14.6117 9.86628 14.407 9.57895C14.1196 10.2384 13.7345 10.8457 13.266 11.3779C13.7412 11.85 14.319 12.1923 14.9489 12.375C15.5788 12.5577 16.2417 12.5752 16.8795 12.426C17.5173 12.2767 18.1107 11.9652 18.6078 11.5188C19.1048 11.0724 19.4904 10.5046 19.7309 9.86505C19.9713 9.22552 20.0592 8.53373 19.9869 7.85016C19.9147 7.16659 19.6844 6.51206 19.3164 5.9438C18.9483 5.37553 18.4535 4.91084 17.8754 4.59034C17.2973 4.26984 16.6534 4.10329 16 4.10526Z"/>
<path d="M17 13.5789H15.736C16.1641 14.2215 16.4913 14.9323 16.705 15.6842H17C17.7956 15.6842 18.5587 16.0169 19.1213 16.6091C19.6839 17.2014 20 18.0046 20 18.8421V19.8947H17V20.9474C16.9968 21.3068 16.9345 21.6629 16.816 22H21C21.2652 22 21.5196 21.8891 21.7071 21.6917C21.8946 21.4943 22 21.2265 22 20.9474V18.8421C21.9984 17.4467 21.4711 16.109 20.5338 15.1223C19.5964 14.1357 18.3256 13.5806 17 13.5789Z"/>
<path d="M8.5 11.4737C7.60998 11.4737 6.73995 11.1959 5.99993 10.6754C5.25991 10.1549 4.68314 9.4151 4.34254 8.54955C4.00195 7.68401 3.91283 6.73159 4.08647 5.81273C4.2601 4.89387 4.68868 4.04985 5.31802 3.38739C5.94736 2.72493 6.74918 2.27379 7.62209 2.09102C8.49501 1.90825 9.39981 2.00205 10.2221 2.36057C11.0443 2.71909 11.7471 3.32623 12.2416 4.1052C12.7361 4.88416 13 5.79998 13 6.73684C12.9987 7.9927 12.5241 9.19673 11.6805 10.0848C10.8369 10.9728 9.69307 11.4723 8.5 11.4737ZM8.5 4.10526C8.00555 4.10526 7.5222 4.2596 7.11107 4.54877C6.69995 4.83793 6.37952 5.24892 6.1903 5.72978C6.00108 6.21064 5.95157 6.73976 6.04804 7.25024C6.1445 7.76072 6.3826 8.22962 6.73223 8.59765C7.08186 8.96568 7.52732 9.21632 8.01227 9.31786C8.49723 9.4194 8.99989 9.36728 9.45671 9.16811C9.91352 8.96893 10.304 8.63163 10.5787 8.19887C10.8534 7.76611 11 7.25732 11 6.73684C11 6.03891 10.7366 5.36955 10.2678 4.87604C9.79893 4.38252 9.16304 4.10526 8.5 4.10526Z"/>
<path d="M14 22H3C2.73478 22 2.48043 21.8891 2.29289 21.6917C2.10536 21.4943 2 21.2265 2 20.9474V17.7895C2.00159 16.3941 2.52888 15.0564 3.46622 14.0697C4.40356 13.083 5.67441 12.528 7 12.5263H10C11.3256 12.528 12.5964 13.083 13.5338 14.0697C14.4711 15.0564 14.9984 16.3941 15 17.7895V20.9474C15 21.2265 14.8946 21.4943 14.7071 21.6917C14.5196 21.8891 14.2652 22 14 22ZM4 19.8947H13V17.7895C13 16.9519 12.6839 16.1487 12.1213 15.5565C11.5587 14.9643 10.7956 14.6316 10 14.6316H7C6.20435 14.6316 5.44129 14.9643 4.87868 15.5565C4.31607 16.1487 4 16.9519 4 17.7895V19.8947Z"/>
</svg>
