<svg width="24" height="24" viewBox="0 0 24 24" fill="currentColor" xmlns="http://www.w3.org/2000/svg">
<path d="M15.6836 12.5341L10.3493 15.8621C9.80015 16.2062 9 15.8914 9 15.3333V8.67745C9 8.11929 9.80015 7.80455 10.3493 8.14867L15.6784 11.4766C16.1072 11.7452 16.1072 12.2698 15.6784 12.5383L15.6836 12.5341Z"/>
<path fill-rule="evenodd" clip-rule="evenodd" d="M19 4.00537C20.1045 4.00537 21 4.90083 21 6.00537L20.9893 18.2095C20.8937 19.1509 20.1456 19.8992 19.2041 19.9946H4.7959C3.85444 19.8992 3.10634 19.1509 3.01074 18.2095L3 6.00537C3.00003 4.90083 3.89545 4.00537 5 4.00537H19ZM6 6.00537C5.44774 6.00537 5.00003 6.45311 5 7.00537V17.0054C5 17.5577 5.44772 18.0054 6 18.0054H18C18.5523 18.0054 19 17.5577 19 17.0054V7.00537C19 6.45311 18.5523 6.00537 18 6.00537H6Z"/>
</svg>
