<svg width="30" height="30" viewBox="0 0 30 30" fill="none" xmlns="http://www.w3.org/2000/svg">
  <path d="M0 2C0 0.89543 0.895431 0 2 0H28C29.1046 0 30 0.895431 30 2V28C30 29.1046 29.1046 30 28 30H2C0.89543 30 0 29.1046 0 28V2Z" fill="#C48E13"/>
  <g clip-path="url(#clip0_215_12379)">
    <mask id="mask0_215_12379" style="mask-type:luminance" maskUnits="userSpaceOnUse" x="5" y="9" width="20" height="12">
      <path d="M25 9.81482H5V20.1852H25V9.81482Z" fill="white"/>
    </mask>
    <g mask="url(#mask0_215_12379)">
      <path d="M23.2763 10.8906C21.8619 9.74662 19.9881 9.72318 19.3022 9.89043L19.2225 9.90921C18.4299 10.101 17.171 10.4181 15.6974 12.2905C15.6894 12.3009 15.6809 12.3116 15.6731 12.3224L15.6544 12.3455C15.6401 12.3648 15.6317 12.3878 15.6302 12.4119C15.6287 12.436 15.6341 12.46 15.6459 12.4809L15.68 12.5387C15.8651 12.8555 16.0983 13.2631 16.2954 13.6388C16.2972 13.6429 16.2992 13.6455 16.3008 13.6505C16.3112 13.6716 16.3273 13.6894 16.3471 13.7019C16.3669 13.7144 16.3898 13.7211 16.4131 13.7213C16.4293 13.7213 16.4453 13.7182 16.4602 13.7119C16.4751 13.7057 16.4887 13.6966 16.5002 13.6851C16.5094 13.6726 16.5188 13.6598 16.5268 13.6466C17.8347 11.7945 18.863 11.5391 19.5588 11.3713L19.642 11.351C20.003 11.2622 21.3759 11.2676 22.367 12.0687C23.1403 12.694 23.533 13.6891 23.533 15.0258C23.533 17.2681 22.468 18.1453 21.574 18.4861C20.1896 19.0161 18.8619 18.3077 18.8522 18.3023L18.7927 18.2726C18.0321 17.9348 16.8971 17.231 15.8274 15.0312C13.6714 10.5971 11.868 10.1796 10.6748 9.90279L10.611 9.88827C10.0676 9.76209 8.1807 9.67292 6.69771 10.8853C5.92257 11.5183 4.99951 12.7492 4.99951 15.0167C4.99951 16.3985 5.27658 17.3106 5.98911 18.2705C6.14538 18.4892 7.74191 20.5896 10.8288 19.9838C11.3228 19.887 11.9922 19.6452 12.7282 19.0804L13.4078 19.708C13.4295 19.7278 13.4581 19.7381 13.4873 19.7366C13.5165 19.7351 13.544 19.722 13.5636 19.7001C13.5819 19.6794 13.5917 19.6524 13.5908 19.6246V19.6153L14.081 16.5282L14.0813 16.4939C14.0812 16.4784 14.0779 16.4631 14.0716 16.4489C14.0653 16.4348 14.0562 16.4221 14.0448 16.4117C14.0254 16.3932 13.9995 16.3832 13.9728 16.3839L13.952 16.3859L13.92 16.3893L11.0322 17.2173L10.9796 17.226C10.9582 17.2306 10.9389 17.2421 10.9245 17.2589C10.9146 17.2699 10.9069 17.2829 10.9019 17.2969C10.8969 17.311 10.8947 17.3259 10.8955 17.3409C10.8962 17.3558 10.8999 17.3704 10.9063 17.3839C10.9127 17.3974 10.9216 17.4095 10.9326 17.4194L10.9666 17.4514L11.6136 18.0499C11.293 18.2711 10.933 18.4272 10.5536 18.5092C8.32031 18.9455 7.21751 17.4477 7.17558 17.389L7.15998 17.3671C6.64124 16.6694 6.46591 16.0765 6.46591 15.0172C6.46591 13.6766 6.85151 12.6811 7.61217 12.0592C8.57804 11.2699 9.90984 11.2653 10.2862 11.3532L10.3511 11.368C11.329 11.5947 12.6688 11.905 14.5141 15.7008C15.4726 17.6717 16.6732 18.9601 18.184 19.6397C18.9002 19.995 19.6865 20.1816 20.484 20.1856C21.0311 20.1875 21.574 20.0891 22.0866 19.8952C22.9622 19.5605 24.9992 18.4169 24.9992 15.0267C24.9992 12.7602 24.0622 11.5268 23.2758 10.8912" fill="white"/>
    </g>
  </g>
  <path d="M0 0H15V10C15 12.2091 13.2091 14 11 14H0V0Z" fill="#C48E13"/>
  <path d="M5.12891 3V11H3.4375V4.60547H3.39063L1.55859 5.75391V4.25391L3.53906 3H5.12891ZM7.03027 11V9.78125L9.87793 7.14453C10.1201 6.91016 10.3232 6.69922 10.4873 6.51172C10.654 6.32422 10.7803 6.14062 10.8662 5.96094C10.9521 5.77865 10.9951 5.58203 10.9951 5.37109C10.9951 5.13672 10.9417 4.9349 10.835 4.76562C10.7282 4.59375 10.5824 4.46224 10.3975 4.37109C10.2126 4.27734 10.0029 4.23047 9.76855 4.23047C9.52376 4.23047 9.31022 4.27995 9.12793 4.37891C8.94564 4.47786 8.80501 4.61979 8.70605 4.80469C8.6071 4.98958 8.55762 5.20964 8.55762 5.46484H6.95215C6.95215 4.94141 7.07064 4.48698 7.30762 4.10156C7.5446 3.71615 7.87663 3.41797 8.30371 3.20703C8.73079 2.99609 9.22298 2.89062 9.78027 2.89062C10.3532 2.89062 10.8519 2.99219 11.2764 3.19531C11.7035 3.39583 12.0355 3.67448 12.2725 4.03125C12.5094 4.38802 12.6279 4.79687 12.6279 5.25781C12.6279 5.5599 12.568 5.85807 12.4482 6.15234C12.3311 6.44661 12.1214 6.77344 11.8193 7.13281C11.5173 7.48958 11.0915 7.91797 10.542 8.41797L9.37402 9.5625V9.61719H12.7334V11H7.03027Z" fill="white"/>
  <defs>
    <clipPath id="clip0_215_12379">
      <rect width="20" height="10.3704" fill="white" transform="translate(5 9.81482)"/>
    </clipPath>
  </defs>
</svg>
