<svg width="30" height="30" viewBox="0 0 30 30" fill="none" xmlns="http://www.w3.org/2000/svg">
  <path d="M0 2C0 0.89543 0.895431 0 2 0H28C29.1046 0 30 0.895431 30 2V28C30 29.1046 29.1046 30 28 30H2C0.89543 30 0 29.1046 0 28V2Z" fill="#05639B"/>
  <g clip-path="url(#clip0_215_12376)">
    <mask id="mask0_215_12376" style="mask-type:luminance" maskUnits="userSpaceOnUse" x="5" y="5" width="20" height="20">
      <path d="M25 5.56604H5V24.434H25V5.56604Z" fill="white"/>
    </mask>
    <g mask="url(#mask0_215_12376)">
      <path d="M22.1944 5.71936C22.1944 5.71936 21.7866 6.26802 21.9052 6.80243C22.0238 7.33684 22.6262 7.65496 22.6262 7.65496C22.6262 7.65496 23.0342 7.1063 22.9152 6.57189C22.7962 6.03748 22.1944 5.71936 22.1944 5.71936Z" fill="white"/>
      <path d="M21.5312 8.84151C21.5312 8.84151 21.9392 8.29245 21.8202 7.75784C21.7012 7.22322 21.0995 6.90564 21.0995 6.90564C21.0995 6.90564 20.6911 7.45389 20.8097 7.98871C20.9293 8.52312 21.5312 8.84151 21.5312 8.84151Z" fill="white"/>
      <path d="M23.1892 8.24883C23.1892 8.24883 23.6201 8.68897 24.1103 8.64474C24.6005 8.60051 24.9644 8.08926 24.9644 8.08926C24.9644 8.08926 24.5341 7.64932 24.0433 7.69355C23.5525 7.73778 23.1892 8.24883 23.1892 8.24883Z" fill="white"/>
      <path d="M23.8939 5.91707C23.4949 6.32702 23.551 7.05288 23.551 7.05288C23.551 7.05288 24.2548 7.11466 24.6546 6.70497C25.0534 6.29522 24.9973 5.56937 24.9973 5.56937C24.9973 5.56937 24.2933 5.50751 23.8939 5.91707Z" fill="white"/>
      <path d="M23.0234 9.85418C23.5122 9.91273 23.9717 9.48764 23.9717 9.48764C23.9717 9.48764 23.639 8.96769 23.1506 8.90921C22.6621 8.85073 22.2019 9.27615 22.2019 9.27615C22.2019 9.27615 22.5348 9.79563 23.0234 9.85418Z" fill="white"/>
      <path d="M23.4667 17.6938H19.8138C19.6768 17.6938 19.5453 17.749 19.4484 17.8471C19.3516 17.9453 19.2971 18.0784 19.2971 18.2172C19.2971 18.356 19.3516 18.4891 19.4484 18.5872C19.5453 18.6854 19.6768 18.7405 19.8138 18.7405H23.4668C23.6038 18.7405 23.7352 18.6854 23.8321 18.5872C23.929 18.4891 23.9835 18.356 23.9835 18.2172C23.9835 18.0784 23.929 17.9453 23.8321 17.8471C23.7352 17.749 23.6037 17.6938 23.4667 17.6938Z" fill="white"/>
      <path d="M23.4667 23.3872H19.8138C19.6768 23.3872 19.5453 23.4423 19.4484 23.5405C19.3516 23.6386 19.2971 23.7717 19.2971 23.9105C19.2971 24.0493 19.3516 24.1825 19.4484 24.2806C19.5453 24.3787 19.6768 24.4339 19.8138 24.4339H23.4668C23.6038 24.4339 23.7352 24.3787 23.8321 24.2806C23.929 24.1825 23.9835 24.0493 23.9835 23.9105C23.9835 23.7717 23.929 23.6386 23.8321 23.5405C23.7352 23.4423 23.6037 23.3872 23.4667 23.3872Z" fill="white"/>
      <path d="M7.12427 16.4481C7.04105 16.421 6.95635 16.3989 6.87061 16.3817C6.87061 16.3817 6.96427 16.4113 7.12427 16.4481Z" fill="white"/>
      <path d="M13.0018 18.711C13.2432 18.7153 13.4856 18.7079 13.7281 18.6915V20.6152L13.0018 20.5985V18.711ZM23.4061 19.1276H20.0112C19.9333 19.1273 19.8585 19.1584 19.8032 19.2139C19.7479 19.2694 19.7166 19.3449 19.7162 19.4238V20.457L17.4999 20.7016L14.2622 20.6273V18.6398C14.6973 18.5845 15.1279 18.4967 15.5504 18.3774C18.6672 17.4936 19.3469 15.5426 19.279 13.7507C19.2112 11.926 19.7923 11.2173 20.6271 10.9022C20.8516 10.8189 21.0833 10.7572 21.3192 10.7178C21.3284 11.1661 21.4192 11.6872 21.6182 12.3082C21.6923 12.3041 21.766 12.2977 21.8393 12.2897C21.6284 11.6549 21.5388 11.1321 21.5339 10.6867C21.779 10.6557 22.0264 10.6482 22.2728 10.6643C22.0237 10.5187 21.7883 10.3501 21.5695 10.1609C21.7095 9.2969 22.2217 8.76614 22.7495 8.22369C23.0396 7.92502 23.3394 7.61662 23.5752 7.249L23.3914 7.12988C23.1681 7.4792 22.8748 7.77915 22.5925 8.06979C22.0776 8.59914 21.5584 9.13976 21.3823 9.99756C21.195 9.82753 21.017 9.64732 20.849 9.45775C20.0803 8.59164 19.091 9.22775 17.6802 10.548C16.2684 11.8675 14.4936 11.9128 12.7602 10.1303C10.4729 7.77706 8.47791 7.79043 7.10951 7.92393C8.04557 8.32464 8.3729 9.20344 8.84677 11.4376C9.34317 13.7817 10.5951 14.8422 12.308 14.9885C11.514 15.1179 11.308 15.2286 10.0318 16.1146C9.0349 16.8058 7.6327 16.5873 7.06424 16.4575C8.10777 16.7844 9.34424 17.8845 10.45 18.2672C11.103 18.4907 11.7812 18.6304 12.4685 18.6832V20.5859L6.3269 20.4528V21.7801L17.5002 21.531L19.7165 21.7762V22.8087C19.7169 22.8877 19.7481 22.9633 19.8034 23.019C19.8587 23.0747 19.9335 23.1059 20.0115 23.1058H23.4066C23.4847 23.1059 23.5596 23.0747 23.6149 23.0191C23.6703 22.9634 23.7016 22.8877 23.702 22.8087V19.424C23.7016 19.3451 23.6702 19.2696 23.6148 19.214C23.5594 19.1585 23.4846 19.1275 23.4066 19.1278L23.4061 19.1276Z" fill="white"/>
      <path d="M6.12537 21.499C6.12537 21.7804 5.93171 22.0086 5.69291 22.0086H5.43291C5.19451 22.0086 5.00024 21.7803 5.00024 21.499V20.5772C5.00024 20.2954 5.19451 20.0677 5.43291 20.0677H5.69291C5.93171 20.0677 6.12537 20.2954 6.12537 20.5772V21.499Z" fill="white"/>
    </g>
  </g>
  <path d="M0 0H15V10C15 12.2091 13.2091 14 11 14H0V0Z" fill="#05639B"/>
  <path d="M5.12891 3V11H3.4375V4.60547H3.39063L1.55859 5.75391V4.25391L3.53906 3H5.12891ZM10.1006 11.1094C9.68913 11.1068 9.29199 11.0378 8.90918 10.9023C8.52897 10.7669 8.18783 10.5469 7.88574 10.2422C7.58366 9.9375 7.34408 9.53385 7.16699 9.03125C6.99251 8.52865 6.90527 7.91146 6.90527 7.17969C6.90788 6.50781 6.9847 5.90755 7.13574 5.37891C7.28939 4.84766 7.50814 4.39713 7.79199 4.02734C8.07845 3.65755 8.4209 3.3763 8.81934 3.18359C9.21777 2.98828 9.66439 2.89062 10.1592 2.89062C10.693 2.89062 11.1644 2.99479 11.5732 3.20313C11.9821 3.40885 12.3102 3.6888 12.5576 4.04297C12.8076 4.39714 12.9587 4.79427 13.0107 5.23437H11.3428C11.2777 4.95573 11.141 4.73698 10.9326 4.57813C10.7243 4.41927 10.4665 4.33984 10.1592 4.33984C9.63835 4.33984 9.24251 4.56641 8.97168 5.01953C8.70345 5.47266 8.56673 6.08854 8.56152 6.86719H8.61621C8.736 6.63021 8.89746 6.42839 9.10059 6.26172C9.30632 6.09245 9.53939 5.96354 9.7998 5.875C10.0628 5.78385 10.3402 5.73828 10.6318 5.73828C11.1058 5.73828 11.5277 5.85026 11.8975 6.07422C12.2673 6.29557 12.5589 6.60026 12.7725 6.98828C12.986 7.3763 13.0928 7.82031 13.0928 8.32031C13.0928 8.86198 12.9665 9.34375 12.7139 9.76562C12.4639 10.1875 12.1136 10.5182 11.6631 10.7578C11.2152 10.9948 10.6943 11.112 10.1006 11.1094ZM10.0928 9.78125C10.3532 9.78125 10.5863 9.71875 10.792 9.59375C10.9977 9.46875 11.1592 9.29948 11.2764 9.08594C11.3936 8.8724 11.4521 8.63281 11.4521 8.36719C11.4521 8.10156 11.3936 7.86328 11.2764 7.65234C11.1618 7.44141 11.0029 7.27344 10.7998 7.14844C10.5967 7.02344 10.3649 6.96094 10.1045 6.96094C9.90918 6.96094 9.72819 6.9974 9.56152 7.07031C9.39746 7.14323 9.25293 7.24479 9.12793 7.375C9.00553 7.50521 8.90918 7.65625 8.83887 7.82812C8.76855 7.9974 8.7334 8.17839 8.7334 8.37109C8.7334 8.62891 8.79199 8.86458 8.90918 9.07812C9.02897 9.29167 9.19043 9.46224 9.39355 9.58984C9.59928 9.71745 9.83236 9.78125 10.0928 9.78125Z" fill="white"/>
  <defs>
    <clipPath id="clip0_215_12376">
      <rect width="20" height="18.8679" fill="white" transform="translate(5 5.56604)"/>
    </clipPath>
  </defs>
</svg>
