<svg width="30" height="30" viewBox="0 0 30 30" fill="none" xmlns="http://www.w3.org/2000/svg">
  <path d="M0 2C0 0.89543 0.895431 0 2 0H28C29.1046 0 30 0.895431 30 2V28C30 29.1046 29.1046 30 28 30H2C0.89543 30 0 29.1046 0 28V2Z" fill="#4B9B34"/>
  <g clip-path="url(#clip0_215_12384)">
    <mask id="mask0_215_12384" style="mask-type:luminance" maskUnits="userSpaceOnUse" x="4" y="7" width="22" height="16">
      <path d="M26.0001 7.25928H4.40747V22.7408H26.0001V7.25928Z" fill="white"/>
    </mask>
    <g mask="url(#mask0_215_12384)">
      <path d="M26.0001 15.458C26.0001 14.532 25.4198 13.7812 24.5412 13.7812C24.1018 13.7812 23.5717 14.274 23.284 14.5774C22.9961 14.2739 22.5011 13.7805 22.0616 13.7805C21.1827 13.7805 20.5669 14.5315 20.5669 15.4579C20.5653 15.9004 20.7326 16.3261 21.0332 16.6439L23.2861 18.9554L25.5353 16.6463L25.5336 16.6446C25.8343 16.3264 26.0017 15.9005 26.0001 15.4577V15.458Z" fill="white"/>
      <path d="M16.3634 22.7405C16.3557 22.7405 16.3481 22.7405 16.3403 22.7397C16.2571 22.7344 16.178 22.7004 16.116 22.6432C16.054 22.586 16.0126 22.5091 15.9987 22.4248L14.8543 15.5799L13.121 18.8807C13.0841 18.951 13.0265 19.0076 12.9564 19.0424C12.8862 19.0772 12.8071 19.0883 12.7304 19.0743C12.6537 19.0603 12.5833 19.0218 12.5292 18.9644C12.4752 18.9069 12.4402 18.8334 12.4294 18.7544L11.6935 13.4717L10.3475 16.5777C10.3185 16.6447 10.271 16.7017 10.211 16.7417C10.1509 16.7817 10.0809 16.8029 10.0093 16.803H4.77665C4.67829 16.803 4.58395 16.7629 4.51439 16.6917C4.44484 16.6205 4.40576 16.5238 4.40576 16.4231C4.40576 16.3223 4.44484 16.2257 4.51439 16.1545C4.58395 16.0832 4.67829 16.0432 4.77665 16.0432H9.76871L11.5393 11.9578C11.5719 11.8825 11.6275 11.8201 11.6977 11.7801C11.768 11.7401 11.849 11.7247 11.9286 11.7361C12.0082 11.7475 12.082 11.7851 12.1389 11.8433C12.1957 11.9015 12.2325 11.9771 12.2437 12.0586L13.0023 17.5057L14.7116 14.2503C14.748 14.1806 14.8048 14.1243 14.8739 14.0893C14.9431 14.0543 15.0213 14.0424 15.0974 14.0552C15.1736 14.068 15.2439 14.1049 15.2985 14.1608C15.3531 14.2166 15.3893 14.2885 15.402 14.3665L16.4619 20.7058L20.3237 7.52963C20.3451 7.45636 20.3875 7.39142 20.4456 7.34335C20.5036 7.29528 20.5745 7.26633 20.6489 7.26033C20.7233 7.25432 20.7978 7.27153 20.8624 7.30969C20.9271 7.34785 20.979 7.40517 21.0113 7.47412L23.0433 11.8011C23.0645 11.8459 23.0768 11.8946 23.0796 11.9443C23.0824 11.994 23.0756 12.0438 23.0597 12.0908C23.0437 12.1378 23.0188 12.1811 22.9865 12.2183C22.9542 12.2555 22.915 12.2858 22.8712 12.3074C22.8275 12.3291 22.78 12.3417 22.7315 12.3446C22.6829 12.3475 22.6343 12.3405 22.5884 12.3242C22.5425 12.3078 22.5002 12.2823 22.4639 12.2492C22.4276 12.2161 22.3981 12.176 22.3769 12.1312L20.7581 8.68403L16.7174 22.4703C16.6946 22.5484 16.6479 22.6169 16.5841 22.6656C16.5204 22.7143 16.4429 22.7407 16.3634 22.7407V22.7405Z" fill="white"/>
    </g>
  </g>
  <path d="M0 0H11V8C11 10.2091 9.20914 12 7 12H0V0Z" fill="#4B9B34"/>
  <path d="M5.60547 10.1094C5.02214 10.1094 4.5026 10.0091 4.04688 9.80859C3.59375 9.60547 3.23568 9.32682 2.97266 8.97266C2.71224 8.61589 2.57813 8.20443 2.57031 7.73828H4.27344C4.28385 7.93359 4.34766 8.10547 4.46484 8.25391C4.58464 8.39974 4.74349 8.51302 4.94141 8.59375C5.13932 8.67448 5.36198 8.71484 5.60938 8.71484C5.86719 8.71484 6.09505 8.66927 6.29297 8.57812C6.49089 8.48698 6.64583 8.36068 6.75781 8.19922C6.86979 8.03776 6.92578 7.85156 6.92578 7.64062C6.92578 7.42708 6.86589 7.23828 6.74609 7.07422C6.62891 6.90755 6.45964 6.77734 6.23828 6.68359C6.01953 6.58984 5.75911 6.54297 5.45703 6.54297H4.71094V5.30078H5.45703C5.71224 5.30078 5.9375 5.25651 6.13281 5.16797C6.33073 5.07943 6.48438 4.95703 6.59375 4.80078C6.70313 4.64193 6.75781 4.45703 6.75781 4.24609C6.75781 4.04557 6.70964 3.86979 6.61328 3.71875C6.51953 3.5651 6.38672 3.44531 6.21484 3.35937C6.04557 3.27344 5.84766 3.23047 5.62109 3.23047C5.39193 3.23047 5.18229 3.27214 4.99219 3.35547C4.80208 3.4362 4.64974 3.55208 4.53516 3.70312C4.42057 3.85417 4.35938 4.03125 4.35156 4.23437H2.73047C2.73828 3.77344 2.86979 3.36719 3.125 3.01562C3.38021 2.66406 3.72396 2.38932 4.15625 2.19141C4.59115 1.99089 5.08203 1.89062 5.62891 1.89062C6.18099 1.89062 6.66406 1.99089 7.07813 2.19141C7.49219 2.39193 7.8138 2.66276 8.04297 3.00391C8.27474 3.34245 8.38932 3.72266 8.38672 4.14453C8.38932 4.59245 8.25 4.96615 7.96875 5.26562C7.6901 5.5651 7.32682 5.75521 6.87891 5.83594V5.89844C7.46745 5.97396 7.91536 6.17839 8.22266 6.51172C8.53255 6.84245 8.6862 7.25651 8.68359 7.75391C8.6862 8.20964 8.55469 8.61458 8.28906 8.96875C8.02604 9.32292 7.66276 9.60156 7.19922 9.80469C6.73568 10.0078 6.20443 10.1094 5.60547 10.1094Z" fill="white"/>
  <defs>
    <clipPath id="clip0_215_12384">
      <rect width="21.5926" height="15.4815" fill="white" transform="translate(4.40747 7.25928)"/>
    </clipPath>
  </defs>
</svg>
