<svg width="30" height="30" viewBox="0 0 30 30" fill="none" xmlns="http://www.w3.org/2000/svg">
  <path d="M0 2C0 0.89543 0.895431 0 2 0H28C29.1046 0 30 0.895431 30 2V28C30 29.1046 29.1046 30 28 30H2C0.89543 30 0 29.1046 0 28V2Z" fill="#FBC500"/>
  <g clip-path="url(#clip0_518_7236)">
    <mask id="mask0_518_7236" style="mask-type:luminance" maskUnits="userSpaceOnUse" x="4" y="4" width="22" height="22">
      <path d="M26 4H4V26H26V4Z" fill="white"/>
    </mask>
    <g mask="url(#mask0_518_7236)">
      <path d="M14.9997 18.3152C14.2086 18.3138 13.4442 18.0292 12.8447 17.513C12.2453 16.9968 11.8504 16.283 11.7317 15.5009C11.6129 14.7188 11.7781 13.92 12.1973 13.2491C12.6165 12.5782 13.262 12.0796 14.017 11.8434V13.076C13.5839 13.2969 13.2378 13.6571 13.0345 14.0988C12.8312 14.5404 12.7826 15.0376 12.8965 15.5103C13.0104 15.9829 13.2802 16.4034 13.6624 16.7039C14.0446 17.0044 14.5168 17.1674 15.003 17.1667C15.4892 17.1659 15.9609 17.0014 16.3421 16.6997C16.7234 16.398 16.9918 15.9766 17.1043 15.5037C17.2167 15.0307 17.1665 14.5336 16.9619 14.0926C16.7572 13.6516 16.4099 13.2924 15.9761 13.073V11.842C16.7322 12.0767 17.3791 12.5746 17.7996 13.2454C18.2201 13.9161 18.3864 14.7154 18.2682 15.4982C18.1501 16.281 17.7554 16.9955 17.1557 17.5123C16.556 18.0291 15.791 18.314 14.9993 18.3152M14.5278 11.204C14.5347 11.0835 14.5874 10.9702 14.6751 10.8873C14.7629 10.8044 14.879 10.7582 14.9997 10.7582C15.1204 10.7582 15.2365 10.8044 15.3243 10.8873C15.412 10.9702 15.4648 11.0835 15.4716 11.204V13.3889C15.4621 13.5079 15.4087 13.6191 15.3216 13.7007C15.2346 13.7824 15.1202 13.8287 15.0009 13.8306C14.7401 13.8306 14.5278 13.5998 14.5278 13.3889V11.204ZM14.9983 8.68982C13.7391 8.68784 12.5075 9.05945 11.4596 9.75762C10.4116 10.4558 9.5943 11.4491 9.11107 12.6119C8.62784 13.7748 8.50041 15.0548 8.7449 16.2901C8.98939 17.5253 9.59481 18.6603 10.4846 19.5514C11.3743 20.4425 12.5084 21.0496 13.7433 21.2959C14.9782 21.5422 16.2584 21.4167 17.422 20.9352C18.5855 20.4537 19.58 19.6379 20.2798 18.5909C20.9795 17.544 21.3529 16.3131 21.3528 15.0538C21.3535 14.2187 21.1897 13.3916 20.8707 12.6198C20.5518 11.848 20.0839 11.1466 19.4939 10.5556C18.9038 9.96465 18.2031 9.49566 17.4319 9.17546C16.6606 8.85526 15.8338 8.69012 14.9986 8.68945" fill="white"/>
      <path d="M7.71565 14.9988C7.71565 14.7144 7.46361 14.4839 7.23349 14.4839H4.4862C4.25447 14.4839 4 14.7144 4 14.9988C4 15.2831 4.25447 15.5158 4.4862 15.5158H7.23356C7.46368 15.5158 7.71573 15.2841 7.71573 14.9988" fill="white"/>
      <path d="M26 14.9988C26 14.7144 25.7479 14.4839 25.5178 14.4839H22.7704C22.5389 14.4839 22.2847 14.7144 22.2847 14.9988C22.2847 15.2831 22.5389 15.5158 22.7704 15.5158H25.5178C25.7479 15.5158 26 15.2841 26 14.9988Z" fill="white"/>
      <path d="M15.0012 7.71529C15.2851 7.71529 15.5157 7.46346 15.5157 7.23356V4.48576C15.5157 4.25403 15.2851 4 15.0012 4C14.7172 4 14.4839 4.25403 14.4839 4.48576V7.23349C14.4839 7.46339 14.7162 7.71521 15.0012 7.71521" fill="white"/>
      <path d="M15.0012 25.9997C15.2851 25.9997 15.5157 25.7475 15.5157 25.5173V22.7704C15.5157 22.5389 15.2851 22.2842 15.0012 22.2842C14.7172 22.2842 14.4839 22.5388 14.4839 22.7704V25.5174C14.4839 25.7475 14.7162 25.9997 15.0012 25.9997Z" fill="white"/>
      <path d="M8.66726 11.3836C8.80887 11.1366 8.70459 10.8116 8.50483 10.6972L6.12017 9.33259C5.91917 9.21709 5.58418 9.29101 5.44279 9.53792C5.30141 9.78484 5.40686 10.1126 5.60787 10.2281L7.9923 11.5927C8.19191 11.7069 8.52565 11.631 8.66697 11.3836" fill="white"/>
      <path d="M24.5586 20.46C24.6998 20.2134 24.5953 19.888 24.3962 19.7736L22.0118 18.409C21.8108 18.294 21.4752 18.3677 21.3343 18.6143C21.1933 18.861 21.2981 19.1895 21.4991 19.3041L23.8835 20.6686C24.0834 20.7829 24.4169 20.7072 24.5586 20.4596" fill="white"/>
      <path d="M18.6166 8.6675C18.8634 8.80867 19.1881 8.70417 19.3028 8.50507L20.6673 6.12071C20.7826 5.91926 20.7089 5.58413 20.462 5.44274C20.2151 5.30135 19.8868 5.40703 19.7718 5.60803L18.4073 7.99232C18.293 8.19237 18.3687 8.52612 18.6165 8.66765" fill="white"/>
      <path d="M9.5401 24.5582C9.78672 24.6993 10.1121 24.5948 10.2261 24.3953L11.5908 22.011C11.7059 21.81 11.6319 21.4744 11.3855 21.3333C11.139 21.1921 10.8103 21.2976 10.6955 21.4983L9.33073 23.8829C9.21648 24.0823 9.29267 24.4166 9.5401 24.5582Z" fill="white"/>
      <path d="M11.3724 8.67367C11.619 8.5317 11.6933 8.19854 11.5785 7.999L10.2089 5.61713C10.093 5.41635 9.76712 5.31112 9.52028 5.45287C9.27344 5.59462 9.19901 5.931 9.31495 6.13186L10.6841 8.51314C10.7991 8.71253 11.1249 8.81579 11.3725 8.67382" fill="white"/>
      <path d="M20.4814 24.5459C20.728 24.4042 20.8021 24.0708 20.6876 23.8712L19.3181 21.4894C19.2022 21.2886 18.8761 21.1831 18.6287 21.3249C18.3814 21.4666 18.3076 21.803 18.4234 22.004L19.7925 24.3857C19.907 24.5849 20.2333 24.6877 20.4807 24.5455" fill="white"/>
      <path d="M21.3266 11.3724C21.4683 11.6186 21.8016 11.6931 22.0013 11.5785L24.3825 10.2089C24.4907 10.1352 24.5676 10.0238 24.5981 9.89653C24.6287 9.76923 24.6107 9.63511 24.5478 9.52031C24.4054 9.27311 24.0699 9.19897 23.8687 9.31447L21.4869 10.684C21.2875 10.7987 21.1842 11.1254 21.3266 11.3724Z" fill="white"/>
      <path d="M5.4544 20.4814C5.59601 20.7276 5.92916 20.8021 6.12907 20.6872L8.51035 19.3177C8.61861 19.244 8.69549 19.1327 8.72594 19.0053C8.75639 18.878 8.73822 18.7439 8.67498 18.6293C8.53338 18.3819 8.19707 18.308 7.99665 18.4232L5.615 19.7928C5.41539 19.9073 5.31258 20.2342 5.45477 20.4814" fill="white"/>
    </g>
  </g>
  <path d="M0 0H10V8C10 10.2091 8.20914 12 6 12H0V0Z" fill="#FBC500"/>
  <path d="M2.96484 10L6.28125 3.4375V3.38281H2.41797V2H8.03125V3.40234L4.71094 10H2.96484Z" fill="white"/>
  <defs>
    <clipPath id="clip0_518_7236">
      <rect width="22" height="22" fill="white" transform="translate(4 4)"/>
    </clipPath>
  </defs>
</svg>
