<svg width="30" height="30" viewBox="0 0 30 30" fill="none" xmlns="http://www.w3.org/2000/svg">
    <path d="M0 2C0 0.89543 0.895431 0 2 0H28C29.1046 0 30 0.895431 30 2V28C30 29.1046 29.1046 30 28 30H2C0.89543 30 0 29.1046 0 28V2Z" fill="#C41722"/>
    <g clip-path="url(#clip0_215_12381)">
        <mask id="mask0_215_12381" style="mask-type:luminance" maskUnits="userSpaceOnUse" x="5" y="6" width="20" height="18">
            <path d="M25 6.69812H5V23.3019H25V6.69812Z" fill="white"/>
        </mask>
        <g mask="url(#mask0_215_12381)">
            <path d="M12.8632 11.5019L6.40503 7.71545V19.9645L12.8632 21.9429V11.5019Z" fill="white"/>
            <path d="M13.4951 11.527V21.9472L19.9951 19.9629V7.71594L13.4951 11.527Z" fill="white"/>
            <path d="M24.9999 7.47589C24.9999 7.26974 24.9194 7.07204 24.7762 6.92627C24.6329 6.7805 24.4385 6.69861 24.2359 6.69861C24.0333 6.69861 23.839 6.7805 23.6957 6.92627C23.5524 7.07204 23.4719 7.26974 23.4719 7.47589V8.31368H24.9999V7.47589Z" fill="white"/>
            <path d="M23.6618 19.7361H23.4721L24.2365 22.4474L24.9995 19.7361V8.83923H23.4717V19.7361H23.6618Z" fill="white"/>
            <path d="M21.4341 8.22957L20.7418 7.67407V20.2866L13.566 22.6415H12.8367L5.69274 20.6146V7.67407L5 8.22957V21.1079L12.8038 23.3021H13.5983L20.7983 20.9806L21.4343 20.7907V8.22957H21.4341Z" fill="white"/>
        </g>
    </g>
    <path d="M0 0H11V8C11 10.2091 9.20914 12 7 12H0V0Z" fill="#C41722"/>
    <path d="M2.52734 8.59375V7.26172L5.86719 2H7.01563V3.84375H6.33594L4.23047 7.17578V7.23828H8.97656V8.59375H2.52734ZM6.36719 10V8.1875L6.39844 7.59766V2H7.98438V10H6.36719Z" fill="white"/>
    <defs>
        <clipPath id="clip0_215_12381">
            <rect width="20" height="16.6038" fill="white" transform="translate(5 6.69812)"/>
        </clipPath>
    </defs>
</svg>
