<svg width="30" height="30" viewBox="0 0 30 30" fill="none" xmlns="http://www.w3.org/2000/svg">
  <path d="M0 2C0 0.89543 0.895431 0 2 0H28C29.1046 0 30 0.895431 30 2V28C30 29.1046 29.1046 30 28 30H2C0.89543 30 0 29.1046 0 28V2Z" fill="#E1AA29"/>
  <g clip-path="url(#clip0_215_12390)">
    <mask id="mask0_215_12390" style="mask-type:luminance" maskUnits="userSpaceOnUse" x="5" y="6" width="20" height="18">
      <path d="M25 6.48145H5V23.5185H25V6.48145Z" fill="white"/>
    </mask>
    <g mask="url(#mask0_215_12390)">
      <path d="M11.7767 22.7381V23.2593C11.7742 23.2671 11.7742 23.2755 11.7767 23.2833C11.7794 23.3456 11.8058 23.4044 11.8505 23.4479C11.8952 23.4914 11.9549 23.5162 12.0173 23.5174C12.0189 23.5174 12.0203 23.5184 12.0221 23.5184C12.0239 23.5184 12.026 23.5174 12.0281 23.5174H18.1481C18.1497 23.5174 18.1515 23.5184 18.1533 23.5184C18.1551 23.5184 18.1568 23.5174 18.1587 23.5174C18.2229 23.5161 18.2841 23.4899 18.3292 23.4442C18.3743 23.3985 18.3998 23.337 18.4001 23.2729L18.4009 23.271C18.4004 23.2705 18.4002 23.2699 18.4001 23.2692V22.6793C21.8451 21.5512 24.4259 18.7617 24.9934 15.3624C24.9946 15.3551 24.9955 15.3483 24.9967 15.3421C24.9988 15.3308 25 15.3194 25.0001 15.308C25.0002 15.2755 24.9939 15.2434 24.9815 15.2133C24.9691 15.1833 24.9508 15.156 24.9278 15.1331C24.9048 15.1101 24.8775 15.0919 24.8474 15.0794C24.8174 15.067 24.7851 15.0606 24.7526 15.0607H5.2482C5.21561 15.0606 5.18332 15.0669 5.15319 15.0793C5.12306 15.0917 5.09568 15.1099 5.07262 15.1329C5.04956 15.1559 5.03127 15.1832 5.01881 15.2132C5.00635 15.2433 4.99996 15.2755 5 15.308L5.01287 15.4191C5.609 18.8508 8.2608 21.6558 11.7767 22.7381Z" fill="white"/>
      <path d="M18.4012 6.73541C18.3207 6.84956 16.4342 9.55994 18.4433 11.7514C19.3648 12.7572 19.2849 13.6447 19.0217 14.2442H20.3106C20.5715 13.3594 20.4639 12.2491 19.4173 11.1085C17.9373 9.49348 19.4363 7.31085 19.4587 7.27666C19.6355 7.02772 19.5409 6.7066 19.2497 6.55692C18.9573 6.4081 18.5783 6.4876 18.4009 6.73514" fill="white"/>
      <path d="M15.1351 14.244H16.4244C16.6849 13.3586 16.5766 12.2493 15.5305 11.1083C14.0495 9.49304 15.5478 7.31141 15.5715 7.27575C15.7473 7.02781 15.6541 6.70729 15.3619 6.55727C15.0705 6.40886 14.6911 6.48776 14.5143 6.7355C14.4334 6.84925 12.5453 9.56003 14.5562 11.7515C15.4777 12.7577 15.3974 13.6455 15.1351 14.2443" fill="white"/>
      <path d="M10.6275 6.73501C10.5458 6.84916 8.65928 9.55954 10.669 11.751C11.5907 12.7574 11.511 13.645 11.249 14.2438H12.5377C12.7982 13.359 12.6905 12.2493 11.6433 11.1081C10.1626 9.49308 11.6619 7.31045 11.6854 7.27559C11.8605 7.02765 11.7673 6.70653 11.4749 6.55712C11.1838 6.40723 10.8043 6.4874 10.6278 6.73534" fill="white"/>
    </g>
  </g>
  <path d="M0 0H10V8C10 10.2091 8.20914 12 6 12H0V0Z" fill="#E1AA29"/>
  <path d="M2.64844 10V8.78125L5.49609 6.14453C5.73828 5.91016 5.94141 5.69922 6.10547 5.51172C6.27214 5.32422 6.39844 5.14062 6.48438 4.96094C6.57031 4.77865 6.61328 4.58203 6.61328 4.37109C6.61328 4.13672 6.5599 3.9349 6.45313 3.76562C6.34635 3.59375 6.20052 3.46224 6.01563 3.37109C5.83073 3.27734 5.62109 3.23047 5.38672 3.23047C5.14193 3.23047 4.92839 3.27995 4.74609 3.37891C4.5638 3.47786 4.42318 3.61979 4.32422 3.80469C4.22526 3.98958 4.17578 4.20964 4.17578 4.46484H2.57031C2.57031 3.94141 2.6888 3.48698 2.92578 3.10156C3.16276 2.71615 3.49479 2.41797 3.92188 2.20703C4.34896 1.99609 4.84115 1.89062 5.39844 1.89062C5.97135 1.89062 6.47005 1.99219 6.89453 2.19531C7.32161 2.39583 7.65365 2.67448 7.89063 3.03125C8.1276 3.38802 8.24609 3.79687 8.24609 4.25781C8.24609 4.5599 8.1862 4.85807 8.06641 5.15234C7.94922 5.44661 7.73958 5.77344 7.4375 6.13281C7.13542 6.48958 6.70964 6.91797 6.16016 7.41797L4.99219 8.5625V8.61719H8.35156V10H2.64844Z" fill="white"/>
  <defs>
    <clipPath id="clip0_215_12390">
      <rect width="20" height="17.037" fill="white" transform="translate(5 6.48145)"/>
    </clipPath>
  </defs>
</svg>
