<svg width="30" height="30" viewBox="0 0 30 30" fill="none" xmlns="http://www.w3.org/2000/svg">
  <path d="M0 2C0 0.89543 0.895431 0 2 0H28C29.1046 0 30 0.895431 30 2V28C30 29.1046 29.1046 30 28 30H2C0.89543 30 0 29.1046 0 28V2Z" fill="#5FB130"/>
  <g clip-path="url(#clip0_215_12377)">
    <mask id="mask0_215_12377" style="mask-type:luminance" maskUnits="userSpaceOnUse" x="5" y="5" width="20" height="20">
      <path d="M25 5.18518H5V24.8148H25V5.18518Z" fill="white"/>
    </mask>
    <g mask="url(#mask0_215_12377)">
      <path d="M11.6915 16.5695C11.7158 16.5695 11.739 16.5792 11.7561 16.5962C11.7732 16.6132 11.7828 16.6363 11.7827 16.6603V19.6558C11.7828 19.6678 11.7805 19.6796 11.776 19.6907C11.7715 19.7017 11.7648 19.7118 11.7563 19.7202C11.7478 19.7287 11.7377 19.7355 11.7266 19.74C11.7155 19.7446 11.7036 19.747 11.6915 19.747H10.4698C10.4577 19.747 10.4457 19.7447 10.4345 19.7402C10.4234 19.7356 10.4132 19.7289 10.4047 19.7204C10.3961 19.712 10.3894 19.7019 10.3848 19.6908C10.3802 19.6797 10.3779 19.6678 10.3779 19.6558V16.6603C10.3779 16.6484 10.3803 16.6366 10.3849 16.6255C10.3896 16.6145 10.3963 16.6044 10.4049 16.596C10.4134 16.5876 10.4235 16.5809 10.4347 16.5763C10.4458 16.5718 10.4577 16.5694 10.4698 16.5695H11.6915Z" fill="white"/>
      <path d="M24.9092 21.0051H5.09043C5.06592 21.0058 5.04267 21.0161 5.0257 21.0336C5.00874 21.0512 4.99942 21.0747 4.99976 21.099V22.3201C4.99987 22.3439 5.00946 22.3667 5.02645 22.3835C5.04344 22.4003 5.06644 22.4098 5.09043 22.4098H24.9092C24.9331 22.4096 24.9561 22.4001 24.973 22.3833C24.99 22.3666 24.9997 22.3438 25 22.3201V21.099C25.0001 21.0747 24.9907 21.0514 24.9737 21.0338C24.9568 21.0163 24.9336 21.006 24.9092 21.0051Z" fill="white"/>
      <path d="M24.9092 23.41H5.09042C5.06643 23.4101 5.04343 23.4196 5.02644 23.4364C5.00945 23.4532 4.99986 23.476 4.99976 23.4998V24.725C4.99996 24.7488 5.00958 24.7716 5.02654 24.7884C5.04349 24.8053 5.06643 24.8148 5.09042 24.8151H24.9092C24.9331 24.8147 24.956 24.8051 24.9729 24.7883C24.9899 24.7715 24.9996 24.7488 25 24.725V23.4998C24.9997 23.476 24.99 23.4533 24.973 23.4365C24.9561 23.4197 24.9331 23.4102 24.9092 23.41Z" fill="white"/>
      <path d="M21.1518 13.2954C20.9003 13.1001 20.229 12.6444 19.4102 12.6444C18.8251 12.6444 18.2805 12.873 17.7935 13.3257C17.7764 13.3419 17.7628 13.3614 17.7535 13.383C17.7443 13.4046 17.7396 13.4279 17.7397 13.4514V13.5603C17.7385 13.5858 17.7431 13.6112 17.753 13.6348C17.7629 13.6584 17.7779 13.6795 17.7969 13.6966C17.8164 13.7128 17.8393 13.7242 17.864 13.73C17.8887 13.7357 17.9144 13.7356 17.939 13.7297C17.9518 13.7278 17.9644 13.7245 17.9765 13.7199C18.0145 13.7067 18.049 13.685 18.0773 13.6567C18.1829 13.5864 18.4714 13.4901 18.884 13.4901C19.3107 13.4901 20.1484 13.6035 20.9585 14.353L20.977 14.3693C20.9998 14.3924 21.027 14.4107 21.0571 14.4232C21.0872 14.4356 21.1195 14.4419 21.1521 14.4416C21.1838 14.4417 21.2152 14.4355 21.2445 14.4233C21.2738 14.4112 21.3003 14.3934 21.3225 14.3709L21.3388 14.3543C22.1532 13.6034 22.9899 13.4901 23.4162 13.4901C23.8315 13.4901 24.1188 13.5864 24.2247 13.6567C24.2562 13.6871 24.2942 13.7102 24.3358 13.7244C24.3744 13.735 24.4149 13.7362 24.454 13.7281C24.4904 13.7181 24.5224 13.6966 24.5453 13.6668C24.5681 13.6371 24.5806 13.6007 24.5807 13.5633V13.4667C24.5805 13.4436 24.5756 13.4207 24.5663 13.3995C24.557 13.3783 24.5435 13.3592 24.5266 13.3433C24.035 12.8782 23.4847 12.6432 22.8902 12.6432C22.079 12.6432 21.4107 13.0919 21.1521 13.2953" fill="white"/>
      <path d="M19.9005 5.39869C19.8792 5.40908 19.8603 5.42382 19.8452 5.44196C19.83 5.4601 19.8189 5.48122 19.8125 5.50393L19.7921 5.57053C19.7846 5.59589 19.7832 5.62262 19.7878 5.64864C19.7924 5.67465 19.803 5.69926 19.8188 5.72056C19.8333 5.74021 19.852 5.75645 19.8735 5.76812C19.8951 5.7798 19.9189 5.78661 19.9434 5.78809C19.9517 5.78995 19.9603 5.79026 19.9686 5.78902C20.0026 5.78847 20.0359 5.78006 20.066 5.76448C20.106 5.755 20.147 5.75043 20.1881 5.75085C20.2782 5.75085 21.0898 5.77791 21.6264 6.68306L21.633 6.69629C21.6463 6.72119 21.6645 6.74312 21.6867 6.76072C21.7088 6.77831 21.7344 6.79119 21.7618 6.79856C21.7827 6.80447 21.8042 6.80776 21.8259 6.80835C21.8613 6.80851 21.8961 6.79998 21.9274 6.78354L21.9407 6.77693C22.2187 6.63499 22.5263 6.55949 22.839 6.55646C23.3473 6.55646 23.6795 6.76218 23.757 6.8481C23.7737 6.8775 23.7968 6.90288 23.8246 6.92245C23.8455 6.93448 23.8673 6.94496 23.8898 6.9538C23.8997 6.9559 23.9096 6.95727 23.9196 6.9579C23.9256 6.95885 23.9317 6.95923 23.9377 6.95903C23.9656 6.95896 23.9931 6.95215 24.0177 6.93919C24.0382 6.92879 24.0564 6.91436 24.071 6.89678C24.0857 6.87919 24.0967 6.85883 24.1032 6.83692L24.1201 6.77805C24.1251 6.76233 24.1275 6.74591 24.1272 6.72943C24.1276 6.69918 24.1195 6.66943 24.1038 6.64344C23.7128 5.96967 23.1453 5.82904 22.738 5.82904C22.4904 5.83223 22.2453 5.87783 22.0134 5.96384C21.8287 5.71804 21.362 5.20911 20.6554 5.20911C20.3923 5.21256 20.1338 5.27752 19.9008 5.39869" fill="white"/>
      <path d="M15.6865 8.45155L15.6923 8.54137C15.6938 8.56662 15.701 8.59121 15.7133 8.61337C15.7256 8.63553 15.7427 8.6547 15.7633 8.66951C15.784 8.68432 15.8077 8.69439 15.8328 8.699C15.8578 8.70361 15.8836 8.70264 15.9083 8.69616C15.9183 8.69379 15.9282 8.69074 15.9378 8.68703C15.9716 8.67332 16.0014 8.65144 16.0245 8.62339C16.1101 8.56201 16.3857 8.45042 16.7924 8.45042C17.1835 8.45042 17.7782 8.55387 18.3844 9.0478L18.3983 9.06208C18.4414 9.09935 18.4965 9.12001 18.5537 9.12029H18.5685C18.629 9.11624 18.6856 9.08921 18.7266 9.04482L18.7399 9.02981C19.4113 8.32514 20.1343 8.22056 20.5053 8.22056C20.6852 8.21288 20.8645 8.24533 21.0301 8.31555C21.0604 8.34127 21.0962 8.35978 21.1348 8.36965C21.1731 8.37954 21.2135 8.37772 21.2507 8.36443C21.2861 8.35208 21.3164 8.32857 21.337 8.29751C21.3576 8.26645 21.3673 8.22955 21.3648 8.19245L21.3605 8.11446C21.359 8.09158 21.3528 8.06923 21.3424 8.04877C21.3319 8.0283 21.3174 8.01015 21.2997 7.9954C20.8993 7.66102 20.467 7.49268 20.012 7.49268C19.3039 7.49268 18.7387 7.90749 18.5053 8.11096C18.2911 7.96642 17.7715 7.66863 17.1621 7.66863C16.6263 7.66863 16.1461 7.88956 15.7337 8.32348C15.7178 8.34067 15.7054 8.36083 15.6974 8.3828C15.6894 8.40476 15.6859 8.42808 15.6871 8.45141" fill="white"/>
      <path d="M5.61084 10.0518C5.61086 9.76744 5.66733 9.48583 5.77704 9.22309C5.88674 8.96034 6.04753 8.72161 6.25022 8.52052C6.45292 8.31944 6.69354 8.15993 6.95836 8.05111C7.22318 7.94229 7.50701 7.88629 7.79364 7.88631C7.84084 7.88631 7.88698 7.89021 7.93364 7.89292C7.96563 7.4626 8.09306 7.0446 8.30682 6.66883C8.52058 6.29305 8.81538 5.96879 9.17015 5.71922C9.52492 5.46966 9.93088 5.30096 10.359 5.22519C10.7871 5.14942 11.2269 5.16846 11.6467 5.28093C12.0666 5.39341 12.4562 5.59654 12.7877 5.87582C13.1192 6.15509 13.3844 6.50359 13.5644 6.89641C13.7444 7.28923 13.8346 7.71665 13.8287 8.1481C13.8228 8.57956 13.7209 9.00439 13.5302 9.39222C14.3237 9.56698 15.0243 10.0262 15.4975 10.6819C15.9708 11.3375 16.1835 12.1434 16.0948 12.9451C16.0061 13.7467 15.6223 14.4877 15.017 15.0259C14.4116 15.564 13.6274 15.8616 12.8146 15.8614C12.6812 15.8614 8.41024 15.8359 8.41024 15.8359C7.95402 15.8365 7.50764 15.7044 7.12626 15.456C6.74489 15.2076 6.44525 14.8537 6.26438 14.4381C6.08351 14.0226 6.02936 13.5635 6.1086 13.1177C6.18784 12.672 6.39701 12.259 6.71024 11.9299C6.37641 11.7408 6.09891 11.4675 5.90587 11.1377C5.71283 10.8078 5.61112 10.4332 5.61104 10.0518H5.61084Z" fill="white"/>
    </g>
  </g>
  <path d="M0 0H15V10C15 12.2091 13.2091 14 11 14H0V0Z" fill="#5FB130"/>
  <path d="M5.12891 3V11H3.4375V4.60547H3.39063L1.55859 5.75391V4.25391L3.53906 3H5.12891ZM9.95215 11.1094C9.40007 11.1094 8.90788 11.0078 8.47559 10.8047C8.0459 10.6016 7.70475 10.3216 7.45215 9.96484C7.19954 9.60807 7.06803 9.19922 7.05762 8.73828H8.69824C8.71647 9.04818 8.84668 9.29948 9.08887 9.49219C9.33105 9.6849 9.61882 9.78125 9.95215 9.78125C10.2178 9.78125 10.4521 9.72266 10.6553 9.60547C10.861 9.48568 11.0212 9.32031 11.1357 9.10938C11.2529 8.89583 11.3115 8.65104 11.3115 8.375C11.3115 8.09375 11.2516 7.84635 11.1318 7.63281C11.0146 7.41927 10.8519 7.2526 10.6436 7.13281C10.4352 7.01302 10.1969 6.95182 9.92871 6.94922C9.69434 6.94922 9.46647 6.9974 9.24512 7.09375C9.02637 7.1901 8.85579 7.32161 8.7334 7.48828L7.22949 7.21875L7.6084 3H12.499V4.38281H9.00293L8.7959 6.38672H8.84277C8.9834 6.1888 9.19564 6.02474 9.47949 5.89453C9.76335 5.76432 10.0811 5.69922 10.4326 5.69922C10.9144 5.69922 11.3441 5.8125 11.7217 6.03906C12.0993 6.26562 12.3975 6.57682 12.6162 6.97266C12.835 7.36589 12.943 7.81901 12.9404 8.33203C12.943 8.87109 12.818 9.35026 12.5654 9.76953C12.3154 10.1862 11.9652 10.5143 11.5146 10.7539C11.0667 10.9909 10.5459 11.1094 9.95215 11.1094Z" fill="white"/>
  <defs>
    <clipPath id="clip0_215_12377">
      <rect width="20" height="19.6296" fill="white" transform="translate(5 5.18518)"/>
    </clipPath>
  </defs>
</svg>
