<svg width="30" height="30" viewBox="0 0 30 30" fill="none" xmlns="http://www.w3.org/2000/svg">
  <path d="M0 2C0 0.89543 0.895431 0 2 0H28C29.1046 0 30 0.895431 30 2V28C30 29.1046 29.1046 30 28 30H2C0.89543 30 0 29.1046 0 28V2Z" fill="#1E4468"/>
  <g clip-path="url(#clip0_215_12375)">
    <mask id="mask0_215_12375" style="mask-type:luminance" maskUnits="userSpaceOnUse" x="5" y="5" width="20" height="20">
      <path d="M25 5H5V25H25V5Z" fill="white"/>
    </mask>
    <g mask="url(#mask0_215_12375)">
      <path d="M18.5647 14.2865C19.0955 13.7851 19.5189 13.1774 19.8083 12.5016C20.0977 11.8257 20.2469 11.0962 20.2465 10.3589C20.246 10.13 20.2312 9.90127 20.2025 9.6742C21.0063 9.76389 21.7677 10.0881 22.395 10.6079C23.0223 11.1277 23.4888 11.821 23.7386 12.6044C23.9883 13.3878 24.0106 14.228 23.8028 15.024C23.595 15.82 23.1659 16.5379 22.5671 17.0915C22.1707 16.3305 21.5999 15.6781 20.9031 15.1898C20.2064 14.7015 19.4042 14.3916 18.5647 14.2865ZM22.1263 19.6061C22.1265 20.7391 21.6854 21.826 20.8998 22.6282C20.1142 23.4305 19.0483 23.8826 17.9359 23.8854C17.2108 23.8855 16.4985 23.6919 15.8699 23.324C16.7954 22.3298 17.311 21.0118 17.3105 19.6417C17.3101 19.2976 17.2774 18.9542 17.2129 18.6164C17.9476 19.0332 18.7702 19.2631 19.6108 19.2865C20.4514 19.3099 21.2851 19.1261 22.0411 18.7508C22.0979 19.0323 22.1264 19.319 22.1263 19.6064M7.87386 19.642C7.87379 19.3438 7.90449 19.0465 7.96546 18.7549C8.71961 19.1276 9.55075 19.31 10.3887 19.2866C11.2266 19.2632 12.0467 19.0347 12.7797 18.6205C12.6239 19.4623 12.6691 20.3299 12.9114 21.1501C13.1537 21.9704 13.5861 22.7193 14.1721 23.3337C13.5336 23.718 12.8057 23.9209 12.0641 23.9214C10.9516 23.9186 9.88569 23.4665 9.10013 22.6642C8.31458 21.862 7.87354 20.7751 7.87379 19.642M6.05619 13.9298C6.05618 12.8759 6.43784 11.859 7.12809 11.0739C7.81834 10.2887 8.76867 9.79047 9.79713 9.67454C9.76834 9.90161 9.75362 10.1303 9.75306 10.3593C9.75266 11.1042 9.90489 11.8411 10.2 12.5228C10.4952 13.2044 10.9267 13.8158 11.4671 14.3179C10.626 14.4178 9.82101 14.7231 9.12063 15.208C8.42026 15.6928 7.84523 16.3427 7.44446 17.1025C7.00771 16.7022 6.65843 16.2128 6.41926 15.6662C6.18009 15.1196 6.05638 14.5278 6.05613 13.9294M14.9994 6.07902C15.8161 6.08057 16.6146 6.3249 17.2969 6.78205C17.9792 7.23919 18.5157 7.88926 18.8405 8.65249C18.0102 8.80437 17.228 9.15717 16.5595 9.68121C15.8911 10.2053 15.356 10.8852 14.9994 11.6638C14.6431 10.8851 14.1082 10.205 13.4398 9.68097C12.7714 9.15691 11.9891 8.80417 11.1589 8.65249C11.4836 7.88931 12.0199 7.23926 12.7021 6.78212C13.3844 6.32497 14.1828 6.08061 14.9994 6.07902ZM15.9973 15.815C16.4921 15.5495 17.0343 15.3882 17.5916 15.3405C18.1489 15.2929 18.7099 15.3599 19.2413 15.5377C19.7726 15.7154 20.2634 16.0002 20.6844 16.3751C21.1054 16.7501 21.4481 17.2074 21.692 17.72C21.1972 17.9855 20.655 18.1469 20.0977 18.1945C19.5404 18.2422 18.9794 18.1751 18.4481 17.9974C17.9167 17.8196 17.4259 17.5348 17.0049 17.1599C16.5839 16.785 16.2412 16.3276 15.9973 15.815ZM13.9883 15.8438C13.7425 16.351 13.3996 16.803 12.9799 17.1732C12.5601 17.5435 12.072 17.8246 11.5441 18C11.0162 18.1754 10.4592 18.2416 9.90579 18.1947C9.35241 18.1478 8.81383 17.9887 8.32166 17.7268C8.66837 17.0175 9.20211 16.4206 9.86309 16.0027C10.5241 15.5849 11.2862 15.3628 12.0641 15.3612C12.7345 15.3613 13.3948 15.5269 13.9885 15.8438M10.8644 9.70088C11.4127 9.78113 11.9398 9.97198 12.4148 10.2623C12.8898 10.5525 13.3032 10.9364 13.6308 11.3914C13.9583 11.8464 14.1935 12.3634 14.3225 12.9121C14.4514 13.4608 14.4717 14.0302 14.3819 14.587C13.8337 14.5066 13.3067 14.3156 12.8317 14.0253C12.3568 13.735 11.9435 13.3511 11.616 12.8961C11.2884 12.4412 11.0533 11.9242 10.9242 11.3756C10.7952 10.827 10.7748 10.2576 10.8644 9.70088ZM15.0192 22.6717C14.6195 22.2764 14.3011 21.804 14.0824 21.282C13.8638 20.7601 13.7493 20.199 13.7457 19.6315C13.7422 19.0641 13.8495 18.5016 14.0615 17.9768C14.2735 17.452 14.5859 16.9754 14.9806 16.5749C15.3803 16.9702 15.6988 17.4426 15.9174 17.9646C16.136 18.4865 16.2505 19.0476 16.2541 19.6151C16.2577 20.1825 16.1503 20.745 15.9383 21.2698C15.7263 21.7946 15.4139 22.2712 15.0192 22.6717ZM19.1901 10.359C19.1896 11.3824 18.829 12.3718 18.1735 13.1475C17.5181 13.9233 16.6114 14.434 15.6179 14.5871C15.5286 14.0304 15.5492 13.4612 15.6783 12.9127C15.8075 12.3642 16.0427 11.8474 16.3702 11.3926C16.6976 10.9377 17.1108 10.5538 17.5856 10.2634C18.0603 9.973 18.5872 9.78186 19.1353 9.70115C19.1702 9.91865 19.1886 10.1386 19.1901 10.359ZM25.0001 13.9294C25.0002 12.5448 24.4742 11.2139 23.5321 10.2156C22.59 9.21731 21.3051 8.62922 19.9467 8.5746C19.5877 7.53004 18.9188 6.62496 18.0326 5.98459C17.1464 5.34423 16.0866 5.00024 15.0001 5.00024C13.9135 5.00024 12.8537 5.34423 11.9675 5.98459C11.0813 6.62496 10.4124 7.53004 10.0534 8.5746C8.97636 8.61813 7.93843 8.99753 7.08001 9.66147C6.22158 10.3254 5.58407 11.2419 5.25371 12.2869C4.92335 13.3319 4.91607 14.455 5.23287 15.5044C5.54966 16.5538 6.17524 17.4787 7.02499 18.1541C6.7986 18.951 6.75702 19.7906 6.90353 20.6066C7.05003 21.4227 7.38062 22.1929 7.86924 22.8567C8.35785 23.5204 8.99114 24.0595 9.71919 24.4314C10.4472 24.8034 11.2502 24.998 12.0647 25C13.1224 25.0008 14.1552 24.6734 15.0258 24.0615C15.8861 24.6509 16.8996 24.9652 17.9364 24.9642C18.7482 24.962 19.5486 24.7684 20.2747 24.3986C21.0009 24.0289 21.6332 23.4929 22.122 22.8327C22.6109 22.1726 22.9432 21.4061 23.0927 20.5934C23.2423 19.7807 23.2052 18.9437 22.9842 18.148C23.6124 17.6467 24.1204 17.0063 24.4698 16.2754C24.8191 15.5446 25.0006 14.7423 25.0005 13.9294" fill="white"/>
    </g>
  </g>
  <path d="M0 0H14V10C14 12.2091 12.2091 14 10 14H0V0Z" fill="#1E4468"/>
  <path d="M5.12891 3V11H3.4375V4.60547H3.39063L1.55859 5.75391V4.25391L3.53906 3H5.12891ZM7.34668 11L10.6631 4.4375V4.38281H6.7998V3H12.4131V4.40234L9.09277 11H7.34668Z" fill="white"/>
  <defs>
    <clipPath id="clip0_215_12375">
      <rect width="20" height="20" fill="white" transform="translate(5 5)"/>
    </clipPath>
  </defs>
</svg>
