<svg width="30" height="30" viewBox="0 0 30 30" fill="none" xmlns="http://www.w3.org/2000/svg">
  <path d="M0 2C0 0.89543 0.895431 0 2 0H28C29.1046 0 30 0.895431 30 2V28C30 29.1046 29.1046 30 28 30H2C0.89543 30 0 29.1046 0 28V2Z" fill="#3BBBE4"/>
  <g clip-path="url(#clip0_215_12389)">
    <mask id="mask0_215_12389" style="mask-type:luminance" maskUnits="userSpaceOnUse" x="7" y="4" width="16" height="22">
      <path d="M22.8834 4H7.1167V26H22.8834V4Z" fill="white"/>
    </mask>
    <g mask="url(#mask0_215_12389)">
      <path d="M21.7734 7.40502C21.3559 7.21827 20.8265 7.28561 20.3185 7.49446C18.4069 8.28093 17.106 8.56384 15.0956 7.92488C13.8294 7.52241 12.6449 6.68004 11.2448 7.19309C10.3155 7.53226 9.44967 7.8561 8.39919 7.8479L7.79218 4.68993H22.2094L21.7732 7.40502H21.7734ZM16.8865 16.7831C16.3638 17.2046 15.7154 17.4341 15.0473 17.4341C14.3792 17.4341 13.7308 17.2046 13.208 16.7831C12.054 15.6127 12.4657 14.1565 12.8674 13.404C13.1155 12.9325 14.8888 10.2293 15.0411 9.99932V9.98122C15.0411 9.98122 15.0439 9.98463 15.0482 9.99006L15.0544 9.98122V9.99932C15.2027 10.2293 16.9788 12.9327 17.2269 13.404C17.6292 14.1565 18.0395 15.6127 16.8864 16.7831H16.8865ZM22.8405 4.06189C22.8228 4.04218 22.8013 4.02648 22.7773 4.01581C22.7533 4.00514 22.7273 3.99974 22.701 3.99997H7.2961C7.26994 3.99911 7.24392 4.00421 7.21997 4.01492C7.19603 4.02562 7.17476 4.04165 7.15776 4.06181C7.14076 4.08197 7.12846 4.10575 7.12177 4.13138C7.11507 4.15702 7.11416 4.18385 7.1191 4.20989L9.70719 20.1C9.71415 20.1426 9.73577 20.1814 9.76824 20.2094C9.80072 20.2375 9.84195 20.253 9.88462 20.2532H13.0611L13.2784 22.8414L11.9416 22.8428L15.0519 25.9998L18.1697 22.8353L16.8334 22.8367L17.0501 20.2533H20.2826C20.3258 20.2534 20.3675 20.2376 20.4 20.2089C20.4325 20.1802 20.4536 20.1406 20.4595 20.0973L22.8808 4.21005C22.8848 4.18388 22.8832 4.15716 22.8762 4.13165C22.8692 4.10615 22.857 4.08244 22.8402 4.0621L22.8405 4.06189Z" fill="white"/>
    </g>
  </g>
  <path d="M0 0H11V8C11 10.2091 9.20914 12 7 12H0V0Z" fill="#3BBBE4"/>
  <path d="M5.71875 10.1094C5.30729 10.1068 4.91016 10.0378 4.52734 9.90234C4.14714 9.76693 3.80599 9.54687 3.50391 9.24219C3.20182 8.9375 2.96224 8.53385 2.78516 8.03125C2.61068 7.52865 2.52344 6.91146 2.52344 6.17969C2.52604 5.50781 2.60286 4.90755 2.75391 4.37891C2.90755 3.84766 3.1263 3.39713 3.41016 3.02734C3.69661 2.65755 4.03906 2.3763 4.4375 2.18359C4.83594 1.98828 5.28255 1.89062 5.77734 1.89062C6.3112 1.89062 6.78255 1.99479 7.19141 2.20313C7.60026 2.40885 7.92839 2.6888 8.17578 3.04297C8.42578 3.39714 8.57682 3.79427 8.62891 4.23437H6.96094C6.89583 3.95573 6.75911 3.73698 6.55078 3.57813C6.34245 3.41927 6.08464 3.33984 5.77734 3.33984C5.25651 3.33984 4.86068 3.56641 4.58984 4.01953C4.32161 4.47266 4.1849 5.08854 4.17969 5.86719H4.23438C4.35417 5.63021 4.51563 5.42839 4.71875 5.26172C4.92448 5.09245 5.15755 4.96354 5.41797 4.875C5.68099 4.78385 5.95833 4.73828 6.25 4.73828C6.72396 4.73828 7.14583 4.85026 7.51563 5.07422C7.88542 5.29557 8.17708 5.60026 8.39063 5.98828C8.60417 6.3763 8.71094 6.82031 8.71094 7.32031C8.71094 7.86198 8.58464 8.34375 8.33203 8.76562C8.08203 9.1875 7.73177 9.51823 7.28125 9.75781C6.83333 9.99479 6.3125 10.112 5.71875 10.1094ZM5.71094 8.78125C5.97135 8.78125 6.20443 8.71875 6.41016 8.59375C6.61589 8.46875 6.77734 8.29948 6.89453 8.08594C7.01172 7.8724 7.07031 7.63281 7.07031 7.36719C7.07031 7.10156 7.01172 6.86328 6.89453 6.65234C6.77995 6.44141 6.62109 6.27344 6.41797 6.14844C6.21484 6.02344 5.98307 5.96094 5.72266 5.96094C5.52734 5.96094 5.34635 5.9974 5.17969 6.07031C5.01563 6.14323 4.87109 6.24479 4.74609 6.375C4.6237 6.50521 4.52734 6.65625 4.45703 6.82812C4.38672 6.9974 4.35156 7.17839 4.35156 7.37109C4.35156 7.62891 4.41016 7.86458 4.52734 8.07812C4.64714 8.29167 4.80859 8.46224 5.01172 8.58984C5.21745 8.71745 5.45052 8.78125 5.71094 8.78125Z" fill="white"/>
  <defs>
    <clipPath id="clip0_215_12389">
      <rect width="15.7667" height="22" fill="white" transform="translate(7.1167 4)"/>
    </clipPath>
  </defs>
</svg>
