<svg width="30" height="30" viewBox="0 0 30 30" fill="none" xmlns="http://www.w3.org/2000/svg">
  <path d="M0 2C0 0.89543 0.895431 0 2 0H28C29.1046 0 30 0.895431 30 2V28C30 29.1046 29.1046 30 28 30H2C0.89543 30 0 29.1046 0 28V2Z" fill="#F59D10"/>
  <g clip-path="url(#clip0_215_12380)">
    <mask id="mask0_215_12380" style="mask-type:luminance" maskUnits="userSpaceOnUse" x="4" y="6" width="22" height="18">
      <path d="M26 6.4906H4V23.5095H26V6.4906Z" fill="white"/>
    </mask>
    <g mask="url(#mask0_215_12380)">
      <path d="M4.14583 18.8046H9.08542C9.11761 18.8044 9.14842 18.7912 9.17112 18.7678C9.19382 18.7444 9.20656 18.7127 9.20656 18.6797C9.20634 18.649 9.19494 18.6195 9.17459 18.597L9.16777 18.5895L6.71037 15.3301L6.68632 15.3033C6.675 15.2905 6.66119 15.2804 6.6458 15.2734C6.6304 15.2665 6.61375 15.2629 6.59692 15.2629C6.56758 15.2635 6.5394 15.2748 6.5175 15.2948L6.50284 15.3122L6.47988 15.3389L4.08225 18.5635L4.04558 18.6097C4.032 18.6302 4.02479 18.6544 4.0249 18.6791C4.02486 18.7122 4.03762 18.7439 4.06038 18.7673C4.08314 18.7907 4.11403 18.8039 4.14627 18.804L4.14583 18.8046Z" fill="white"/>
      <path d="M9.07027 19.2156H4.12115C4.10522 19.2156 4.08945 19.2188 4.07473 19.2251C4.06002 19.2313 4.04666 19.2405 4.0354 19.252C4.02415 19.2636 4.01523 19.2773 4.00916 19.2924C4.00308 19.3075 3.99997 19.3237 4 19.34V23.3099C3.99996 23.3429 4.0127 23.3745 4.03541 23.3979C4.05813 23.4213 4.08897 23.4345 4.12115 23.4345H5.71417V20.9368C5.71409 20.9205 5.71717 20.9043 5.72323 20.8892C5.72929 20.8741 5.73821 20.8604 5.74948 20.8488C5.76074 20.8373 5.77413 20.8281 5.78886 20.8219C5.80359 20.8157 5.81939 20.8126 5.83532 20.8126H7.31401C7.32993 20.8126 7.3457 20.8158 7.36042 20.822C7.37513 20.8282 7.3885 20.8374 7.39976 20.8489C7.41102 20.8605 7.41994 20.8742 7.42601 20.8893C7.43209 20.9043 7.43519 20.9205 7.43516 20.9368V23.4345H9.07049C9.10266 23.4344 9.13347 23.4212 9.15618 23.3979C9.17889 23.3745 9.19164 23.3429 9.19164 23.3099V19.34C9.19166 19.307 9.17891 19.2754 9.15619 19.2521C9.13347 19.2287 9.10265 19.2156 9.07049 19.2156H9.07027Z" fill="white"/>
      <path d="M25.4365 19.8043C25.4363 19.8202 25.433 19.8359 25.4269 19.8506C25.4208 19.8652 25.4119 19.8784 25.4008 19.8895C25.3896 19.9007 25.3765 19.9094 25.362 19.9153C25.3476 19.9212 25.3322 19.9241 25.3166 19.9239H23.8535C23.8379 19.9241 23.8225 19.9212 23.808 19.9154C23.7936 19.9095 23.7804 19.9007 23.7692 19.8896C23.7581 19.8785 23.7491 19.8653 23.743 19.8506C23.7368 19.836 23.7336 19.8202 23.7334 19.8043V18.8921C23.7336 18.8761 23.7369 18.8604 23.743 18.8458C23.7492 18.8312 23.7581 18.8179 23.7693 18.8068C23.7804 18.7957 23.7936 18.787 23.8081 18.7812C23.8225 18.7753 23.838 18.7724 23.8535 18.7727H25.3166C25.3322 18.7725 25.3476 18.7754 25.362 18.7812C25.3764 18.7871 25.3896 18.7958 25.4007 18.8069C25.4118 18.818 25.4207 18.8312 25.4268 18.8458C25.433 18.8604 25.4363 18.8762 25.4365 18.8921V19.8043ZM25.4365 21.4891C25.4363 21.505 25.4331 21.5208 25.427 21.5355C25.4209 21.5502 25.4121 21.5635 25.4009 21.5747C25.3898 21.5859 25.3766 21.5947 25.3622 21.6006C25.3477 21.6066 25.3322 21.6095 25.3166 21.6093H23.8535C23.8379 21.6096 23.8224 21.6066 23.8079 21.6007C23.7934 21.5948 23.7802 21.586 23.769 21.5748C23.7579 21.5636 23.749 21.5503 23.7429 21.5356C23.7367 21.5209 23.7335 21.5051 23.7334 21.4891V20.5775C23.7335 20.5616 23.7368 20.5458 23.7429 20.5311C23.749 20.5165 23.758 20.5032 23.7691 20.4921C23.7803 20.481 23.7935 20.4722 23.808 20.4664C23.8225 20.4605 23.8379 20.4576 23.8535 20.4579H25.3166C25.3322 20.4577 25.3476 20.4605 25.3621 20.4664C25.3765 20.4723 25.3897 20.481 25.4008 20.4922C25.412 20.5033 25.4209 20.5165 25.427 20.5312C25.4331 20.5458 25.4363 20.5616 25.4365 20.5775V21.4891ZM23.1998 19.8043C23.1996 19.8202 23.1964 19.8359 23.1903 19.8505C23.1841 19.8652 23.1753 19.8784 23.1642 19.8895C23.153 19.9006 23.1399 19.9094 23.1255 19.9153C23.1111 19.9212 23.0956 19.9241 23.0801 19.9239H21.6165C21.5851 19.9244 21.5548 19.912 21.5322 19.8896C21.5097 19.8672 21.4967 19.8365 21.4963 19.8043V18.8921C21.4968 18.8599 21.5098 18.8292 21.5323 18.8069C21.5549 18.7845 21.5851 18.7722 21.6165 18.7727H23.0801C23.0956 18.7725 23.111 18.7754 23.1254 18.7812C23.1399 18.7871 23.153 18.7959 23.1641 18.8069C23.1752 18.818 23.1841 18.8313 23.1902 18.8459C23.1963 18.8605 23.1996 18.8762 23.1998 18.8921V19.8043ZM23.1998 21.4891C23.1997 21.505 23.1965 21.5208 23.1904 21.5355C23.1843 21.5502 23.1754 21.5635 23.1643 21.5747C23.1532 21.5858 23.14 21.5947 23.1256 21.6006C23.1111 21.6066 23.0957 21.6095 23.0801 21.6093H21.6165C21.6009 21.6095 21.5854 21.6066 21.571 21.6007C21.5565 21.5947 21.5433 21.5859 21.5321 21.5748C21.5209 21.5636 21.512 21.5503 21.5059 21.5356C21.4997 21.5209 21.4964 21.5051 21.4963 21.4891V20.5775C21.4965 20.5616 21.4997 20.5458 21.5059 20.5311C21.5121 20.5165 21.521 20.5032 21.5322 20.4921C21.5433 20.481 21.5565 20.4723 21.571 20.4664C21.5855 20.4605 21.601 20.4577 21.6165 20.4579H23.0801C23.0957 20.4577 23.1111 20.4606 23.1255 20.4664C23.14 20.4723 23.1531 20.4811 23.1642 20.4922C23.1754 20.5033 23.1842 20.5166 23.1903 20.5312C23.1964 20.5459 23.1997 20.5616 23.1998 20.5775V21.4891ZM25.8799 18.1791H20.9812C20.9657 18.1788 20.9503 18.1816 20.9358 18.1875C20.9214 18.1933 20.9082 18.202 20.8971 18.2131C20.8859 18.2243 20.8771 18.2375 20.871 18.2522C20.8649 18.2668 20.8617 18.2825 20.8616 18.2985V23.3685C20.8618 23.3844 20.865 23.4 20.8712 23.4146C20.8773 23.4292 20.8862 23.4425 20.8973 23.4536C20.9084 23.4646 20.9215 23.4734 20.9359 23.4792C20.9504 23.4851 20.9657 23.488 20.9812 23.4878H25.8799C25.8955 23.4881 25.9109 23.4852 25.9253 23.4793C25.9398 23.4735 25.9529 23.4647 25.9641 23.4537C25.9752 23.4426 25.9841 23.4293 25.9903 23.4147C25.9965 23.4001 25.9997 23.3844 26 23.3685V18.2985C25.9998 18.2825 25.9966 18.2668 25.9904 18.2521C25.9843 18.2375 25.9754 18.2242 25.9642 18.2131C25.9531 18.202 25.9399 18.1933 25.9254 18.1875C25.9109 18.1816 25.8955 18.1788 25.8799 18.1791Z" fill="white"/>
      <path d="M13.9757 10.0911C13.9756 10.1082 13.9689 10.1245 13.9571 10.1366C13.9452 10.1486 13.9292 10.1553 13.9125 10.1552H12.8154C12.8072 10.1552 12.799 10.1536 12.7914 10.1504C12.7838 10.1472 12.7769 10.1425 12.771 10.1365C12.7652 10.1306 12.7605 10.1235 12.7574 10.1157C12.7542 10.1079 12.7526 10.0995 12.7526 10.0911V8.83768C12.7525 8.82921 12.7541 8.82081 12.7573 8.81297C12.7604 8.80513 12.765 8.79801 12.7709 8.79202C12.7767 8.78604 12.7837 8.7813 12.7913 8.77809C12.799 8.77488 12.8072 8.77327 12.8154 8.77334H13.9128C13.9211 8.77327 13.9293 8.77488 13.937 8.77809C13.9446 8.78129 13.9516 8.78602 13.9575 8.792C13.9634 8.79798 13.968 8.8051 13.9712 8.81294C13.9744 8.82078 13.976 8.82919 13.976 8.83768V10.0911H13.9757ZM13.9757 12.9676C13.9757 12.9761 13.974 12.9845 13.9708 12.9923C13.9676 13.0002 13.963 13.0073 13.9571 13.0132C13.9512 13.0192 13.9443 13.0239 13.9366 13.0272C13.929 13.0304 13.9208 13.032 13.9125 13.032H12.8154C12.8072 13.032 12.799 13.0304 12.7914 13.0271C12.7837 13.0239 12.7768 13.0192 12.771 13.0132C12.7651 13.0072 12.7605 13.0001 12.7573 12.9923C12.7542 12.9845 12.7526 12.9761 12.7526 12.9676V11.7142C12.7526 11.7058 12.7542 11.6975 12.7573 11.6897C12.7605 11.6819 12.7652 11.6748 12.771 11.6689C12.7769 11.663 12.7838 11.6583 12.7914 11.6552C12.799 11.652 12.8072 11.6504 12.8154 11.6506H13.9128C13.921 11.6505 13.9292 11.652 13.9369 11.6552C13.9445 11.6583 13.9515 11.663 13.9574 11.6689C13.9632 11.6748 13.9679 11.6819 13.9711 11.6896C13.9743 11.6974 13.976 11.7058 13.976 11.7142V12.9674L13.9757 12.9676ZM13.9757 15.8448C13.9757 15.8533 13.9741 15.8617 13.9709 15.8695C13.9677 15.8774 13.963 15.8845 13.9572 15.8905C13.9513 15.8965 13.9443 15.9013 13.9367 15.9045C13.929 15.9077 13.9208 15.9094 13.9125 15.9094H12.8154C12.8072 15.9094 12.799 15.9077 12.7913 15.9045C12.7837 15.9012 12.7767 15.8965 12.7709 15.8905C12.7651 15.8845 12.7604 15.8774 12.7573 15.8695C12.7542 15.8617 12.7525 15.8533 12.7526 15.8448V14.5914C12.7525 14.5829 12.7542 14.5745 12.7573 14.5667C12.7604 14.5588 12.7651 14.5517 12.7709 14.5457C12.7767 14.5397 12.7837 14.5349 12.7913 14.5317C12.799 14.5285 12.8072 14.5268 12.8154 14.5268H13.9128C13.9211 14.5268 13.9293 14.5285 13.937 14.5317C13.9446 14.5349 13.9516 14.5397 13.9575 14.5457C13.9633 14.5517 13.968 14.5588 13.9712 14.5666C13.9744 14.5745 13.976 14.5829 13.976 14.5914V15.8445L13.9757 15.8448ZM13.9757 18.7211C13.9758 18.7296 13.9742 18.7381 13.971 18.746C13.9679 18.7539 13.9632 18.761 13.9573 18.767C13.9515 18.773 13.9445 18.7778 13.9368 18.781C13.9291 18.7842 13.9208 18.7858 13.9125 18.7857H12.8154C12.8071 18.7858 12.7989 18.7842 12.7913 18.781C12.7836 18.7777 12.7766 18.773 12.7708 18.767C12.7649 18.761 12.7603 18.7538 12.7572 18.7459C12.754 18.7381 12.7525 18.7296 12.7526 18.7211V17.4688C12.7525 17.4604 12.7541 17.452 12.7572 17.4441C12.7603 17.4362 12.7649 17.4291 12.7708 17.4231C12.7767 17.4171 12.7836 17.4124 12.7913 17.4092C12.799 17.406 12.8072 17.4044 12.8154 17.4045H13.9128C13.9211 17.4044 13.9293 17.406 13.937 17.4092C13.9447 17.4124 13.9517 17.4171 13.9576 17.4231C13.9634 17.4291 13.9681 17.4362 13.9713 17.4441C13.9744 17.4519 13.9761 17.4603 13.976 17.4688V18.7211H13.9757ZM13.9757 21.5983C13.9757 21.6068 13.9741 21.6152 13.9709 21.623C13.9677 21.6309 13.963 21.638 13.9572 21.644C13.9513 21.65 13.9443 21.6547 13.9367 21.658C13.929 21.6612 13.9208 21.6629 13.9125 21.6629H12.8154C12.8072 21.6629 12.799 21.6612 12.7913 21.658C12.7837 21.6547 12.7767 21.65 12.7709 21.644C12.7651 21.638 12.7604 21.6308 12.7573 21.623C12.7542 21.6152 12.7525 21.6068 12.7526 21.5983V20.3456C12.7525 20.3371 12.7541 20.3287 12.7573 20.3209C12.7604 20.3131 12.7651 20.306 12.7709 20.3C12.7768 20.294 12.7837 20.2893 12.7913 20.2861C12.799 20.2829 12.8072 20.2813 12.8154 20.2814H13.9128C13.9211 20.2813 13.9293 20.2829 13.9369 20.2861C13.9446 20.2893 13.9516 20.294 13.9575 20.3C13.9633 20.3059 13.968 20.313 13.9712 20.3209C13.9744 20.3287 13.976 20.3371 13.976 20.3456V21.5981L13.9757 21.5983ZM11.8232 10.0911C11.823 10.1081 11.8163 10.1244 11.8045 10.1364C11.7927 10.1484 11.7768 10.1552 11.7602 10.1552H10.6626C10.646 10.1552 10.63 10.1484 10.6182 10.1364C10.6064 10.1244 10.5997 10.1081 10.5996 10.0911V8.83768C10.5996 8.82922 10.6012 8.82083 10.6044 8.81302C10.6076 8.8052 10.6122 8.7981 10.6181 8.79213C10.6239 8.78615 10.6309 8.78141 10.6385 8.77819C10.6461 8.77497 10.6543 8.77332 10.6626 8.77334H11.7602C11.7684 8.77332 11.7766 8.77497 11.7843 8.77819C11.7919 8.78141 11.7988 8.78615 11.8047 8.79213C11.8105 8.7981 11.8152 8.8052 11.8183 8.81302C11.8215 8.82083 11.8232 8.82922 11.8232 8.83768V10.0911ZM11.8232 12.9676C11.8231 12.9847 11.8164 13.0011 11.8046 13.0131C11.7928 13.0252 11.7768 13.032 11.7602 13.032H10.6626C10.6459 13.032 10.6299 13.0252 10.6181 13.0131C10.6063 13.0011 10.5997 12.9847 10.5996 12.9676V11.7142C10.5996 11.7058 10.6013 11.6975 10.6045 11.6897C10.6077 11.6819 10.6123 11.6749 10.6182 11.669C10.624 11.6631 10.631 11.6584 10.6386 11.6552C10.6462 11.6521 10.6544 11.6505 10.6626 11.6506H11.7602C11.7684 11.6505 11.7765 11.6521 11.7842 11.6552C11.7918 11.6584 11.7987 11.6631 11.8046 11.669C11.8104 11.6749 11.8151 11.6819 11.8183 11.6897C11.8215 11.6975 11.8231 11.7058 11.8232 11.7142V12.9674V12.9676ZM11.8232 15.8448C11.8231 15.8619 11.8165 15.8783 11.8047 15.8904C11.7929 15.9025 11.7769 15.9093 11.7602 15.9094H10.6626C10.6459 15.9093 10.6299 15.9025 10.6181 15.8904C10.6063 15.8783 10.5996 15.8619 10.5996 15.8448V14.5914C10.5996 14.5743 10.6063 14.5579 10.6181 14.5458C10.6299 14.5337 10.6459 14.5269 10.6626 14.5268H11.7602C11.7769 14.5269 11.7929 14.5337 11.8047 14.5458C11.8165 14.5579 11.8231 14.5743 11.8232 14.5914V15.8445V15.8448ZM11.8232 18.7211C11.8232 18.7296 11.8216 18.738 11.8185 18.7459C11.8153 18.7537 11.8107 18.7609 11.8048 18.7669C11.799 18.7729 11.792 18.7777 11.7843 18.7809C11.7767 18.7841 11.7685 18.7857 11.7602 18.7857H10.6626C10.6543 18.7858 10.6461 18.7841 10.6384 18.7809C10.6307 18.7777 10.6238 18.7729 10.6179 18.7669C10.6121 18.7609 10.6074 18.7538 10.6043 18.7459C10.6011 18.738 10.5995 18.7296 10.5996 18.7211V17.4688C10.5996 17.4604 10.6012 17.452 10.6043 17.4441C10.6075 17.4363 10.6121 17.4292 10.618 17.4232C10.6239 17.4172 10.6308 17.4125 10.6385 17.4093C10.6461 17.4061 10.6543 17.4044 10.6626 17.4045H11.7602C11.7684 17.4044 11.7766 17.4061 11.7843 17.4093C11.7919 17.4125 11.7989 17.4172 11.8048 17.4232C11.8106 17.4292 11.8153 17.4363 11.8184 17.4441C11.8216 17.452 11.8232 17.4604 11.8232 17.4688V18.7211ZM11.8232 21.5983C11.8231 21.6154 11.8165 21.6318 11.8047 21.6439C11.7929 21.656 11.7769 21.6628 11.7602 21.6629H10.6626C10.6459 21.6628 10.6299 21.656 10.6181 21.6439C10.6063 21.6318 10.5996 21.6154 10.5996 21.5983V20.3456C10.5996 20.3371 10.6012 20.3287 10.6044 20.3209C10.6076 20.3131 10.6122 20.306 10.6181 20.3001C10.6239 20.2941 10.6309 20.2894 10.6385 20.2862C10.6462 20.283 10.6543 20.2814 10.6626 20.2814H11.7602C11.7684 20.2814 11.7766 20.283 11.7842 20.2862C11.7919 20.2894 11.7988 20.2941 11.8047 20.3001C11.8105 20.306 11.8152 20.3131 11.8183 20.3209C11.8215 20.3287 11.8232 20.3371 11.8232 20.3456V21.5981V21.5983ZM14.6749 6.4906H9.881C9.84988 6.4906 9.82004 6.50327 9.79804 6.52583C9.77603 6.54838 9.76367 6.57897 9.76367 6.61087V23.3896C9.76367 23.4215 9.77603 23.4521 9.79804 23.4746C9.82004 23.4972 9.84988 23.5098 9.881 23.5098H14.675C14.7061 23.5098 14.736 23.4971 14.7581 23.4746C14.7802 23.4521 14.7927 23.4215 14.7929 23.3896V6.61087C14.7927 6.57892 14.7802 6.54834 14.7581 6.52581C14.736 6.50328 14.7061 6.49062 14.675 6.4906" fill="white"/>
      <path d="M25.9945 17.7142C25.9946 17.7274 25.9921 17.7406 25.9871 17.7529C25.9822 17.7652 25.975 17.7764 25.9658 17.7858C25.9566 17.7953 25.9457 17.8027 25.9337 17.8078C25.9218 17.8129 25.9089 17.8155 25.8959 17.8154H20.9655C20.9525 17.8154 20.9397 17.8128 20.9277 17.8077C20.9157 17.8026 20.9048 17.7952 20.8957 17.7858C20.8865 17.7764 20.8793 17.7652 20.8743 17.7529C20.8694 17.7406 20.8669 17.7274 20.8669 17.7142V16.7035C20.867 16.6767 20.8775 16.6511 20.8959 16.6322C20.9144 16.6133 20.9394 16.6027 20.9655 16.6027H25.8959C25.922 16.6026 25.9471 16.6132 25.9656 16.6321C25.984 16.6511 25.9944 16.6767 25.9945 16.7035V17.7142Z" fill="white"/>
      <path d="M19.8521 14.7526C19.8521 14.7684 19.8491 14.7841 19.8432 14.7986C19.8373 14.8132 19.8287 14.8265 19.8178 14.8377C19.8069 14.8488 19.7939 14.8577 19.7797 14.8637C19.7655 14.8698 19.7502 14.8729 19.7348 14.8729H18.3063C18.2909 14.873 18.2755 14.8699 18.2612 14.8639C18.2469 14.8579 18.2339 14.8491 18.2229 14.8379C18.212 14.8267 18.2033 14.8134 18.1973 14.7988C18.1914 14.7842 18.1883 14.7685 18.1883 14.7526V13.836C18.1883 13.8202 18.1913 13.8044 18.1972 13.7897C18.2031 13.775 18.2118 13.7617 18.2228 13.7505C18.2338 13.7392 18.2468 13.7304 18.2611 13.7243C18.2755 13.7183 18.2908 13.7152 18.3063 13.7153H19.7348C19.7502 13.7153 19.7655 13.7184 19.7798 13.7245C19.7941 13.7306 19.807 13.7395 19.8179 13.7507C19.8288 13.7619 19.8375 13.7752 19.8433 13.7899C19.8492 13.8045 19.8522 13.8202 19.8521 13.836V14.7526ZM19.8521 16.4468C19.852 16.4786 19.8395 16.509 19.8175 16.5314C19.7956 16.5538 19.7658 16.5664 19.7348 16.5664H18.3063C18.2909 16.5665 18.2757 16.5635 18.2614 16.5575C18.2471 16.5515 18.2341 16.5428 18.2232 16.5316C18.2122 16.5205 18.2035 16.5073 18.1975 16.4928C18.1916 16.4782 18.1884 16.4626 18.1883 16.4468V15.5298C18.1883 15.5139 18.1914 15.4982 18.1973 15.4836C18.2033 15.469 18.212 15.4557 18.2229 15.4445C18.2339 15.4333 18.2469 15.4245 18.2612 15.4185C18.2755 15.4125 18.2909 15.4094 18.3063 15.4095H19.7348C19.7502 15.4095 19.7655 15.4126 19.7797 15.4187C19.7939 15.4247 19.8069 15.4336 19.8178 15.4447C19.8287 15.4559 19.8373 15.4692 19.8432 15.4837C19.8491 15.4983 19.8521 15.514 19.8521 15.5298V16.4468ZM19.8521 18.141C19.852 18.1728 19.8395 18.2032 19.8175 18.2256C19.7956 18.248 19.7658 18.2606 19.7348 18.2606H18.3063C18.2909 18.2607 18.2757 18.2576 18.2614 18.2517C18.2471 18.2457 18.2341 18.2369 18.2232 18.2258C18.2122 18.2147 18.2035 18.2015 18.1975 18.187C18.1916 18.1724 18.1884 18.1568 18.1883 18.141V17.224C18.1883 17.2081 18.1914 17.1924 18.1973 17.1778C18.2033 17.1631 18.212 17.1498 18.2229 17.1387C18.2339 17.1275 18.2469 17.1187 18.2612 17.1126C18.2755 17.1066 18.2909 17.1036 18.3063 17.1037H19.7348C19.7659 17.1037 19.7958 17.1164 19.8178 17.1389C19.8398 17.1615 19.8521 17.1921 19.8521 17.224V18.141ZM19.8521 19.8347C19.8521 19.8505 19.8491 19.8661 19.8432 19.8807C19.8373 19.8953 19.8287 19.9086 19.8178 19.9198C19.8069 19.9309 19.7939 19.9398 19.7797 19.9458C19.7655 19.9519 19.7502 19.955 19.7348 19.955H18.3063C18.2909 19.9551 18.2755 19.952 18.2612 19.946C18.2469 19.94 18.2339 19.9312 18.2229 19.92C18.212 19.9088 18.2033 19.8955 18.1973 19.8809C18.1914 19.8663 18.1883 19.8506 18.1883 19.8347V18.9177C18.1883 18.9018 18.1914 18.8861 18.1973 18.8715C18.2033 18.8569 18.212 18.8436 18.2229 18.8324C18.2339 18.8212 18.2469 18.8124 18.2612 18.8064C18.2755 18.8004 18.2909 18.7973 18.3063 18.7974H19.7348C19.7502 18.7974 19.7655 18.8005 19.7797 18.8066C19.7939 18.8126 19.8069 18.8215 19.8178 18.8326C19.8287 18.8438 19.8373 18.8571 19.8432 18.8717C19.8491 18.8863 19.8521 18.9019 19.8521 18.9177V19.8347ZM19.8521 21.5284C19.8521 21.5603 19.8398 21.5909 19.8178 21.6135C19.7958 21.636 19.7659 21.6487 19.7348 21.6487H18.3063C18.2909 21.6488 18.2755 21.6458 18.2612 21.6398C18.2469 21.6338 18.2339 21.6249 18.2229 21.6137C18.212 21.6026 18.2033 21.5893 18.1973 21.5746C18.1914 21.56 18.1883 21.5443 18.1883 21.5284V20.6114C18.1884 20.5956 18.1916 20.58 18.1975 20.5654C18.2035 20.5509 18.2122 20.5377 18.2232 20.5266C18.2341 20.5155 18.2471 20.5067 18.2614 20.5007C18.2757 20.4948 18.2909 20.4917 18.3063 20.4918H19.7348C19.7658 20.4918 19.7956 20.5044 19.8175 20.5268C19.8395 20.5492 19.852 20.5796 19.8521 20.6114V21.5284ZM17.6722 14.429V16.4483C17.6722 16.4802 17.6599 16.5108 17.6379 16.5333C17.6159 16.5559 17.586 16.5686 17.5549 16.5686H16.1264C16.1109 16.5687 16.0956 16.5656 16.0813 16.5596C16.0669 16.5536 16.0539 16.5448 16.043 16.5336C16.032 16.5224 16.0233 16.5091 16.0174 16.4945C16.0114 16.4799 16.0084 16.4642 16.0084 16.4483V16.1942C16.0089 16.1788 16.0119 16.1636 16.0173 16.1491C16.0199 16.1443 16.0203 16.1422 16.0246 16.1352C16.0276 16.1296 16.0311 16.1243 16.0351 16.1195C16.0385 16.1136 16.044 16.1061 16.0485 16.0998C16.2309 15.8319 17.0551 14.7913 17.4011 14.356L17.436 14.3132C17.4521 14.2927 17.4736 14.2775 17.4979 14.2691C17.5222 14.2608 17.5483 14.2598 17.5732 14.2662C17.598 14.2727 17.6206 14.2863 17.6381 14.3054C17.6556 14.3246 17.6675 14.3485 17.6722 14.3743V14.4287L17.6722 14.429ZM17.6682 18.1409C17.668 18.1727 17.6556 18.2031 17.6336 18.2255C17.6116 18.2479 17.5819 18.2605 17.5509 18.2605H16.1223C16.0912 18.2605 16.0615 18.2479 16.0395 18.2255C16.0175 18.2031 16.0051 18.1727 16.0049 18.1409V17.2239C16.0048 17.2081 16.0078 17.1924 16.0137 17.1778C16.0196 17.1631 16.0282 17.1498 16.0391 17.1387C16.05 17.1275 16.063 17.1186 16.0773 17.1126C16.0915 17.1066 16.1068 17.1035 16.1223 17.1036H17.5509C17.5663 17.1035 17.5816 17.1066 17.5958 17.1126C17.6101 17.1186 17.6231 17.1275 17.634 17.1387C17.6449 17.1499 17.6535 17.1631 17.6594 17.1778C17.6653 17.1924 17.6683 17.2081 17.6682 17.2239V18.1409ZM17.6682 19.8346C17.6683 19.8505 17.6653 19.8661 17.6594 19.8807C17.6535 19.8954 17.6449 19.9087 17.634 19.9198C17.6231 19.931 17.6101 19.9399 17.5958 19.9459C17.5816 19.9519 17.5663 19.955 17.5509 19.9549H16.1223C16.1068 19.955 16.0915 19.9519 16.0773 19.9459C16.063 19.9399 16.05 19.931 16.0391 19.9199C16.0282 19.9087 16.0196 19.8954 16.0137 19.8808C16.0078 19.8661 16.0048 19.8505 16.0049 19.8346V18.9176C16.0048 18.9018 16.0078 18.8861 16.0136 18.8715C16.0195 18.8568 16.0281 18.8435 16.039 18.8323C16.05 18.8211 16.0629 18.8123 16.0772 18.8063C16.0915 18.8003 16.1068 18.7972 16.1223 18.7973H17.5509C17.5663 18.7972 17.5816 18.8003 17.5959 18.8063C17.6102 18.8123 17.6231 18.8212 17.634 18.8323C17.645 18.8435 17.6536 18.8568 17.6595 18.8715C17.6653 18.8861 17.6683 18.9018 17.6682 18.9176V19.8346ZM17.6682 21.5284C17.6683 21.5442 17.6653 21.5599 17.6594 21.5745C17.6535 21.5891 17.6449 21.6024 17.634 21.6136C17.6231 21.6248 17.6101 21.6336 17.5958 21.6396C17.5816 21.6456 17.5663 21.6487 17.5509 21.6486H16.1223C16.1068 21.6487 16.0915 21.6457 16.0773 21.6396C16.063 21.6336 16.05 21.6248 16.0391 21.6136C16.0282 21.6024 16.0196 21.5891 16.0137 21.5745C16.0078 21.5599 16.0048 21.5442 16.0049 21.5284V20.6113C16.0049 20.5956 16.008 20.58 16.0139 20.5654C16.0198 20.5509 16.0284 20.5377 16.0393 20.5265C16.0502 20.5154 16.0632 20.5066 16.0774 20.5007C16.0916 20.4947 16.1069 20.4917 16.1223 20.4917H17.5509C17.5662 20.4917 17.5815 20.4947 17.5957 20.5007C17.6099 20.5067 17.6229 20.5155 17.6338 20.5266C17.6447 20.5377 17.6533 20.5509 17.6592 20.5654C17.6651 20.58 17.6682 20.5956 17.6682 20.6113V21.5284ZM18.4138 12.9487L18.4472 12.9053C18.7699 12.4812 19.3131 11.7957 19.5778 11.4627L19.6125 11.4204C19.6253 11.4044 19.6414 11.3916 19.6596 11.3827C19.6778 11.3739 19.6977 11.3693 19.7179 11.3693C19.749 11.3696 19.7791 11.3811 19.8029 11.4016C19.8268 11.4222 19.8429 11.4506 19.8485 11.482V13.032C19.8484 13.0677 19.8348 13.102 19.8105 13.1277C19.7863 13.1534 19.7533 13.1686 19.7184 13.1699C19.7163 13.1699 19.7143 13.1712 19.7125 13.1712C19.7107 13.1712 19.7086 13.1699 19.7065 13.1699H18.5291C18.5269 13.1699 18.5252 13.1712 18.5231 13.1712C18.521 13.1712 18.5193 13.1699 18.5171 13.1699C18.4925 13.169 18.4687 13.1612 18.4481 13.1474C18.4275 13.1335 18.411 13.1142 18.4004 13.0915C18.3897 13.0688 18.3853 13.0435 18.3877 13.0184C18.39 12.9933 18.399 12.9693 18.4136 12.9491L18.4138 12.9487ZM20.3972 9.62174C20.3898 9.59485 20.374 9.57116 20.3523 9.5542C20.3306 9.53725 20.3042 9.52796 20.2769 9.52771C20.2523 9.52832 20.2284 9.53646 20.2083 9.55108C20.2054 9.55304 20.2022 9.55477 20.1992 9.55718L20.159 9.60979L15.4472 15.7359L15.4252 15.7656C15.4001 15.7909 15.3855 15.8252 15.3845 15.8613V23.389C15.3846 23.4209 15.3971 23.4513 15.419 23.4738C15.441 23.4963 15.4708 23.5089 15.5019 23.5089H20.2909C20.3063 23.509 20.3215 23.5059 20.3358 23.4999C20.35 23.494 20.363 23.4851 20.3739 23.474C20.3848 23.4629 20.3934 23.4496 20.3993 23.435C20.4052 23.4205 20.4083 23.4048 20.4082 23.389V9.67188C20.408 9.6545 20.4042 9.63737 20.3969 9.62167L20.3972 9.62174Z" fill="white"/>
    </g>
  </g>
  <path d="M0 0H13V10C13 12.2091 11.2091 14 9 14H0V0Z" fill="#F59D10"/>
  <path d="M5.12891 3V11H3.4375V4.60547H3.39063L1.55859 5.75391V4.25391L3.53906 3H5.12891ZM10.5107 3V11H8.81934V4.60547H8.77246L6.94043 5.75391V4.25391L8.9209 3H10.5107Z" fill="white"/>
  <defs>
    <clipPath id="clip0_215_12380">
      <rect width="22" height="17.0189" fill="white" transform="translate(4 6.4906)"/>
    </clipPath>
  </defs>
</svg>
