<svg width="30" height="30" viewBox="0 0 30 30" fill="none" xmlns="http://www.w3.org/2000/svg">
  <path d="M0 2C0 0.89543 0.895431 0 2 0H28C29.1046 0 30 0.895431 30 2V28C30 29.1046 29.1046 30 28 30H2C0.89543 30 0 29.1046 0 28V2Z" fill="#A6183B"/>
  <g clip-path="url(#clip0_518_7849)">
    <mask id="mask0_518_7849" style="mask-type:luminance" maskUnits="userSpaceOnUse" x="4" y="4" width="22" height="22">
      <path d="M25.2281 4H4.77197V26H25.2281V4Z" fill="white"/>
    </mask>
    <g mask="url(#mask0_518_7849)">
      <path d="M23.3427 9.18322L18.9356 13.3741C18.7692 13.5396 18.6841 13.6612 18.6841 14.0035V25.7494C18.6843 25.8159 18.7109 25.8797 18.758 25.9267C18.8052 25.9737 18.8691 26 18.9356 26H23.4877C23.5541 25.9999 23.6178 25.9735 23.6648 25.9265C23.7118 25.8795 23.7383 25.8158 23.7383 25.7494V9.28888C23.7383 9.15023 23.63 8.89732 23.3424 9.18322" fill="white"/>
      <path d="M10.8014 14.6434L6.39409 18.834C6.22833 18.9998 6.14282 19.121 6.14282 19.4628V25.7497C6.14322 25.8161 6.16986 25.8796 6.21693 25.9264C6.264 25.9733 6.32768 25.9996 6.39409 25.9997H10.9464C11.0128 25.9997 11.0765 25.9734 11.1236 25.9266C11.1706 25.8797 11.1972 25.8161 11.1973 25.7497V14.7487C11.1973 14.6097 11.0882 14.3563 10.8014 14.6434" fill="white"/>
      <path d="M25.2279 4.13178C25.2298 4.09889 25.2185 4.0666 25.1966 4.04199C25.1747 4.01738 25.1439 4.00246 25.111 4.00049L25.0872 4.00192L25.052 4.0039L21.7401 4.76514L21.6801 4.77141C21.6574 4.77599 21.6364 4.78666 21.6193 4.80226C21.6022 4.81786 21.5896 4.83781 21.583 4.85999C21.5763 4.88216 21.5759 4.90572 21.5816 4.92815C21.5873 4.95057 21.599 4.97102 21.6155 4.9873L21.653 5.02548L22.4093 5.79579L14.9051 13.4394L11.4391 9.90863C11.43 9.89912 11.4191 9.89154 11.407 9.88637C11.3949 9.8812 11.3818 9.87853 11.3687 9.87853C11.3555 9.87853 11.3425 9.8812 11.3304 9.88637C11.3183 9.89154 11.3073 9.89912 11.2982 9.90863L10.3572 10.867L10.3567 10.8678L4.80068 16.5258C4.7821 16.5452 4.77173 16.571 4.77173 16.5979C4.77173 16.6247 4.7821 16.6505 4.80068 16.6699L5.74255 17.6285C5.75157 17.638 5.76242 17.6455 5.77443 17.6506C5.78644 17.6558 5.79937 17.6584 5.81244 17.6584C5.82551 17.6584 5.83844 17.6558 5.85045 17.6506C5.86246 17.6455 5.87331 17.638 5.88233 17.6285L11.3693 12.041L13.8841 14.6032C13.8863 14.6075 13.8891 14.6115 13.8922 14.6152L14.8332 15.5724C14.8423 15.582 14.8532 15.5896 14.8653 15.5948C14.8774 15.6001 14.8905 15.6027 14.9037 15.6027C14.9169 15.6027 14.9299 15.6001 14.942 15.5948C14.9541 15.5896 14.9651 15.582 14.9741 15.5724L23.4912 6.89733L24.2849 7.70582C24.2963 7.71776 24.31 7.72727 24.3252 7.73376C24.3404 7.74026 24.3567 7.74361 24.3732 7.74361C24.3897 7.74361 24.4061 7.74026 24.4213 7.73376C24.4364 7.72727 24.4501 7.71776 24.4616 7.70582C24.4836 7.6837 24.4964 7.65411 24.4976 7.62293L24.4982 7.61208L25.2259 4.16852L25.2278 4.13151L25.2279 4.13178Z" fill="white"/>
      <path d="M17.0964 15.3785L14.9641 17.5278C14.9447 17.5442 14.9199 17.5527 14.8945 17.5517C14.8691 17.5508 14.845 17.5404 14.8268 17.5227L12.8952 15.554C12.5417 15.2017 12.4651 15.4873 12.4651 15.6258V25.7489C12.465 25.7817 12.4714 25.8142 12.4839 25.8446C12.4964 25.875 12.5148 25.9026 12.5379 25.9258C12.5611 25.9491 12.5887 25.9676 12.619 25.9802C12.6493 25.9929 12.6818 25.9994 12.7147 25.9995H17.2678C17.3343 25.9993 17.398 25.9729 17.4449 25.9259C17.4919 25.8789 17.5184 25.8153 17.5185 25.7489V15.458C17.5185 15.3196 17.4094 15.0655 17.0964 15.3785Z" fill="white"/>
    </g>
  </g>
  <path d="M0 0H11V8C11 10.2091 9.20914 12 7 12H0V0Z" fill="#A6183B"/>
  <path d="M5.63281 10.1094C5.03125 10.1094 4.49609 10.0117 4.02734 9.81641C3.5612 9.61849 3.19531 9.34896 2.92969 9.00781C2.66406 8.66667 2.53125 8.27995 2.53125 7.84766C2.53125 7.51432 2.60677 7.20833 2.75781 6.92969C2.91146 6.64844 3.11979 6.41536 3.38281 6.23047C3.64583 6.04297 3.9401 5.92318 4.26563 5.87109V5.81641C3.83854 5.73047 3.49219 5.52344 3.22656 5.19531C2.96094 4.86458 2.82813 4.48047 2.82813 4.04297C2.82813 3.62891 2.94922 3.26042 3.19141 2.9375C3.43359 2.61198 3.76563 2.35677 4.1875 2.17187C4.61198 1.98437 5.09375 1.89062 5.63281 1.89062C6.17188 1.89062 6.65234 1.98437 7.07422 2.17187C7.4987 2.35937 7.83203 2.61589 8.07422 2.94141C8.31641 3.26432 8.4388 3.63151 8.44141 4.04297C8.4388 4.48307 8.30339 4.86719 8.03516 5.19531C7.76693 5.52344 7.42318 5.73047 7.00391 5.81641V5.87109C7.32422 5.92318 7.61458 6.04297 7.875 6.23047C8.13802 6.41536 8.34635 6.64844 8.5 6.92969C8.65625 7.20833 8.73568 7.51432 8.73828 7.84766C8.73568 8.27995 8.60156 8.66667 8.33594 9.00781C8.07031 9.34896 7.70313 9.61849 7.23438 9.81641C6.76823 10.0117 6.23438 10.1094 5.63281 10.1094ZM5.63281 8.86719C5.90104 8.86719 6.13542 8.81901 6.33594 8.72266C6.53646 8.6237 6.69271 8.48828 6.80469 8.31641C6.91927 8.14193 6.97656 7.94141 6.97656 7.71484C6.97656 7.48307 6.91797 7.27865 6.80078 7.10156C6.68359 6.92188 6.52474 6.78125 6.32422 6.67969C6.1237 6.57552 5.89323 6.52344 5.63281 6.52344C5.375 6.52344 5.14453 6.57552 4.94141 6.67969C4.73828 6.78125 4.57813 6.92188 4.46094 7.10156C4.34635 7.27865 4.28906 7.48307 4.28906 7.71484C4.28906 7.94141 4.34505 8.14193 4.45703 8.31641C4.56901 8.48828 4.72656 8.6237 4.92969 8.72266C5.13281 8.81901 5.36719 8.86719 5.63281 8.86719ZM5.63281 5.29297C5.85677 5.29297 6.05599 5.2474 6.23047 5.15625C6.40495 5.0651 6.54167 4.9388 6.64062 4.77734C6.73958 4.61589 6.78906 4.42969 6.78906 4.21875C6.78906 4.01042 6.73958 3.82812 6.64062 3.67187C6.54167 3.51302 6.40625 3.38932 6.23438 3.30078C6.0625 3.20964 5.86198 3.16406 5.63281 3.16406C5.40625 3.16406 5.20573 3.20964 5.03125 3.30078C4.85677 3.38932 4.72005 3.51302 4.62109 3.67187C4.52474 3.82812 4.47656 4.01042 4.47656 4.21875C4.47656 4.42969 4.52604 4.61589 4.625 4.77734C4.72396 4.9388 4.86068 5.0651 5.03516 5.15625C5.20964 5.2474 5.40885 5.29297 5.63281 5.29297Z" fill="white"/>
  <defs>
    <clipPath id="clip0_518_7849">
      <rect width="20.4561" height="22" fill="white" transform="translate(4.77197 4)"/>
    </clipPath>
  </defs>
</svg>
