<svg width="30" height="30" viewBox="0 0 30 30" fill="none" xmlns="http://www.w3.org/2000/svg">
    <path d="M0 2C0 0.89543 0.895431 0 2 0H28C29.1046 0 30 0.895431 30 2V28C30 29.1046 29.1046 30 28 30H2C0.89543 30 0 29.1046 0 28V2Z" fill="#DE1730"/>
    <mask id="mask0_215_12391" style="mask-type:luminance" maskUnits="userSpaceOnUse" x="4" y="12" width="22" height="10">
        <path d="M26 12H4V21.9623H26V12Z" fill="white"/>
    </mask>
    <g mask="url(#mask0_215_12391)">
        <path d="M23.4231 12.8739C23.4232 12.7013 23.4739 12.5326 23.5687 12.3892C23.6636 12.2457 23.7984 12.1339 23.9561 12.0679C24.1138 12.0018 24.2873 11.9846 24.4547 12.0182C24.6221 12.0519 24.7759 12.135 24.8966 12.257C25.0173 12.379 25.0995 12.5345 25.1329 12.7038C25.1662 12.873 25.1492 13.0485 25.084 13.208C25.0187 13.3675 24.9082 13.5038 24.7664 13.5998C24.6245 13.6958 24.4577 13.7471 24.287 13.7472C24.058 13.7472 23.8383 13.6552 23.6763 13.4914C23.5143 13.3277 23.4232 13.1055 23.4231 12.8739Z" fill="white"/>
        <path d="M24.9547 13.7548C25.2405 13.7816 25.5062 13.9153 25.6996 14.1299C25.893 14.3445 26.0001 14.6244 26 14.9147V17.3357C26 17.4255 25.9647 17.5116 25.9019 17.5751C25.8391 17.6385 25.754 17.6742 25.6652 17.6742C25.5764 17.6742 25.4913 17.6385 25.4285 17.5751C25.3658 17.5116 25.3305 17.4255 25.3305 17.3357V15.2565C25.3305 15.1782 25.3085 15.0728 25.167 15.0728C25.0696 15.0728 25.0493 15.1771 25.0458 15.2434V21.4756C25.0458 21.6047 24.9951 21.7285 24.9048 21.8198C24.8145 21.9111 24.6921 21.9624 24.5644 21.9624C24.4367 21.9624 24.3143 21.9111 24.224 21.8198C24.1337 21.7285 24.083 21.6047 24.083 21.4756V17.8843C24.0846 17.8655 24.0821 17.8466 24.0759 17.8289C24.0696 17.8112 24.0597 17.795 24.0468 17.7815C24.0338 17.768 24.0182 17.7574 24.0009 17.7505C23.9836 17.7436 23.965 17.7405 23.9464 17.7414H23.9458C23.9271 17.7405 23.9084 17.7435 23.891 17.7504C23.8736 17.7573 23.8578 17.7678 23.8446 17.7813C23.8315 17.7948 23.8214 17.8109 23.8148 17.8287C23.8083 17.8464 23.8056 17.8654 23.8068 17.8843V21.4756C23.8076 21.54 23.7958 21.6038 23.772 21.6635C23.7482 21.7232 23.7129 21.7775 23.6681 21.8233C23.6234 21.8691 23.5701 21.9054 23.5114 21.9303C23.4527 21.9551 23.3897 21.9678 23.326 21.9678C23.2624 21.9678 23.1994 21.9551 23.1407 21.9303C23.0819 21.9054 23.0287 21.8691 22.9839 21.8233C22.9392 21.7775 22.9039 21.7232 22.8801 21.6635C22.8563 21.6038 22.8444 21.54 22.8452 21.4756V15.2437C22.8421 15.177 22.8209 15.0732 22.7244 15.0732C22.5825 15.0732 22.5611 15.1786 22.5611 15.2568V17.3361C22.5611 17.4259 22.5258 17.512 22.463 17.5754C22.4002 17.6389 22.3151 17.6746 22.2263 17.6746C22.1376 17.6746 22.0524 17.6389 21.9896 17.5754C21.9269 17.512 21.8916 17.4259 21.8916 17.3361V14.9146C21.8915 14.6241 21.9988 14.3441 22.1924 14.1295C22.386 13.9149 22.652 13.7812 22.9381 13.7548C22.959 13.7515 22.9802 13.7496 23.0014 13.7493H24.8891C24.9111 13.7496 24.933 13.7515 24.9547 13.7548" fill="white"/>
        <path d="M18.6431 13.3037C18.6431 13.1401 18.595 12.9803 18.5051 12.8444C18.4152 12.7084 18.2874 12.6025 18.1379 12.54C17.9885 12.4776 17.824 12.4613 17.6654 12.4933C17.5068 12.5253 17.3612 12.6041 17.2469 12.7199C17.1326 12.8356 17.0549 12.983 17.0234 13.1434C16.992 13.3038 17.0083 13.4701 17.0703 13.6211C17.1323 13.7722 17.2372 13.9012 17.3717 13.992C17.5063 14.0827 17.6644 14.1311 17.8261 14.131C18.043 14.1308 18.2508 14.0435 18.404 13.8884C18.5572 13.7332 18.6432 13.5229 18.6431 13.3037Z" fill="white"/>
        <path d="M16.1646 14.8648L15.4848 17.1028C15.4848 17.1028 15.3636 17.5129 15.7079 17.6155C16.0503 17.718 16.1542 17.3174 16.1542 17.3174L16.7026 15.4496C16.7026 15.4496 16.7323 15.306 16.8392 15.3369C16.946 15.3678 16.9059 15.5214 16.9059 15.5214L15.9517 19.0221H16.839V21.5292C16.8405 21.6424 16.886 21.7506 16.9657 21.8301C17.0455 21.9097 17.153 21.9543 17.265 21.9543C17.377 21.9543 17.4845 21.9097 17.5642 21.8301C17.6439 21.7506 17.6895 21.6424 17.6909 21.5292V19.0221H17.9329V21.5292C17.9344 21.6425 17.98 21.7507 18.0597 21.8303C18.1395 21.9099 18.2471 21.9546 18.3592 21.9546C18.4713 21.9546 18.5789 21.9099 18.6586 21.8303C18.7384 21.7507 18.784 21.6425 18.7854 21.5292V19.0221H19.6723L18.719 15.5214C18.719 15.5214 18.6789 15.3679 18.7854 15.3369C18.892 15.3059 18.9221 15.4496 18.9221 15.4496L19.4704 17.3174C19.4704 17.3174 19.5747 17.7179 19.9164 17.6155C20.2616 17.513 20.1398 17.1028 20.1398 17.1028L19.4598 14.8648C19.4598 14.8648 19.2169 14.2179 18.6791 14.2179H16.946C16.408 14.2179 16.1646 14.865 16.1646 14.865" fill="white"/>
        <path d="M14.0059 13.3037C14.0059 13.1402 13.9578 12.9803 13.8679 12.8444C13.778 12.7085 13.6503 12.6026 13.5008 12.5401C13.3514 12.4776 13.187 12.4613 13.0284 12.4932C12.8698 12.5252 12.7242 12.604 12.6099 12.7197C12.4956 12.8353 12.4178 12.9827 12.3863 13.1431C12.3548 13.3035 12.371 13.4697 12.4329 13.6207C12.4949 13.7718 12.5997 13.9009 12.7342 13.9917C12.8686 14.0825 13.0267 14.131 13.1884 14.131C13.4053 14.1308 13.6132 14.0435 13.7665 13.8884C13.9198 13.7333 14.0059 13.523 14.0059 13.3037Z" fill="white"/>
        <path d="M11.5548 14.8649L10.8753 17.1026C10.8753 17.1026 10.7538 17.5128 11.0981 17.6154C11.4405 17.7179 11.5444 17.3172 11.5444 17.3172L12.0927 15.4495C12.0927 15.4495 12.1225 15.3059 12.2291 15.3368C12.3356 15.3677 12.2958 15.5213 12.2958 15.5213L11.3419 19.0219H12.2292V21.5291C12.2307 21.6424 12.2762 21.7506 12.356 21.8302C12.4358 21.9098 12.5434 21.9545 12.6555 21.9545C12.7676 21.9545 12.8751 21.9098 12.9549 21.8302C13.0347 21.7506 13.0803 21.6424 13.0817 21.5291V19.0222H13.3237V21.5293C13.3252 21.6426 13.3707 21.7507 13.4505 21.8303C13.5302 21.9099 13.6378 21.9545 13.7498 21.9545C13.8619 21.9545 13.9694 21.9099 14.0492 21.8303C14.1289 21.7507 14.1745 21.6426 14.1759 21.5293V19.0222H15.0633L14.1099 15.5215C14.1099 15.5215 14.0695 15.368 14.1759 15.337C14.2823 15.306 14.3128 15.4497 14.3128 15.4497L14.8606 17.3175C14.8606 17.3175 14.9649 17.718 15.3069 17.6156C15.6515 17.5131 15.53 17.1029 15.53 17.1029L14.85 14.8649C14.85 14.8649 14.608 14.2178 14.0697 14.2178H12.3365C11.7988 14.2178 11.5548 14.8649 11.5548 14.8649Z" fill="white"/>
        <path d="M21.2026 17.7305C21.3372 17.7305 21.4688 17.6901 21.5808 17.6145C21.6927 17.5388 21.7799 17.4313 21.8314 17.3056C21.8829 17.1798 21.8964 17.0414 21.8702 16.9079C21.8439 16.7744 21.7791 16.6518 21.684 16.5555C21.5888 16.4592 21.4675 16.3936 21.3355 16.367C21.2035 16.3404 21.0666 16.354 20.9422 16.406C20.8179 16.4581 20.7115 16.5462 20.6367 16.6594C20.5618 16.7725 20.5218 16.9056 20.5217 17.0417C20.5216 17.1322 20.5391 17.2218 20.5732 17.3054C20.6074 17.389 20.6575 17.465 20.7208 17.529C20.7841 17.593 20.8592 17.6438 20.9419 17.6783C21.0245 17.7129 21.1132 17.7306 21.2026 17.7305Z" fill="white"/>
        <path d="M19.5838 19.6844C19.5505 19.7649 19.5233 19.9356 19.6829 20.01C19.7346 20.0338 19.7932 20.0372 19.8473 20.0194C19.9013 20.0017 19.9468 19.9641 19.9748 19.9141L20.3449 18.7207C20.3449 18.7207 20.4091 18.6408 20.4091 18.7233V21.5328H20.4107C20.4121 21.6256 20.4494 21.7141 20.5148 21.7792C20.5801 21.8443 20.6682 21.8808 20.7599 21.8808C20.8517 21.8808 20.9397 21.8443 21.0051 21.7792C21.0704 21.7141 21.1078 21.6256 21.1091 21.5328V20.424C21.1091 20.424 21.0888 20.2673 21.2137 20.2673C21.3386 20.2673 21.3193 20.424 21.3193 20.424V21.5328C21.3193 21.6267 21.3562 21.7167 21.4219 21.7831C21.4875 21.8495 21.5766 21.8868 21.6694 21.8868C21.7622 21.8868 21.8513 21.8495 21.9169 21.7831C21.9826 21.7167 22.0195 21.6267 22.0195 21.5328V18.7233C22.0195 18.6408 22.0624 18.6996 22.0624 18.6996L22.3526 19.5167C22.3526 19.5167 22.4784 19.882 22.5173 19.8983C22.5805 19.9248 22.6516 19.9248 22.7148 19.8984C22.7781 19.872 22.8284 19.8213 22.8546 19.7574C22.8718 19.7166 22.8783 19.6721 22.8734 19.6281C22.8685 19.5841 22.8525 19.5421 22.8269 19.5062L22.8294 19.5036C22.8211 19.477 22.3957 18.4226 22.3459 18.2746C22.1923 17.8216 21.9128 17.8253 21.6438 17.8178C21.3745 17.8114 21.2135 17.8178 21.2135 17.8178C21.2135 17.8178 21.0416 17.8108 20.6865 17.8216C20.3313 17.8323 20.2199 18.0165 19.8285 19.0347C19.7723 19.1813 19.5835 19.6557 19.581 19.6841L19.5835 19.6847" fill="white"/>
        <path d="M7.08198 12.874C7.08195 12.7014 7.03131 12.5326 6.93645 12.389C6.8416 12.2455 6.70679 12.1336 6.54906 12.0675C6.39134 12.0014 6.21777 11.9841 6.05031 12.0177C5.88284 12.0513 5.72899 12.1344 5.60821 12.2564C5.48742 12.3784 5.40511 12.5339 5.37169 12.7032C5.33827 12.8725 5.35523 13.0481 5.42043 13.2076C5.48563 13.3672 5.59615 13.5036 5.73801 13.5997C5.87988 13.6958 6.04672 13.7471 6.21745 13.7473C6.44658 13.7473 6.66633 13.6553 6.82843 13.4916C6.99053 13.3278 7.08173 13.1057 7.08198 12.874Z" fill="white"/>
        <path d="M5.51981 13.7548C5.23392 13.7815 4.96821 13.9153 4.77481 14.1298C4.5814 14.3444 4.47425 14.6243 4.47437 14.9146V17.3356C4.47437 17.4255 4.50966 17.5117 4.57249 17.5752C4.63532 17.6387 4.72053 17.6744 4.80939 17.6744C4.89824 17.6744 4.98346 17.6387 5.04629 17.5752C5.10911 17.5117 5.14441 17.4255 5.14441 17.3356V15.2565C5.14441 15.1782 5.16641 15.0728 5.30795 15.0728C5.40504 15.0728 5.42528 15.1771 5.42938 15.2434V21.4756C5.4286 21.54 5.44046 21.6038 5.46427 21.6635C5.48808 21.7232 5.52337 21.7775 5.56809 21.8233C5.61282 21.8691 5.66609 21.9054 5.72481 21.9303C5.78354 21.9551 5.84655 21.9678 5.9102 21.9678C5.97384 21.9678 6.03685 21.9551 6.09558 21.9303C6.1543 21.9054 6.20757 21.8691 6.2523 21.8233C6.29702 21.7775 6.33231 21.7232 6.35612 21.6635C6.37994 21.6038 6.39179 21.54 6.39101 21.4756V17.8843C6.38969 17.8655 6.3923 17.8467 6.39868 17.829C6.40505 17.8114 6.41504 17.7953 6.42799 17.7818C6.44095 17.7683 6.45657 17.7577 6.47384 17.7508C6.49111 17.7438 6.50964 17.7406 6.52821 17.7414H6.5288C6.54749 17.7404 6.56618 17.7434 6.58363 17.7503C6.60108 17.7572 6.61688 17.7677 6.63 17.7812C6.64311 17.7947 6.65324 17.8109 6.6597 17.8286C6.66616 17.8464 6.66881 17.8654 6.66747 17.8843V21.4756C6.66669 21.54 6.67855 21.6039 6.70236 21.6636C6.72618 21.7233 6.76148 21.7776 6.80622 21.8234C6.85096 21.8692 6.90425 21.9056 6.96299 21.9304C7.02173 21.9552 7.08476 21.968 7.14843 21.968C7.21209 21.968 7.27512 21.9552 7.33387 21.9304C7.39261 21.9056 7.4459 21.8692 7.49064 21.8234C7.53537 21.7776 7.57068 21.7233 7.59449 21.6636C7.61831 21.6039 7.63017 21.54 7.62938 21.4756V15.2437C7.63224 15.177 7.65402 15.0732 7.75053 15.0732C7.89236 15.0732 7.91355 15.1786 7.91355 15.2568V17.3361C7.91355 17.4259 7.94883 17.512 8.01163 17.5755C8.07444 17.639 8.15961 17.6747 8.24843 17.6747C8.33724 17.6747 8.42242 17.639 8.48522 17.5755C8.54802 17.512 8.5833 17.4259 8.5833 17.3361V14.9146C8.58342 14.6241 8.47613 14.3441 8.28251 14.1295C8.08889 13.9149 7.82292 13.7812 7.53684 13.7548C7.51589 13.7515 7.49475 13.7496 7.47355 13.7493H5.58573C5.56364 13.7496 5.54159 13.7515 5.51973 13.7548" fill="white"/>
        <path d="M4.76685 17.6139L4 21.7249" stroke="white" stroke-width="1.0365" stroke-miterlimit="10" stroke-linecap="round"/>
        <path d="M8.52181 17.1985C8.49322 17.1525 8.4506 17.1171 8.40038 17.0976C8.35016 17.0782 8.29505 17.0757 8.24334 17.0907C8.19164 17.1057 8.14615 17.1372 8.11371 17.1806C8.08127 17.224 8.06364 17.2768 8.06348 17.3312C8.06705 17.3688 8.07523 17.4057 8.08782 17.4412L8.77415 18.6973C8.79852 18.7492 8.81271 18.8053 8.81595 18.8626V21.5595H8.81742C8.81742 21.604 8.82609 21.648 8.84293 21.6892C8.85977 21.7303 8.88446 21.7676 8.91559 21.7991C8.94671 21.8306 8.98366 21.8556 9.02432 21.8726C9.06499 21.8896 9.10857 21.8984 9.15259 21.8984C9.1966 21.8984 9.24019 21.8896 9.28085 21.8726C9.32152 21.8556 9.35846 21.8306 9.38959 21.7991C9.42071 21.7676 9.4454 21.7303 9.46224 21.6892C9.47909 21.648 9.48776 21.604 9.48776 21.5595V20.4953C9.48776 20.4953 9.46884 20.3446 9.58888 20.3446C9.70893 20.3446 9.69001 20.4953 9.69001 20.4953V21.5595C9.69001 21.6496 9.72541 21.736 9.78843 21.7997C9.85144 21.8634 9.93691 21.8992 10.026 21.8992C10.1151 21.8992 10.2006 21.8634 10.2636 21.7997C10.3266 21.736 10.362 21.6496 10.362 21.5595V18.8626C10.3652 18.8054 10.3792 18.7492 10.4033 18.6973L11.0378 17.5377C11.0703 17.4716 11.0963 17.4024 11.1155 17.3312C11.1154 17.2768 11.0978 17.2239 11.0654 17.1805C11.033 17.1372 10.9875 17.1056 10.9358 17.0906C10.8841 17.0757 10.829 17.0781 10.7788 17.0975C10.7286 17.117 10.686 17.1524 10.6574 17.1985L10.6546 17.197C10.6345 17.2144 10.3172 17.7865 10.212 17.8925C10.1864 17.9238 10.1543 17.9489 10.118 17.9663C10.0818 17.9837 10.0422 17.9928 10.002 17.993H9.17704C9.13686 17.9928 9.09722 17.9837 9.06089 17.9664C9.02456 17.949 8.99245 17.9238 8.9668 17.8925C8.86054 17.7865 8.54396 17.2144 8.52394 17.197L8.52196 17.1985" fill="white"/>
        <path d="M9.57021 17.7304C9.70485 17.7305 9.83649 17.6902 9.94849 17.6146C10.0605 17.5391 10.1478 17.4316 10.1994 17.3059C10.251 17.1801 10.2646 17.0417 10.2384 16.9082C10.2122 16.7746 10.1475 16.6519 10.0523 16.5556C9.95718 16.4592 9.83592 16.3936 9.70389 16.367C9.57185 16.3403 9.43497 16.3538 9.31054 16.4059C9.18612 16.4579 9.07974 16.5461 9.00487 16.6592C8.92999 16.7724 8.88998 16.9054 8.88989 17.0416C8.88972 17.132 8.90719 17.2216 8.94131 17.3052C8.97543 17.3888 9.02552 17.4647 9.08871 17.5287C9.15191 17.5927 9.22697 17.6435 9.30959 17.6781C9.39221 17.7127 9.48078 17.7305 9.57021 17.7304Z" fill="white"/>
        <path d="M9.581 18.5686L10.3504 19.136L10.7159 20.4975H8.44507L8.81174 19.136L9.58115 18.5686" fill="white"/>
    </g>
    <path d="M0 0H9V8C9 10.2091 7.20914 12 5 12H0V0Z" fill="#DE1730"/>
    <path d="M6.12891 2V10H4.4375V3.60547H4.39063L2.55859 4.75391V3.25391L4.53906 2H6.12891Z" fill="white"/>
</svg>
