<svg width="30" height="30" viewBox="0 0 30 30" fill="none" xmlns="http://www.w3.org/2000/svg">
  <path d="M0 2C0 0.89543 0.895431 0 2 0H28C29.1046 0 30 0.895431 30 2V28C30 29.1046 29.1046 30 28 30H2C0.89543 30 0 29.1046 0 28V2Z" fill="#407D3C"/>
  <mask id="mask0_215_12378" style="mask-type:luminance" maskUnits="userSpaceOnUse" x="5" y="11" width="20" height="11">
    <path d="M25 11H5V21.566H25V11Z" fill="white"/>
  </mask>
  <g mask="url(#mask0_215_12378)">
    <path d="M19.0925 17.1891C18.9806 17.1574 18.5125 16.4864 18.8826 16.0449C18.9441 15.9724 18.7582 15.7587 18.8092 15.7544C19.0118 15.7383 19.1196 15.8684 19.1727 16.0562C19.1768 16.1389 19.1799 16.2225 19.1799 16.3067C19.1799 16.6032 19.1506 16.8989 19.0926 17.1893M17.9499 19.3719C17.9047 19.3596 17.8607 19.3428 17.8188 19.3217C17.5912 19.2016 17.6184 19.3934 17.5065 19.3512C17.3946 19.3089 17.6332 19.0386 17.2963 19.2663C16.9614 19.4935 17.0519 19.2312 16.9058 18.8467C16.7582 18.4616 17.074 18.0224 17.3376 17.923C17.5846 17.8346 17.8378 17.7653 18.095 17.7157C18.596 17.5861 18.702 17.2778 18.793 17.4656C18.8102 17.5007 18.8266 17.534 18.8418 17.5654C18.8825 17.6535 18.9044 17.7495 18.9062 17.847C18.6958 18.4188 18.3699 18.9385 17.9498 19.3719M15.0075 20.6303C14.6105 20.6302 14.2156 20.5715 13.8349 20.4561C13.8051 20.4315 13.784 20.3974 13.7749 20.3592C13.7658 20.3211 13.7691 20.2809 13.7844 20.2449C13.9136 19.8959 14.2978 19.7595 14.6014 19.7294C15.2779 19.661 16.1671 20.1843 16.3085 20.0999C16.4499 20.0156 16.7363 19.6302 17.156 19.6463C17.4426 19.6578 17.4402 19.7079 17.5364 19.7452C16.8123 20.3197 15.9227 20.631 15.0075 20.6303ZM14.4402 17.8123C14.3828 17.9096 14.226 18.6367 14.1206 18.552C14.0152 18.4674 14.1632 17.7089 14.1939 17.6511C14.3586 17.338 14.7151 17.3534 14.4406 17.8123M16.1444 16.954C16.062 17.0301 15.851 17.0019 15.7455 16.9169C15.64 16.8318 15.8122 16.6922 15.8748 16.6869C16.0152 16.674 16.226 16.877 16.1444 16.9537M17.9856 16.9612C17.9406 16.9438 17.9008 16.8996 17.8668 16.7936C17.8574 16.7746 17.8545 16.7529 17.8584 16.7319C17.8623 16.7109 17.8728 16.6918 17.8884 16.6777C17.904 16.6635 17.9237 16.655 17.9444 16.6536C17.9652 16.6521 17.9858 16.6577 18.0032 16.6696C18.0887 16.7145 18.1998 16.8469 18.1998 16.9175C18.1998 16.9882 18.0315 16.9799 17.9856 16.9613M18.1629 17.0941C18.3029 17.0824 18.5138 17.2837 18.4314 17.3609C18.3491 17.4382 18.139 17.4096 18.0336 17.3239C17.9287 17.2394 18.1 17.0995 18.1629 17.0941ZM13.6873 18.8181C13.6062 19.1485 13.5116 19.2676 13.4309 19.3719C13.3502 19.4773 13.0516 19.6118 12.8622 19.5977C12.6728 19.5835 12.646 19.0583 12.646 18.7885C12.646 18.6952 12.5186 18.9717 12.4522 18.4101C12.4098 18.0504 12.1869 18.4476 12.1714 18.2076C12.1558 17.9676 12.0442 18.016 11.9272 17.8665C11.8101 17.717 11.6656 17.8812 11.5029 17.9568C11.3412 18.0312 11.4076 18.0704 11.1776 17.9955C11.1716 17.9934 11.1686 17.9917 11.163 17.9896C10.9458 17.4567 10.8344 16.8847 10.8352 16.3071C10.8352 16.161 10.8427 16.0177 10.8558 15.8761C10.8632 15.8618 10.8719 15.8483 10.8816 15.8357C11.1023 15.5652 11.0972 15.5019 11.0972 15.5019L11.3414 15.4142C11.5738 15.4527 11.8024 15.5119 12.0248 15.591C12.2666 15.6851 12.6474 15.8976 12.869 15.804C13.029 15.7356 13.1544 15.6449 13.1392 15.5067C13.1212 15.3333 12.9895 15.2922 12.8301 15.4091C12.7712 15.452 12.6459 15.1477 12.5476 15.1632C12.4492 15.1787 12.6692 15.5208 12.5859 15.5352C12.5026 15.5496 12.3342 15.1784 12.3055 15.1182C12.2768 15.0581 12.1474 14.9094 12.031 15.0232C11.7849 15.2654 11.3854 15.2506 11.3051 15.3129C11.0609 15.5021 10.9964 15.2506 11.0018 15.0972C11.0116 15.0622 11.0218 15.0268 11.0326 14.9922C11.1121 14.901 11.3985 14.8709 11.4967 14.9388C11.6047 15.0134 11.6821 14.9195 11.7243 14.8742C11.7665 14.8289 11.752 14.7579 11.7251 14.6985C11.6982 14.6391 11.7791 14.5946 11.8348 14.5791C11.9442 14.5209 12.0499 14.4556 12.1512 14.3836C12.2262 14.3392 12.6118 14.2906 12.7846 14.3801C12.853 14.4176 12.932 14.4294 13.0079 14.4135C13.0839 14.3976 13.1521 14.355 13.2008 14.2931C13.2858 14.1883 13.3882 14.0998 13.5034 14.0318C13.5638 14.0026 13.3546 13.8001 13.1825 14.0208C13.0104 14.2414 12.9221 14.2607 12.8412 14.2607C12.7602 14.2607 12.2784 14.1362 12.219 13.9785C12.1596 13.8208 12.3697 13.703 12.5474 13.6137C12.7252 13.526 13.2116 13.5271 13.336 13.4979C13.5886 13.4405 13.9118 13.309 14.0746 13.4238C14.2367 13.5365 13.3946 13.7351 13.6716 13.89C13.77 13.9461 14.215 13.6246 14.3676 13.5425C14.7264 13.351 14.0197 13.2874 14.1114 12.8978C14.215 12.4572 13.2448 12.6275 12.7608 12.6651C13.4297 12.2198 14.2101 11.9831 15.0074 11.9838C15.948 11.9873 16.86 12.3161 17.5961 12.9171C18.3322 13.5181 18.8493 14.3563 19.064 15.2961C19.0665 15.3635 19.0598 15.4308 19.044 15.4963C19.0255 15.5453 18.9939 15.588 18.9528 15.6194C18.9117 15.6508 18.8627 15.6696 18.8116 15.6736C18.7606 15.6777 18.7094 15.6669 18.6641 15.6423C18.6187 15.6178 18.5811 15.5807 18.5554 15.5351C18.5132 15.472 18.3343 15.2969 18.3403 15.5964C18.3463 15.8958 18.6213 15.9268 18.3546 16.1064C18.088 16.2861 18.0393 16.2429 17.9162 16.2882C17.7932 16.3335 17.674 16.642 17.7034 16.8069C17.7328 16.9718 18.1136 17.4227 17.8315 17.404C17.7653 17.3989 17.2668 17.0462 17.1844 16.8193C17.0978 16.5804 17.0028 16.3467 16.9356 16.1665C16.9233 16.1269 16.9018 16.091 16.8729 16.0619C16.844 16.0329 16.8086 16.0115 16.7698 15.9997C16.731 15.9879 16.6899 15.986 16.6503 15.9943C16.6106 16.0025 16.5735 16.0206 16.5422 16.0469C16.3939 16.1521 16.5838 16.2572 16.477 16.4824C16.3702 16.7076 16.2942 16.908 16.1375 16.7223C15.7303 16.2388 15.1386 16.4773 15.0457 15.9393C14.9957 15.6477 14.7533 15.6756 14.5506 15.5104C14.3469 15.3462 14.2336 15.2569 14.1993 15.3758C14.1692 15.48 14.837 16.0287 14.8846 16.1694C14.9554 16.3782 14.6846 16.5625 14.4862 16.6119C14.2889 16.661 14.2018 16.4966 14.0074 16.2868C13.8131 16.0769 13.728 15.9276 13.7146 16.0923C13.695 16.33 13.8991 16.6794 14.0971 16.8099C14.2659 16.9206 14.455 16.9708 14.4004 17.1505C14.3458 17.3303 14.3995 17.2288 14.2102 17.4227C14.021 17.6166 13.9848 17.6801 13.9985 17.9492C14.0122 18.2193 13.9444 18.2348 13.9037 18.4591C13.863 18.6835 13.7692 18.4894 13.6873 18.8187M11.4461 14.0545C11.4556 14.0429 11.4641 14.0332 11.4678 14.0284C11.543 13.9394 11.6929 13.9204 11.7966 13.9037C11.9005 13.8852 12.0388 13.9396 12.0556 14.011C12.0724 14.0824 11.7952 14.2127 11.7445 14.2615C11.6004 14.3989 11.3748 14.6789 11.243 14.7094C11.2068 14.7188 11.1686 14.7146 11.1352 14.6976C11.2211 14.4747 11.3251 14.2595 11.4461 14.0545M11.66 13.6138C11.714 13.5317 11.8934 13.2973 11.9152 13.2678C11.9612 13.2062 12.0528 13.1937 12.1171 13.1818C12.1814 13.17 12.2654 13.2062 12.2756 13.2557C12.2791 13.3506 12.2599 13.4449 12.2196 13.5304C12.1319 13.6249 11.9032 13.7583 11.7772 13.7373C11.6798 13.7218 11.6416 13.6437 11.6601 13.6141M24.9225 16.1675C24.2104 15.1325 20.9892 11 15.0005 11C9.01182 11 5.79076 15.1325 5.07749 16.1675C5.04716 16.2119 5.02102 16.2501 4.99976 16.2826C5.02102 16.3159 5.04716 16.354 5.07749 16.3989C5.79082 17.4334 9.01129 21.5661 15.0006 21.5661C20.9898 21.5661 24.2105 17.4336 24.9226 16.3989C24.9538 16.3541 24.9795 16.316 24.9998 16.2826C24.9795 16.2501 24.9537 16.2117 24.9225 16.1675Z" fill="white"/>
  </g>
  <path d="M0 0H15V10C15 12.2091 13.2091 14 11 14H0V0Z" fill="#407D3C"/>
  <path d="M5.12891 3V11H3.4375V4.60547H3.39063L1.55859 5.75391V4.25391L3.53906 3H5.12891ZM9.9873 11.1094C9.40397 11.1094 8.88444 11.0091 8.42871 10.8086C7.97559 10.6055 7.61751 10.3268 7.35449 9.97266C7.09408 9.61589 6.95996 9.20443 6.95215 8.73828H8.65527C8.66569 8.93359 8.72949 9.10547 8.84668 9.25391C8.96647 9.39974 9.12533 9.51302 9.32324 9.59375C9.52116 9.67448 9.74382 9.71484 9.99121 9.71484C10.249 9.71484 10.4769 9.66927 10.6748 9.57812C10.8727 9.48698 11.0277 9.36068 11.1396 9.19922C11.2516 9.03776 11.3076 8.85156 11.3076 8.64062C11.3076 8.42708 11.2477 8.23828 11.1279 8.07422C11.0107 7.90755 10.8415 7.77734 10.6201 7.68359C10.4014 7.58984 10.141 7.54297 9.83887 7.54297H9.09277V6.30078H9.83887C10.0941 6.30078 10.3193 6.25651 10.5146 6.16797C10.7126 6.07943 10.8662 5.95703 10.9756 5.80078C11.085 5.64193 11.1396 5.45703 11.1396 5.24609C11.1396 5.04557 11.0915 4.86979 10.9951 4.71875C10.9014 4.5651 10.7686 4.44531 10.5967 4.35937C10.4274 4.27344 10.2295 4.23047 10.0029 4.23047C9.77376 4.23047 9.56413 4.27214 9.37402 4.35547C9.18392 4.4362 9.03158 4.55208 8.91699 4.70312C8.80241 4.85417 8.74121 5.03125 8.7334 5.23437H7.1123C7.12012 4.77344 7.25163 4.36719 7.50684 4.01562C7.76204 3.66406 8.10579 3.38932 8.53809 3.19141C8.97298 2.99089 9.46387 2.89062 10.0107 2.89062C10.5628 2.89062 11.0459 2.99089 11.46 3.19141C11.874 3.39193 12.1956 3.66276 12.4248 4.00391C12.6566 4.34245 12.7712 4.72266 12.7686 5.14453C12.7712 5.59245 12.6318 5.96615 12.3506 6.26562C12.0719 6.5651 11.7087 6.75521 11.2607 6.83594V6.89844C11.8493 6.97396 12.2972 7.17839 12.6045 7.51172C12.9144 7.84245 13.068 8.25651 13.0654 8.75391C13.068 9.20964 12.9365 9.61458 12.6709 9.96875C12.4079 10.3229 12.0446 10.6016 11.5811 10.8047C11.1175 11.0078 10.5863 11.1094 9.9873 11.1094Z" fill="white"/>
</svg>
