<svg width="30" height="30" viewBox="0 0 30 30" fill="none" xmlns="http://www.w3.org/2000/svg">
  <path d="M0 2C0 0.89543 0.895431 0 2 0H28C29.1046 0 30 0.895431 30 2V28C30 29.1046 29.1046 30 28 30H2C0.89543 30 0 29.1046 0 28V2Z" fill="#E6331F"/>
  <path d="M13.558 18.3541C12.2317 18.3541 10.9597 17.8323 10.0218 16.9035C9.0839 15.9747 8.557 14.7151 8.557 13.4016C8.557 12.0881 9.0839 10.8284 10.0218 9.89965C10.9597 8.97088 12.2317 8.44911 13.558 8.44911C16.3216 8.44911 18.5697 10.6708 18.5697 13.4017C18.5697 16.1326 16.3216 18.3541 13.558 18.3541ZM23.1822 4H17.9841C17.9666 4.00011 17.9499 4.00704 17.9376 4.01927C17.9252 4.0315 17.9182 4.04806 17.9181 4.06536V5.77243C17.9181 5.78979 17.9251 5.80644 17.9374 5.81875C17.9498 5.83106 17.9666 5.83804 17.9841 5.83817H20.0539L17.7558 8.10978C16.559 7.17785 15.0804 6.67177 13.558 6.67303C9.80435 6.67303 6.74976 9.69126 6.74976 13.4015C6.74976 16.8173 9.33938 19.644 12.6795 20.0719V22.0389H10.629C10.6203 22.0387 10.6116 22.0402 10.6035 22.0434C10.5954 22.0465 10.588 22.0513 10.5818 22.0573C10.5755 22.0634 10.5705 22.0706 10.5671 22.0785C10.5638 22.0865 10.562 22.095 10.562 22.1037V23.9337C10.562 23.9424 10.5637 23.951 10.5671 23.959C10.5705 23.967 10.5754 23.9742 10.5817 23.9803C10.5879 23.9864 10.5953 23.9912 10.6034 23.9944C10.6116 23.9976 10.6203 23.9992 10.629 23.9991H12.6795V25.9346C12.6795 25.952 12.6864 25.9686 12.6988 25.9809C12.7112 25.9931 12.728 26 12.7455 26H14.5961C14.6048 26.0001 14.6135 25.9984 14.6216 25.9952C14.6297 25.9919 14.637 25.9871 14.6433 25.9811C14.6495 25.975 14.6544 25.9678 14.6578 25.9598C14.6613 25.9518 14.663 25.9433 14.6631 25.9346V23.9989H16.7133C16.7308 23.9989 16.7476 23.992 16.76 23.9798C16.7723 23.9675 16.7793 23.9509 16.7793 23.9336V22.1035C16.7793 22.095 16.7775 22.0865 16.7742 22.0786C16.7709 22.0707 16.766 22.0636 16.7599 22.0575C16.7537 22.0515 16.7465 22.0468 16.7385 22.0435C16.7305 22.0403 16.7219 22.0386 16.7133 22.0387H14.6631V20.0398C17.8934 19.5159 20.3666 16.7392 20.3666 13.4014C20.3676 12.0148 19.933 10.6623 19.1231 9.53124L21.3887 7.29203V9.20275C21.389 9.22015 21.3961 9.23675 21.4087 9.24893C21.4212 9.26111 21.4381 9.26789 21.4557 9.26778H23.1827C23.2004 9.268 23.2174 9.26128 23.23 9.24909C23.2427 9.2369 23.25 9.22024 23.2502 9.20275V4.06552C23.25 4.04799 23.2428 4.03126 23.2301 4.01901C23.2175 4.00675 23.2004 3.99997 23.1827 4.00016" fill="white"/>
  <path d="M16.6232 11.5332H10.5681C10.5516 11.5324 10.5353 11.5381 10.523 11.5491C10.5106 11.56 10.5031 11.5754 10.5021 11.5918V13.0435C10.5024 13.0517 10.5044 13.0598 10.5079 13.0673C10.5114 13.0747 10.5163 13.0814 10.5225 13.087C10.5286 13.0925 10.5358 13.0968 10.5437 13.0995C10.5515 13.1023 10.5598 13.1034 10.5681 13.1029H16.6232C16.6316 13.1035 16.64 13.1024 16.6479 13.0997C16.6558 13.0971 16.6632 13.0928 16.6694 13.0873C16.6756 13.0817 16.6807 13.075 16.6843 13.0675C16.6878 13.0599 16.6899 13.0518 16.6902 13.0435V11.5918C16.6891 11.5752 16.6815 11.5598 16.6689 11.5488C16.6563 11.5378 16.6399 11.5322 16.6232 11.5332Z" fill="white"/>
  <path d="M16.6232 14.1068H10.5681C10.5513 14.1062 10.5349 14.1122 10.5225 14.1236C10.5101 14.135 10.5028 14.1507 10.5021 14.1674V15.6189C10.5026 15.627 10.5046 15.635 10.5082 15.6424C10.5117 15.6497 10.5167 15.6563 10.5228 15.6618C10.529 15.6672 10.5361 15.6714 10.5439 15.6741C10.5517 15.6768 10.5599 15.6779 10.5681 15.6774H16.6232C16.6315 15.678 16.6398 15.6769 16.6477 15.6743C16.6555 15.6716 16.6628 15.6675 16.669 15.662C16.6753 15.6566 16.6803 15.65 16.684 15.6426C16.6876 15.6352 16.6897 15.6271 16.6902 15.6189V14.1674C16.6898 14.1591 16.6878 14.1509 16.6842 14.1433C16.6806 14.1358 16.6756 14.129 16.6694 14.1234C16.6632 14.1177 16.6559 14.1134 16.648 14.1105C16.64 14.1077 16.6316 14.1064 16.6232 14.1068Z" fill="white"/>
  <path d="M0 0H11V8C11 10.2091 9.20914 12 7 12H0V0Z" fill="#E6331F"/>
  <path d="M5.57031 10.1094C5.01823 10.1094 4.52604 10.0078 4.09375 9.80469C3.66406 9.60156 3.32292 9.32161 3.07031 8.96484C2.81771 8.60807 2.6862 8.19922 2.67578 7.73828H4.31641C4.33464 8.04818 4.46484 8.29948 4.70703 8.49219C4.94922 8.6849 5.23698 8.78125 5.57031 8.78125C5.83594 8.78125 6.07031 8.72266 6.27344 8.60547C6.47917 8.48568 6.63932 8.32031 6.75391 8.10938C6.87109 7.89583 6.92969 7.65104 6.92969 7.375C6.92969 7.09375 6.86979 6.84635 6.75 6.63281C6.63281 6.41927 6.47005 6.2526 6.26172 6.13281C6.05339 6.01302 5.8151 5.95182 5.54688 5.94922C5.3125 5.94922 5.08464 5.9974 4.86328 6.09375C4.64453 6.1901 4.47396 6.32161 4.35156 6.48828L2.84766 6.21875L3.22656 2H8.11719V3.38281H4.62109L4.41406 5.38672H4.46094C4.60156 5.1888 4.8138 5.02474 5.09766 4.89453C5.38151 4.76432 5.69922 4.69922 6.05078 4.69922C6.53255 4.69922 6.96224 4.8125 7.33984 5.03906C7.71745 5.26562 8.01562 5.57682 8.23438 5.97266C8.45313 6.36589 8.5612 6.81901 8.55859 7.33203C8.5612 7.87109 8.4362 8.35026 8.18359 8.76953C7.93359 9.1862 7.58333 9.51432 7.13281 9.75391C6.6849 9.99089 6.16406 10.1094 5.57031 10.1094Z" fill="white"/>
</svg>
