<svg width="30" height="30" viewBox="0 0 30 30" fill="none" xmlns="http://www.w3.org/2000/svg">
  <path d="M0 2C0 0.89543 0.895431 0 2 0H28C29.1046 0 30 0.895431 30 2V28C30 29.1046 29.1046 30 28 30H2C0.89543 30 0 29.1046 0 28V2Z" fill="#DA025F"/>
  <g clip-path="url(#clip0_215_12385)">
    <mask id="mask0_215_12385" style="mask-type:luminance" maskUnits="userSpaceOnUse" x="4" y="3" width="22" height="24">
      <path d="M26 3.59265H4V26.4074H26V3.59265Z" fill="white"/>
    </mask>
    <g mask="url(#mask0_215_12385)">
      <path d="M20.2747 15.9165H10.8561C10.8289 15.9165 10.8027 15.9272 10.7835 15.9461C10.7642 15.965 10.7534 15.9907 10.7534 16.0175V18.1173C10.7533 18.1307 10.7559 18.1439 10.761 18.1562C10.7661 18.1685 10.7737 18.1797 10.7832 18.1891C10.7928 18.1986 10.8041 18.206 10.8166 18.2111C10.8292 18.2162 10.8426 18.2188 10.8561 18.2187H20.2747C20.2882 18.2188 20.3017 18.2163 20.3143 18.2112C20.3269 18.2062 20.3383 18.1987 20.348 18.1893C20.3576 18.1799 20.3652 18.1687 20.3704 18.1563C20.3756 18.144 20.3783 18.1307 20.3782 18.1173V16.0175C20.3782 16.0042 20.3755 15.991 20.3703 15.9787C20.3651 15.9664 20.3575 15.9552 20.3478 15.9458C20.3382 15.9364 20.3268 15.929 20.3142 15.9239C20.3017 15.9189 20.2882 15.9164 20.2747 15.9165Z" fill="white"/>
      <path d="M20.3781 12.1089C20.3781 12.0956 20.3753 12.0825 20.3701 12.0702C20.3648 12.058 20.3572 12.0469 20.3476 12.0375C20.3379 12.0282 20.3265 12.0208 20.314 12.0158C20.3015 12.0108 20.2881 12.0083 20.2746 12.0084H10.8561C10.8289 12.0084 10.8029 12.019 10.7837 12.0378C10.7644 12.0567 10.7536 12.0822 10.7534 12.1089V14.2099C10.7536 14.2366 10.7644 14.2622 10.7837 14.281C10.8029 14.2999 10.8289 14.3104 10.8561 14.3104H20.2747C20.2882 14.3105 20.3016 14.308 20.3141 14.303C20.3266 14.298 20.338 14.2907 20.3476 14.2813C20.3573 14.272 20.3649 14.2609 20.3702 14.2486C20.3754 14.2364 20.3781 14.2232 20.3782 14.2099L20.3781 12.1089Z" fill="white"/>
      <path d="M25.6785 13.0547C25.3124 11.5817 24.6342 10.2015 23.6883 9.00442L23.6676 9.02037C23.9696 9.46729 24.2347 9.93729 24.4605 10.4259C25.7138 12.7118 26.0059 15.3902 25.274 17.8857C23.7494 23.1005 18.2766 26.0948 13.0494 24.5743C10.9297 23.9573 9.08367 22.6545 7.81014 20.8767C7.01089 19.8514 6.43706 18.6737 6.12509 17.4185C4.88436 12.4429 7.92088 7.40525 12.9092 6.1673C15.9944 5.40155 19.098 6.27467 21.3145 8.22583C21.3343 8.24337 21.3534 8.26133 21.3737 8.27887C21.4335 8.32679 21.5079 8.35375 21.5851 8.3555C21.671 8.35437 21.7536 8.32243 21.8172 8.26566L21.8544 8.22908L23.0358 7.06531L23.1134 6.98896C23.1656 6.92446 23.1924 6.84358 23.1888 6.76121C23.1852 6.67883 23.1515 6.60051 23.0938 6.54065C23.0814 6.52939 23.0684 6.51821 23.056 6.50716C20.33 4.07665 16.4902 2.9854 12.6748 3.93226C6.54705 5.45343 2.81651 11.6415 4.34096 17.7538C4.94676 20.2078 6.36586 22.3935 8.37429 23.9659C9.66645 25.0285 11.196 25.7749 12.8378 26.144C14.4795 26.513 16.1867 26.4942 17.8196 26.0891C23.5983 24.6548 27.1166 18.8192 25.6788 13.0545" fill="white"/>
    </g>
  </g>
  <path d="M0 0H15V10C15 12.2091 13.2091 14 11 14H0V0Z" fill="#DA025F"/>
  <path d="M5.12891 3V11H3.4375V4.60547H3.39063L1.55859 5.75391V4.25391L3.53906 3H5.12891ZM10.167 11.1758C9.49512 11.1732 8.91699 11.0078 8.43262 10.6797C7.95085 10.3516 7.57975 9.8763 7.31934 9.25391C7.06152 8.63151 6.93392 7.88281 6.93652 7.00781C6.93652 6.13542 7.06543 5.39193 7.32324 4.77734C7.58366 4.16276 7.95475 3.69531 8.43652 3.375C8.9209 3.05208 9.49772 2.89062 10.167 2.89062C10.8363 2.89062 11.4118 3.05208 11.8936 3.375C12.3779 3.69792 12.7503 4.16667 13.0107 4.78125C13.2712 5.39323 13.4001 6.13542 13.3975 7.00781C13.3975 7.88542 13.2673 8.63542 13.0068 9.25781C12.749 9.88021 12.3792 10.3555 11.8975 10.6836C11.4157 11.0117 10.8389 11.1758 10.167 11.1758ZM10.167 9.77344C10.6253 9.77344 10.9912 9.54297 11.2646 9.08203C11.5381 8.62109 11.6735 7.92969 11.6709 7.00781C11.6709 6.40104 11.6084 5.89583 11.4834 5.49219C11.361 5.08854 11.1865 4.78516 10.96 4.58203C10.736 4.37891 10.4717 4.27734 10.167 4.27734C9.71126 4.27734 9.34668 4.50521 9.07324 4.96094C8.7998 5.41667 8.66178 6.09896 8.65918 7.00781C8.65918 7.6224 8.72038 8.13542 8.84277 8.54687C8.96777 8.95573 9.14355 9.26302 9.37012 9.46875C9.59668 9.67187 9.8623 9.77344 10.167 9.77344Z" fill="white"/>
  <defs>
    <clipPath id="clip0_215_12385">
      <rect width="22" height="22.8148" fill="white" transform="translate(4 3.59265)"/>
    </clipPath>
  </defs>
</svg>
