<svg width="30" height="30" viewBox="0 0 30 30" fill="none" xmlns="http://www.w3.org/2000/svg">
  <path d="M0 2C0 0.89543 0.895431 0 2 0H28C29.1046 0 30 0.895431 30 2V28C30 29.1046 29.1046 30 28 30H2C0.89543 30 0 29.1046 0 28V2Z" fill="#EB611E"/>
  <g clip-path="url(#clip0_215_12386)">
    <mask id="mask0_215_12386" style="mask-type:luminance" maskUnits="userSpaceOnUse" x="4" y="4" width="22" height="22">
      <path d="M26 4H4V26H26V4Z" fill="white"/>
    </mask>
    <g mask="url(#mask0_215_12386)">
      <path d="M25.2976 22.4085L20.675 25.0499V19.7663L25.2976 17.1237V22.4085ZM10.0267 25.0499V20.1679L14.2972 22.6094L10.0267 25.0499ZM9.32427 25.0499L4.70236 22.4085V17.1237L9.32427 19.7663V25.0499ZM14.2972 10.4347L10.0266 12.8764V7.99374L14.2972 10.4347ZM19.9723 12.8761L15.7024 10.4347L19.9723 7.99388V12.8761ZM15.7024 16.5217L20.3236 13.8807L24.946 16.5217L20.3236 19.1641L15.7024 16.5219V16.5217ZM14.6486 15.9193L10.3781 13.4787L14.6486 11.037V15.9193ZM19.6206 13.4787L15.3505 15.9191V11.0369L19.6206 13.4787ZM14.6486 22.0072L10.3778 19.5657L14.6486 17.124V22.0072V22.0072ZM25.8246 16.2203L20.6752 13.278V7.39113C20.675 7.32998 20.6587 7.26995 20.6278 7.21709C20.5969 7.16422 20.5525 7.1204 20.4992 7.09004L15.1752 4.04663C15.1217 4.01616 15.0612 4.00012 14.9996 4.00012C14.9381 4.00012 14.8775 4.01616 14.8241 4.04663L9.49961 7.09004C9.44633 7.12045 9.40204 7.16429 9.37122 7.21715C9.3404 7.27001 9.32413 7.33002 9.32405 7.39113V13.2778L4.17531 16.22C4.12201 16.2505 4.07771 16.2944 4.04688 16.3473C4.01606 16.4002 3.9998 16.4602 3.99976 16.5214V22.6093C3.99978 22.6705 4.01603 22.7305 4.04686 22.7834C4.07769 22.8362 4.122 22.8801 4.17531 22.9104L9.49932 25.9534C9.55274 25.984 9.6133 26.0001 9.67495 26.0001C9.73659 26.0001 9.79716 25.984 9.85058 25.9534L14.9993 23.0109L20.1473 25.9534C20.2007 25.984 20.2612 26.0001 20.3228 26.0001C20.3845 26.0001 20.445 25.984 20.4984 25.9534L25.8236 22.9104C25.8769 22.8801 25.9212 22.8362 25.9521 22.7834C25.9829 22.7305 25.9992 22.6705 25.9992 22.6093V16.5214C25.9991 16.4602 25.9829 16.4002 25.952 16.3473C25.9212 16.2944 25.8769 16.2505 25.8236 16.22L25.8246 16.2203Z" fill="white"/>
    </g>
  </g>
  <path d="M0 0H11V8C11 10.2091 9.20914 12 7 12H0V0Z" fill="#EB611E"/>
  <path d="M5.54297 1.89062C5.95443 1.89062 6.35026 1.95964 6.73047 2.09766C7.11328 2.23568 7.45443 2.45573 7.75391 2.75781C8.05599 3.0599 8.29427 3.46094 8.46875 3.96094C8.64583 4.45833 8.73568 5.06901 8.73828 5.79297C8.73828 6.47266 8.66146 7.07943 8.50781 7.61328C8.35677 8.14453 8.13932 8.59635 7.85547 8.96875C7.57161 9.34115 7.22917 9.625 6.82813 9.82031C6.42708 10.013 5.97917 10.1094 5.48438 10.1094C4.95052 10.1094 4.47917 10.0065 4.07031 9.80078C3.66146 9.59245 3.33203 9.3099 3.08203 8.95312C2.83464 8.59375 2.6849 8.1901 2.63281 7.74219H4.30078C4.36589 8.03385 4.5026 8.26042 4.71094 8.42188C4.91927 8.58073 5.17708 8.66016 5.48438 8.66016C6.00521 8.66016 6.40104 8.43359 6.67188 7.98047C6.94271 7.52474 7.07943 6.90104 7.08203 6.10937H7.02734C6.90755 6.34375 6.74609 6.54557 6.54297 6.71484C6.33984 6.88151 6.10677 7.01042 5.84375 7.10156C5.58333 7.19271 5.30599 7.23828 5.01172 7.23828C4.54036 7.23828 4.11979 7.1276 3.75 6.90625C3.38021 6.6849 3.08854 6.38021 2.875 5.99219C2.66146 5.60417 2.55469 5.16146 2.55469 4.66406C2.55208 4.1276 2.67578 3.64974 2.92578 3.23047C3.17578 2.8112 3.52474 2.48307 3.97266 2.24609C4.42318 2.00651 4.94661 1.88802 5.54297 1.89062ZM5.55469 3.21875C5.29167 3.21875 5.05729 3.28125 4.85156 3.40625C4.64844 3.53125 4.48698 3.69922 4.36719 3.91016C4.25 4.12109 4.19271 4.35677 4.19531 4.61719C4.19531 4.88021 4.2526 5.11719 4.36719 5.32812C4.48438 5.53646 4.64323 5.70312 4.84375 5.82812C5.04688 5.95052 5.27865 6.01172 5.53906 6.01172C5.73438 6.01172 5.91536 5.97526 6.08203 5.90234C6.2487 5.82943 6.39323 5.72917 6.51563 5.60156C6.64063 5.47135 6.73828 5.32161 6.80859 5.15234C6.87891 4.98307 6.91406 4.80339 6.91406 4.61328C6.91146 4.36068 6.85156 4.12891 6.73438 3.91797C6.61719 3.70703 6.45573 3.53776 6.25 3.41016C6.04427 3.28255 5.8125 3.21875 5.55469 3.21875Z" fill="white"/>
  <defs>
    <clipPath id="clip0_215_12386">
      <rect width="22" height="22" fill="white" transform="translate(4 4)"/>
    </clipPath>
  </defs>
</svg>
