<svg width="30" height="30" viewBox="0 0 30 30" fill="none" xmlns="http://www.w3.org/2000/svg">
  <path d="M0 2C0 0.89543 0.895431 0 2 0H28C29.1046 0 30 0.895431 30 2V28C30 29.1046 29.1046 30 28 30H2C0.89543 30 0 29.1046 0 28V2Z" fill="#2496D3"/>
  <g clip-path="url(#clip0_215_12383)">
    <mask id="mask0_215_12383" style="mask-type:luminance" maskUnits="userSpaceOnUse" x="5" y="6" width="20" height="18">
      <path d="M25 6.5094H5V23.4905H25V6.5094Z" fill="white"/>
    </mask>
    <g mask="url(#mask0_215_12383)">
      <path d="M19.6203 19.3742C19.3766 19.3746 19.1382 19.3018 18.9354 19.1652C18.7326 19.0286 18.5744 18.8343 18.4809 18.6068C18.3874 18.3793 18.3627 18.1288 18.41 17.8872C18.4573 17.6455 18.5745 17.4234 18.7467 17.2491C18.9188 17.0747 19.1383 16.9559 19.3773 16.9077C19.6163 16.8594 19.8641 16.8839 20.0893 16.978C20.3146 17.0721 20.5071 17.2316 20.6427 17.4364C20.7782 17.6411 20.8506 17.8819 20.8507 18.1283C20.8509 18.2918 20.8193 18.4537 20.7576 18.6048C20.6958 18.7559 20.6052 18.8933 20.491 19.009C20.3767 19.1247 20.241 19.2165 20.0916 19.2792C19.9422 19.3418 19.7821 19.3741 19.6203 19.3742ZM24.9578 18.7938C24.4929 18.157 21.4897 14.2762 17.2792 14.2762C13.6227 14.2762 9.71132 17.6375 9.71132 17.6375C9.71132 17.6375 8.24185 14.5895 5.23639 14.2967C5.21852 14.2967 5.19979 14.2926 5.17985 14.2926H5.16119C5.13062 14.2946 5.10188 14.3081 5.08064 14.3304C5.05939 14.3527 5.04717 14.3822 5.04639 14.4132C5.05535 14.4529 5.07129 14.4906 5.09345 14.5246C5.48105 15.1764 6.46952 17.0313 6.46952 18.8839C6.46952 20.7427 5.47519 22.6023 5.09139 23.251L5.06532 23.2925C5.05413 23.31 5.04767 23.3302 5.04658 23.351C5.04549 23.3719 5.04982 23.3926 5.05912 23.4113C5.06843 23.4299 5.0824 23.4457 5.09964 23.4572C5.11687 23.4687 5.13678 23.4754 5.15739 23.4767L5.18999 23.474C5.20058 23.4744 5.21119 23.4734 5.22152 23.471C8.23652 23.1862 9.71132 20.1287 9.71132 20.1287C9.71132 20.1287 13.6227 23.4903 17.2792 23.4903C21.4897 23.4903 24.4929 19.6093 24.9578 18.9741C24.9707 18.9566 24.9809 18.9417 24.9901 18.9304C24.9963 18.9155 24.9997 18.8995 25 18.8833C24.9997 18.8673 24.9964 18.8515 24.9901 18.8368C24.9809 18.8238 24.9706 18.8091 24.9578 18.7932" fill="white"/>
      <path d="M5.14402 7.15327C5.13652 7.15066 5.12877 7.14888 5.12089 7.14794C5.10491 7.14804 5.08911 7.15132 5.07438 7.1576C5.05966 7.16387 5.0463 7.17302 5.03507 7.18452C5.02385 7.19601 5.01498 7.20963 5.00896 7.2246C5.00295 7.23956 4.99991 7.25558 5.00002 7.27173V8.12079C4.9997 8.13713 5.00265 8.15336 5.00868 8.16852C5.01472 8.18368 5.02373 8.19745 5.03516 8.209C7.06776 9.99882 8.99209 8.32167 9.43769 7.87881C9.44569 7.86506 9.45651 7.85321 9.46942 7.84404C9.48905 7.8303 9.51223 7.82268 9.53609 7.82214C9.56648 7.82193 9.59577 7.83362 9.61782 7.85475C9.61941 7.8569 9.62141 7.85871 9.62369 7.86007C11.9196 10.0808 14.327 8.28204 14.8278 7.86007L14.8772 7.81445C14.8915 7.80786 14.9071 7.80466 14.9228 7.80509C14.9392 7.80455 14.9555 7.80775 14.9706 7.81445L15.0202 7.86007C15.5208 8.28204 17.9282 10.0808 20.2239 7.86007C20.2243 7.859 20.2272 7.85704 20.2283 7.85475C20.2479 7.83582 20.2734 7.8244 20.3005 7.82246C20.3275 7.82052 20.3544 7.82817 20.3765 7.8441C20.3899 7.85337 20.4014 7.86518 20.4104 7.87887C20.8553 8.32193 22.7778 9.99902 24.8122 8.20906C24.8349 8.18547 24.8474 8.15376 24.8471 8.12086V7.2718C24.8474 7.25573 24.8445 7.23976 24.8386 7.22481C24.8328 7.20987 24.824 7.19624 24.8129 7.18473C24.8018 7.17322 24.7886 7.16405 24.7739 7.15775C24.7593 7.15144 24.7436 7.14813 24.7277 7.14801C24.7188 7.14882 24.7101 7.15061 24.7016 7.15334C24.6829 7.16419 24.6634 7.17443 24.6407 7.18548C24.0156 7.50286 22.077 8.25758 20.3172 6.57005C20.3004 6.55428 20.2833 6.53871 20.2659 6.52045C20.2497 6.51327 20.2323 6.50951 20.2146 6.5094C20.2024 6.51014 20.1902 6.51206 20.1783 6.51513C20.1537 6.52477 20.1324 6.5415 20.1172 6.56324C19.5926 6.96843 17.1852 8.62038 15.0412 6.59329L15.0099 6.56223C14.9862 6.53986 14.9553 6.52692 14.9229 6.52578C14.8915 6.5271 14.8616 6.54007 14.839 6.56223L14.8057 6.59329C12.663 8.62038 10.2529 6.96843 9.72916 6.56324C9.71442 6.54145 9.6935 6.52468 9.66916 6.51513C9.6566 6.51207 9.64379 6.51015 9.63089 6.5094C9.61353 6.50982 9.5964 6.51357 9.58042 6.52045C9.56426 6.53801 9.54708 6.55457 9.52896 6.57005C7.76936 8.25758 5.83116 7.50286 5.20569 7.18548C5.18362 7.17443 5.16283 7.16419 5.14389 7.15334" fill="white"/>
      <path d="M9.43808 10.929C9.44653 10.9158 9.45737 10.9044 9.47001 10.8953C9.4896 10.8813 9.51274 10.8733 9.53668 10.8723C9.56744 10.8723 9.59694 10.8846 9.61888 10.9064C9.62038 10.9085 9.62223 10.9103 9.62435 10.9117C11.9197 13.1295 14.3276 11.3318 14.8287 10.9117L14.8779 10.8645C14.8924 10.859 14.9078 10.8564 14.9233 10.8569C14.9397 10.8563 14.9561 10.8589 14.9716 10.8645L15.0208 10.9117C15.5215 11.3318 17.9286 13.1295 20.2247 10.9117C20.2251 10.9102 20.2273 10.9085 20.2289 10.9064C20.2506 10.8846 20.2798 10.8724 20.3103 10.8723C20.3343 10.8731 20.3575 10.8811 20.3769 10.8953C20.3902 10.9043 20.4018 10.9157 20.411 10.929C20.8559 11.3727 22.7782 13.0504 24.8129 11.2587C24.8242 11.2474 24.8331 11.234 24.8392 11.2193C24.8453 11.2045 24.8484 11.1886 24.8484 11.1726V10.3209C24.8485 10.3049 24.8454 10.2891 24.8394 10.2743C24.8334 10.2595 24.8246 10.2461 24.8135 10.2347C24.8023 10.2234 24.7891 10.2144 24.7745 10.2083C24.7599 10.2022 24.7442 10.199 24.7284 10.199C24.7196 10.2 24.7109 10.2017 24.7023 10.2042C24.6836 10.2135 24.6639 10.2244 24.6414 10.2351C24.0169 10.5527 22.0773 11.3057 20.3179 9.62053C20.3015 9.60456 20.284 9.58859 20.2668 9.57154C20.2511 9.56286 20.2333 9.55867 20.2153 9.55941C20.2027 9.55934 20.1902 9.56249 20.179 9.56857C20.1536 9.57533 20.1317 9.59174 20.1179 9.6144C19.5937 10.0187 17.1859 11.6713 15.0417 9.64425L15.0104 9.61251C14.9869 9.59007 14.9557 9.57777 14.9234 9.57821C14.8921 9.57805 14.862 9.59038 14.8395 9.61251L14.8062 9.64425C12.6635 11.6713 10.2534 10.019 9.72968 9.6144C9.71645 9.59202 9.69524 9.57562 9.67041 9.56857C9.6584 9.56253 9.64516 9.5594 9.63175 9.55941C9.61431 9.55894 9.59707 9.56312 9.58175 9.57154C9.56515 9.58859 9.54748 9.60456 9.52961 9.62053C7.76961 11.3058 5.83201 10.5527 5.20655 10.2351C5.18448 10.2242 5.16388 10.2136 5.14494 10.2042C5.13738 10.2018 5.12964 10.2001 5.12181 10.199C5.10594 10.199 5.09021 10.2021 5.07552 10.2082C5.06084 10.2142 5.04749 10.2232 5.03624 10.2345C5.02499 10.2458 5.01606 10.2593 5.00997 10.2741C5.00388 10.2889 5.00074 10.3048 5.00074 10.3209V11.1726C5.00051 11.1885 5.00348 11.2044 5.00948 11.2192C5.01547 11.234 5.02436 11.2474 5.03561 11.2586C7.06841 13.0503 8.99301 11.3726 9.43835 10.9289" fill="white"/>
    </g>
  </g>
  <path d="M0 0H15V10C15 12.2091 13.2091 14 11 14H0V0Z" fill="#2496D3"/>
  <path d="M5.12891 3V11H3.4375V4.60547H3.39063L1.55859 5.75391V4.25391L3.53906 3H5.12891ZM6.90918 9.59375V8.26172L10.249 3H11.3975V4.84375H10.7178L8.6123 8.17578V8.23828H13.3584V9.59375H6.90918ZM10.749 11V9.1875L10.7803 8.59766V3H12.3662V11H10.749Z" fill="white"/>
  <defs>
    <clipPath id="clip0_215_12383">
      <rect width="20" height="16.9811" fill="white" transform="translate(5 6.5094)"/>
    </clipPath>
  </defs>
</svg>
