<svg width="16" height="16" viewBox="0 0 16 16" fill="none" xmlns="http://www.w3.org/2000/svg">
<path d="M5.33335 1.33325C6.43795 1.33325 7.3334 2.2287 7.3334 3.3333C7.3334 4.33176 7.04599 5.51688 7.62623 6.32942L7.74587 6.49696C8.12072 7.02186 8.72601 7.3334 9.37101 7.3334C10.2171 7.3334 10.934 6.69415 11.6656 6.26915C11.9598 6.09828 12.3016 6.00042 12.6665 6.00036C13.7711 6.00036 14.6666 6.89581 14.6666 8.00041C14.6664 9.10485 13.771 10.0005 12.6665 10.0005C12.3015 10.0004 11.9596 9.90235 11.6654 9.73123C10.9339 9.30577 10.217 8.66644 9.37078 8.66644C8.7259 8.66644 8.12072 8.97785 7.74585 9.50258L7.62704 9.66889C7.04643 10.4816 7.33324 11.6677 7.3334 12.6665C7.3334 13.7711 6.43795 14.6666 5.33335 14.6666C4.22875 14.6666 3.3333 13.7711 3.3333 12.6665C3.3334 12.0549 3.6081 11.5079 4.04083 11.1415C4.68739 10.5942 5.56193 10.2647 6.05434 9.57535C6.72775 8.63264 6.72774 7.36621 6.05433 6.4235C5.56193 5.73419 4.68743 5.40479 4.04067 4.85769C3.60796 4.49165 3.3333 3.94502 3.3333 3.3333C3.3333 2.2287 4.22875 1.33325 5.33335 1.33325Z" fill="url(#paint0_linear_11200_198907)"/>
<path d="M10.3335 11.3335C11.0698 11.3335 11.6663 11.9303 11.6665 12.6665C11.6665 13.4029 11.0699 14.0006 10.3335 14.0006C9.59707 14.0006 9.00043 13.4029 9.00043 12.6665C9.00061 11.9303 9.59718 11.3335 10.3335 11.3335Z" fill="url(#paint1_linear_11200_198907)"/>
<path d="M2.66629 6.66639C3.40269 6.66639 4.00031 7.26401 4.00031 8.00041C4.00013 8.73666 3.40258 9.33345 2.66629 9.33345C1.93015 9.33327 1.33343 8.73655 1.33325 8.00041C1.33325 7.26412 1.93004 6.66657 2.66629 6.66639Z" fill="url(#paint2_linear_11200_198907)"/>
<path d="M10.3335 2.00026C11.0699 2.00026 11.6665 2.5969 11.6665 3.3333C11.6665 4.0697 11.0699 4.66634 10.3335 4.66634C9.59707 4.66634 9.00043 4.0697 9.00043 3.3333C9.00043 2.5969 9.59707 2.00026 10.3335 2.00026Z" fill="url(#paint3_linear_11200_198907)"/>
<defs>
<linearGradient id="paint0_linear_11200_198907" x1="6.56659" y1="17.6666" x2="15.549" y2="12.9038" gradientUnits="userSpaceOnUse">
<stop stop-color="#1C64F2"/>
<stop offset="0.908654" stop-color="#16BDCA"/>
</linearGradient>
<linearGradient id="paint1_linear_11200_198907" x1="6.56659" y1="17.6666" x2="15.549" y2="12.9038" gradientUnits="userSpaceOnUse">
<stop stop-color="#1C64F2"/>
<stop offset="0.908654" stop-color="#16BDCA"/>
</linearGradient>
<linearGradient id="paint2_linear_11200_198907" x1="6.56659" y1="17.6666" x2="15.549" y2="12.9038" gradientUnits="userSpaceOnUse">
<stop stop-color="#1C64F2"/>
<stop offset="0.908654" stop-color="#16BDCA"/>
</linearGradient>
<linearGradient id="paint3_linear_11200_198907" x1="6.56659" y1="17.6666" x2="15.549" y2="12.9038" gradientUnits="userSpaceOnUse">
<stop stop-color="#1C64F2"/>
<stop offset="0.908654" stop-color="#16BDCA"/>
</linearGradient>
</defs>
</svg>
