<svg width="36" height="24" viewBox="0 0 36 24" fill="none" xmlns="http://www.w3.org/2000/svg">
<g id="Logo_kd">
<path id="Logo_kd_2" d="M16.0781 4.21777C17.2694 2.51367 19.6308 2.09203 21.3418 3.27832C22.9744 4.41051 23.4327 6.60312 22.4365 8.28223C22.3887 8.36283 22.3387 8.44343 22.2842 8.52148C22.1945 8.6498 22.0973 8.77018 21.9951 8.88379C19.5693 12.4506 19.7254 14.424 22.0625 17.7764C22.1894 17.9231 22.3041 18.0784 22.4053 18.2402C23.1805 19.4802 23.1913 21.1139 22.3018 22.3867C21.1104 24.0907 18.749 24.5125 17.0381 23.3262C15.403 22.1922 14.9459 19.9936 15.9482 18.3135C15.9946 18.2358 16.0431 18.1583 16.0957 18.083C16.1866 17.953 16.2849 17.8308 16.3887 17.7158C18.7935 14.1909 18.6733 12.2801 16.415 8.93555C16.3492 8.86514 16.285 8.79222 16.2246 8.7168C16.1702 8.64133 16.115 8.56823 16.0596 8.49512C16.0032 8.41283 15.9515 8.3278 15.9023 8.24219C15.1851 6.99173 15.2446 5.41064 16.0781 4.21777ZM14.0244 23.5635H12.9248C12.9249 23.3265 12.9844 23.0701 13.1035 22.7949C13.2225 22.5202 13.3584 22.2645 13.5107 22.0273H12.8105C12.6199 22.511 12.3505 22.9212 12.0029 23.2578C11.6551 23.5944 11.1524 23.7627 10.4951 23.7627C9.95241 23.7626 9.46225 23.6133 9.02441 23.3145C8.58613 23.0157 8.24051 22.5842 7.98828 22.0195C7.73581 21.4553 7.60938 20.7933 7.60938 20.0342C7.60941 19.2756 7.73582 18.6164 7.98828 18.0566C8.24049 17.4969 8.58612 17.0673 9.02441 16.7686C9.46219 16.4698 9.9525 16.3204 10.4951 16.3203C11.1237 16.3203 11.6216 16.4864 11.9883 16.8184C12.3549 17.1506 12.6244 17.5634 12.7959 18.0566H13.5244C13.2958 17.7058 13.122 17.3428 13.0029 16.9678C12.8837 16.5932 12.8242 16.0928 12.8242 15.4668V13.6025H14.0244V23.5635ZM32.2129 16.3203C33.0031 16.3203 33.6319 16.4888 34.0986 16.8252C34.5652 17.162 34.8748 17.5824 35.0273 18.085L33.9561 18.498C33.8893 18.2988 33.7895 18.1111 33.6562 17.9355C33.5228 17.7602 33.3346 17.6084 33.0918 17.4805C32.8489 17.3524 32.5514 17.2881 32.1992 17.2881C31.7324 17.2881 31.3745 17.3858 31.127 17.5801C30.8794 17.7747 30.7559 18.0144 30.7559 18.2988C30.756 18.5546 30.8414 18.7587 31.0127 18.9102C31.1841 19.0621 31.5031 19.1811 31.9697 19.2666L32.8564 19.4375C33.4753 19.5797 34.0208 19.8115 34.4922 20.1338C34.9636 20.4564 35.1992 20.9503 35.1992 21.6143C35.1992 22.0412 35.0869 22.4159 34.8633 22.7383C34.6394 23.0609 34.3153 23.3129 33.8916 23.4932C33.4679 23.673 32.9561 23.7627 32.3564 23.7627C31.8421 23.7627 31.37 23.6849 30.9414 23.5283C30.5128 23.3719 30.1559 23.1415 29.8701 22.8379C29.5844 22.5343 29.3939 22.1691 29.2988 21.7422L30.4561 21.3721C30.5131 21.6282 30.618 21.8607 30.7705 22.0693C30.9227 22.2782 31.1317 22.447 31.3984 22.5752C31.6649 22.7031 31.9891 22.7666 32.3701 22.7666C32.8845 22.7666 33.2802 22.6743 33.5566 22.4893C33.8325 22.3044 33.9707 22.0459 33.9707 21.7139C33.9707 21.4293 33.8677 21.1948 33.6631 21.0098C33.4582 20.825 33.1227 20.6848 32.6562 20.5898L31.7705 20.4189C31.3324 20.3243 30.9558 20.2056 30.6416 20.0635C30.3273 19.9211 30.0721 19.7146 29.877 19.4443C29.6816 19.174 29.584 18.8296 29.584 18.4121C29.584 18.0137 29.7011 17.6558 29.9346 17.3379C30.1679 17.0202 30.4867 16.7712 30.8916 16.5908C31.2962 16.4108 31.7366 16.3203 32.2129 16.3203ZM26.2266 16.5195H28.1836V17.5303H26.2266V21.7139C26.2266 21.989 26.2934 22.1925 26.4268 22.3252C26.56 22.4581 26.7646 22.5254 27.041 22.5254H28.4414V23.5635H26.8408C26.4409 23.5635 26.1054 23.4972 25.834 23.3643C25.5626 23.2315 25.3599 23.0375 25.2266 22.7812C25.0931 22.5251 25.0264 22.2025 25.0264 21.8135V17.5303H23.3691V16.5195H25.0264V14.3418H26.2266V16.5195ZM21.0576 17.5059C21.1586 17.5849 21.2565 17.671 21.3496 17.7637C22.6163 19.0255 22.6163 21.0721 21.3496 22.334C20.2618 23.417 18.5935 23.5698 17.3418 22.793C18.6148 23.7891 20.4642 23.7037 21.6377 22.5352C22.9044 21.2733 22.9044 19.2267 21.6377 17.9648C21.4588 17.7867 21.2635 17.6337 21.0576 17.5059ZM10.8525 17.3594C10.4619 17.3594 10.1164 17.4465 9.81641 17.6221C9.51645 17.7977 9.28373 18.0851 9.11719 18.4834C8.95045 18.8818 8.86722 19.3989 8.86719 20.0342C8.86719 20.6602 8.95268 21.1728 9.12402 21.5713C9.29551 21.9696 9.52889 22.2613 9.82422 22.4463C10.1193 22.6313 10.4619 22.7246 10.8525 22.7246C11.2525 22.7246 11.6032 22.625 11.9033 22.4258C12.2032 22.2265 12.4409 21.9247 12.6172 21.5215C12.7933 21.1184 12.8818 20.6226 12.8818 20.0342C12.8818 19.4463 12.7932 18.951 12.6172 18.5479C12.441 18.145 12.2031 17.8458 11.9033 17.6514C11.6032 17.4569 11.2525 17.3594 10.8525 17.3594ZM1.2002 4.26953C1.2002 4.81988 1.15489 5.23489 1.06445 5.51465C0.9739 5.79454 0.790681 6.06754 0.514648 6.33301L0.928711 6.74609L4.97266 2.91797H6.55859L3.40625 5.83398L6.84375 9.96191H5.27246L2.54492 6.62012L1.2002 7.8584V9.96191H0V0H1.2002V4.26953ZM11.5879 2.71875C12.1495 2.71881 12.616 2.83003 12.9873 3.05273C13.3588 3.27581 13.6332 3.58908 13.8096 3.99219C13.9856 4.39553 14.0732 4.86259 14.0732 5.39355V9.96191H12.8594V5.67871C12.8594 5.03373 12.7183 4.55441 12.4375 4.24121C12.1564 3.92822 11.7635 3.77148 11.2588 3.77148C10.6873 3.77149 10.2562 3.94276 9.96582 4.28418C9.67524 4.62572 9.48902 5.01198 9.4082 5.44336C9.32718 5.87529 9.28711 6.34308 9.28711 6.8457V9.96191H8.08691V2.91797H9.24414C9.24408 3.14554 9.18427 3.40642 9.06543 3.7002C8.94621 3.99436 8.79607 4.28361 8.61523 4.56836H9.28711C9.42994 4.0941 9.69439 3.66747 10.0801 3.28809C10.4659 2.90861 10.9687 2.71875 11.5879 2.71875ZM26.1611 2.91797H28.1182V3.92773H26.1611V8.1123C26.1612 8.38745 26.2279 8.59093 26.3613 8.72363C26.4946 8.8566 26.6992 8.92285 26.9756 8.92285H28.376V9.96191H26.7754C26.3755 9.96191 26.04 9.89555 25.7686 9.7627C25.4973 9.62999 25.2944 9.43581 25.1611 9.17969C25.0277 8.92362 24.961 8.6009 24.9609 8.21191V3.92773H23.3037V2.91797H24.9609V0.740234H26.1611V2.91797ZM21.042 3.76074C19.769 2.76446 17.9196 2.84998 16.7461 4.01855C15.4794 5.28044 15.4793 7.32702 16.7461 8.58887C16.925 8.76705 17.1203 8.92002 17.3262 9.04785C17.2252 8.96877 17.1273 8.88275 17.0342 8.79004C15.7674 7.52819 15.7674 5.48162 17.0342 4.21973C18.122 3.13664 19.7903 2.98381 21.042 3.76074Z" fill="#111928"/>
</g>
</svg>
