<svg width="40" height="130" viewBox="0 0 40 130" fill="none" xmlns="http://www.w3.org/2000/svg">
	<path
		fill-rule="evenodd"
		clip-rule="evenodd"
		d="M7.36842 90H32.6316C36.701 90 40 93.299 40 97.3684V122.632C40 126.701 36.701 130 32.6316 130H7.36842C3.29895 130 0 126.701 0 122.632V97.3684C0 93.299 3.29895 90 7.36842 90ZM11.7987 110.652C11.7601 110.436 11.7416 110.222 11.7417 110.01C11.7408 108.376 12.8538 106.914 14.4663 106.504C14.5507 106.483 14.6359 106.463 14.7229 106.447C14.8731 106.42 15.0226 106.404 15.1711 106.397C19.1936 105.629 20.4104 104.249 21.1545 100.448C21.1578 100.356 21.1641 100.263 21.1745 100.171C21.189 100.083 21.2017 99.9957 21.2139 99.9084C21.2316 99.8143 21.2533 99.7215 21.2782 99.6301C21.6424 98.2947 22.7575 97.2607 24.1325 97.0145C26.0967 96.6628 27.9808 97.9746 28.3325 99.9387C28.6681 101.813 27.4886 103.613 25.6736 104.08C25.5864 104.102 25.4982 104.123 25.4082 104.139C25.26 104.165 25.1124 104.181 24.9657 104.189C20.9866 104.954 19.7196 106.356 19.0149 110.034C19.7907 113.889 21.1884 115.076 24.9223 115.807C25.0147 115.811 25.1071 115.817 25.1992 115.827C25.2874 115.842 25.3745 115.855 25.4618 115.867C25.5559 115.885 25.6487 115.906 25.7401 115.931C27.0755 116.295 28.1095 117.41 28.3557 118.785C28.7074 120.75 27.3956 122.634 25.4315 122.985C23.5574 123.321 21.7572 122.142 21.2905 120.327C21.268 120.239 21.2476 120.151 21.2315 120.061C21.205 119.913 21.189 119.765 21.181 119.619C20.3992 115.553 18.9531 114.319 15.0936 113.623C14.9079 113.609 14.7252 113.581 14.5467 113.539C13.1792 113.221 12.0614 112.119 11.7987 110.652Z"
		fill="url(#paint0_linear_3197_56090)"
	/>
	<path
		fill-rule="evenodd"
		clip-rule="evenodd"
		d="M7.36842 46H32.6316C36.701 46 40 49.299 40 53.3684V78.6316C40 82.701 36.701 86 32.6316 86H7.36842C3.29895 86 0 82.701 0 78.6316V53.3684C0 49.299 3.29895 46 7.36842 46ZM11.7216 66.6516C11.683 66.4361 11.6644 66.2216 11.6646 66.01C11.6636 64.3764 12.7766 62.9143 14.3891 62.504C14.4735 62.4825 14.5587 62.4629 14.6457 62.4473C14.7959 62.4204 14.9455 62.4044 15.094 62.3965C19.1165 61.6289 20.3333 60.2488 21.0774 56.4479C21.0807 56.3555 21.087 56.2631 21.0974 56.171C21.1119 56.0828 21.1246 55.9957 21.1368 55.9084C21.1545 55.8143 21.1762 55.7215 21.2011 55.6301C21.5653 54.2947 22.6803 53.2607 24.0553 53.0145C26.0195 52.6628 27.9037 53.9746 28.2554 55.9387C28.591 57.8128 27.4115 59.613 25.5965 60.0797C25.5093 60.1022 25.421 60.1226 25.3311 60.1387C25.1828 60.1652 25.0353 60.1812 24.8886 60.1892C20.9095 60.9544 19.6424 62.3561 18.9377 66.0341C19.7136 69.8893 21.1112 71.0765 24.8452 71.8075C24.9376 71.8108 25.03 71.8171 25.1221 71.8275C25.2103 71.842 25.2974 71.8547 25.3847 71.8669C25.4788 71.8846 25.5716 71.9063 25.663 71.9312C26.9984 72.2954 28.0324 73.4105 28.2786 74.7855C28.6303 76.7497 27.3185 78.6338 25.3544 78.9855C23.4803 79.3211 21.6801 78.1416 21.2134 76.3266C21.1909 76.2394 21.1705 76.1512 21.1544 76.0612C21.1279 75.913 21.1119 75.7654 21.1039 75.6187C20.3221 71.5533 18.876 70.3189 15.0165 69.6228C14.8308 69.609 14.6481 69.5807 14.4696 69.5392C13.1021 69.2214 11.9843 68.1188 11.7216 66.6516Z"
		fill="url(#paint1_linear_3197_56090)"
	/>
	<path
		fill-rule="evenodd"
		clip-rule="evenodd"
		d="M8 0H32C36.4183 0 40 3.5817 40 8V32C40 36.4183 36.4183 40 32 40H8C3.5817 40 0 36.4183 0 32V8C0 3.5817 3.5817 0 8 0ZM32 39C35.8598 39 39 35.8598 39 32V8C39 4.1402 35.8598 1 32 1H8C4.1402 1 1 4.1402 1 8V32C1 35.8598 4.1402 39 8 39H32ZM18.9044 24.9836C18.8906 25.1693 18.8623 25.352 18.8208 25.5305C18.503 26.898 17.4004 28.0158 15.9332 28.2785C13.969 28.6302 12.085 27.3183 11.7333 25.3542C11.3972 23.4771 12.5809 21.6741 14.4009 21.211C14.4853 21.1895 14.5705 21.1699 14.6575 21.1543C14.8077 21.1274 14.9572 21.1114 15.1057 21.1035C19.1282 20.3359 20.345 18.9558 21.0891 15.1549C21.0924 15.0625 21.0987 14.9701 21.1091 14.878C21.1236 14.7898 21.1363 14.7027 21.1485 14.6154C21.1662 14.5213 21.1879 14.4285 21.2128 14.3371C21.577 13.0017 22.6921 11.9677 24.0671 11.7215C26.0313 11.3698 27.9154 12.6816 28.2671 14.6457C28.6027 16.5198 27.4232 18.32 25.6082 18.7867C25.521 18.8092 25.4328 18.8296 25.3428 18.8457C25.1946 18.8722 25.047 18.8882 24.9003 18.8962C20.8349 19.678 19.6005 21.1241 18.9044 24.9836Z"
		fill="url(#paint2_linear_3197_56090)"
	/>
	<defs>
		<linearGradient
			id="paint0_linear_3197_56090"
			x1="40"
			y1="90"
			x2="4.76837e-06"
			y2="130"
			gradientUnits="userSpaceOnUse"
		>
			<stop offset="0.0612653" stop-color="#22A5ED" />
			<stop offset="0.342421" stop-color="#8DE39F" />
			<stop offset="0.566873" stop-color="#F7EF7E" />
			<stop offset="0.781875" stop-color="#FCAA5F" />
			<stop offset="1" stop-color="#DF5860" />
		</linearGradient>
		<linearGradient
			id="paint1_linear_3197_56090"
			x1="40"
			y1="46"
			x2="0"
			y2="86"
			gradientUnits="userSpaceOnUse"
		>
			<stop offset="0" stop-color="#21A5ED" />
			<stop offset="1" stop-color="#4DC3C5" />
		</linearGradient>
		<linearGradient
			id="paint2_linear_3197_56090"
			x1="40"
			y1="0"
			x2="0"
			y2="40"
			gradientUnits="userSpaceOnUse"
		>
			<stop offset="0" stop-color="#21A5ED" />
			<stop offset="1" stop-color="#4DC3C5" />
		</linearGradient>
	</defs>
</svg>
